<?xml version="1.0" encoding="UTF-8"?>
<svg xmlns="http://www.w3.org/2000/svg" xmlns:xlink="http://www.w3.org/1999/xlink" width="122.95pt" height="85.606pt" viewBox="0 0 122.95 85.606">
<defs>
<clipPath id="clip-0">
<path clip-rule="nonzero" d="M 0.539062 0.28125 L 60 0.28125 L 60 84.933594 L 0.539062 84.933594 Z M 0.539062 0.28125 "/>
</clipPath>
<clipPath id="clip-1">
<path clip-rule="nonzero" d="M 59 0.28125 L 119.058594 0.28125 L 119.058594 84.933594 L 59 84.933594 Z M 59 0.28125 "/>
</clipPath>
<clipPath id="clip-2">
<path clip-rule="nonzero" d="M 38 21 L 81 21 L 81 64 L 38 64 Z M 38 21 "/>
</clipPath>
<clipPath id="clip-3">
<path clip-rule="nonzero" d="M 80.960938 42.605469 C 80.960938 30.917969 71.484375 21.445312 59.796875 21.445312 C 48.109375 21.445312 38.636719 30.917969 38.636719 42.605469 C 38.636719 54.292969 48.109375 63.769531 59.796875 63.769531 C 71.484375 63.769531 80.960938 54.292969 80.960938 42.605469 Z M 80.960938 42.605469 "/>
</clipPath>
<clipPath id="clip-4">
<path clip-rule="nonzero" d="M 0.257812 0 L 120 0 L 120 85.214844 L 0.257812 85.214844 Z M 0.257812 0 "/>
</clipPath>
</defs>
<g clip-path="url(#clip-0)">
<path fill-rule="nonzero" fill="rgb(0%, 47.840881%, 19.999695%)" fill-opacity="1" d="M 0.539062 84.933594 L 0.539062 0.28125 L 59.796875 0.28125 L 59.796875 84.933594 Z M 0.539062 84.933594 "/>
</g>
<g clip-path="url(#clip-1)">
<path fill-rule="nonzero" fill="rgb(100%, 100%, 100%)" fill-opacity="1" d="M 59.796875 84.933594 L 59.796875 0.28125 L 119.058594 0.28125 L 119.058594 84.933594 Z M 59.796875 84.933594 "/>
</g>
<g clip-path="url(#clip-2)">
<g clip-path="url(#clip-3)">
<path fill-rule="evenodd" fill="rgb(78.431702%, 6.27594%, 18.03894%)" fill-opacity="1" d="M 81.171875 42.605469 C 81.171875 30.800781 71.601562 21.234375 59.796875 21.234375 C 47.992188 21.234375 38.425781 30.800781 38.425781 42.605469 C 38.425781 54.410156 47.992188 63.980469 59.796875 63.980469 C 71.601562 63.980469 81.171875 54.410156 81.171875 42.605469 Z M 81.664062 42.605469 C 81.664062 33.257812 74.085938 25.675781 64.734375 25.675781 C 55.386719 25.675781 47.804688 33.257812 47.804688 42.605469 C 47.804688 51.957031 55.386719 59.535156 64.734375 59.535156 C 74.085938 59.535156 81.664062 51.957031 81.664062 42.605469 Z M 81.664062 42.605469 "/>
</g>
</g>
<path fill-rule="nonzero" fill="rgb(78.431702%, 6.27594%, 18.03894%)" fill-opacity="1" d="M 71.625 32.542969 L 67.105469 38.761719 L 59.796875 36.386719 L 64.316406 42.605469 L 59.796875 48.828125 L 67.105469 46.449219 L 71.625 52.671875 L 71.625 44.984375 L 78.9375 42.605469 L 71.625 40.230469 Z M 71.625 32.542969 "/>
<g clip-path="url(#clip-4)">
<path fill="none" stroke-width="0.56693" stroke-linecap="butt" stroke-linejoin="miter" stroke="rgb(39.99939%, 39.99939%, 39.99939%)" stroke-opacity="1" stroke-miterlimit="10" d="M -59.531394 -42.521499 L -59.531394 42.520456 L 59.533621 42.520456 L 59.533621 -42.521499 Z M -59.531394 -42.521499 " transform="matrix(0.995419, 0, 0, -0.995419, 59.79772, 42.606903)"/>
</g>
</svg>
