<?xml version="1.0" encoding="UTF-8"?>
<svg xmlns="http://www.w3.org/2000/svg" xmlns:xlink="http://www.w3.org/1999/xlink" width="139.963pt" height="85.606pt" viewBox="0 0 139.963 85.606">
<defs>
<clipPath id="clip-0">
<path clip-rule="nonzero" d="M 0.582031 0.28125 L 136.035156 0.28125 L 136.035156 29 L 0.582031 29 Z M 0.582031 0.28125 "/>
</clipPath>
<clipPath id="clip-1">
<path clip-rule="nonzero" d="M 0.582031 28 L 136.035156 28 L 136.035156 57 L 0.582031 57 Z M 0.582031 28 "/>
</clipPath>
<clipPath id="clip-2">
<path clip-rule="nonzero" d="M 0.582031 56 L 136.035156 56 L 136.035156 84.933594 L 0.582031 84.933594 Z M 0.582031 56 "/>
</clipPath>
<clipPath id="clip-3">
<path clip-rule="nonzero" d="M 0.300781 0 L 137 0 L 137 85.214844 L 0.300781 85.214844 Z M 0.300781 0 "/>
</clipPath>
</defs>
<g clip-path="url(#clip-0)">
<path fill-rule="nonzero" fill="rgb(42.353821%, 67.449951%, 89.411926%)" fill-opacity="1" d="M 0.582031 28.5 L 0.582031 0.28125 L 136.035156 0.28125 L 136.035156 28.5 Z M 0.582031 28.5 "/>
</g>
<g clip-path="url(#clip-1)">
<path fill-rule="nonzero" fill="rgb(100%, 100%, 100%)" fill-opacity="1" d="M 0.582031 56.714844 L 0.582031 28.5 L 136.035156 28.5 L 136.035156 56.714844 Z M 0.582031 56.714844 "/>
</g>
<g clip-path="url(#clip-2)">
<path fill-rule="nonzero" fill="rgb(42.353821%, 67.449951%, 89.411926%)" fill-opacity="1" d="M 0.582031 84.933594 L 0.582031 56.714844 L 136.035156 56.714844 L 136.035156 84.933594 Z M 0.582031 84.933594 "/>
</g>
<path fill-rule="nonzero" fill="rgb(100%, 80.39093%, 0%)" fill-opacity="1" stroke-width="0.18916" stroke-linecap="butt" stroke-linejoin="miter" stroke="rgb(51.371765%, 22.3526%, 12.940979%)" stroke-opacity="1" stroke-miterlimit="10" d="M -0.539225 -0.222241 L 4.303273 -10.766642 C 4.303273 -10.766642 4.385682 -10.966778 4.519105 -10.911839 C 4.652529 -10.8569 4.57012 -10.656764 4.57012 -10.656764 L 0.536014 0.221197 M 0.422211 -3.879622 C 0.363347 -5.484631 1.348329 -6.363658 1.218829 -7.796002 C 1.08933 -9.228345 1.8781 -10.04066 2.058614 -10.593976 C 2.243053 -11.151217 1.862403 -11.484776 2.02722 -11.563261 C 2.192038 -11.64567 2.549143 -11.206156 2.431416 -10.413462 C 2.313689 -9.620768 1.713282 -9.385314 1.854554 -7.635108 C 1.995827 -5.888827 1.140345 -5.480707 1.348329 -3.883546 " transform="matrix(0.995419, 0, 0, -0.995419, 68.310192, 42.606903)"/>
<path fill-rule="nonzero" fill="rgb(51.371765%, 22.3526%, 12.940979%)" fill-opacity="1" d="M 69.039062 46.738281 C 69.117188 48.273438 69.984375 48.949219 69.816406 50.347656 C 70.191406 49.242188 69.285156 48.386719 69.335938 46.753906 M 68.042969 42.734375 L 71.34375 49.941406 L 68.578125 42.511719 "/>
<path fill-rule="nonzero" fill="rgb(100%, 80.39093%, 0%)" fill-opacity="1" stroke-width="0.18916" stroke-linecap="butt" stroke-linejoin="miter" stroke="rgb(51.371765%, 22.3526%, 12.940979%)" stroke-opacity="1" stroke-miterlimit="10" d="M -0.582392 0.00144038 L -0.146802 -11.59073 C -0.146802 -11.59073 -0.146802 -11.810487 -0.00160577 -11.810487 C 0.143591 -11.810487 0.143591 -11.59073 0.143591 -11.59073 L 0.583104 0.00144038 M -1.096466 -3.746198 C -1.763584 -5.206011 -1.190647 -6.395052 -1.857766 -7.670426 C -2.524885 -8.941876 -2.104992 -9.993569 -2.152083 -10.578279 C -2.195249 -11.159065 -2.674005 -11.323883 -2.552354 -11.457307 C -2.430703 -11.594655 -1.932326 -11.323883 -1.736115 -10.55081 C -1.543828 -9.773813 -2.006887 -9.326451 -1.210268 -7.764608 C -0.409726 -6.202765 -1.045451 -5.500328 -0.240984 -4.103303 " transform="matrix(0.995419, 0, 0, -0.995419, 68.310192, 42.606903)"/>
<path fill-rule="nonzero" fill="rgb(51.371765%, 22.3526%, 12.940979%)" fill-opacity="1" d="M 67.402344 46.703125 C 66.886719 48.148438 67.429688 49.109375 66.738281 50.332031 C 67.507812 49.457031 67 48.320312 67.671875 46.832031 M 68.015625 42.621094 L 68.304688 50.542969 L 68.59375 42.621094 "/>
<path fill-rule="nonzero" fill="rgb(100%, 80.39093%, 0%)" fill-opacity="1" stroke-width="0.18916" stroke-linecap="butt" stroke-linejoin="miter" stroke="rgb(51.371765%, 22.3526%, 12.940979%)" stroke-opacity="1" stroke-miterlimit="10" d="M -0.539225 0.221197 L -4.569408 -10.65284 C -4.569408 -10.65284 -4.655741 -10.8569 -4.518393 -10.911839 C -4.384969 -10.966778 -4.30256 -10.766642 -4.30256 -10.766642 L 0.536014 -0.222241 M -2.4464 -3.039837 C -3.619744 -4.134696 -3.545184 -5.453237 -4.651816 -6.375431 C -5.754525 -7.297625 -5.770222 -8.423878 -6.037069 -8.949725 C -6.299992 -9.471647 -6.802294 -9.436329 -6.74343 -9.608995 C -6.684567 -9.781661 -6.119478 -9.722798 -5.644646 -9.083148 C -5.16589 -8.439575 -5.424889 -7.847017 -4.086728 -6.712914 C -2.75249 -5.574888 -3.070352 -4.680164 -1.794978 -3.699107 " transform="matrix(0.995419, 0, 0, -0.995419, 68.310192, 42.606903)"/>
<path fill-rule="nonzero" fill="rgb(51.371765%, 22.3526%, 12.940979%)" fill-opacity="1" d="M 65.902344 46.042969 C 64.875 47.183594 65.007812 48.277344 63.902344 49.144531 C 64.945312 48.628906 64.914062 47.382812 66.101562 46.265625 M 68.03125 42.507812 L 65.269531 49.9375 L 68.566406 42.726562 "/>
<path fill-rule="nonzero" fill="rgb(100%, 80.39093%, 0%)" fill-opacity="1" stroke-width="0.18916" stroke-linecap="butt" stroke-linejoin="miter" stroke="rgb(51.371765%, 22.3526%, 12.940979%)" stroke-opacity="1" stroke-miterlimit="10" d="M -0.409726 0.40956 L -8.301349 -8.094243 C -8.301349 -8.094243 -8.454394 -8.247288 -8.352364 -8.349318 C -8.250334 -8.455272 -8.093365 -8.298303 -8.093365 -8.298303 L 0.410438 -0.410604 M -3.423533 -1.874341 C -4.926512 -2.431581 -5.366026 -3.68341 -6.735582 -4.111151 C -8.109062 -4.538892 -8.556424 -5.574888 -8.999862 -5.955538 C -9.443299 -6.340113 -9.89851 -6.116432 -9.906358 -6.296946 C -9.918131 -6.477461 -9.376588 -6.642278 -8.689848 -6.230234 C -8.003108 -5.81819 -8.01488 -5.174617 -6.343159 -4.636998 C -4.675362 -4.095454 -4.628271 -3.149715 -3.074277 -2.733747 " transform="matrix(0.995419, 0, 0, -0.995419, 68.310192, 42.606903)"/>
<path fill-rule="nonzero" fill="rgb(51.371765%, 22.3526%, 12.940979%)" fill-opacity="1" d="M 64.773438 44.863281 C 63.386719 45.519531 63.089844 46.582031 61.734375 46.960938 C 62.898438 46.882812 63.34375 45.71875 64.871094 45.144531 M 68.089844 42.40625 L 62.695312 48.214844 L 68.5 42.816406 "/>
<path fill-rule="nonzero" fill="rgb(100%, 80.39093%, 0%)" fill-opacity="1" stroke-width="0.18916" stroke-linecap="butt" stroke-linejoin="miter" stroke="rgb(51.371765%, 22.3526%, 12.940979%)" stroke-opacity="1" stroke-miterlimit="10" d="M -0.221363 0.53906 L -10.765764 -4.303438 C -10.765764 -4.303438 -10.969824 -4.385847 -10.910961 -4.519271 C -10.856022 -4.652695 -10.655886 -4.570286 -10.655886 -4.570286 L 0.222075 -0.536179 M -3.878743 -0.422376 C -5.483753 -0.363513 -6.366704 -1.348494 -7.799048 -1.218995 C -9.227467 -1.089495 -10.039782 -1.878265 -10.597023 -2.05878 C -11.154263 -2.243218 -11.483898 -1.862568 -11.566307 -2.027386 C -11.644792 -2.188279 -11.205278 -2.549308 -10.412584 -2.431581 C -9.61989 -2.313854 -9.384436 -1.713447 -7.638154 -1.85472 C -5.887948 -1.995992 -5.479829 -1.14051 -3.886592 -1.348494 " transform="matrix(0.995419, 0, 0, -0.995419, 68.310192, 42.606903)"/>
<path fill-rule="nonzero" fill="rgb(51.371765%, 22.3526%, 12.940979%)" fill-opacity="1" d="M 64.175781 43.335938 C 62.644531 43.414062 61.964844 44.28125 60.570312 44.113281 C 61.671875 44.488281 62.53125 43.582031 64.160156 43.632812 M 68.183594 42.339844 L 60.976562 45.636719 L 68.40625 42.875 "/>
<path fill-rule="nonzero" fill="rgb(100%, 80.39093%, 0%)" fill-opacity="1" stroke-width="0.18916" stroke-linecap="butt" stroke-linejoin="miter" stroke="rgb(51.371765%, 22.3526%, 12.940979%)" stroke-opacity="1" stroke-miterlimit="10" d="M -0.00160577 0.582226 L -11.593777 0.146637 C -11.593777 0.146637 -11.809609 0.146637 -11.809609 0.00144038 C -11.809609 -0.143756 -11.593777 -0.143756 -11.593777 -0.143756 L -0.00160577 -0.579345 M -3.74532 1.0963 C -5.205133 1.763419 -6.398098 1.190482 -7.669548 1.8576 C -8.944922 2.524719 -9.992691 2.104827 -10.577401 2.151918 C -11.162111 2.195084 -11.323005 2.67384 -11.460353 2.552189 C -11.593777 2.430538 -11.326929 1.932161 -10.549932 1.735949 C -9.772935 1.543662 -9.325573 2.006721 -7.76373 1.210103 C -6.201887 0.40956 -5.49945 1.045285 -4.106349 0.240818 " transform="matrix(0.995419, 0, 0, -0.995419, 68.310192, 42.606903)"/>
<path fill-rule="nonzero" fill="rgb(51.371765%, 22.3526%, 12.940979%)" fill-opacity="1" d="M 64.214844 41.699219 C 62.769531 41.183594 61.808594 41.726562 60.582031 41.035156 C 61.460938 41.804688 62.597656 41.296875 64.085938 41.96875 M 68.296875 42.3125 L 60.375 42.601562 L 68.296875 42.890625 "/>
<path fill-rule="nonzero" fill="rgb(100%, 80.39093%, 0%)" fill-opacity="1" stroke-width="0.18916" stroke-linecap="butt" stroke-linejoin="miter" stroke="rgb(51.371765%, 22.3526%, 12.940979%)" stroke-opacity="1" stroke-miterlimit="10" d="M 0.222075 0.53906 L -10.655886 4.569242 C -10.655886 4.569242 -10.856022 4.655575 -10.910961 4.518227 C -10.9659 4.384804 -10.765764 4.302395 -10.765764 4.302395 L -0.221363 -0.536179 M -3.042883 2.446235 C -4.133818 3.619579 -5.452359 3.545019 -6.374553 4.651651 C -7.296746 5.754359 -8.426924 5.770056 -8.948847 6.036904 C -9.470769 6.299827 -9.439375 6.802128 -9.608117 6.743265 C -9.780783 6.684401 -9.72192 6.119313 -9.08227 5.644481 C -8.438697 5.165725 -7.846138 5.424724 -6.712036 4.086562 C -5.57401 2.752325 -4.679286 3.070187 -3.702153 1.794813 " transform="matrix(0.995419, 0, 0, -0.995419, 68.310192, 42.606903)"/>
<path fill-rule="nonzero" fill="rgb(51.371765%, 22.3526%, 12.940979%)" fill-opacity="1" d="M 64.871094 40.199219 C 63.734375 39.171875 62.640625 39.304688 61.773438 38.199219 C 62.289062 39.242188 63.535156 39.210938 64.652344 40.398438 M 68.410156 42.328125 L 60.980469 39.5625 L 68.1875 42.863281 "/>
<path fill-rule="nonzero" fill="rgb(100%, 80.39093%, 0%)" fill-opacity="1" stroke-width="0.18916" stroke-linecap="butt" stroke-linejoin="miter" stroke="rgb(51.371765%, 22.3526%, 12.940979%)" stroke-opacity="1" stroke-miterlimit="10" d="M 0.410438 0.40956 L -8.093365 8.301184 C -8.093365 8.301184 -8.24641 8.454228 -8.352364 8.352199 C -8.454394 8.250169 -8.297425 8.093199 -8.297425 8.093199 L -0.409726 -0.410604 M -1.873463 3.423368 C -2.434627 4.926347 -3.682532 5.365861 -4.110273 6.735416 C -4.538014 8.108896 -5.57401 8.556258 -5.958585 8.999696 C -6.339235 9.443134 -6.115554 9.898345 -6.296068 9.906193 C -6.480507 9.917966 -6.6414 9.376422 -6.229356 8.689682 C -5.821237 8.002942 -5.173739 8.014715 -4.63612 6.346918 C -4.0985 4.675196 -3.148837 4.628106 -2.732869 3.074111 " transform="matrix(0.995419, 0, 0, -0.995419, 68.310192, 42.606903)"/>
<path fill-rule="nonzero" fill="rgb(51.371765%, 22.3526%, 12.940979%)" fill-opacity="1" d="M 66.054688 39.070312 C 65.398438 37.683594 64.335938 37.386719 63.957031 36.03125 C 64.035156 37.195312 65.195312 37.640625 65.773438 39.167969 M 68.507812 42.386719 L 62.703125 36.992188 L 68.101562 42.796875 "/>
<path fill-rule="nonzero" fill="rgb(100%, 80.39093%, 0%)" fill-opacity="1" stroke-width="0.18916" stroke-linecap="butt" stroke-linejoin="miter" stroke="rgb(51.371765%, 22.3526%, 12.940979%)" stroke-opacity="1" stroke-miterlimit="10" d="M 0.536014 0.221197 L -4.30256 10.765599 C -4.30256 10.765599 -4.384969 10.969659 -4.518393 10.910795 C -4.655741 10.855856 -4.569408 10.655721 -4.569408 10.655721 L -0.535301 -0.222241 M -0.421498 3.878578 C -0.362635 5.483588 -1.347616 6.366539 -1.218117 7.798882 C -1.092541 9.231226 -1.877387 10.039617 -2.061826 10.596857 C -2.24234 11.154098 -1.86169 11.487657 -2.026508 11.566142 C -2.191325 11.644626 -2.54843 11.205113 -2.430703 10.412418 C -2.312976 9.619724 -1.712569 9.384271 -1.853842 7.637989 C -1.995114 5.887783 -1.139632 5.479663 -1.347616 3.886427 " transform="matrix(0.995419, 0, 0, -0.995419, 68.310192, 42.606903)"/>
<path fill-rule="nonzero" fill="rgb(51.371765%, 22.3526%, 12.940979%)" fill-opacity="1" d="M 67.582031 38.472656 C 67.503906 36.941406 66.632812 36.261719 66.804688 34.867188 C 66.429688 35.96875 67.335938 36.828125 67.28125 38.457031 M 68.578125 42.480469 L 65.277344 35.273438 L 68.042969 42.703125 "/>
<path fill-rule="nonzero" fill="rgb(100%, 80.39093%, 0%)" fill-opacity="1" stroke-width="0.18916" stroke-linecap="butt" stroke-linejoin="miter" stroke="rgb(51.371765%, 22.3526%, 12.940979%)" stroke-opacity="1" stroke-miterlimit="10" d="M 0.583104 0.00144038 L 0.143591 11.593611 C 0.143591 11.593611 0.147515 11.809444 -0.00160577 11.809444 C -0.146802 11.809444 -0.146802 11.593611 -0.146802 11.593611 L -0.582392 0.00144038 M 1.097178 3.745154 C 1.764297 5.204967 1.19136 6.397933 1.858479 7.669383 C 2.521673 8.944757 2.105705 9.992526 2.152796 10.577236 C 2.195962 11.161946 2.674718 11.322839 2.553067 11.460187 C 2.431416 11.593611 1.933039 11.326764 1.736827 10.549766 C 1.54454 9.772769 2.007599 9.325407 1.207057 7.763564 C 0.410438 6.201721 1.042239 5.499284 0.241696 4.106183 " transform="matrix(0.995419, 0, 0, -0.995419, 68.310192, 42.606903)"/>
<path fill-rule="nonzero" fill="rgb(51.371765%, 22.3526%, 12.940979%)" fill-opacity="1" d="M 69.21875 38.511719 C 69.734375 37.066406 69.191406 36.105469 69.882812 34.878906 C 69.113281 35.757812 69.621094 36.894531 68.949219 38.382812 M 68.605469 42.59375 L 68.316406 34.671875 L 68.027344 42.59375 "/>
<path fill-rule="nonzero" fill="rgb(100%, 80.39093%, 0%)" fill-opacity="1" stroke-width="0.18916" stroke-linecap="butt" stroke-linejoin="miter" stroke="rgb(51.371765%, 22.3526%, 12.940979%)" stroke-opacity="1" stroke-miterlimit="10" d="M 0.536014 -0.222241 L 4.57012 10.655721 C 4.57012 10.655721 4.652529 10.855856 4.519105 10.910795 C 4.385682 10.965735 4.303273 10.765599 4.303273 10.765599 L -0.535301 0.221197 M 2.447113 3.042717 C 3.620457 4.133653 3.545897 5.456118 4.652529 6.374387 C 5.755237 7.296581 5.770934 8.426759 6.033858 8.948681 C 6.300705 9.470604 6.803006 9.43921 6.744143 9.607952 C 6.685279 9.780618 6.120191 9.725678 5.641435 9.082105 C 5.166603 8.438532 5.425602 7.845973 4.08744 6.711871 C 2.753203 5.573845 3.071065 4.679121 1.795691 3.701988 " transform="matrix(0.995419, 0, 0, -0.995419, 68.310192, 42.606903)"/>
<path fill-rule="nonzero" fill="rgb(51.371765%, 22.3526%, 12.940979%)" fill-opacity="1" d="M 70.714844 39.167969 C 71.746094 38.03125 71.609375 36.9375 72.71875 36.070312 C 71.671875 36.585938 71.707031 37.828125 70.515625 38.949219 M 68.589844 42.707031 L 71.351562 35.277344 L 68.054688 42.484375 "/>
<path fill-rule="nonzero" fill="rgb(100%, 80.39093%, 0%)" fill-opacity="1" stroke-width="0.18916" stroke-linecap="butt" stroke-linejoin="miter" stroke="rgb(51.371765%, 22.3526%, 12.940979%)" stroke-opacity="1" stroke-miterlimit="10" d="M 0.410438 -0.410604 L 8.298137 8.093199 C 8.298137 8.093199 8.455107 8.246244 8.353077 8.352199 C 8.247122 8.454228 8.094078 8.297259 8.094078 8.297259 L -0.409726 0.40956 M 3.424246 1.873297 C 4.927225 2.434462 5.362815 3.682367 6.736294 4.110108 C 8.109774 4.537848 8.557136 5.573845 9.000574 5.958419 C 9.444012 6.339069 9.899223 6.115388 9.907071 6.295903 C 9.918844 6.480342 9.373376 6.641235 8.686636 6.229191 C 7.999896 5.821071 8.015593 5.173573 6.343872 4.635954 C 4.676075 4.098335 4.62506 3.148672 3.074989 2.732703 " transform="matrix(0.995419, 0, 0, -0.995419, 68.310192, 42.606903)"/>
<path fill-rule="nonzero" fill="rgb(51.371765%, 22.3526%, 12.940979%)" fill-opacity="1" d="M 71.847656 40.351562 C 73.234375 39.695312 73.53125 38.632812 74.886719 38.253906 C 73.722656 38.332031 73.277344 39.492188 71.75 40.070312 M 68.53125 42.804688 L 73.925781 37 L 68.121094 42.398438 "/>
<path fill-rule="nonzero" fill="rgb(100%, 80.39093%, 0%)" fill-opacity="1" stroke-width="0.18916" stroke-linecap="butt" stroke-linejoin="miter" stroke="rgb(51.371765%, 22.3526%, 12.940979%)" stroke-opacity="1" stroke-miterlimit="10" d="M 0.222075 -0.536179 L 10.766477 4.302395 C 10.766477 4.302395 10.966613 4.384804 10.911674 4.518227 C 10.856734 4.655575 10.656599 4.569242 10.656599 4.569242 L -0.221363 0.535135 M 3.879456 0.421333 C 5.484466 0.362469 6.363493 1.347451 7.795836 1.217951 C 9.22818 1.092376 10.040495 1.877222 10.597735 2.06166 C 11.151051 2.242175 11.484611 1.861525 11.563095 2.026342 C 11.645504 2.19116 11.205991 2.548265 10.413297 2.430538 C 9.620602 2.316735 9.385149 1.712404 7.634943 1.853676 C 5.888661 1.994948 5.480541 1.139467 3.88338 1.347451 " transform="matrix(0.995419, 0, 0, -0.995419, 68.310192, 42.606903)"/>
<path fill-rule="nonzero" fill="rgb(51.371765%, 22.3526%, 12.940979%)" fill-opacity="1" d="M 72.441406 41.878906 C 73.976562 41.800781 74.65625 40.929688 76.050781 41.101562 C 74.945312 40.726562 74.089844 41.628906 72.457031 41.578125 M 68.4375 42.875 L 75.644531 39.574219 L 68.214844 42.339844 "/>
<path fill-rule="nonzero" fill="rgb(100%, 80.39093%, 0%)" fill-opacity="1" stroke-width="0.18916" stroke-linecap="butt" stroke-linejoin="miter" stroke="rgb(51.371765%, 22.3526%, 12.940979%)" stroke-opacity="1" stroke-miterlimit="10" d="M -0.00160577 -0.58327 L 11.590565 -0.143756 C 11.590565 -0.143756 11.810322 -0.143756 11.810322 0.00144038 C 11.810322 0.146637 11.590565 0.146637 11.590565 0.146637 L -0.00160577 0.582226 M 3.746032 -1.093419 C 5.205845 -1.764462 6.394887 -1.187601 7.670261 -1.85472 C 8.941711 -2.521839 9.993404 -2.10587 10.578114 -2.152961 C 11.1589 -2.196128 11.323718 -2.674883 11.457141 -2.553232 C 11.594489 -2.431581 11.323718 -1.933204 10.550645 -1.736993 C 9.773647 -1.544706 9.326285 -2.007765 7.764442 -1.207222 C 6.202599 -0.410604 5.500163 -1.042404 4.103137 -0.241862 " transform="matrix(0.995419, 0, 0, -0.995419, 68.310192, 42.606903)"/>
<path fill-rule="nonzero" fill="rgb(51.371765%, 22.3526%, 12.940979%)" fill-opacity="1" d="M 72.40625 43.515625 C 73.851562 44.03125 74.8125 43.488281 76.035156 44.179688 C 75.160156 43.410156 74.023438 43.917969 72.535156 43.246094 M 68.324219 42.902344 L 76.246094 42.613281 L 68.324219 42.324219 "/>
<path fill-rule="nonzero" fill="rgb(100%, 80.39093%, 0%)" fill-opacity="1" stroke-width="0.18916" stroke-linecap="butt" stroke-linejoin="miter" stroke="rgb(51.371765%, 22.3526%, 12.940979%)" stroke-opacity="1" stroke-miterlimit="10" d="M -0.221363 -0.536179 L 10.652674 -4.570286 C 10.652674 -4.570286 10.856734 -4.652695 10.911674 -4.519271 C 10.966613 -4.385847 10.766477 -4.303438 10.766477 -4.303438 L 0.222075 0.535135 M 3.039671 -2.447278 C 4.134531 -3.620622 5.453072 -3.546062 6.375265 -4.64877 C 7.297459 -5.755403 8.423713 -5.7711 8.949559 -6.034023 C 9.471482 -6.30087 9.436164 -6.803172 9.60883 -6.744308 C 9.781496 -6.685445 9.722632 -6.120356 9.082983 -5.6416 C 8.43941 -5.166768 7.846851 -5.425768 6.712749 -4.087606 C 5.574723 -2.753368 4.679999 -3.067306 3.698942 -1.791932 " transform="matrix(0.995419, 0, 0, -0.995419, 68.310192, 42.606903)"/>
<path fill-rule="nonzero" fill="rgb(51.371765%, 22.3526%, 12.940979%)" fill-opacity="1" d="M 71.75 45.011719 C 72.886719 46.042969 73.980469 45.90625 74.847656 47.015625 C 74.332031 45.96875 73.085938 46.003906 71.96875 44.8125 M 68.210938 42.886719 L 75.640625 45.648438 L 68.433594 42.351562 "/>
<path fill-rule="nonzero" fill="rgb(100%, 80.39093%, 0%)" fill-opacity="1" stroke-width="0.18916" stroke-linecap="butt" stroke-linejoin="miter" stroke="rgb(51.371765%, 22.3526%, 12.940979%)" stroke-opacity="1" stroke-miterlimit="10" d="M -0.409726 -0.410604 L 8.094078 -8.298303 C 8.094078 -8.298303 8.247122 -8.455272 8.349152 -8.353242 C 8.455107 -8.247288 8.298137 -8.094243 8.298137 -8.094243 L 0.410438 0.40956 M 1.874175 -3.424411 C 2.431416 -4.927391 3.683245 -5.36298 4.110986 -6.73646 C 4.538727 -8.10994 5.574723 -8.557302 5.955373 -9.00074 C 6.339947 -9.444177 6.116266 -9.899388 6.296781 -9.907236 C 6.477295 -9.919009 6.642113 -9.373541 6.230069 -8.686801 C 5.818025 -8.000061 5.174452 -8.015758 4.636832 -6.344037 C 4.095289 -4.67624 3.14955 -4.625225 2.733581 -3.075155 " transform="matrix(0.995419, 0, 0, -0.995419, 68.310192, 42.606903)"/>
<path fill-rule="nonzero" fill="rgb(51.371765%, 22.3526%, 12.940979%)" fill-opacity="1" d="M 70.566406 46.144531 C 71.222656 47.53125 72.285156 47.828125 72.664062 49.183594 C 72.585938 48.019531 71.421875 47.574219 70.847656 46.046875 M 68.113281 42.824219 L 73.917969 48.222656 L 68.519531 42.417969 "/>
<path fill-rule="nonzero" fill="rgb(100%, 80.39093%, 0%)" fill-opacity="1" stroke-width="0.18916" stroke-linecap="butt" stroke-linejoin="miter" stroke="rgb(51.371765%, 22.3526%, 12.940979%)" stroke-opacity="1" stroke-miterlimit="10" d="M -0.539225 -0.222241 L 4.303273 -10.766642 C 4.303273 -10.766642 4.385682 -10.966778 4.519105 -10.911839 C 4.652529 -10.8569 4.57012 -10.656764 4.57012 -10.656764 L 0.536014 0.221197 M 0.422211 -3.879622 C 0.363347 -5.484631 1.348329 -6.363658 1.218829 -7.796002 C 1.08933 -9.228345 1.8781 -10.04066 2.058614 -10.593976 C 2.243053 -11.151217 1.862403 -11.484776 2.02722 -11.563261 C 2.192038 -11.64567 2.549143 -11.206156 2.431416 -10.413462 C 2.313689 -9.620768 1.713282 -9.385314 1.854554 -7.635108 C 1.995827 -5.888827 1.140345 -5.480707 1.348329 -3.883546 " transform="matrix(0.995419, 0, 0, -0.995419, 68.310192, 42.606903)"/>
<path fill-rule="nonzero" fill="rgb(51.371765%, 22.3526%, 12.940979%)" fill-opacity="1" d="M 69.039062 46.738281 C 69.117188 48.273438 69.984375 48.949219 69.816406 50.347656 C 70.191406 49.242188 69.285156 48.386719 69.335938 46.753906 M 68.042969 42.734375 L 71.34375 49.941406 L 68.578125 42.511719 "/>
<path fill-rule="nonzero" fill="rgb(100%, 80.39093%, 0%)" fill-opacity="1" stroke-width="0.25534" stroke-linecap="butt" stroke-linejoin="miter" stroke="rgb(51.371765%, 22.3526%, 12.940979%)" stroke-opacity="1" stroke-miterlimit="10" d="M 4.742786 0.00144038 C 4.742786 -2.619944 2.619779 -4.742952 -0.00160577 -4.742952 C -2.619066 -4.742952 -4.742074 -2.619944 -4.742074 0.00144038 C -4.742074 2.618901 -2.619066 4.741908 -0.00160577 4.741908 C 2.619779 4.741908 4.742786 2.618901 4.742786 0.00144038 Z M 4.742786 0.00144038 " transform="matrix(0.995419, 0, 0, -0.995419, 68.310192, 42.606903)"/>
<path fill-rule="nonzero" fill="rgb(51.371765%, 22.3526%, 12.940979%)" fill-opacity="1" d="M 69.914062 41.601562 C 69.59375 41.601562 69.285156 41.742188 69.105469 42.03125 C 69.464844 42.355469 70.265625 42.390625 70.808594 41.992188 C 70.574219 41.738281 70.234375 41.601562 69.914062 41.601562 Z M 69.90625 41.675781 C 70.222656 41.667969 70.511719 41.8125 70.554688 41.957031 C 70.191406 42.355469 69.613281 42.320312 69.253906 42.03125 C 69.410156 41.777344 69.664062 41.679688 69.90625 41.675781 Z M 69.90625 41.675781 "/>
<path fill-rule="nonzero" fill="rgb(51.371765%, 22.3526%, 12.940979%)" fill-opacity="1" d="M 69.972656 41.378906 C 69.503906 41.378906 69.394531 41.488281 69.179688 41.667969 C 68.960938 41.847656 68.851562 41.8125 68.816406 41.847656 C 68.78125 41.882812 68.816406 41.992188 68.890625 41.957031 C 68.960938 41.921875 69.105469 41.847656 69.324219 41.667969 C 69.539062 41.484375 69.757812 41.488281 69.972656 41.488281 C 70.625 41.488281 70.988281 42.027344 71.058594 41.992188 C 71.132812 41.957031 70.699219 41.378906 69.972656 41.378906 Z M 69.972656 41.378906 "/>
<path fill-rule="nonzero" fill="rgb(51.371765%, 22.3526%, 12.940979%)" fill-opacity="1" d="M 71.277344 41.59375 C 70.445312 40.871094 69.394531 40.761719 68.816406 41.304688 C 68.675781 41.496094 68.582031 41.699219 68.546875 41.910156 C 68.472656 42.320312 68.601562 42.765625 68.925781 43.222656 C 68.890625 43.222656 68.816406 43.257812 68.78125 43.292969 C 68.492188 42.746094 68.390625 42.179688 68.484375 41.644531 C 68.511719 41.503906 68.550781 41.367188 68.597656 41.234375 C 69.394531 40.582031 70.480469 40.507812 71.277344 41.59375 Z M 71.277344 41.59375 "/>
<path fill-rule="nonzero" fill="rgb(51.371765%, 22.3526%, 12.940979%)" fill-opacity="1" d="M 70.230469 41.957031 C 70.230469 42.136719 70.082031 42.28125 69.902344 42.28125 C 69.722656 42.28125 69.574219 42.136719 69.574219 41.957031 C 69.574219 41.773438 69.722656 41.628906 69.902344 41.628906 C 70.082031 41.628906 70.230469 41.773438 70.230469 41.957031 Z M 70.230469 41.957031 "/>
<path fill-rule="nonzero" fill="rgb(51.371765%, 22.3526%, 12.940979%)" fill-opacity="1" d="M 70.84375 42.171875 C 70.226562 42.644531 69.613281 42.609375 69.25 42.390625 C 68.890625 42.171875 68.890625 42.101562 68.960938 42.101562 C 69.035156 42.101562 69.105469 42.171875 69.394531 42.316406 C 69.683594 42.464844 70.117188 42.464844 70.84375 42.171875 Z M 70.84375 42.171875 "/>
<path fill-rule="nonzero" fill="rgb(51.371765%, 22.3526%, 12.940979%)" fill-opacity="1" d="M 67.589844 43.257812 C 67.4375 43.285156 67.324219 43.421875 67.324219 43.578125 C 67.324219 43.757812 67.476562 43.902344 67.652344 43.902344 C 67.761719 43.902344 67.859375 43.851562 67.917969 43.765625 C 68.042969 43.859375 68.21875 43.867188 68.308594 43.871094 C 68.324219 43.871094 68.34375 43.871094 68.351562 43.871094 C 68.445312 43.867188 68.617188 43.859375 68.742188 43.765625 C 68.804688 43.851562 68.902344 43.902344 69.007812 43.902344 C 69.1875 43.902344 69.335938 43.757812 69.335938 43.578125 C 69.335938 43.421875 69.226562 43.285156 69.070312 43.257812 C 69.160156 43.289062 69.214844 43.371094 69.214844 43.464844 C 69.214844 43.582031 69.117188 43.679688 68.996094 43.679688 C 68.882812 43.679688 68.789062 43.589844 68.78125 43.472656 C 68.746094 43.542969 68.605469 43.753906 68.332031 43.765625 C 68.058594 43.753906 67.917969 43.542969 67.882812 43.472656 C 67.875 43.589844 67.78125 43.679688 67.664062 43.679688 C 67.542969 43.679688 67.449219 43.582031 67.449219 43.464844 C 67.449219 43.371094 67.503906 43.289062 67.589844 43.257812 Z M 67.589844 43.257812 "/>
<path fill-rule="nonzero" fill="rgb(51.371765%, 22.3526%, 12.940979%)" fill-opacity="1" d="M 67.945312 44.21875 C 67.582031 44.21875 67.441406 44.546875 67.113281 44.765625 C 67.292969 44.691406 67.4375 44.550781 67.691406 44.40625 C 67.945312 44.261719 68.160156 44.4375 68.304688 44.4375 L 68.308594 44.4375 C 68.453125 44.4375 68.671875 44.261719 68.921875 44.40625 C 69.175781 44.550781 69.324219 44.691406 69.503906 44.765625 C 69.179688 44.546875 69.03125 44.21875 68.667969 44.21875 C 68.597656 44.21875 68.453125 44.257812 68.308594 44.332031 L 68.304688 44.332031 C 68.160156 44.257812 68.015625 44.21875 67.945312 44.21875 Z M 67.945312 44.21875 "/>
<path fill-rule="nonzero" fill="rgb(51.371765%, 22.3526%, 12.940979%)" fill-opacity="1" d="M 67.824219 44.648438 C 67.679688 44.65625 67.492188 44.683594 67.21875 44.765625 C 67.871094 44.621094 68.015625 44.839844 68.304688 44.839844 L 68.308594 44.839844 C 68.597656 44.839844 68.742188 44.621094 69.394531 44.765625 C 68.671875 44.546875 68.527344 44.691406 68.308594 44.691406 L 68.304688 44.691406 C 68.167969 44.691406 68.0625 44.636719 67.824219 44.648438 Z M 67.824219 44.648438 "/>
<path fill-rule="nonzero" fill="rgb(51.371765%, 22.3526%, 12.940979%)" fill-opacity="1" d="M 67.253906 44.761719 C 67.210938 44.761719 67.164062 44.761719 67.113281 44.765625 C 67.875 44.839844 67.507812 45.273438 68.304688 45.273438 L 68.308594 45.273438 C 69.105469 45.273438 68.746094 44.839844 69.503906 44.765625 C 68.710938 44.695312 68.960938 45.164062 68.308594 45.164062 L 68.304688 45.164062 C 67.695312 45.164062 67.882812 44.753906 67.253906 44.761719 Z M 67.253906 44.761719 "/>
<path fill-rule="nonzero" fill="rgb(51.371765%, 22.3526%, 12.940979%)" fill-opacity="1" d="M 68.960938 45.933594 C 68.960938 45.574219 68.671875 45.285156 68.3125 45.285156 C 67.953125 45.285156 67.660156 45.574219 67.660156 45.933594 C 67.730469 45.632812 68 45.421875 68.3125 45.421875 C 68.621094 45.421875 68.890625 45.632812 68.960938 45.933594 Z M 68.960938 45.933594 "/>
<path fill-rule="nonzero" fill="rgb(51.371765%, 22.3526%, 12.940979%)" fill-opacity="1" d="M 65.386719 41.59375 C 66.21875 40.871094 67.265625 40.761719 67.847656 41.304688 C 67.988281 41.496094 68.078125 41.699219 68.117188 41.910156 C 68.1875 42.320312 68.058594 42.765625 67.738281 43.222656 C 67.773438 43.222656 67.847656 43.257812 67.882812 43.292969 C 68.167969 42.746094 68.269531 42.179688 68.175781 41.644531 C 68.152344 41.503906 68.113281 41.367188 68.0625 41.234375 C 67.269531 40.582031 66.183594 40.507812 65.386719 41.59375 Z M 65.386719 41.59375 "/>
<path fill-rule="nonzero" fill="rgb(51.371765%, 22.3526%, 12.940979%)" fill-opacity="1" d="M 66.6875 41.378906 C 67.160156 41.378906 67.265625 41.488281 67.484375 41.667969 C 67.703125 41.847656 67.808594 41.8125 67.847656 41.847656 C 67.882812 41.882812 67.847656 41.992188 67.773438 41.957031 C 67.703125 41.921875 67.554688 41.847656 67.339844 41.667969 C 67.121094 41.484375 66.90625 41.488281 66.6875 41.488281 C 66.039062 41.488281 65.675781 42.027344 65.601562 41.992188 C 65.53125 41.957031 65.964844 41.378906 66.6875 41.378906 Z M 66.6875 41.378906 "/>
<path fill-rule="nonzero" fill="rgb(51.371765%, 22.3526%, 12.940979%)" fill-opacity="1" d="M 66.667969 41.601562 C 66.34375 41.601562 66.039062 41.742188 65.855469 42.03125 C 66.21875 42.355469 67.015625 42.390625 67.558594 41.992188 C 67.324219 41.738281 66.988281 41.601562 66.667969 41.601562 Z M 66.660156 41.675781 C 66.972656 41.667969 67.265625 41.8125 67.304688 41.957031 C 66.945312 42.355469 66.367188 42.320312 66.003906 42.03125 C 66.164062 41.777344 66.417969 41.679688 66.660156 41.675781 Z M 66.660156 41.675781 "/>
<path fill-rule="nonzero" fill="rgb(51.371765%, 22.3526%, 12.940979%)" fill-opacity="1" d="M 67.035156 41.957031 C 67.035156 42.136719 66.890625 42.28125 66.707031 42.28125 C 66.527344 42.28125 66.382812 42.136719 66.382812 41.957031 C 66.382812 41.773438 66.527344 41.628906 66.707031 41.628906 C 66.890625 41.628906 67.035156 41.773438 67.035156 41.957031 Z M 67.035156 41.957031 "/>
<path fill-rule="nonzero" fill="rgb(51.371765%, 22.3526%, 12.940979%)" fill-opacity="1" d="M 65.820312 42.171875 C 66.433594 42.644531 67.050781 42.609375 67.410156 42.390625 C 67.773438 42.171875 67.773438 42.101562 67.699219 42.101562 C 67.628906 42.101562 67.554688 42.171875 67.265625 42.316406 C 66.976562 42.464844 66.542969 42.464844 65.820312 42.171875 Z M 65.820312 42.171875 "/>
<g clip-path="url(#clip-3)">
<path fill="none" stroke-width="0.56693" stroke-linecap="butt" stroke-linejoin="miter" stroke="rgb(39.99939%, 39.99939%, 39.99939%)" stroke-opacity="1" stroke-miterlimit="10" d="M -68.039878 -42.521499 L -68.039878 42.520456 L 68.036667 42.520456 L 68.036667 -42.521499 Z M -68.039878 -42.521499 " transform="matrix(0.995419, 0, 0, -0.995419, 68.310192, 42.606903)"/>
</g>
</svg>
