<?xml version="1.0" encoding="UTF-8"?>
<svg xmlns="http://www.w3.org/2000/svg" xmlns:xlink="http://www.w3.org/1999/xlink" width="102.008pt" height="85.606pt" viewBox="0 0 102.008 85.606">
<defs>
<clipPath id="clip-0">
<path clip-rule="nonzero" d="M 0.28125 0.496094 L 33 0.496094 L 33 84.71875 L 0.28125 84.71875 Z M 0.28125 0.496094 "/>
</clipPath>
<clipPath id="clip-1">
<path clip-rule="nonzero" d="M 32 0.496094 L 66 0.496094 L 66 84.71875 L 32 84.71875 Z M 32 0.496094 "/>
</clipPath>
<clipPath id="clip-2">
<path clip-rule="nonzero" d="M 65 0.496094 L 97.457031 0.496094 L 97.457031 84.71875 L 65 84.71875 Z M 65 0.496094 "/>
</clipPath>
<clipPath id="clip-3">
<path clip-rule="nonzero" d="M 0 0.21875 L 98 0.21875 L 98 85 L 0 85 Z M 0 0.21875 "/>
</clipPath>
</defs>
<g clip-path="url(#clip-0)">
<path fill-rule="nonzero" fill="rgb(0%, 0%, 0%)" fill-opacity="1" d="M 0.28125 84.71875 L 0.28125 0.496094 L 32.671875 0.496094 L 32.671875 84.71875 Z M 0.28125 84.71875 "/>
</g>
<g clip-path="url(#clip-1)">
<path fill-rule="nonzero" fill="rgb(100%, 80.39093%, 0%)" fill-opacity="1" d="M 32.671875 84.71875 L 32.671875 0.496094 L 65.066406 0.496094 L 65.066406 84.71875 Z M 32.671875 84.71875 "/>
</g>
<g clip-path="url(#clip-2)">
<path fill-rule="nonzero" fill="rgb(78.431702%, 6.27594%, 18.03894%)" fill-opacity="1" d="M 65.066406 84.71875 L 65.066406 0.496094 L 97.457031 0.496094 L 97.457031 84.71875 Z M 65.066406 84.71875 "/>
</g>
<g clip-path="url(#clip-3)">
<path fill="none" stroke-width="0.56693" stroke-linecap="butt" stroke-linejoin="miter" stroke="rgb(39.99939%, 39.99939%, 39.99939%)" stroke-opacity="1" stroke-miterlimit="10" d="M -49.060015 -42.520369 L -49.060015 42.521329 L 49.060774 42.521329 L 49.060774 -42.520369 Z M -49.060015 -42.520369 " transform="matrix(0.990369, 0, 0, -0.990369, 48.868765, 42.607897)"/>
</g>
</svg>
