<?xml version="1.0" encoding="UTF-8"?>
<svg xmlns="http://www.w3.org/2000/svg" xmlns:xlink="http://www.w3.org/1999/xlink" width="173.967pt" height="85.606pt" viewBox="0 0 173.967 85.606">
<defs>
<clipPath id="clip-0">
<path clip-rule="nonzero" d="M 0.664062 0.28125 L 169.964844 0.28125 L 169.964844 84.933594 L 0.664062 84.933594 Z M 0.664062 0.28125 "/>
</clipPath>
<clipPath id="clip-1">
<path clip-rule="nonzero" d="M 45 0.28125 L 131 0.28125 L 131 84.933594 L 45 84.933594 Z M 45 0.28125 "/>
</clipPath>
<clipPath id="clip-2">
<path clip-rule="nonzero" d="M 105 74 L 121 74 L 121 84.933594 L 105 84.933594 Z M 105 74 "/>
</clipPath>
<clipPath id="clip-3">
<path clip-rule="nonzero" d="M 31 0.28125 L 47 0.28125 L 47 15 L 31 15 Z M 31 0.28125 "/>
</clipPath>
<clipPath id="clip-4">
<path clip-rule="nonzero" d="M 20 0.28125 L 37 0.28125 L 37 5 L 20 5 Z M 20 0.28125 "/>
</clipPath>
<clipPath id="clip-5">
<path clip-rule="nonzero" d="M 0.382812 0 L 171 0 L 171 85.214844 L 0.382812 85.214844 Z M 0.382812 0 "/>
</clipPath>
</defs>
<g clip-path="url(#clip-0)">
<path fill-rule="nonzero" fill="rgb(0%, 18.429565%, 42.353821%)" fill-opacity="1" d="M 0.664062 84.933594 L 0.664062 0.28125 L 169.964844 0.28125 L 169.964844 84.933594 Z M 0.664062 84.933594 "/>
</g>
<g clip-path="url(#clip-1)">
<path fill-rule="nonzero" fill="rgb(100%, 80.39093%, 0%)" fill-opacity="1" d="M 45.527344 0.28125 L 130.179688 0.28125 L 130.179688 84.933594 Z M 45.527344 0.28125 "/>
</g>
<g clip-path="url(#clip-2)">
<path fill-rule="nonzero" fill="rgb(100%, 100%, 100%)" fill-opacity="1" d="M 113.117188 74.351562 L 111.3125 79.910156 L 105.46875 79.910156 L 110.199219 83.339844 L 108.390625 88.898438 L 113.117188 85.464844 L 117.84375 88.898438 L 116.039062 83.339844 L 120.765625 79.910156 L 114.921875 79.910156 Z M 113.117188 74.351562 "/>
</g>
<path fill-rule="nonzero" fill="rgb(100%, 100%, 100%)" fill-opacity="1" d="M 102.539062 63.769531 L 100.734375 69.328125 L 94.890625 69.328125 L 99.617188 72.757812 L 97.8125 78.316406 L 102.539062 74.882812 L 107.261719 78.316406 L 105.457031 72.757812 L 110.183594 69.328125 L 104.339844 69.328125 Z M 102.539062 63.769531 "/>
<path fill-rule="nonzero" fill="rgb(100%, 100%, 100%)" fill-opacity="1" d="M 91.957031 53.1875 L 90.152344 58.746094 L 84.308594 58.746094 L 89.035156 62.179688 L 87.230469 67.734375 L 91.957031 64.300781 L 96.683594 67.734375 L 94.875 62.179688 L 99.605469 58.746094 L 93.761719 58.746094 Z M 91.957031 53.1875 "/>
<path fill-rule="nonzero" fill="rgb(100%, 100%, 100%)" fill-opacity="1" d="M 81.375 42.605469 L 79.570312 48.164062 L 73.726562 48.164062 L 78.453125 51.597656 L 76.648438 57.152344 L 81.375 53.71875 L 86.101562 57.152344 L 84.296875 51.597656 L 89.023438 48.164062 L 83.179688 48.164062 Z M 81.375 42.605469 "/>
<path fill-rule="nonzero" fill="rgb(100%, 100%, 100%)" fill-opacity="1" d="M 70.792969 32.027344 L 68.988281 37.582031 L 63.144531 37.582031 L 67.871094 41.015625 L 66.066406 46.574219 L 70.792969 43.140625 L 75.519531 46.574219 L 73.714844 41.015625 L 78.441406 37.582031 L 72.597656 37.582031 Z M 70.792969 32.027344 "/>
<path fill-rule="nonzero" fill="rgb(100%, 100%, 100%)" fill-opacity="1" d="M 60.210938 21.445312 L 58.40625 27.003906 L 52.5625 27.003906 L 57.292969 30.433594 L 55.484375 35.992188 L 60.210938 32.558594 L 64.9375 35.992188 L 63.132812 30.433594 L 67.859375 27.003906 L 62.015625 27.003906 Z M 60.210938 21.445312 "/>
<path fill-rule="nonzero" fill="rgb(100%, 100%, 100%)" fill-opacity="1" d="M 49.628906 10.863281 L 47.824219 16.421875 L 41.984375 16.421875 L 46.710938 19.851562 L 44.90625 25.410156 L 49.628906 21.976562 L 54.355469 25.410156 L 52.550781 19.851562 L 57.277344 16.421875 L 51.433594 16.421875 Z M 49.628906 10.863281 "/>
<g clip-path="url(#clip-3)">
<path fill-rule="nonzero" fill="rgb(100%, 100%, 100%)" fill-opacity="1" d="M 39.050781 0.28125 L 37.246094 5.839844 L 31.402344 5.839844 L 36.128906 9.269531 L 34.324219 14.828125 L 39.050781 11.394531 L 43.773438 14.828125 L 41.96875 9.269531 L 46.695312 5.839844 L 40.855469 5.839844 Z M 39.050781 0.28125 "/>
</g>
<g clip-path="url(#clip-4)">
<path fill-rule="nonzero" fill="rgb(100%, 100%, 100%)" fill-opacity="1" d="M 28.46875 -10.300781 L 26.664062 -4.742188 L 20.820312 -4.742188 L 25.546875 -1.308594 L 23.742188 4.246094 L 28.46875 0.8125 L 33.195312 4.246094 L 31.386719 -1.308594 L 36.117188 -4.742188 L 30.273438 -4.742188 Z M 28.46875 -10.300781 "/>
</g>
<g clip-path="url(#clip-5)">
<path fill="none" stroke-width="0.56693" stroke-linecap="butt" stroke-linejoin="miter" stroke="rgb(39.99939%, 39.99939%, 39.99939%)" stroke-opacity="1" stroke-miterlimit="10" d="M -85.039721 -42.521499 L -85.039721 42.520456 L 85.040264 42.520456 L 85.040264 -42.521499 Z M -85.039721 -42.521499 " transform="matrix(0.995419, 0, 0, -0.995419, 85.314183, 42.606903)"/>
</g>
</svg>
