<?xml version="1.0" encoding="UTF-8"?>
<svg xmlns="http://www.w3.org/2000/svg" xmlns:xlink="http://www.w3.org/1999/xlink" width="125.375pt" height="85.606pt" viewBox="0 0 125.375 85.606">
<defs>
<clipPath id="clip-0">
<path clip-rule="nonzero" d="M 0.28125 0.296875 L 121.167969 0.296875 L 121.167969 84.917969 L 0.28125 84.917969 Z M 0.28125 0.296875 "/>
</clipPath>
<clipPath id="clip-1">
<path clip-rule="nonzero" d="M 39 21 L 82 21 L 82 64 L 39 64 Z M 39 21 "/>
</clipPath>
<clipPath id="clip-2">
<path clip-rule="nonzero" d="M 81.824219 42.605469 C 81.824219 54.261719 72.378906 63.707031 60.722656 63.707031 C 49.070312 63.707031 39.625 54.261719 39.625 42.605469 C 39.625 30.953125 49.070312 21.507812 60.722656 21.507812 C 72.378906 21.507812 81.824219 30.953125 81.824219 42.605469 Z M 81.824219 42.605469 "/>
</clipPath>
<clipPath id="clip-3">
<path clip-rule="nonzero" d="M 39 33 L 82 33 L 82 64 L 39 64 Z M 39 33 "/>
</clipPath>
<clipPath id="clip-4">
<path clip-rule="nonzero" d="M 81.824219 42.605469 C 81.824219 54.261719 72.378906 63.707031 60.722656 63.707031 C 49.070312 63.707031 39.625 54.261719 39.625 42.605469 C 39.625 30.953125 49.070312 21.507812 60.722656 21.507812 C 72.378906 21.507812 81.824219 30.953125 81.824219 42.605469 Z M 81.824219 42.605469 "/>
</clipPath>
<clipPath id="clip-5">
<path clip-rule="nonzero" d="M 42 34 L 45 34 L 45 37 L 42 37 Z M 42 34 "/>
</clipPath>
<clipPath id="clip-6">
<path clip-rule="nonzero" d="M 81.824219 42.605469 C 81.824219 54.261719 72.378906 63.707031 60.722656 63.707031 C 49.070312 63.707031 39.625 54.261719 39.625 42.605469 C 39.625 30.953125 49.070312 21.507812 60.722656 21.507812 C 72.378906 21.507812 81.824219 30.953125 81.824219 42.605469 Z M 81.824219 42.605469 "/>
</clipPath>
<clipPath id="clip-7">
<path clip-rule="nonzero" d="M 44 34 L 47 34 L 47 37 L 44 37 Z M 44 34 "/>
</clipPath>
<clipPath id="clip-8">
<path clip-rule="nonzero" d="M 81.824219 42.605469 C 81.824219 54.261719 72.378906 63.707031 60.722656 63.707031 C 49.070312 63.707031 39.625 54.261719 39.625 42.605469 C 39.625 30.953125 49.070312 21.507812 60.722656 21.507812 C 72.378906 21.507812 81.824219 30.953125 81.824219 42.605469 Z M 81.824219 42.605469 "/>
</clipPath>
<clipPath id="clip-9">
<path clip-rule="nonzero" d="M 45 35 L 47 35 L 47 37 L 45 37 Z M 45 35 "/>
</clipPath>
<clipPath id="clip-10">
<path clip-rule="nonzero" d="M 81.824219 42.605469 C 81.824219 54.261719 72.378906 63.707031 60.722656 63.707031 C 49.070312 63.707031 39.625 54.261719 39.625 42.605469 C 39.625 30.953125 49.070312 21.507812 60.722656 21.507812 C 72.378906 21.507812 81.824219 30.953125 81.824219 42.605469 Z M 81.824219 42.605469 "/>
</clipPath>
<clipPath id="clip-11">
<path clip-rule="nonzero" d="M 47 34 L 50 34 L 50 37 L 47 37 Z M 47 34 "/>
</clipPath>
<clipPath id="clip-12">
<path clip-rule="nonzero" d="M 81.824219 42.605469 C 81.824219 54.261719 72.378906 63.707031 60.722656 63.707031 C 49.070312 63.707031 39.625 54.261719 39.625 42.605469 C 39.625 30.953125 49.070312 21.507812 60.722656 21.507812 C 72.378906 21.507812 81.824219 30.953125 81.824219 42.605469 Z M 81.824219 42.605469 "/>
</clipPath>
<clipPath id="clip-13">
<path clip-rule="nonzero" d="M 50 34 L 52 34 L 52 37 L 50 37 Z M 50 34 "/>
</clipPath>
<clipPath id="clip-14">
<path clip-rule="nonzero" d="M 81.824219 42.605469 C 81.824219 54.261719 72.378906 63.707031 60.722656 63.707031 C 49.070312 63.707031 39.625 54.261719 39.625 42.605469 C 39.625 30.953125 49.070312 21.507812 60.722656 21.507812 C 72.378906 21.507812 81.824219 30.953125 81.824219 42.605469 Z M 81.824219 42.605469 "/>
</clipPath>
<clipPath id="clip-15">
<path clip-rule="nonzero" d="M 52 34 L 55 34 L 55 37 L 52 37 Z M 52 34 "/>
</clipPath>
<clipPath id="clip-16">
<path clip-rule="nonzero" d="M 81.824219 42.605469 C 81.824219 54.261719 72.378906 63.707031 60.722656 63.707031 C 49.070312 63.707031 39.625 54.261719 39.625 42.605469 C 39.625 30.953125 49.070312 21.507812 60.722656 21.507812 C 72.378906 21.507812 81.824219 30.953125 81.824219 42.605469 Z M 81.824219 42.605469 "/>
</clipPath>
<clipPath id="clip-17">
<path clip-rule="nonzero" d="M 56 34 L 59 34 L 59 37 L 56 37 Z M 56 34 "/>
</clipPath>
<clipPath id="clip-18">
<path clip-rule="nonzero" d="M 81.824219 42.605469 C 81.824219 54.261719 72.378906 63.707031 60.722656 63.707031 C 49.070312 63.707031 39.625 54.261719 39.625 42.605469 C 39.625 30.953125 49.070312 21.507812 60.722656 21.507812 C 72.378906 21.507812 81.824219 30.953125 81.824219 42.605469 Z M 81.824219 42.605469 "/>
</clipPath>
<clipPath id="clip-19">
<path clip-rule="nonzero" d="M 60 35 L 63 35 L 63 38 L 60 38 Z M 60 35 "/>
</clipPath>
<clipPath id="clip-20">
<path clip-rule="nonzero" d="M 81.824219 42.605469 C 81.824219 54.261719 72.378906 63.707031 60.722656 63.707031 C 49.070312 63.707031 39.625 54.261719 39.625 42.605469 C 39.625 30.953125 49.070312 21.507812 60.722656 21.507812 C 72.378906 21.507812 81.824219 30.953125 81.824219 42.605469 Z M 81.824219 42.605469 "/>
</clipPath>
<clipPath id="clip-21">
<path clip-rule="nonzero" d="M 62 36 L 66 36 L 66 39 L 62 39 Z M 62 36 "/>
</clipPath>
<clipPath id="clip-22">
<path clip-rule="nonzero" d="M 81.824219 42.605469 C 81.824219 54.261719 72.378906 63.707031 60.722656 63.707031 C 49.070312 63.707031 39.625 54.261719 39.625 42.605469 C 39.625 30.953125 49.070312 21.507812 60.722656 21.507812 C 72.378906 21.507812 81.824219 30.953125 81.824219 42.605469 Z M 81.824219 42.605469 "/>
</clipPath>
<clipPath id="clip-23">
<path clip-rule="nonzero" d="M 63 37 L 65 37 L 65 39 L 63 39 Z M 63 37 "/>
</clipPath>
<clipPath id="clip-24">
<path clip-rule="nonzero" d="M 81.824219 42.605469 C 81.824219 54.261719 72.378906 63.707031 60.722656 63.707031 C 49.070312 63.707031 39.625 54.261719 39.625 42.605469 C 39.625 30.953125 49.070312 21.507812 60.722656 21.507812 C 72.378906 21.507812 81.824219 30.953125 81.824219 42.605469 Z M 81.824219 42.605469 "/>
</clipPath>
<clipPath id="clip-25">
<path clip-rule="nonzero" d="M 65 37 L 68 37 L 68 40 L 65 40 Z M 65 37 "/>
</clipPath>
<clipPath id="clip-26">
<path clip-rule="nonzero" d="M 81.824219 42.605469 C 81.824219 54.261719 72.378906 63.707031 60.722656 63.707031 C 49.070312 63.707031 39.625 54.261719 39.625 42.605469 C 39.625 30.953125 49.070312 21.507812 60.722656 21.507812 C 72.378906 21.507812 81.824219 30.953125 81.824219 42.605469 Z M 81.824219 42.605469 "/>
</clipPath>
<clipPath id="clip-27">
<path clip-rule="nonzero" d="M 68 38 L 70 38 L 70 41 L 68 41 Z M 68 38 "/>
</clipPath>
<clipPath id="clip-28">
<path clip-rule="nonzero" d="M 81.824219 42.605469 C 81.824219 54.261719 72.378906 63.707031 60.722656 63.707031 C 49.070312 63.707031 39.625 54.261719 39.625 42.605469 C 39.625 30.953125 49.070312 21.507812 60.722656 21.507812 C 72.378906 21.507812 81.824219 30.953125 81.824219 42.605469 Z M 81.824219 42.605469 "/>
</clipPath>
<clipPath id="clip-29">
<path clip-rule="nonzero" d="M 69 39 L 70 39 L 70 40 L 69 40 Z M 69 39 "/>
</clipPath>
<clipPath id="clip-30">
<path clip-rule="nonzero" d="M 81.824219 42.605469 C 81.824219 54.261719 72.378906 63.707031 60.722656 63.707031 C 49.070312 63.707031 39.625 54.261719 39.625 42.605469 C 39.625 30.953125 49.070312 21.507812 60.722656 21.507812 C 72.378906 21.507812 81.824219 30.953125 81.824219 42.605469 Z M 81.824219 42.605469 "/>
</clipPath>
<clipPath id="clip-31">
<path clip-rule="nonzero" d="M 68 39 L 70 39 L 70 40 L 68 40 Z M 68 39 "/>
</clipPath>
<clipPath id="clip-32">
<path clip-rule="nonzero" d="M 81.824219 42.605469 C 81.824219 54.261719 72.378906 63.707031 60.722656 63.707031 C 49.070312 63.707031 39.625 54.261719 39.625 42.605469 C 39.625 30.953125 49.070312 21.507812 60.722656 21.507812 C 72.378906 21.507812 81.824219 30.953125 81.824219 42.605469 Z M 81.824219 42.605469 "/>
</clipPath>
<clipPath id="clip-33">
<path clip-rule="nonzero" d="M 69 39 L 70 39 L 70 41 L 69 41 Z M 69 39 "/>
</clipPath>
<clipPath id="clip-34">
<path clip-rule="nonzero" d="M 81.824219 42.605469 C 81.824219 54.261719 72.378906 63.707031 60.722656 63.707031 C 49.070312 63.707031 39.625 54.261719 39.625 42.605469 C 39.625 30.953125 49.070312 21.507812 60.722656 21.507812 C 72.378906 21.507812 81.824219 30.953125 81.824219 42.605469 Z M 81.824219 42.605469 "/>
</clipPath>
<clipPath id="clip-35">
<path clip-rule="nonzero" d="M 70 39 L 73 39 L 73 41 L 70 41 Z M 70 39 "/>
</clipPath>
<clipPath id="clip-36">
<path clip-rule="nonzero" d="M 81.824219 42.605469 C 81.824219 54.261719 72.378906 63.707031 60.722656 63.707031 C 49.070312 63.707031 39.625 54.261719 39.625 42.605469 C 39.625 30.953125 49.070312 21.507812 60.722656 21.507812 C 72.378906 21.507812 81.824219 30.953125 81.824219 42.605469 Z M 81.824219 42.605469 "/>
</clipPath>
<clipPath id="clip-37">
<path clip-rule="nonzero" d="M 71 40 L 72 40 L 72 42 L 71 42 Z M 71 40 "/>
</clipPath>
<clipPath id="clip-38">
<path clip-rule="nonzero" d="M 81.824219 42.605469 C 81.824219 54.261719 72.378906 63.707031 60.722656 63.707031 C 49.070312 63.707031 39.625 54.261719 39.625 42.605469 C 39.625 30.953125 49.070312 21.507812 60.722656 21.507812 C 72.378906 21.507812 81.824219 30.953125 81.824219 42.605469 Z M 81.824219 42.605469 "/>
</clipPath>
<clipPath id="clip-39">
<path clip-rule="nonzero" d="M 72 40 L 75 40 L 75 43 L 72 43 Z M 72 40 "/>
</clipPath>
<clipPath id="clip-40">
<path clip-rule="nonzero" d="M 81.824219 42.605469 C 81.824219 54.261719 72.378906 63.707031 60.722656 63.707031 C 49.070312 63.707031 39.625 54.261719 39.625 42.605469 C 39.625 30.953125 49.070312 21.507812 60.722656 21.507812 C 72.378906 21.507812 81.824219 30.953125 81.824219 42.605469 Z M 81.824219 42.605469 "/>
</clipPath>
<clipPath id="clip-41">
<path clip-rule="nonzero" d="M 74 41 L 77 41 L 77 44 L 74 44 Z M 74 41 "/>
</clipPath>
<clipPath id="clip-42">
<path clip-rule="nonzero" d="M 81.824219 42.605469 C 81.824219 54.261719 72.378906 63.707031 60.722656 63.707031 C 49.070312 63.707031 39.625 54.261719 39.625 42.605469 C 39.625 30.953125 49.070312 21.507812 60.722656 21.507812 C 72.378906 21.507812 81.824219 30.953125 81.824219 42.605469 Z M 81.824219 42.605469 "/>
</clipPath>
<clipPath id="clip-43">
<path clip-rule="nonzero" d="M 76 43 L 79 43 L 79 46 L 76 46 Z M 76 43 "/>
</clipPath>
<clipPath id="clip-44">
<path clip-rule="nonzero" d="M 81.824219 42.605469 C 81.824219 54.261719 72.378906 63.707031 60.722656 63.707031 C 49.070312 63.707031 39.625 54.261719 39.625 42.605469 C 39.625 30.953125 49.070312 21.507812 60.722656 21.507812 C 72.378906 21.507812 81.824219 30.953125 81.824219 42.605469 Z M 81.824219 42.605469 "/>
</clipPath>
<clipPath id="clip-45">
<path clip-rule="nonzero" d="M 79 44 L 81 44 L 81 47 L 79 47 Z M 79 44 "/>
</clipPath>
<clipPath id="clip-46">
<path clip-rule="nonzero" d="M 81.824219 42.605469 C 81.824219 54.261719 72.378906 63.707031 60.722656 63.707031 C 49.070312 63.707031 39.625 54.261719 39.625 42.605469 C 39.625 30.953125 49.070312 21.507812 60.722656 21.507812 C 72.378906 21.507812 81.824219 30.953125 81.824219 42.605469 Z M 81.824219 42.605469 "/>
</clipPath>
<clipPath id="clip-47">
<path clip-rule="nonzero" d="M 42 37 L 45 37 L 45 40 L 42 40 Z M 42 37 "/>
</clipPath>
<clipPath id="clip-48">
<path clip-rule="nonzero" d="M 81.824219 42.605469 C 81.824219 54.261719 72.378906 63.707031 60.722656 63.707031 C 49.070312 63.707031 39.625 54.261719 39.625 42.605469 C 39.625 30.953125 49.070312 21.507812 60.722656 21.507812 C 72.378906 21.507812 81.824219 30.953125 81.824219 42.605469 Z M 81.824219 42.605469 "/>
</clipPath>
<clipPath id="clip-49">
<path clip-rule="nonzero" d="M 44 46 L 47 46 L 47 49 L 44 49 Z M 44 46 "/>
</clipPath>
<clipPath id="clip-50">
<path clip-rule="nonzero" d="M 81.824219 42.605469 C 81.824219 54.261719 72.378906 63.707031 60.722656 63.707031 C 49.070312 63.707031 39.625 54.261719 39.625 42.605469 C 39.625 30.953125 49.070312 21.507812 60.722656 21.507812 C 72.378906 21.507812 81.824219 30.953125 81.824219 42.605469 Z M 81.824219 42.605469 "/>
</clipPath>
<clipPath id="clip-51">
<path clip-rule="nonzero" d="M 42 48 L 44 48 L 44 51 L 42 51 Z M 42 48 "/>
</clipPath>
<clipPath id="clip-52">
<path clip-rule="nonzero" d="M 81.824219 42.605469 C 81.824219 54.261719 72.378906 63.707031 60.722656 63.707031 C 49.070312 63.707031 39.625 54.261719 39.625 42.605469 C 39.625 30.953125 49.070312 21.507812 60.722656 21.507812 C 72.378906 21.507812 81.824219 30.953125 81.824219 42.605469 Z M 81.824219 42.605469 "/>
</clipPath>
<clipPath id="clip-53">
<path clip-rule="nonzero" d="M 47 45 L 48 45 L 48 47 L 47 47 Z M 47 45 "/>
</clipPath>
<clipPath id="clip-54">
<path clip-rule="nonzero" d="M 81.824219 42.605469 C 81.824219 54.261719 72.378906 63.707031 60.722656 63.707031 C 49.070312 63.707031 39.625 54.261719 39.625 42.605469 C 39.625 30.953125 49.070312 21.507812 60.722656 21.507812 C 72.378906 21.507812 81.824219 30.953125 81.824219 42.605469 Z M 81.824219 42.605469 "/>
</clipPath>
<clipPath id="clip-55">
<path clip-rule="nonzero" d="M 49 48 L 51 48 L 51 51 L 49 51 Z M 49 48 "/>
</clipPath>
<clipPath id="clip-56">
<path clip-rule="nonzero" d="M 81.824219 42.605469 C 81.824219 54.261719 72.378906 63.707031 60.722656 63.707031 C 49.070312 63.707031 39.625 54.261719 39.625 42.605469 C 39.625 30.953125 49.070312 21.507812 60.722656 21.507812 C 72.378906 21.507812 81.824219 30.953125 81.824219 42.605469 Z M 81.824219 42.605469 "/>
</clipPath>
<clipPath id="clip-57">
<path clip-rule="nonzero" d="M 48 51 L 50 51 L 50 53 L 48 53 Z M 48 51 "/>
</clipPath>
<clipPath id="clip-58">
<path clip-rule="nonzero" d="M 81.824219 42.605469 C 81.824219 54.261719 72.378906 63.707031 60.722656 63.707031 C 49.070312 63.707031 39.625 54.261719 39.625 42.605469 C 39.625 30.953125 49.070312 21.507812 60.722656 21.507812 C 72.378906 21.507812 81.824219 30.953125 81.824219 42.605469 Z M 81.824219 42.605469 "/>
</clipPath>
<clipPath id="clip-59">
<path clip-rule="nonzero" d="M 66 35 L 69 35 L 69 37 L 66 37 Z M 66 35 "/>
</clipPath>
<clipPath id="clip-60">
<path clip-rule="nonzero" d="M 81.824219 42.605469 C 81.824219 54.261719 72.378906 63.707031 60.722656 63.707031 C 49.070312 63.707031 39.625 54.261719 39.625 42.605469 C 39.625 30.953125 49.070312 21.507812 60.722656 21.507812 C 72.378906 21.507812 81.824219 30.953125 81.824219 42.605469 Z M 81.824219 42.605469 "/>
</clipPath>
<clipPath id="clip-61">
<path clip-rule="nonzero" d="M 74 49 L 77 49 L 77 51 L 74 51 Z M 74 49 "/>
</clipPath>
<clipPath id="clip-62">
<path clip-rule="nonzero" d="M 81.824219 42.605469 C 81.824219 54.261719 72.378906 63.707031 60.722656 63.707031 C 49.070312 63.707031 39.625 54.261719 39.625 42.605469 C 39.625 30.953125 49.070312 21.507812 60.722656 21.507812 C 72.378906 21.507812 81.824219 30.953125 81.824219 42.605469 Z M 81.824219 42.605469 "/>
</clipPath>
<clipPath id="clip-63">
<path clip-rule="nonzero" d="M 77 49 L 79 49 L 79 51 L 77 51 Z M 77 49 "/>
</clipPath>
<clipPath id="clip-64">
<path clip-rule="nonzero" d="M 81.824219 42.605469 C 81.824219 54.261719 72.378906 63.707031 60.722656 63.707031 C 49.070312 63.707031 39.625 54.261719 39.625 42.605469 C 39.625 30.953125 49.070312 21.507812 60.722656 21.507812 C 72.378906 21.507812 81.824219 30.953125 81.824219 42.605469 Z M 81.824219 42.605469 "/>
</clipPath>
<clipPath id="clip-65">
<path clip-rule="nonzero" d="M 75 51 L 77 51 L 77 53 L 75 53 Z M 75 51 "/>
</clipPath>
<clipPath id="clip-66">
<path clip-rule="nonzero" d="M 81.824219 42.605469 C 81.824219 54.261719 72.378906 63.707031 60.722656 63.707031 C 49.070312 63.707031 39.625 54.261719 39.625 42.605469 C 39.625 30.953125 49.070312 21.507812 60.722656 21.507812 C 72.378906 21.507812 81.824219 30.953125 81.824219 42.605469 Z M 81.824219 42.605469 "/>
</clipPath>
<clipPath id="clip-67">
<path clip-rule="nonzero" d="M 70 55 L 72 55 L 72 57 L 70 57 Z M 70 55 "/>
</clipPath>
<clipPath id="clip-68">
<path clip-rule="nonzero" d="M 81.824219 42.605469 C 81.824219 54.261719 72.378906 63.707031 60.722656 63.707031 C 49.070312 63.707031 39.625 54.261719 39.625 42.605469 C 39.625 30.953125 49.070312 21.507812 60.722656 21.507812 C 72.378906 21.507812 81.824219 30.953125 81.824219 42.605469 Z M 81.824219 42.605469 "/>
</clipPath>
<clipPath id="clip-69">
<path clip-rule="nonzero" d="M 70 57 L 72 57 L 72 59 L 70 59 Z M 70 57 "/>
</clipPath>
<clipPath id="clip-70">
<path clip-rule="nonzero" d="M 81.824219 42.605469 C 81.824219 54.261719 72.378906 63.707031 60.722656 63.707031 C 49.070312 63.707031 39.625 54.261719 39.625 42.605469 C 39.625 30.953125 49.070312 21.507812 60.722656 21.507812 C 72.378906 21.507812 81.824219 30.953125 81.824219 42.605469 Z M 81.824219 42.605469 "/>
</clipPath>
<clipPath id="clip-71">
<path clip-rule="nonzero" d="M 72 53 L 74 53 L 74 56 L 72 56 Z M 72 53 "/>
</clipPath>
<clipPath id="clip-72">
<path clip-rule="nonzero" d="M 81.824219 42.605469 C 81.824219 54.261719 72.378906 63.707031 60.722656 63.707031 C 49.070312 63.707031 39.625 54.261719 39.625 42.605469 C 39.625 30.953125 49.070312 21.507812 60.722656 21.507812 C 72.378906 21.507812 81.824219 30.953125 81.824219 42.605469 Z M 81.824219 42.605469 "/>
</clipPath>
<clipPath id="clip-73">
<path clip-rule="nonzero" d="M 74 52 L 76 52 L 76 55 L 74 55 Z M 74 52 "/>
</clipPath>
<clipPath id="clip-74">
<path clip-rule="nonzero" d="M 81.824219 42.605469 C 81.824219 54.261719 72.378906 63.707031 60.722656 63.707031 C 49.070312 63.707031 39.625 54.261719 39.625 42.605469 C 39.625 30.953125 49.070312 21.507812 60.722656 21.507812 C 72.378906 21.507812 81.824219 30.953125 81.824219 42.605469 Z M 81.824219 42.605469 "/>
</clipPath>
<clipPath id="clip-75">
<path clip-rule="nonzero" d="M 70 53 L 72 53 L 72 55 L 70 55 Z M 70 53 "/>
</clipPath>
<clipPath id="clip-76">
<path clip-rule="nonzero" d="M 81.824219 42.605469 C 81.824219 54.261719 72.378906 63.707031 60.722656 63.707031 C 49.070312 63.707031 39.625 54.261719 39.625 42.605469 C 39.625 30.953125 49.070312 21.507812 60.722656 21.507812 C 72.378906 21.507812 81.824219 30.953125 81.824219 42.605469 Z M 81.824219 42.605469 "/>
</clipPath>
<clipPath id="clip-77">
<path clip-rule="nonzero" d="M 52 42 L 54 42 L 54 45 L 52 45 Z M 52 42 "/>
</clipPath>
<clipPath id="clip-78">
<path clip-rule="nonzero" d="M 81.824219 42.605469 C 81.824219 54.261719 72.378906 63.707031 60.722656 63.707031 C 49.070312 63.707031 39.625 54.261719 39.625 42.605469 C 39.625 30.953125 49.070312 21.507812 60.722656 21.507812 C 72.378906 21.507812 81.824219 30.953125 81.824219 42.605469 Z M 81.824219 42.605469 "/>
</clipPath>
<clipPath id="clip-79">
<path clip-rule="nonzero" d="M 65 40 L 68 40 L 68 43 L 65 43 Z M 65 40 "/>
</clipPath>
<clipPath id="clip-80">
<path clip-rule="nonzero" d="M 81.824219 42.605469 C 81.824219 54.261719 72.378906 63.707031 60.722656 63.707031 C 49.070312 63.707031 39.625 54.261719 39.625 42.605469 C 39.625 30.953125 49.070312 21.507812 60.722656 21.507812 C 72.378906 21.507812 81.824219 30.953125 81.824219 42.605469 Z M 81.824219 42.605469 "/>
</clipPath>
<clipPath id="clip-81">
<path clip-rule="nonzero" d="M 59 51 L 62 51 L 62 53 L 59 53 Z M 59 51 "/>
</clipPath>
<clipPath id="clip-82">
<path clip-rule="nonzero" d="M 81.824219 42.605469 C 81.824219 54.261719 72.378906 63.707031 60.722656 63.707031 C 49.070312 63.707031 39.625 54.261719 39.625 42.605469 C 39.625 30.953125 49.070312 21.507812 60.722656 21.507812 C 72.378906 21.507812 81.824219 30.953125 81.824219 42.605469 Z M 81.824219 42.605469 "/>
</clipPath>
<clipPath id="clip-83">
<path clip-rule="nonzero" d="M 62 47 L 64 47 L 64 49 L 62 49 Z M 62 47 "/>
</clipPath>
<clipPath id="clip-84">
<path clip-rule="nonzero" d="M 81.824219 42.605469 C 81.824219 54.261719 72.378906 63.707031 60.722656 63.707031 C 49.070312 63.707031 39.625 54.261719 39.625 42.605469 C 39.625 30.953125 49.070312 21.507812 60.722656 21.507812 C 72.378906 21.507812 81.824219 30.953125 81.824219 42.605469 Z M 81.824219 42.605469 "/>
</clipPath>
<clipPath id="clip-85">
<path clip-rule="nonzero" d="M 60 45 L 62 45 L 62 47 L 60 47 Z M 60 45 "/>
</clipPath>
<clipPath id="clip-86">
<path clip-rule="nonzero" d="M 81.824219 42.605469 C 81.824219 54.261719 72.378906 63.707031 60.722656 63.707031 C 49.070312 63.707031 39.625 54.261719 39.625 42.605469 C 39.625 30.953125 49.070312 21.507812 60.722656 21.507812 C 72.378906 21.507812 81.824219 30.953125 81.824219 42.605469 Z M 81.824219 42.605469 "/>
</clipPath>
<clipPath id="clip-87">
<path clip-rule="nonzero" d="M 58 47 L 60 47 L 60 49 L 58 49 Z M 58 47 "/>
</clipPath>
<clipPath id="clip-88">
<path clip-rule="nonzero" d="M 81.824219 42.605469 C 81.824219 54.261719 72.378906 63.707031 60.722656 63.707031 C 49.070312 63.707031 39.625 54.261719 39.625 42.605469 C 39.625 30.953125 49.070312 21.507812 60.722656 21.507812 C 72.378906 21.507812 81.824219 30.953125 81.824219 42.605469 Z M 81.824219 42.605469 "/>
</clipPath>
<clipPath id="clip-89">
<path clip-rule="nonzero" d="M 59 48 L 61 48 L 61 50 L 59 50 Z M 59 48 "/>
</clipPath>
<clipPath id="clip-90">
<path clip-rule="nonzero" d="M 81.824219 42.605469 C 81.824219 54.261719 72.378906 63.707031 60.722656 63.707031 C 49.070312 63.707031 39.625 54.261719 39.625 42.605469 C 39.625 30.953125 49.070312 21.507812 60.722656 21.507812 C 72.378906 21.507812 81.824219 30.953125 81.824219 42.605469 Z M 81.824219 42.605469 "/>
</clipPath>
<clipPath id="clip-91">
<path clip-rule="nonzero" d="M 66 55 L 68 55 L 68 58 L 66 58 Z M 66 55 "/>
</clipPath>
<clipPath id="clip-92">
<path clip-rule="nonzero" d="M 81.824219 42.605469 C 81.824219 54.261719 72.378906 63.707031 60.722656 63.707031 C 49.070312 63.707031 39.625 54.261719 39.625 42.605469 C 39.625 30.953125 49.070312 21.507812 60.722656 21.507812 C 72.378906 21.507812 81.824219 30.953125 81.824219 42.605469 Z M 81.824219 42.605469 "/>
</clipPath>
<clipPath id="clip-93">
<path clip-rule="nonzero" d="M 68 54 L 70 54 L 70 56 L 68 56 Z M 68 54 "/>
</clipPath>
<clipPath id="clip-94">
<path clip-rule="nonzero" d="M 81.824219 42.605469 C 81.824219 54.261719 72.378906 63.707031 60.722656 63.707031 C 49.070312 63.707031 39.625 54.261719 39.625 42.605469 C 39.625 30.953125 49.070312 21.507812 60.722656 21.507812 C 72.378906 21.507812 81.824219 30.953125 81.824219 42.605469 Z M 81.824219 42.605469 "/>
</clipPath>
<clipPath id="clip-95">
<path clip-rule="nonzero" d="M 64 53 L 66 53 L 66 55 L 64 55 Z M 64 53 "/>
</clipPath>
<clipPath id="clip-96">
<path clip-rule="nonzero" d="M 81.824219 42.605469 C 81.824219 54.261719 72.378906 63.707031 60.722656 63.707031 C 49.070312 63.707031 39.625 54.261719 39.625 42.605469 C 39.625 30.953125 49.070312 21.507812 60.722656 21.507812 C 72.378906 21.507812 81.824219 30.953125 81.824219 42.605469 Z M 81.824219 42.605469 "/>
</clipPath>
<clipPath id="clip-97">
<path clip-rule="nonzero" d="M 51 52 L 54 52 L 54 55 L 51 55 Z M 51 52 "/>
</clipPath>
<clipPath id="clip-98">
<path clip-rule="nonzero" d="M 81.824219 42.605469 C 81.824219 54.261719 72.378906 63.707031 60.722656 63.707031 C 49.070312 63.707031 39.625 54.261719 39.625 42.605469 C 39.625 30.953125 49.070312 21.507812 60.722656 21.507812 C 72.378906 21.507812 81.824219 30.953125 81.824219 42.605469 Z M 81.824219 42.605469 "/>
</clipPath>
<clipPath id="clip-99">
<path clip-rule="nonzero" d="M 60 58 L 62 58 L 62 60 L 60 60 Z M 60 58 "/>
</clipPath>
<clipPath id="clip-100">
<path clip-rule="nonzero" d="M 81.824219 42.605469 C 81.824219 54.261719 72.378906 63.707031 60.722656 63.707031 C 49.070312 63.707031 39.625 54.261719 39.625 42.605469 C 39.625 30.953125 49.070312 21.507812 60.722656 21.507812 C 72.378906 21.507812 81.824219 30.953125 81.824219 42.605469 Z M 81.824219 42.605469 "/>
</clipPath>
<clipPath id="clip-101">
<path clip-rule="nonzero" d="M 0 0.015625 L 122 0.015625 L 122 85.199219 L 0 85.199219 Z M 0 0.015625 "/>
</clipPath>
</defs>
<g clip-path="url(#clip-0)">
<path fill-rule="nonzero" fill="rgb(0%, 58.822632%, 22.3526%)" fill-opacity="1" d="M 0.28125 84.917969 L 0.28125 0.296875 L 121.167969 0.296875 L 121.167969 84.917969 Z M 0.28125 84.917969 "/>
</g>
<path fill-rule="nonzero" fill="rgb(99.607849%, 86.66687%, 0%)" fill-opacity="1" d="M 60.722656 74.644531 L 110.894531 42.605469 L 60.722656 10.570312 L 10.554688 42.605469 Z M 60.722656 74.644531 "/>
<g clip-path="url(#clip-1)">
<g clip-path="url(#clip-2)">
<path fill-rule="nonzero" fill="rgb(0%, 15.293884%, 46.273804%)" fill-opacity="1" d="M 81.824219 42.605469 C 81.824219 54.261719 72.378906 63.707031 60.722656 63.707031 C 49.070312 63.707031 39.625 54.261719 39.625 42.605469 C 39.625 30.953125 49.070312 21.507812 60.722656 21.507812 C 72.378906 21.507812 81.824219 30.953125 81.824219 42.605469 Z M 81.824219 42.605469 "/>
</g>
</g>
<g clip-path="url(#clip-3)">
<g clip-path="url(#clip-4)">
<path fill-rule="nonzero" fill="rgb(100%, 100%, 100%)" fill-opacity="1" d="M -2.25 84.589844 C -2.25 56.433594 20.574219 33.609375 48.730469 33.609375 C 76.882812 33.609375 99.707031 56.433594 99.707031 84.589844 L 96.707031 84.589844 C 96.707031 58.089844 75.226562 36.609375 48.730469 36.609375 C 22.230469 36.609375 0.75 58.089844 0.75 84.589844 Z M -2.25 84.589844 "/>
</g>
</g>
<g clip-path="url(#clip-5)">
<g clip-path="url(#clip-6)">
<path fill-rule="evenodd" fill="rgb(0%, 60.78186%, 22.744751%)" fill-opacity="1" d="M 43.347656 36.480469 C 43.839844 36.417969 44.1875 35.925781 44.121094 35.378906 C 44.050781 34.832031 43.597656 34.433594 43.105469 34.496094 C 42.613281 34.554688 42.265625 35.050781 42.332031 35.597656 C 42.402344 36.144531 42.855469 36.539062 43.347656 36.480469 M 43.304688 36.109375 C 43.59375 36.074219 43.792969 35.769531 43.75 35.421875 C 43.707031 35.078125 43.441406 34.828125 43.148438 34.863281 C 42.859375 34.898438 42.660156 35.207031 42.703125 35.550781 C 42.746094 35.894531 43.011719 36.148438 43.304688 36.109375 "/>
</g>
</g>
<g clip-path="url(#clip-7)">
<g clip-path="url(#clip-8)">
<path fill-rule="evenodd" fill="rgb(0%, 60.78186%, 22.744751%)" fill-opacity="1" d="M 44.976562 36.296875 L 45.347656 36.269531 L 45.296875 35.527344 L 46.09375 35.472656 C 46.441406 35.449219 46.699219 35.148438 46.675781 34.804688 C 46.652344 34.457031 46.351562 34.195312 46.007812 34.21875 L 44.867188 34.300781 Z M 45.269531 35.160156 L 46.039062 35.105469 C 46.179688 35.09375 46.289062 34.972656 46.277344 34.832031 C 46.269531 34.6875 46.144531 34.582031 46.003906 34.59375 L 45.234375 34.644531 Z M 45.269531 35.160156 "/>
</g>
</g>
<g clip-path="url(#clip-9)">
<g clip-path="url(#clip-10)">
<path fill-rule="nonzero" fill="rgb(0%, 60.78186%, 22.744751%)" fill-opacity="1" d="M 46.671875 36.175781 C 46.652344 35.894531 46.609375 35.265625 46.179688 35.296875 L 45.640625 35.332031 C 46.265625 35.289062 46.3125 35.917969 46.332031 36.203125 "/>
</g>
</g>
<g clip-path="url(#clip-11)">
<g clip-path="url(#clip-12)">
<path fill-rule="evenodd" fill="rgb(0%, 60.78186%, 22.744751%)" fill-opacity="1" d="M 47.503906 36.144531 L 48.445312 36.128906 C 48.917969 36.121094 49.292969 35.730469 49.285156 35.257812 L 49.28125 34.972656 C 49.273438 34.5 48.882812 34.125 48.410156 34.132812 L 47.46875 34.148438 Z M 47.867188 35.769531 L 48.410156 35.757812 C 48.707031 35.753906 48.949219 35.507812 48.941406 35.207031 L 48.9375 35.035156 C 48.933594 34.738281 48.6875 34.496094 48.386719 34.503906 L 47.84375 34.511719 Z M 47.867188 35.769531 "/>
</g>
</g>
<g clip-path="url(#clip-13)">
<g clip-path="url(#clip-14)">
<path fill-rule="nonzero" fill="rgb(0%, 60.78186%, 22.744751%)" fill-opacity="1" d="M 50.027344 36.121094 L 51.828125 36.183594 L 51.839844 35.8125 L 50.382812 35.761719 L 50.402344 35.246094 L 51.542969 35.285156 L 51.554688 34.945312 L 50.414062 34.90625 L 50.429688 34.503906 L 51.796875 34.550781 L 51.8125 34.183594 L 50.097656 34.121094 Z M 50.027344 36.121094 "/>
</g>
</g>
<g clip-path="url(#clip-15)">
<g clip-path="url(#clip-16)">
<path fill-rule="nonzero" fill="rgb(0%, 60.78186%, 22.744751%)" fill-opacity="1" d="M 52.558594 36.238281 L 52.898438 36.265625 L 53.019531 34.902344 L 53.296875 36.300781 L 53.609375 36.328125 L 54.128906 35 L 54.007812 36.363281 L 54.351562 36.394531 L 54.523438 34.402344 L 54.027344 34.359375 L 53.507812 35.691406 L 53.230469 34.289062 L 52.734375 34.246094 Z M 52.558594 36.238281 "/>
</g>
</g>
<g clip-path="url(#clip-17)">
<g clip-path="url(#clip-18)">
<path fill-rule="nonzero" fill="rgb(0%, 60.78186%, 22.744751%)" fill-opacity="1" d="M 56.703125 36.703125 L 58.179688 36.957031 L 58.234375 36.617188 L 57.097656 36.421875 L 57.175781 35.972656 L 58.101562 36.132812 L 58.160156 35.792969 L 57.230469 35.632812 L 57.285156 35.324219 L 58.390625 35.515625 L 58.449219 35.175781 L 57.003906 34.929688 Z M 56.703125 36.703125 "/>
</g>
</g>
<g clip-path="url(#clip-19)">
<g clip-path="url(#clip-20)">
<path fill-rule="evenodd" fill="rgb(0%, 60.78186%, 22.744751%)" fill-opacity="1" d="M 60.492188 37.445312 L 60.851562 37.539062 L 61.039062 36.820312 L 61.8125 37.019531 C 62.148438 37.105469 62.488281 36.90625 62.578125 36.570312 C 62.664062 36.234375 62.460938 35.890625 62.125 35.804688 L 61.019531 35.519531 Z M 61.128906 36.460938 L 61.875 36.652344 C 62.015625 36.6875 62.152344 36.605469 62.191406 36.46875 C 62.226562 36.332031 62.140625 36.191406 62.003906 36.15625 L 61.257812 35.964844 Z M 61.128906 36.460938 "/>
</g>
</g>
<g clip-path="url(#clip-21)">
<g clip-path="url(#clip-22)">
<path fill-rule="evenodd" fill="rgb(0%, 60.78186%, 22.744751%)" fill-opacity="1" d="M 62.949219 38.097656 L 63.304688 38.210938 L 63.527344 37.503906 L 64.289062 37.742188 C 64.621094 37.847656 64.972656 37.664062 65.078125 37.332031 C 65.179688 37 64.996094 36.648438 64.667969 36.546875 L 63.578125 36.203125 Z M 63.636719 37.148438 L 64.375 37.378906 C 64.507812 37.421875 64.652344 37.347656 64.695312 37.210938 C 64.738281 37.078125 64.664062 36.933594 64.527344 36.890625 L 63.792969 36.660156 Z M 63.636719 37.148438 "/>
</g>
</g>
<g clip-path="url(#clip-23)">
<g clip-path="url(#clip-24)">
<path fill-rule="nonzero" fill="rgb(0%, 60.78186%, 22.744751%)" fill-opacity="1" d="M 64.570312 38.609375 C 64.65625 38.335938 64.84375 37.738281 64.4375 37.609375 L 63.917969 37.445312 C 64.519531 37.636719 64.328125 38.234375 64.242188 38.507812 "/>
</g>
</g>
<g clip-path="url(#clip-25)">
<g clip-path="url(#clip-26)">
<path fill-rule="evenodd" fill="rgb(0%, 60.78186%, 22.744751%)" fill-opacity="1" d="M 66.210938 39.191406 C 66.675781 39.363281 67.210938 39.085938 67.402344 38.570312 C 67.597656 38.054688 67.375 37.492188 66.910156 37.320312 C 66.445312 37.144531 65.910156 37.421875 65.71875 37.941406 C 65.527344 38.457031 65.746094 39.015625 66.210938 39.191406 M 66.339844 38.84375 C 66.613281 38.945312 66.933594 38.765625 67.054688 38.441406 C 67.175781 38.113281 67.054688 37.769531 66.78125 37.667969 C 66.507812 37.566406 66.1875 37.746094 66.066406 38.070312 C 65.945312 38.394531 66.066406 38.742188 66.339844 38.84375 "/>
</g>
</g>
<g clip-path="url(#clip-27)">
<g clip-path="url(#clip-28)">
<path fill-rule="evenodd" fill="rgb(0%, 60.78186%, 22.744751%)" fill-opacity="1" d="M 68.554688 40.136719 C 69.007812 40.332031 69.554688 40.082031 69.777344 39.578125 C 69.996094 39.070312 69.804688 38.5 69.347656 38.304688 C 68.894531 38.105469 68.347656 38.355469 68.125 38.859375 C 67.90625 39.367188 68.097656 39.9375 68.554688 40.136719 M 68.699219 39.796875 C 68.96875 39.910156 69.296875 39.75 69.4375 39.429688 C 69.574219 39.113281 69.46875 38.757812 69.203125 38.644531 C 68.933594 38.527344 68.605469 38.691406 68.464844 39.007812 C 68.328125 39.328125 68.433594 39.679688 68.699219 39.796875 "/>
</g>
</g>
<g clip-path="url(#clip-29)">
<g clip-path="url(#clip-30)">
<path fill-rule="nonzero" fill="rgb(100%, 100%, 100%)" fill-opacity="1" d="M 69.082031 39.277344 L 69.195312 39.015625 L 69.914062 39.328125 L 69.800781 39.589844 Z M 69.082031 39.277344 "/>
</g>
</g>
<g clip-path="url(#clip-31)">
<g clip-path="url(#clip-32)">
<path fill-rule="nonzero" fill="rgb(0%, 60.78186%, 22.744751%)" fill-opacity="1" d="M 69.082031 39.277344 L 68.96875 39.539062 L 69.664062 39.839844 L 69.777344 39.578125 Z M 69.082031 39.277344 "/>
</g>
</g>
<g clip-path="url(#clip-33)">
<g clip-path="url(#clip-34)">
<path fill-rule="nonzero" fill="rgb(0%, 60.78186%, 22.744751%)" fill-opacity="1" d="M 69.515625 39.464844 L 69.117188 40.378906 L 69.378906 40.496094 L 69.777344 39.578125 Z M 69.515625 39.464844 "/>
</g>
</g>
<g clip-path="url(#clip-35)">
<g clip-path="url(#clip-36)">
<path fill-rule="evenodd" fill="rgb(0%, 60.78186%, 22.744751%)" fill-opacity="1" d="M 70.050781 40.824219 L 70.382812 40.988281 L 70.710938 40.324219 L 71.425781 40.679688 C 71.738281 40.835938 72.113281 40.710938 72.269531 40.398438 C 72.425781 40.089844 72.296875 39.710938 71.988281 39.558594 L 70.964844 39.046875 Z M 70.878906 39.992188 L 71.566406 40.335938 C 71.695312 40.398438 71.847656 40.347656 71.910156 40.222656 C 71.976562 40.09375 71.921875 39.941406 71.796875 39.875 L 71.105469 39.53125 Z M 70.878906 39.992188 "/>
</g>
</g>
<g clip-path="url(#clip-37)">
<g clip-path="url(#clip-38)">
<path fill-rule="nonzero" fill="rgb(0%, 60.78186%, 22.744751%)" fill-opacity="1" d="M 71.570312 41.582031 C 71.695312 41.324219 71.976562 40.765625 71.59375 40.574219 L 71.109375 40.332031 C 71.667969 40.609375 71.390625 41.171875 71.261719 41.429688 "/>
</g>
</g>
<g clip-path="url(#clip-39)">
<g clip-path="url(#clip-40)">
<path fill-rule="nonzero" fill="rgb(0%, 60.78186%, 22.744751%)" fill-opacity="1" d="M 72.332031 41.972656 L 73.894531 42.859375 L 74.078125 42.535156 L 72.8125 41.820312 L 73.066406 41.371094 L 74.058594 41.933594 L 74.226562 41.636719 L 73.234375 41.074219 L 73.429688 40.726562 L 74.621094 41.402344 L 74.804688 41.078125 L 73.316406 40.234375 Z M 72.332031 41.972656 "/>
</g>
</g>
<g clip-path="url(#clip-41)">
<g clip-path="url(#clip-42)">
<path fill-rule="nonzero" fill="rgb(0%, 60.78186%, 22.744751%)" fill-opacity="1" d="M 75.226562 42.9375 C 75.121094 43.109375 75.230469 43.296875 75.46875 43.449219 C 75.710938 43.601562 75.875 43.597656 75.945312 43.488281 C 76.164062 43.144531 74.898438 42.644531 75.289062 42.046875 C 75.625 41.53125 76.199219 41.933594 76.414062 42.070312 C 76.632812 42.207031 76.980469 42.566406 76.710938 42.976562 L 76.34375 42.742188 C 76.457031 42.5625 76.332031 42.390625 76.140625 42.265625 C 75.953125 42.148438 75.800781 42.09375 75.6875 42.269531 C 75.503906 42.546875 76.742188 43.074219 76.363281 43.667969 C 76.082031 44.109375 75.59375 43.917969 75.269531 43.710938 C 74.992188 43.535156 74.578125 43.117188 74.847656 42.699219 Z M 75.226562 42.9375 "/>
</g>
</g>
<g clip-path="url(#clip-43)">
<g clip-path="url(#clip-44)">
<path fill-rule="nonzero" fill="rgb(0%, 60.78186%, 22.744751%)" fill-opacity="1" d="M 77.382812 44.355469 C 77.269531 44.519531 77.367188 44.710938 77.601562 44.878906 C 77.832031 45.042969 77.996094 45.046875 78.070312 44.941406 C 78.308594 44.609375 77.070312 44.042969 77.492188 43.46875 C 77.855469 42.972656 78.40625 43.402344 78.617188 43.550781 C 78.824219 43.699219 79.15625 44.074219 78.863281 44.472656 L 78.507812 44.21875 C 78.632812 44.042969 78.515625 43.863281 78.328125 43.730469 C 78.148438 43.601562 78 43.539062 77.878906 43.710938 C 77.679688 43.976562 78.890625 44.570312 78.480469 45.144531 C 78.175781 45.570312 77.699219 45.351562 77.386719 45.128906 C 77.117188 44.9375 76.726562 44.5 77.019531 44.09375 Z M 77.382812 44.355469 "/>
</g>
</g>
<g clip-path="url(#clip-45)">
<g clip-path="url(#clip-46)">
<path fill-rule="evenodd" fill="rgb(0%, 60.78186%, 22.744751%)" fill-opacity="1" d="M 79.417969 46.667969 C 79.808594 46.976562 80.402344 46.878906 80.746094 46.445312 C 81.089844 46.015625 81.050781 45.414062 80.664062 45.105469 C 80.277344 44.796875 79.683594 44.894531 79.339844 45.328125 C 78.996094 45.757812 79.03125 46.359375 79.417969 46.667969 M 79.652344 46.378906 C 79.878906 46.558594 80.238281 46.488281 80.457031 46.214844 C 80.671875 45.945312 80.660156 45.578125 80.433594 45.394531 C 80.203125 45.214844 79.84375 45.285156 79.628906 45.558594 C 79.414062 45.828125 79.421875 46.195312 79.652344 46.378906 "/>
</g>
</g>
<g clip-path="url(#clip-47)">
<g clip-path="url(#clip-48)">
<path fill-rule="nonzero" fill="rgb(100%, 100%, 100%)" fill-opacity="1" d="M 43.589844 37.9375 L 43.386719 38.558594 L 42.734375 38.558594 L 43.261719 38.945312 L 43.058594 39.566406 L 43.589844 39.179688 L 44.117188 39.566406 L 43.914062 38.945312 L 44.445312 38.558594 L 43.789062 38.558594 Z M 43.589844 37.9375 "/>
</g>
</g>
<g clip-path="url(#clip-49)">
<g clip-path="url(#clip-50)">
<path fill-rule="nonzero" fill="rgb(100%, 100%, 100%)" fill-opacity="1" d="M 45.445312 46.761719 L 45.242188 47.382812 L 44.589844 47.382812 L 45.117188 47.769531 L 44.917969 48.390625 L 45.445312 48.003906 L 45.972656 48.390625 L 45.773438 47.769531 L 46.300781 47.382812 L 45.648438 47.382812 Z M 45.445312 46.761719 "/>
</g>
</g>
<g clip-path="url(#clip-51)">
<g clip-path="url(#clip-52)">
<path fill-rule="nonzero" fill="rgb(100%, 100%, 100%)" fill-opacity="1" d="M 42.875 48.796875 L 42.707031 49.316406 L 42.160156 49.316406 L 42.601562 49.636719 L 42.433594 50.152344 L 42.875 49.832031 L 43.316406 50.152344 L 43.148438 49.636719 L 43.585938 49.316406 L 43.042969 49.316406 Z M 42.875 48.796875 "/>
</g>
</g>
<g clip-path="url(#clip-53)">
<g clip-path="url(#clip-54)">
<path fill-rule="nonzero" fill="rgb(100%, 100%, 100%)" fill-opacity="1" d="M 47.5 45.949219 L 47.40625 46.246094 L 47.09375 46.246094 L 47.347656 46.425781 L 47.25 46.722656 L 47.5 46.539062 L 47.753906 46.722656 L 47.65625 46.425781 L 47.910156 46.246094 L 47.597656 46.246094 Z M 47.5 45.949219 "/>
</g>
</g>
<g clip-path="url(#clip-55)">
<g clip-path="url(#clip-56)">
<path fill-rule="nonzero" fill="rgb(100%, 100%, 100%)" fill-opacity="1" d="M 49.816406 48.996094 L 49.644531 49.515625 L 49.101562 49.515625 L 49.542969 49.835938 L 49.375 50.351562 L 49.816406 50.03125 L 50.253906 50.351562 L 50.085938 49.835938 L 50.527344 49.515625 L 49.984375 49.515625 Z M 49.816406 48.996094 "/>
</g>
</g>
<g clip-path="url(#clip-57)">
<g clip-path="url(#clip-58)">
<path fill-rule="nonzero" fill="rgb(100%, 100%, 100%)" fill-opacity="1" d="M 49.1875 51.230469 L 49.050781 51.644531 L 48.617188 51.644531 L 48.96875 51.902344 L 48.832031 52.316406 L 49.1875 52.0625 L 49.539062 52.316406 L 49.40625 51.902344 L 49.757812 51.644531 L 49.320312 51.644531 Z M 49.1875 51.230469 "/>
</g>
</g>
<g clip-path="url(#clip-59)">
<g clip-path="url(#clip-60)">
<path fill-rule="nonzero" fill="rgb(100%, 100%, 100%)" fill-opacity="1" d="M 67.234375 35.195312 L 67.035156 35.816406 L 66.378906 35.816406 L 66.910156 36.203125 L 66.707031 36.824219 L 67.234375 36.4375 L 67.765625 36.824219 L 67.5625 36.203125 L 68.089844 35.816406 L 67.4375 35.816406 Z M 67.234375 35.195312 "/>
</g>
</g>
<g clip-path="url(#clip-61)">
<g clip-path="url(#clip-62)">
<path fill-rule="nonzero" fill="rgb(100%, 100%, 100%)" fill-opacity="1" d="M 75.433594 49.074219 L 75.230469 49.695312 L 74.578125 49.695312 L 75.105469 50.082031 L 74.902344 50.703125 L 75.433594 50.320312 L 75.960938 50.703125 L 75.757812 50.082031 L 76.289062 49.695312 L 75.632812 49.695312 Z M 75.433594 49.074219 "/>
</g>
</g>
<g clip-path="url(#clip-63)">
<g clip-path="url(#clip-64)">
<path fill-rule="nonzero" fill="rgb(100%, 100%, 100%)" fill-opacity="1" d="M 78.34375 49.574219 L 78.210938 49.988281 L 77.773438 49.988281 L 78.128906 50.246094 L 77.992188 50.660156 L 78.34375 50.402344 L 78.699219 50.660156 L 78.5625 50.246094 L 78.914062 49.988281 L 78.480469 49.988281 Z M 78.34375 49.574219 "/>
</g>
</g>
<g clip-path="url(#clip-65)">
<g clip-path="url(#clip-66)">
<path fill-rule="nonzero" fill="rgb(100%, 100%, 100%)" fill-opacity="1" d="M 76.289062 51.082031 L 76.121094 51.601562 L 75.574219 51.601562 L 76.015625 51.921875 L 75.847656 52.4375 L 76.289062 52.117188 L 76.730469 52.4375 L 76.5625 51.921875 L 77 51.601562 L 76.457031 51.601562 Z M 76.289062 51.082031 "/>
</g>
</g>
<g clip-path="url(#clip-67)">
<g clip-path="url(#clip-68)">
<path fill-rule="nonzero" fill="rgb(100%, 100%, 100%)" fill-opacity="1" d="M 71.234375 55.480469 L 71.066406 55.996094 L 70.519531 55.996094 L 70.960938 56.316406 L 70.792969 56.835938 L 71.234375 56.515625 L 71.675781 56.835938 L 71.507812 56.316406 L 71.945312 55.996094 L 71.402344 55.996094 Z M 71.234375 55.480469 "/>
</g>
</g>
<g clip-path="url(#clip-69)">
<g clip-path="url(#clip-70)">
<path fill-rule="nonzero" fill="rgb(100%, 100%, 100%)" fill-opacity="1" d="M 71.207031 57.742188 L 71.070312 58.15625 L 70.636719 58.15625 L 70.988281 58.414062 L 70.851562 58.828125 L 71.207031 58.570312 L 71.558594 58.828125 L 71.421875 58.414062 L 71.777344 58.15625 L 71.339844 58.15625 Z M 71.207031 57.742188 "/>
</g>
</g>
<g clip-path="url(#clip-71)">
<g clip-path="url(#clip-72)">
<path fill-rule="nonzero" fill="rgb(100%, 100%, 100%)" fill-opacity="1" d="M 73.320312 53.972656 L 73.183594 54.386719 L 72.75 54.386719 L 73.101562 54.644531 L 72.964844 55.058594 L 73.320312 54.800781 L 73.671875 55.058594 L 73.535156 54.644531 L 73.890625 54.386719 L 73.453125 54.386719 Z M 73.320312 53.972656 "/>
</g>
</g>
<g clip-path="url(#clip-73)">
<g clip-path="url(#clip-74)">
<path fill-rule="nonzero" fill="rgb(100%, 100%, 100%)" fill-opacity="1" d="M 75.003906 52.765625 L 74.835938 53.285156 L 74.289062 53.285156 L 74.730469 53.605469 L 74.5625 54.121094 L 75.003906 53.804688 L 75.445312 54.121094 L 75.277344 53.605469 L 75.714844 53.285156 L 75.171875 53.285156 Z M 75.003906 52.765625 "/>
</g>
</g>
<g clip-path="url(#clip-75)">
<g clip-path="url(#clip-76)">
<path fill-rule="nonzero" fill="rgb(100%, 100%, 100%)" fill-opacity="1" d="M 71.148438 53.574219 L 71.015625 53.988281 L 70.578125 53.988281 L 70.929688 54.246094 L 70.796875 54.660156 L 71.148438 54.402344 L 71.5 54.660156 L 71.367188 54.246094 L 71.71875 53.988281 L 71.28125 53.988281 Z M 71.148438 53.574219 "/>
</g>
</g>
<g clip-path="url(#clip-77)">
<g clip-path="url(#clip-78)">
<path fill-rule="nonzero" fill="rgb(100%, 100%, 100%)" fill-opacity="1" d="M 52.726562 42.714844 L 52.558594 43.230469 L 52.015625 43.230469 L 52.457031 43.550781 L 52.289062 44.070312 L 52.726562 43.75 L 53.167969 44.070312 L 53 43.550781 L 53.441406 43.230469 L 52.894531 43.230469 Z M 52.726562 42.714844 "/>
</g>
</g>
<g clip-path="url(#clip-79)">
<g clip-path="url(#clip-80)">
<path fill-rule="nonzero" fill="rgb(100%, 100%, 100%)" fill-opacity="1" d="M 66.4375 40.949219 L 66.300781 41.363281 L 65.867188 41.363281 L 66.21875 41.621094 L 66.082031 42.035156 L 66.4375 41.78125 L 66.789062 42.035156 L 66.652344 41.621094 L 67.007812 41.363281 L 66.570312 41.363281 Z M 66.4375 40.949219 "/>
</g>
</g>
<g clip-path="url(#clip-81)">
<g clip-path="url(#clip-82)">
<path fill-rule="nonzero" fill="rgb(100%, 100%, 100%)" fill-opacity="1" d="M 60.722656 51.132812 L 60.523438 51.753906 L 59.867188 51.753906 L 60.398438 52.136719 L 60.195312 52.757812 L 60.722656 52.375 L 61.253906 52.757812 L 61.050781 52.136719 L 61.578125 51.753906 L 60.925781 51.753906 Z M 60.722656 51.132812 "/>
</g>
</g>
<g clip-path="url(#clip-83)">
<g clip-path="url(#clip-84)">
<path fill-rule="nonzero" fill="rgb(100%, 100%, 100%)" fill-opacity="1" d="M 63.152344 47.113281 L 62.984375 47.628906 L 62.4375 47.628906 L 62.878906 47.949219 L 62.710938 48.46875 L 63.152344 48.148438 L 63.59375 48.46875 L 63.425781 47.949219 L 63.863281 47.628906 L 63.320312 47.628906 Z M 63.152344 47.113281 "/>
</g>
</g>
<g clip-path="url(#clip-85)">
<g clip-path="url(#clip-86)">
<path fill-rule="nonzero" fill="rgb(100%, 100%, 100%)" fill-opacity="1" d="M 60.722656 45.226562 L 60.554688 45.746094 L 60.011719 45.746094 L 60.453125 46.066406 L 60.285156 46.582031 L 60.722656 46.261719 L 61.164062 46.582031 L 60.996094 46.066406 L 61.4375 45.746094 L 60.894531 45.746094 Z M 60.722656 45.226562 "/>
</g>
</g>
<g clip-path="url(#clip-87)">
<g clip-path="url(#clip-88)">
<path fill-rule="nonzero" fill="rgb(100%, 100%, 100%)" fill-opacity="1" d="M 58.609375 47.261719 L 58.476562 47.675781 L 58.039062 47.675781 L 58.394531 47.933594 L 58.257812 48.347656 L 58.609375 48.089844 L 58.964844 48.347656 L 58.828125 47.933594 L 59.179688 47.675781 L 58.746094 47.675781 Z M 58.609375 47.261719 "/>
</g>
</g>
<g clip-path="url(#clip-89)">
<g clip-path="url(#clip-90)">
<path fill-rule="nonzero" fill="rgb(100%, 100%, 100%)" fill-opacity="1" d="M 59.667969 48.890625 L 59.570312 49.1875 L 59.261719 49.1875 L 59.511719 49.367188 L 59.414062 49.664062 L 59.667969 49.480469 L 59.917969 49.664062 L 59.824219 49.367188 L 60.074219 49.1875 L 59.765625 49.1875 Z M 59.667969 48.890625 "/>
</g>
</g>
<g clip-path="url(#clip-91)">
<g clip-path="url(#clip-92)">
<path fill-rule="nonzero" fill="rgb(100%, 100%, 100%)" fill-opacity="1" d="M 67.007812 55.992188 L 66.839844 56.511719 L 66.292969 56.511719 L 66.734375 56.832031 L 66.566406 57.351562 L 67.007812 57.03125 L 67.449219 57.351562 L 67.28125 56.832031 L 67.71875 56.511719 L 67.175781 56.511719 Z M 67.007812 55.992188 "/>
</g>
</g>
<g clip-path="url(#clip-93)">
<g clip-path="url(#clip-94)">
<path fill-rule="nonzero" fill="rgb(100%, 100%, 100%)" fill-opacity="1" d="M 68.804688 54.289062 L 68.671875 54.703125 L 68.234375 54.703125 L 68.589844 54.957031 L 68.453125 55.371094 L 68.804688 55.117188 L 69.160156 55.371094 L 69.023438 54.957031 L 69.375 54.703125 L 68.941406 54.703125 Z M 68.804688 54.289062 "/>
</g>
</g>
<g clip-path="url(#clip-95)">
<g clip-path="url(#clip-96)">
<path fill-rule="nonzero" fill="rgb(100%, 100%, 100%)" fill-opacity="1" d="M 65.351562 53.773438 L 65.214844 54.1875 L 64.78125 54.1875 L 65.132812 54.445312 L 65 54.859375 L 65.351562 54.601562 L 65.703125 54.859375 L 65.570312 54.445312 L 65.921875 54.1875 L 65.484375 54.1875 Z M 65.351562 53.773438 "/>
</g>
</g>
<g clip-path="url(#clip-97)">
<g clip-path="url(#clip-98)">
<path fill-rule="nonzero" fill="rgb(100%, 100%, 100%)" fill-opacity="1" d="M 52.300781 52.84375 L 52.097656 53.46875 L 51.445312 53.46875 L 51.972656 53.851562 L 51.769531 54.472656 L 52.300781 54.089844 L 52.828125 54.472656 L 52.625 53.851562 L 53.15625 53.46875 L 52.5 53.46875 Z M 52.300781 52.84375 "/>
</g>
</g>
<g clip-path="url(#clip-99)">
<g clip-path="url(#clip-100)">
<path fill-rule="nonzero" fill="rgb(100%, 100%, 100%)" fill-opacity="1" d="M 60.722656 58.730469 L 60.65625 58.9375 L 60.4375 58.9375 L 60.617188 59.0625 L 60.546875 59.269531 L 60.722656 59.144531 L 60.902344 59.269531 L 60.832031 59.0625 L 61.007812 58.9375 L 60.792969 58.9375 Z M 60.722656 58.730469 "/>
</g>
</g>
<g clip-path="url(#clip-101)">
<path fill="none" stroke-width="0.56693" stroke-linecap="butt" stroke-linejoin="miter" stroke="rgb(39.99939%, 39.99939%, 39.99939%)" stroke-opacity="1" stroke-miterlimit="10" d="M -60.744348 -42.521914 L -60.744348 42.52102 L 60.744997 42.52102 L 60.744997 -42.521914 Z M -60.744348 -42.521914 " transform="matrix(0.99504, 0, 0, -0.99504, 60.724287, 42.606977)"/>
</g>
</svg>
