<?xml version="1.0" encoding="UTF-8"?>
<svg xmlns="http://www.w3.org/2000/svg" xmlns:xlink="http://www.w3.org/1999/xlink" width="173.967pt" height="85.606pt" viewBox="0 0 173.967 85.606">
<defs>
<clipPath id="clip-0">
<path clip-rule="nonzero" d="M 0.664062 0.28125 L 169.964844 0.28125 L 169.964844 84.933594 L 0.664062 84.933594 Z M 0.664062 0.28125 "/>
</clipPath>
<clipPath id="clip-1">
<path clip-rule="nonzero" d="M 0.664062 0.28125 L 43 0.28125 L 43 84.933594 L 0.664062 84.933594 Z M 0.664062 0.28125 "/>
</clipPath>
<clipPath id="clip-2">
<path clip-rule="nonzero" d="M 127 0.28125 L 169.964844 0.28125 L 169.964844 84.933594 L 127 84.933594 Z M 127 0.28125 "/>
</clipPath>
<clipPath id="clip-3">
<path clip-rule="nonzero" d="M 0.382812 0 L 171 0 L 171 85.214844 L 0.382812 85.214844 Z M 0.382812 0 "/>
</clipPath>
</defs>
<g clip-path="url(#clip-0)">
<path fill-rule="nonzero" fill="rgb(100%, 100%, 100%)" fill-opacity="1" d="M 0.664062 84.933594 L 0.664062 0.28125 L 169.964844 0.28125 L 169.964844 84.933594 Z M 0.664062 84.933594 "/>
</g>
<g clip-path="url(#clip-1)">
<path fill-rule="nonzero" fill="rgb(83.529663%, 0%, 19.607544%)" fill-opacity="1" d="M 0.664062 84.933594 L 0.664062 0.28125 L 42.988281 0.28125 L 42.988281 84.933594 Z M 0.664062 84.933594 "/>
</g>
<g clip-path="url(#clip-2)">
<path fill-rule="nonzero" fill="rgb(83.529663%, 0%, 19.607544%)" fill-opacity="1" d="M 127.640625 84.933594 L 127.640625 0.28125 L 169.964844 0.28125 L 169.964844 84.933594 Z M 127.640625 84.933594 "/>
</g>
<path fill-rule="nonzero" fill="rgb(83.529663%, 0%, 19.607544%)" fill-opacity="1" d="M 86.976562 80.105469 L 86.144531 64.164062 C 86.117188 63.539062 86.425781 62.941406 86.953125 62.605469 C 87.320312 62.367188 87.765625 62.277344 88.195312 62.351562 L 104.0625 65.140625 L 101.921875 59.230469 C 101.742188 58.75 101.890625 58.207031 102.289062 57.882812 L 119.671875 43.808594 L 115.753906 41.980469 C 115.207031 41.71875 114.9375 41.09375 115.128906 40.519531 L 118.5625 29.953125 L 108.550781 32.078125 C 107.992188 32.195312 107.429688 31.902344 107.203125 31.375 L 105.261719 26.8125 L 97.449219 35.199219 C 96.992188 35.679688 96.234375 35.703125 95.753906 35.246094 C 95.457031 34.964844 95.324219 34.550781 95.398438 34.148438 L 99.167969 14.714844 L 93.128906 18.207031 C 92.757812 18.421875 92.300781 18.425781 91.925781 18.214844 C 91.71875 18.097656 91.554688 17.917969 91.445312 17.707031 L 85.3125 5.664062 L 79.179688 17.707031 C 78.988281 18.089844 78.609375 18.34375 78.179688 18.367188 C 77.941406 18.382812 77.707031 18.324219 77.5 18.207031 L 71.460938 14.714844 L 75.230469 34.148438 C 75.355469 34.796875 74.925781 35.425781 74.277344 35.550781 C 73.875 35.628906 73.460938 35.496094 73.179688 35.199219 L 65.363281 26.8125 L 63.425781 31.375 C 63.199219 31.902344 62.636719 32.195312 62.078125 32.078125 L 52.066406 29.953125 L 55.5 40.519531 C 55.6875 41.09375 55.421875 41.71875 54.871094 41.980469 L 50.957031 43.808594 L 68.339844 57.882812 C 68.738281 58.207031 68.886719 58.75 68.707031 59.230469 L 66.566406 65.140625 L 82.433594 62.351562 C 83.050781 62.246094 83.679688 62.476562 84.078125 62.960938 C 84.359375 63.296875 84.503906 63.726562 84.484375 64.164062 L 83.652344 80.105469 Z M 86.976562 80.105469 "/>
<g clip-path="url(#clip-3)">
<path fill="none" stroke-width="0.56693" stroke-linecap="butt" stroke-linejoin="miter" stroke="rgb(39.99939%, 39.99939%, 39.99939%)" stroke-opacity="1" stroke-miterlimit="10" d="M -85.039721 -42.521499 L -85.039721 42.520456 L 85.040264 42.520456 L 85.040264 -42.521499 Z M -85.039721 -42.521499 " transform="matrix(0.995419, 0, 0, -0.995419, 85.314183, 42.606903)"/>
</g>
</svg>
