<?xml version="1.0" encoding="UTF-8"?>
<svg xmlns="http://www.w3.org/2000/svg" xmlns:xlink="http://www.w3.org/1999/xlink" width="148.469pt" height="85.606pt" viewBox="0 0 148.469 85.606">
<defs>
<clipPath id="clip-0">
<path clip-rule="nonzero" d="M 0.355469 0.28125 L 144.277344 0.28125 L 144.277344 84.933594 L 0.355469 84.933594 Z M 0.355469 0.28125 "/>
</clipPath>
<clipPath id="clip-1">
<path clip-rule="nonzero" d="M 0.355469 42 L 144.277344 42 L 144.277344 64 L 0.355469 64 Z M 0.355469 42 "/>
</clipPath>
<clipPath id="clip-2">
<path clip-rule="nonzero" d="M 0.355469 49 L 144.277344 49 L 144.277344 57 L 0.355469 57 Z M 0.355469 49 "/>
</clipPath>
<clipPath id="clip-3">
<path clip-rule="nonzero" d="M 0.0742188 0 L 145 0 L 145 85.214844 L 0.0742188 85.214844 Z M 0.0742188 0 "/>
</clipPath>
</defs>
<g clip-path="url(#clip-0)">
<path fill-rule="nonzero" fill="rgb(0%, 18.824768%, 52.938843%)" fill-opacity="1" d="M 0.355469 84.933594 L 0.355469 0.28125 L 144.277344 0.28125 L 144.277344 84.933594 Z M 0.355469 84.933594 "/>
</g>
<g clip-path="url(#clip-1)">
<path fill-rule="nonzero" fill="rgb(100%, 100%, 100%)" fill-opacity="1" d="M 0.355469 63.769531 L 0.355469 42.605469 L 144.277344 42.605469 L 144.277344 63.769531 Z M 0.355469 63.769531 "/>
<path fill-rule="nonzero" fill="rgb(100%, 100%, 100%)" fill-opacity="1" d="M 0.355469 63.769531 L 0.355469 42.605469 L 144.277344 42.605469 L 144.277344 63.769531 Z M 0.355469 63.769531 "/>
</g>
<g clip-path="url(#clip-2)">
<path fill-rule="nonzero" fill="rgb(78.431702%, 6.27594%, 18.03894%)" fill-opacity="1" d="M 0.355469 56.714844 L 0.355469 49.660156 L 144.277344 49.660156 L 144.277344 56.714844 Z M 0.355469 56.714844 "/>
</g>
<path fill-rule="nonzero" fill="rgb(100%, 80.39093%, 0%)" fill-opacity="1" d="M 75.683594 42.289062 L 74.785156 45.050781 L 71.882812 45.050781 L 74.230469 46.757812 L 73.332031 49.519531 L 75.683594 47.8125 L 78.03125 49.519531 L 77.136719 46.757812 L 79.484375 45.050781 L 76.582031 45.050781 Z M 75.683594 42.289062 "/>
<path fill-rule="nonzero" fill="rgb(100%, 80.39093%, 0%)" fill-opacity="1" d="M 67.570312 31.117188 L 66.671875 33.882812 L 63.765625 33.882812 L 66.117188 35.589844 L 65.21875 38.351562 L 67.570312 36.644531 L 69.917969 38.351562 L 69.019531 35.589844 L 71.371094 33.882812 L 68.464844 33.882812 Z M 67.570312 31.117188 "/>
<path fill-rule="nonzero" fill="rgb(100%, 80.39093%, 0%)" fill-opacity="1" d="M 54.4375 26.851562 L 53.542969 29.613281 L 50.636719 29.613281 L 52.988281 31.320312 L 52.089844 34.085938 L 54.4375 32.378906 L 56.789062 34.085938 L 55.890625 31.320312 L 58.242188 29.613281 L 55.335938 29.613281 Z M 54.4375 26.851562 "/>
<path fill-rule="nonzero" fill="rgb(100%, 80.39093%, 0%)" fill-opacity="1" d="M 41.308594 31.117188 L 40.410156 33.882812 L 37.507812 33.882812 L 39.855469 35.589844 L 38.960938 38.351562 L 41.308594 36.644531 L 43.660156 38.351562 L 42.761719 35.589844 L 45.113281 33.882812 L 42.207031 33.882812 Z M 41.308594 31.117188 "/>
<path fill-rule="nonzero" fill="rgb(100%, 80.39093%, 0%)" fill-opacity="1" d="M 33.195312 42.289062 L 32.296875 45.050781 L 29.394531 45.050781 L 31.742188 46.757812 L 30.84375 49.519531 L 33.195312 47.8125 L 35.546875 49.519531 L 34.648438 46.757812 L 36.996094 45.050781 L 34.09375 45.050781 Z M 33.195312 42.289062 "/>
<path fill-rule="nonzero" fill="rgb(100%, 80.39093%, 0%)" fill-opacity="1" d="M 33.195312 56.09375 L 32.296875 58.855469 L 29.394531 58.855469 L 31.742188 60.5625 L 30.84375 63.324219 L 33.195312 61.617188 L 35.546875 63.324219 L 34.648438 60.5625 L 36.996094 58.855469 L 34.09375 58.855469 Z M 33.195312 56.09375 "/>
<path fill-rule="nonzero" fill="rgb(100%, 80.39093%, 0%)" fill-opacity="1" d="M 41.308594 67.261719 L 40.410156 70.023438 L 37.507812 70.023438 L 39.855469 71.730469 L 38.960938 74.496094 L 41.308594 72.785156 L 43.660156 74.496094 L 42.761719 71.730469 L 45.113281 70.023438 L 42.207031 70.023438 Z M 41.308594 67.261719 "/>
<path fill-rule="nonzero" fill="rgb(100%, 80.39093%, 0%)" fill-opacity="1" d="M 54.4375 71.527344 L 53.542969 74.289062 L 50.636719 74.289062 L 52.988281 76 L 52.089844 78.761719 L 54.4375 77.054688 L 56.789062 78.761719 L 55.890625 76 L 58.242188 74.289062 L 55.335938 74.289062 Z M 54.4375 71.527344 "/>
<path fill-rule="nonzero" fill="rgb(100%, 80.39093%, 0%)" fill-opacity="1" d="M 67.570312 67.261719 L 66.671875 70.023438 L 63.765625 70.023438 L 66.117188 71.730469 L 65.21875 74.496094 L 67.570312 72.785156 L 69.917969 74.496094 L 69.019531 71.730469 L 71.371094 70.023438 L 68.464844 70.023438 Z M 67.570312 67.261719 "/>
<path fill-rule="nonzero" fill="rgb(100%, 80.39093%, 0%)" fill-opacity="1" d="M 75.683594 56.09375 L 74.785156 58.855469 L 71.882812 58.855469 L 74.230469 60.5625 L 73.332031 63.324219 L 75.683594 61.617188 L 78.03125 63.324219 L 77.136719 60.5625 L 79.484375 58.855469 L 76.582031 58.855469 Z M 75.683594 56.09375 "/>
<g clip-path="url(#clip-3)">
<path fill="none" stroke-width="0.56693" stroke-linecap="butt" stroke-linejoin="miter" stroke="rgb(39.99939%, 39.99939%, 39.99939%)" stroke-opacity="1" stroke-miterlimit="10" d="M -72.293058 -42.521499 L -72.293058 42.520456 L 72.291215 42.520456 L 72.291215 -42.521499 Z M -72.293058 -42.521499 " transform="matrix(0.995419, 0, 0, -0.995419, 72.317324, 42.606903)"/>
</g>
</svg>
