<?xml version="1.0" encoding="UTF-8"?>
<svg xmlns="http://www.w3.org/2000/svg" xmlns:xlink="http://www.w3.org/1999/xlink" width="117.277pt" height="85.606pt" viewBox="0 0 117.277 85.606">
<defs>
<clipPath id="clip-0">
<path clip-rule="nonzero" d="M 0.28125 0.347656 L 112.976562 0.347656 L 112.976562 84.867188 L 0.28125 84.867188 Z M 0.28125 0.347656 "/>
</clipPath>
<clipPath id="clip-1">
<path clip-rule="nonzero" d="M 0.28125 0.347656 L 112.976562 0.347656 L 112.976562 84.867188 L 0.28125 84.867188 Z M 0.28125 0.347656 "/>
</clipPath>
<clipPath id="clip-2">
<path clip-rule="nonzero" d="M 0 0.0664062 L 114 0.0664062 L 114 85.148438 L 0 85.148438 Z M 0 0.0664062 "/>
</clipPath>
</defs>
<g clip-path="url(#clip-0)">
<path fill-rule="nonzero" fill="rgb(0%, 63.920593%, 87.841797%)" fill-opacity="1" d="M 0.28125 84.867188 L 0.28125 0.347656 L 112.976562 0.347656 L 112.976562 84.867188 Z M 0.28125 84.867188 "/>
</g>
<path fill-rule="nonzero" fill="rgb(100%, 84.313965%, 0%)" fill-opacity="1" d="M 20.566406 6.152344 L 16.972656 17.210938 L 5.347656 17.207031 L 14.753906 24.042969 L 11.160156 35.097656 L 20.566406 28.261719 L 29.96875 35.097656 L 26.378906 24.042969 L 35.78125 17.207031 L 24.15625 17.210938 Z M 20.566406 6.152344 "/>
<g clip-path="url(#clip-1)">
<path fill="none" stroke-width="16.78053" stroke-linecap="square" stroke-linejoin="miter" stroke="rgb(100%, 84.313965%, 0%)" stroke-opacity="1" stroke-miterlimit="10" d="M -56.695016 -35.119694 L 56.695051 35.119262 " transform="matrix(0.993873, 0, 0, -0.993873, 56.628889, 42.607207)"/>
<path fill="none" stroke-width="12.58571" stroke-linecap="square" stroke-linejoin="miter" stroke="rgb(97.645569%, 25.881958%, 22.744751%)" stroke-opacity="1" stroke-miterlimit="10" d="M -56.695016 -35.119694 L 56.695051 35.119262 " transform="matrix(0.993873, 0, 0, -0.993873, 56.628889, 42.607207)"/>
</g>
<g clip-path="url(#clip-2)">
<path fill="none" stroke-width="0.56693" stroke-linecap="butt" stroke-linejoin="miter" stroke="rgb(39.99939%, 39.99939%, 39.99939%)" stroke-opacity="1" stroke-miterlimit="10" d="M -56.695016 -42.520509 L -56.695016 42.520076 L 56.695051 42.520076 L 56.695051 -42.520509 Z M -56.695016 -42.520509 " transform="matrix(0.993873, 0, 0, -0.993873, 56.628889, 42.607207)"/>
</g>
</svg>
