<?xml version="1.0" encoding="UTF-8"?>
<svg xmlns="http://www.w3.org/2000/svg" xmlns:xlink="http://www.w3.org/1999/xlink" width="131.457pt" height="85.606pt" viewBox="0 0 131.457 85.606">
<defs>
<clipPath id="clip-0">
<path clip-rule="nonzero" d="M 0.3125 0.28125 L 127.296875 0.28125 L 127.296875 29 L 0.3125 29 Z M 0.3125 0.28125 "/>
</clipPath>
<clipPath id="clip-1">
<path clip-rule="nonzero" d="M 0.3125 28 L 127.296875 28 L 127.296875 57 L 0.3125 57 Z M 0.3125 28 "/>
</clipPath>
<clipPath id="clip-2">
<path clip-rule="nonzero" d="M 0.3125 56 L 127.296875 56 L 127.296875 84.933594 L 0.3125 84.933594 Z M 0.3125 56 "/>
</clipPath>
<clipPath id="clip-3">
<path clip-rule="nonzero" d="M 60 37 L 63 37 L 63 46 L 60 46 Z M 60 37 "/>
</clipPath>
<clipPath id="clip-4">
<path clip-rule="nonzero" d="M 67.417969 38.300781 C 67.378906 38.300781 67.339844 38.300781 67.304688 38.300781 C 66.476562 38.300781 64.554688 37.878906 63.8125 37.242188 C 63.039062 37.828125 61.085938 38.300781 60.269531 38.300781 C 60.234375 38.300781 60.195312 38.296875 60.15625 38.292969 C 60.15625 38.476562 60.164062 38.667969 60.175781 38.84375 C 60.21875 39.496094 60.335938 40.152344 60.507812 40.785156 C 61.054688 42.769531 62.175781 44.457031 63.785156 45.738281 C 65.394531 44.457031 66.515625 42.765625 67.0625 40.777344 C 67.238281 40.148438 67.351562 39.492188 67.398438 38.839844 C 67.40625 38.65625 67.417969 38.433594 67.417969 38.300781 Z M 67.417969 38.300781 "/>
</clipPath>
<clipPath id="clip-5">
<path clip-rule="nonzero" d="M 62 37 L 66 37 L 66 46 L 62 46 Z M 62 37 "/>
</clipPath>
<clipPath id="clip-6">
<path clip-rule="nonzero" d="M 67.417969 38.300781 C 67.378906 38.300781 67.339844 38.300781 67.304688 38.300781 C 66.476562 38.300781 64.554688 37.878906 63.8125 37.242188 C 63.039062 37.828125 61.085938 38.300781 60.269531 38.300781 C 60.234375 38.300781 60.195312 38.296875 60.15625 38.292969 C 60.15625 38.476562 60.164062 38.667969 60.175781 38.84375 C 60.21875 39.496094 60.335938 40.152344 60.507812 40.785156 C 61.054688 42.769531 62.175781 44.457031 63.785156 45.738281 C 65.394531 44.457031 66.515625 42.765625 67.0625 40.777344 C 67.238281 40.148438 67.351562 39.492188 67.398438 38.839844 C 67.40625 38.65625 67.417969 38.433594 67.417969 38.300781 Z M 67.417969 38.300781 "/>
</clipPath>
<clipPath id="clip-7">
<path clip-rule="nonzero" d="M 65 37 L 68 37 L 68 46 L 65 46 Z M 65 37 "/>
</clipPath>
<clipPath id="clip-8">
<path clip-rule="nonzero" d="M 67.417969 38.300781 C 67.378906 38.300781 67.339844 38.300781 67.304688 38.300781 C 66.476562 38.300781 64.554688 37.878906 63.8125 37.242188 C 63.039062 37.828125 61.085938 38.300781 60.269531 38.300781 C 60.234375 38.300781 60.195312 38.296875 60.15625 38.292969 C 60.15625 38.476562 60.164062 38.667969 60.175781 38.84375 C 60.21875 39.496094 60.335938 40.152344 60.507812 40.785156 C 61.054688 42.769531 62.175781 44.457031 63.785156 45.738281 C 65.394531 44.457031 66.515625 42.765625 67.0625 40.777344 C 67.238281 40.148438 67.351562 39.492188 67.398438 38.839844 C 67.40625 38.65625 67.417969 38.433594 67.417969 38.300781 Z M 67.417969 38.300781 "/>
</clipPath>
<clipPath id="clip-9">
<path clip-rule="nonzero" d="M 0.03125 0 L 128 0 L 128 85.214844 L 0.03125 85.214844 Z M 0.03125 0 "/>
</clipPath>
</defs>
<g clip-path="url(#clip-0)">
<path fill-rule="nonzero" fill="rgb(78.431702%, 6.27594%, 18.03894%)" fill-opacity="1" d="M 0.3125 28.5 L 0.3125 0.28125 L 127.296875 0.28125 L 127.296875 28.5 Z M 0.3125 28.5 "/>
</g>
<g clip-path="url(#clip-1)">
<path fill-rule="nonzero" fill="rgb(100%, 100%, 100%)" fill-opacity="1" d="M 0.3125 56.714844 L 0.3125 28.5 L 127.296875 28.5 L 127.296875 56.714844 Z M 0.3125 56.714844 "/>
</g>
<g clip-path="url(#clip-2)">
<path fill-rule="nonzero" fill="rgb(0%, 0%, 0%)" fill-opacity="1" d="M 0.3125 84.933594 L 0.3125 56.714844 L 127.296875 56.714844 L 127.296875 84.933594 Z M 0.3125 84.933594 "/>
</g>
<path fill-rule="nonzero" fill="rgb(100%, 100%, 100%)" fill-opacity="1" stroke-width="0.25562" stroke-linecap="butt" stroke-linejoin="round" stroke="rgb(77.253723%, 66.273499%, 0%)" stroke-opacity="1" stroke-miterlimit="10" d="M 0.0935147 -0.27718 L 9.268361 -8.792756 L 8.613015 6.672629 C 8.518833 9.015393 6.482159 8.477774 5.002724 7.634065 C 3.503669 6.672629 1.792706 6.672629 -0.0124395 7.308354 C -1.817585 6.672629 -3.528548 6.672629 -5.027603 7.634065 C -6.507038 8.477774 -8.543712 9.015393 -8.637894 6.672629 L -9.29324 -8.792756 Z M 0.0935147 -0.27718 " transform="matrix(0.995419, 0, 0, -0.995419, 63.805351, 42.606903)"/>
<path fill-rule="nonzero" fill="rgb(77.253723%, 66.273499%, 0%)" fill-opacity="1" d="M 56.253906 35.425781 L 55.621094 50.398438 L 54.550781 51.355469 L 55.199219 35.960938 C 55.507812 35.75 56.042969 35.425781 56.253906 35.425781 Z M 57.535156 36.5 L 57 49.023438 L 55.929688 50.121094 L 56.578125 35.65625 C 56.789062 35.867188 57.421875 36.382812 57.535156 36.496094 Z M 58.699219 37.453125 L 58.28125 47.902344 L 57.417969 48.742188 L 57.957031 36.824219 C 58.164062 37.035156 58.585938 37.339844 58.699219 37.453125 Z M 59.964844 37.988281 L 59.542969 46.894531 L 58.699219 47.574219 L 59.121094 37.664062 C 59.332031 37.761719 59.753906 37.988281 59.964844 37.988281 Z M 61.128906 37.988281 L 60.824219 45.410156 L 59.964844 46.25 L 60.289062 38.085938 C 60.5 38.085938 61.035156 38.085938 61.128906 37.988281 Z M 61.128906 37.988281 "/>
<path fill-rule="nonzero" fill="rgb(77.253723%, 66.273499%, 0%)" fill-opacity="1" d="M 71.332031 35.425781 L 71.964844 50.398438 L 73.035156 51.355469 L 72.382812 35.960938 C 72.078125 35.75 71.542969 35.425781 71.332031 35.425781 Z M 70.050781 36.5 L 70.585938 49.023438 L 71.65625 50.121094 L 71.003906 35.65625 C 70.796875 35.867188 70.164062 36.382812 70.050781 36.496094 Z M 68.882812 37.453125 L 69.304688 47.902344 L 70.164062 48.742188 L 69.628906 36.824219 C 69.417969 37.035156 69 37.339844 68.882812 37.453125 Z M 67.621094 37.988281 L 68.042969 46.894531 L 68.882812 47.574219 L 68.460938 37.664062 C 68.25 37.761719 67.832031 37.988281 67.621094 37.988281 Z M 66.453125 37.988281 L 66.761719 45.410156 L 67.621094 46.25 L 67.296875 38.085938 C 67.085938 38.085938 66.550781 38.085938 66.453125 37.988281 Z M 66.453125 37.988281 "/>
<path fill-rule="nonzero" fill="rgb(77.253723%, 66.273499%, 0%)" fill-opacity="1" stroke-width="0.25562" stroke-linecap="butt" stroke-linejoin="miter" stroke="rgb(77.253723%, 66.273499%, 0%)" stroke-opacity="1" stroke-miterlimit="10" d="M 0.411377 -1.972447 L 1.698524 -7.83132 L 1.274707 -8.255136 L 0.83127 -7.929425 L 0.101363 -2.702353 L 0.411377 -7.929425 L -0.0124395 -8.467045 L -0.436256 -7.929425 L -0.126242 -2.702353 L -0.860073 -7.929425 L -1.299586 -8.255136 L -1.723403 -7.83132 L -0.436256 -1.972447 Z M 0.411377 -1.972447 " transform="matrix(0.995419, 0, 0, -0.995419, 63.805351, 42.606903)"/>
<path fill-rule="nonzero" fill="rgb(100%, 100%, 100%)" fill-opacity="1" stroke-width="0.25562" stroke-linecap="butt" stroke-linejoin="round" stroke="rgb(77.253723%, 66.273499%, 0%)" stroke-opacity="1" stroke-miterlimit="10" d="M -2.896747 0.601847 L -5.45142 -8.467045 L -1.935311 -9.004664 L -0.436256 -2.184355 Z M -2.896747 0.601847 " transform="matrix(0.995419, 0, 0, -0.995419, 63.805351, 42.606903)"/>
<path fill="none" stroke-width="0.25562" stroke-linecap="butt" stroke-linejoin="round" stroke="rgb(77.253723%, 66.273499%, 0%)" stroke-opacity="1" stroke-miterlimit="10" d="M -3.740457 -2.490445 L -3.434367 -3.239972 L -1.770494 -1.654584 " transform="matrix(0.995419, 0, 0, -0.995419, 63.805351, 42.606903)"/>
<path fill="none" stroke-width="0.25562" stroke-linecap="butt" stroke-linejoin="round" stroke="rgb(77.253723%, 66.273499%, 0%)" stroke-opacity="1" stroke-miterlimit="10" d="M -2.590658 -0.614663 L -2.241401 -3.875697 L -1.185784 -2.490445 M -1.6096 -3.028064 L -1.032739 -5.021572 M -0.805134 -4.287741 L -1.970629 -6.061493 M -1.6096 -7.83132 L -1.982402 -6.065417 L -2.308113 -4.26812 L -3.089035 -5.327662 L -3.434367 -4.107227 L -4.529226 -5.229556 L -3.971986 -7.270155 L -3.202837 -6.006553 L -2.779021 -7.2937 L -1.990251 -6.069341 " transform="matrix(0.995419, 0, 0, -0.995419, 63.805351, 42.606903)"/>
<path fill="none" stroke-width="0.25562" stroke-linecap="butt" stroke-linejoin="round" stroke="rgb(77.253723%, 66.273499%, 0%)" stroke-opacity="1" stroke-miterlimit="10" d="M -4.701892 -8.255136 L -3.991607 -7.258382 L -3.528548 -8.792756 L -2.896747 -7.717517 L -2.472931 -9.004664 " transform="matrix(0.995419, 0, 0, -0.995419, 63.805351, 42.606903)"/>
<path fill-rule="nonzero" fill="rgb(100%, 100%, 100%)" fill-opacity="1" stroke-width="0.25562" stroke-linecap="butt" stroke-linejoin="round" stroke="rgb(77.253723%, 66.273499%, 0%)" stroke-opacity="1" stroke-miterlimit="10" d="M 2.867944 0.601847 L 5.422617 -8.467045 L 1.906508 -9.004664 L 0.411377 -2.184355 Z M 2.867944 0.601847 " transform="matrix(0.995419, 0, 0, -0.995419, 63.805351, 42.606903)"/>
<path fill="none" stroke-width="0.25562" stroke-linecap="butt" stroke-linejoin="round" stroke="rgb(77.253723%, 66.273499%, 0%)" stroke-opacity="1" stroke-miterlimit="10" d="M 3.715578 -2.490445 L 3.405563 -3.239972 L 1.745615 -1.654584 " transform="matrix(0.995419, 0, 0, -0.995419, 63.805351, 42.606903)"/>
<path fill="none" stroke-width="0.25562" stroke-linecap="butt" stroke-linejoin="round" stroke="rgb(77.253723%, 66.273499%, 0%)" stroke-opacity="1" stroke-miterlimit="10" d="M 2.561854 -0.614663 L 2.216522 -3.875697 L 1.160905 -2.490445 M 1.580797 -3.028064 L 1.003936 -5.021572 M 0.77633 -4.287741 L 1.94575 -6.061493 M 1.580797 -7.83132 L 1.953599 -6.065417 L 2.283234 -4.26812 L 3.064156 -5.327662 L 3.405563 -4.107227 L 4.500423 -5.229556 L 3.943183 -7.270155 L 3.177958 -6.006553 L 2.754142 -7.2937 L 1.965372 -6.069341 " transform="matrix(0.995419, 0, 0, -0.995419, 63.805351, 42.606903)"/>
<path fill="none" stroke-width="0.25562" stroke-linecap="butt" stroke-linejoin="round" stroke="rgb(77.253723%, 66.273499%, 0%)" stroke-opacity="1" stroke-miterlimit="10" d="M 4.677013 -8.255136 L 3.966728 -7.258382 L 3.503669 -8.792756 L 2.867944 -7.717517 L 2.448052 -9.004664 " transform="matrix(0.995419, 0, 0, -0.995419, 63.805351, 42.606903)"/>
<path fill-rule="nonzero" fill="rgb(100%, 100%, 100%)" fill-opacity="1" stroke-width="0.43454" stroke-linecap="round" stroke-linejoin="round" stroke="rgb(77.253723%, 66.273499%, 0%)" stroke-opacity="1" stroke-miterlimit="10" d="M -0.0124395 -12.520773 C 2.656036 -12.520773 5.214633 -12.308864 6.713688 -11.885048 C 7.345489 -11.771245 7.345489 -11.445534 7.345489 -11.021717 C 7.981214 -10.809809 7.651579 -10.060281 8.095016 -10.060281 C 7.651579 -10.178008 7.557397 -9.310754 7.019778 -9.428481 C 7.019778 -8.678953 6.27025 -8.580847 5.634525 -8.792756 C 4.366999 -9.216572 2.118417 -9.310754 -0.0124395 -9.310754 C -2.14722 -9.216572 -4.376182 -9.216572 -5.663328 -8.792756 C -6.295129 -8.580847 -7.044657 -8.678953 -7.044657 -9.428481 C -7.582276 -9.310754 -7.680382 -10.178008 -8.119895 -10.060281 C -7.680382 -10.060281 -8.006093 -10.809809 -7.374292 -11.021717 C -7.374292 -11.445534 -7.374292 -11.771245 -6.718946 -11.885048 C -5.239512 -12.308864 -2.684839 -12.520773 -0.0124395 -12.520773 Z M -0.0124395 -12.520773 " transform="matrix(0.995419, 0, 0, -0.995419, 63.805351, 42.606903)"/>
<path fill-rule="nonzero" fill="rgb(100%, 100%, 100%)" fill-opacity="1" stroke-width="0.25562" stroke-linecap="round" stroke-linejoin="round" stroke="rgb(77.253723%, 66.273499%, 0%)" stroke-opacity="1" stroke-miterlimit="10" d="M -3.642351 -8.467045 C -2.779021 -8.580847 -1.817585 -8.675029 -1.068057 -8.580847 C -0.648165 -8.580847 -0.33815 -9.310754 -1.185784 -9.424556 C -1.935311 -9.522662 -3.104732 -9.424556 -3.740457 -9.310754 C -4.278076 -9.216572 -5.45142 -9.004664 -6.200948 -8.792756 C -6.950475 -8.467045 -6.412856 -7.83132 -5.989039 -7.929425 C -5.333693 -8.137409 -4.489984 -8.349318 -3.642351 -8.467045 Z M 3.617472 -8.467045 C 2.754142 -8.580847 1.792706 -8.675029 1.062799 -8.580847 C 0.619361 -8.580847 0.313271 -9.310754 1.160905 -9.424556 C 1.910432 -9.522662 3.079853 -9.424556 3.715578 -9.310754 C 4.253197 -9.216572 5.426541 -9.004664 6.172145 -8.792756 C 6.925596 -8.467045 6.384053 -7.83132 5.96416 -7.929425 C 5.308814 -8.137409 4.465105 -8.349318 3.617472 -8.467045 Z M 3.617472 -8.467045 " transform="matrix(0.995419, 0, 0, -0.995419, 63.805351, 42.606903)"/>
<path fill-rule="nonzero" fill="rgb(100%, 100%, 100%)" fill-opacity="1" stroke-width="0.25562" stroke-linecap="round" stroke-linejoin="round" stroke="rgb(77.253723%, 66.273499%, 0%)" stroke-opacity="1" stroke-miterlimit="10" d="M -6.295129 -8.043228 C -6.950475 -7.929425 -7.256565 -8.678953 -7.044657 -9.098845 C -6.950475 -8.886937 -6.507038 -8.886937 -6.412856 -8.678953 C -6.295129 -8.349318 -6.507038 -8.349318 -6.295129 -8.043228 Z M -3.740457 -10.009266 C -3.740457 -9.58545 -3.31664 -9.636465 -3.31664 -9.216572 C -3.31664 -9.004664 -3.434367 -8.678953 -3.646275 -8.678953 C -3.854259 -8.678953 -4.066167 -8.886937 -4.066167 -9.098845 C -4.164273 -9.522662 -3.740457 -9.58545 -3.740457 -10.009266 Z M -0.699179 -8.792756 C -0.0673787 -8.792756 -0.130166 -9.636465 -0.436256 -10.060281 C -0.436256 -9.754192 -0.973875 -9.636465 -0.973875 -9.428481 C -0.973875 -9.098845 -0.487271 -9.098845 -0.699179 -8.792756 Z M 6.27025 -8.043228 C 6.921672 -7.929425 7.231686 -8.678953 7.019778 -9.098845 C 6.921672 -8.886937 6.482159 -8.886937 6.384053 -8.678953 C 6.27025 -8.349318 6.482159 -8.349318 6.27025 -8.043228 Z M 3.715578 -10.009266 C 3.715578 -9.58545 3.291761 -9.636465 3.291761 -9.216572 C 3.291761 -9.004664 3.405563 -8.678953 3.617472 -8.678953 C 3.82938 -8.678953 4.041288 -8.886937 4.041288 -9.098845 C 4.13547 -9.522662 3.715578 -9.58545 3.715578 -10.009266 Z M 0.6743 -8.792756 C 0.0385755 -8.792756 0.101363 -9.636465 0.407453 -10.060281 C 0.407453 -9.754192 0.945072 -9.636465 0.945072 -9.428481 C 0.945072 -9.098845 0.462392 -9.098845 0.6743 -8.792756 Z M 0.6743 -8.792756 " transform="matrix(0.995419, 0, 0, -0.995419, 63.805351, 42.606903)"/>
<path fill-rule="nonzero" fill="rgb(100%, 100%, 100%)" fill-opacity="1" stroke-width="0.25562" stroke-linecap="round" stroke-linejoin="round" stroke="rgb(77.253723%, 66.273499%, 0%)" stroke-opacity="1" stroke-miterlimit="10" d="M -6.083221 -8.255136 C -5.871313 -8.255136 -5.545602 -8.353242 -5.45142 -8.467045 Z M -5.027603 -8.580847 C -4.913801 -8.580847 -4.489984 -8.678953 -4.278076 -8.792756 L -5.031528 -8.580847 Z M -1.185784 -9.004664 C -1.397692 -9.004664 -1.817585 -9.004664 -1.935311 -9.098845 Z M -2.355204 -9.004664 C -2.472931 -8.886937 -2.896747 -8.886937 -3.104732 -9.004664 Z M 6.058342 -8.255136 C 5.846434 -8.255136 5.540344 -8.353242 5.426541 -8.467045 Z M 5.002724 -8.580847 C 4.888922 -8.580847 4.465105 -8.678953 4.253197 -8.792756 Z M 1.156981 -9.004664 C 1.368889 -9.004664 1.792706 -9.004664 1.906508 -9.098845 Z M 2.330325 -9.004664 C 2.444128 -8.886937 2.867944 -8.886937 3.079853 -9.004664 Z M 2.330325 -9.004664 " transform="matrix(0.995419, 0, 0, -0.995419, 63.805351, 42.606903)"/>
<path fill-rule="nonzero" fill="rgb(100%, 100%, 100%)" fill-opacity="1" d="M 57.570312 52.503906 C 57.5 52.492188 57.460938 52.4375 57.480469 52.367188 C 57.503906 52.289062 57.566406 52.242188 57.628906 52.261719 C 57.667969 52.277344 57.738281 52.347656 57.738281 52.375 C 57.742188 52.40625 57.703125 52.476562 57.6875 52.476562 C 57.679688 52.476562 57.667969 52.480469 57.660156 52.488281 C 57.648438 52.503906 57.605469 52.511719 57.570312 52.503906 Z M 64.894531 53.027344 C 64.867188 53.019531 64.824219 52.960938 64.824219 52.933594 C 64.828125 52.878906 64.902344 52.796875 64.949219 52.796875 C 64.972656 52.796875 65.039062 52.828125 65.0625 52.851562 C 65.105469 52.898438 65.09375 52.972656 65.039062 53.015625 C 65.011719 53.035156 64.933594 53.042969 64.894531 53.027344 Z M 64.941406 53.359375 C 64.886719 53.339844 64.867188 53.3125 64.863281 53.25 C 64.855469 53.1875 64.863281 53.175781 64.929688 53.136719 L 64.980469 53.113281 L 65.027344 53.132812 C 65.089844 53.160156 65.117188 53.191406 65.121094 53.234375 C 65.125 53.28125 65.089844 53.328125 65.035156 53.351562 C 64.988281 53.375 64.984375 53.375 64.941406 53.359375 Z M 64.941406 53.359375 "/>
<path fill-rule="nonzero" fill="rgb(77.253723%, 66.273499%, 0%)" fill-opacity="1" d="M 58.160156 51.90625 C 58.113281 51.90625 58.050781 51.949219 58.011719 51.96875 C 57.925781 51.988281 57.828125 52.042969 57.742188 51.984375 C 57.660156 51.960938 57.550781 51.980469 57.539062 52.082031 C 57.558594 52.167969 57.679688 52.21875 57.753906 52.160156 C 57.808594 52.089844 57.960938 52.046875 57.976562 52.167969 C 57.914062 52.261719 57.921875 52.382812 57.871094 52.480469 C 57.863281 52.542969 57.839844 52.601562 57.804688 52.652344 C 57.742188 52.660156 57.679688 52.652344 57.625 52.691406 C 57.542969 52.695312 57.457031 52.734375 57.410156 52.808594 C 57.355469 52.882812 57.304688 52.960938 57.289062 53.058594 C 57.304688 53.152344 57.414062 53.179688 57.496094 53.1875 C 57.585938 53.210938 57.675781 53.242188 57.761719 53.269531 C 57.910156 53.300781 58.042969 53.355469 58.1875 53.386719 C 58.398438 53.449219 58.621094 53.480469 58.835938 53.535156 C 58.855469 53.542969 58.878906 53.550781 58.902344 53.550781 C 58.988281 53.570312 59.035156 53.476562 59.042969 53.402344 C 59.085938 53.246094 59.121094 53.089844 59.164062 52.9375 C 59.195312 52.875 59.230469 52.734375 59.109375 52.765625 C 59.039062 52.804688 58.980469 52.867188 58.898438 52.875 C 58.78125 52.878906 58.847656 53 58.894531 53.046875 C 58.902344 53.125 58.878906 53.21875 58.824219 53.28125 C 58.757812 53.324219 58.667969 53.273438 58.597656 53.257812 C 58.519531 53.257812 58.367188 53.21875 58.4375 53.113281 C 58.464844 53.039062 58.464844 52.953125 58.496094 52.878906 C 58.535156 52.796875 58.542969 52.707031 58.558594 52.621094 C 58.511719 52.515625 58.429688 52.652344 58.363281 52.664062 C 58.320312 52.695312 58.148438 52.710938 58.238281 52.789062 C 58.316406 52.847656 58.257812 52.949219 58.242188 53.023438 C 58.238281 53.125 58.132812 53.152344 58.046875 53.128906 C 57.964844 53.125 57.847656 53.0625 57.917969 52.96875 C 57.933594 52.894531 57.960938 52.816406 57.976562 52.738281 C 58.007812 52.648438 58.035156 52.558594 58.066406 52.464844 C 58.082031 52.382812 58.113281 52.304688 58.152344 52.230469 C 58.152344 52.140625 58.214844 52.0625 58.214844 51.96875 C 58.207031 51.925781 58.1875 51.90625 58.160156 51.90625 Z M 57.679688 52.875 C 57.691406 52.871094 57.699219 52.875 57.710938 52.878906 C 57.742188 52.890625 57.742188 52.917969 57.710938 52.949219 C 57.695312 52.960938 57.675781 52.972656 57.671875 52.972656 C 57.609375 52.96875 57.589844 52.957031 57.589844 52.9375 C 57.585938 52.914062 57.59375 52.910156 57.632812 52.890625 C 57.65625 52.878906 57.667969 52.875 57.679688 52.875 Z M 57.542969 53.542969 C 57.476562 53.480469 57.488281 53.433594 57.585938 53.363281 C 57.625 53.332031 57.652344 53.335938 57.699219 53.378906 C 57.773438 53.445312 57.777344 53.488281 57.710938 53.546875 C 57.679688 53.574219 57.664062 53.578125 57.628906 53.582031 C 57.589844 53.582031 57.578125 53.574219 57.542969 53.542969 Z M 57.949219 53.664062 C 57.910156 53.65625 57.878906 53.625 57.867188 53.585938 C 57.859375 53.566406 57.859375 53.542969 57.867188 53.519531 C 57.882812 53.460938 57.894531 53.457031 57.976562 53.457031 C 58.074219 53.453125 58.089844 53.472656 58.09375 53.554688 C 58.09375 53.601562 58.089844 53.613281 58.066406 53.636719 C 58.039062 53.660156 57.984375 53.675781 57.949219 53.664062 Z M 69.828125 53.675781 C 69.796875 53.652344 69.792969 53.640625 69.792969 53.609375 C 69.792969 53.550781 69.824219 53.511719 69.890625 53.480469 C 69.984375 53.441406 70.019531 53.445312 70.054688 53.507812 C 70.097656 53.585938 70.097656 53.621094 70.042969 53.671875 C 70.011719 53.703125 70.007812 53.703125 69.9375 53.707031 C 69.871094 53.707031 69.863281 53.703125 69.828125 53.675781 Z M 58.488281 53.828125 C 58.441406 53.816406 58.414062 53.78125 58.414062 53.722656 C 58.414062 53.675781 58.417969 53.671875 58.449219 53.644531 C 58.46875 53.628906 58.5 53.617188 58.523438 53.613281 C 58.5625 53.609375 58.574219 53.613281 58.601562 53.632812 C 58.675781 53.683594 58.691406 53.734375 58.648438 53.785156 C 58.605469 53.835938 58.5625 53.847656 58.488281 53.828125 Z M 61.410156 53.960938 C 61.398438 53.945312 61.375 53.9375 61.375 53.921875 C 61.378906 53.847656 61.382812 53.773438 61.40625 53.703125 C 61.417969 53.632812 61.40625 53.558594 61.429688 53.492188 C 61.457031 53.367188 61.457031 53.242188 61.484375 53.117188 C 61.484375 53.054688 61.492188 52.992188 61.511719 52.929688 C 61.53125 52.835938 61.511719 52.734375 61.539062 52.636719 C 61.539062 52.601562 61.578125 52.507812 61.613281 52.5625 C 61.667969 52.640625 61.738281 52.703125 61.804688 52.765625 C 61.863281 52.800781 61.808594 52.847656 61.769531 52.867188 C 61.714844 52.886719 61.699219 52.949219 61.703125 53.003906 C 61.695312 53.058594 61.675781 53.109375 61.671875 53.167969 C 61.660156 53.25 61.664062 53.332031 61.652344 53.417969 C 61.628906 53.496094 61.636719 53.585938 61.628906 53.667969 C 61.628906 53.722656 61.605469 53.769531 61.609375 53.824219 C 61.601562 53.875 61.597656 53.941406 61.554688 53.980469 C 61.507812 54 61.445312 53.996094 61.410156 53.960938 Z M 65.371094 52.652344 C 65.304688 52.703125 65.25 52.757812 65.191406 52.816406 C 65.113281 52.875 65.257812 52.910156 65.273438 52.960938 C 65.296875 53.039062 65.292969 53.125 65.300781 53.203125 C 65.324219 53.277344 65.335938 53.355469 65.328125 53.433594 C 65.320312 53.515625 65.214844 53.5 65.167969 53.546875 C 65.101562 53.574219 65.074219 53.636719 65.023438 53.683594 C 64.992188 53.746094 64.984375 53.824219 64.980469 53.898438 C 64.984375 53.957031 64.9375 54.027344 64.980469 54.078125 C 64.984375 54.085938 64.992188 54.097656 64.996094 54.101562 C 65.007812 54.121094 65.042969 54.105469 65.0625 54.113281 C 65.128906 54.109375 65.199219 54.117188 65.261719 54.089844 C 65.421875 54.0625 65.585938 54.0625 65.75 54.054688 C 65.847656 54.054688 65.945312 54.023438 66.046875 54.023438 C 66.125 54.042969 66.160156 53.957031 66.15625 53.894531 C 66.113281 53.808594 66.152344 53.703125 66.117188 53.617188 C 66.085938 53.527344 66.097656 53.425781 66.082031 53.332031 C 66.082031 53.257812 65.988281 53.230469 65.941406 53.285156 C 65.894531 53.332031 65.824219 53.34375 65.789062 53.398438 C 65.746094 53.480469 65.871094 53.480469 65.890625 53.539062 C 65.914062 53.601562 65.90625 53.671875 65.914062 53.738281 C 65.925781 53.816406 65.839844 53.820312 65.789062 53.828125 C 65.714844 53.855469 65.613281 53.875 65.574219 53.785156 C 65.550781 53.722656 65.550781 53.65625 65.546875 53.585938 C 65.542969 53.46875 65.515625 53.351562 65.507812 53.234375 C 65.5 53.085938 65.476562 52.941406 65.464844 52.796875 C 65.464844 52.734375 65.457031 52.636719 65.371094 52.652344 Z M 65.289062 53.753906 L 65.328125 53.757812 L 65.335938 53.859375 L 65.28125 53.875 C 65.253906 53.882812 65.230469 53.886719 65.230469 53.886719 C 65.21875 53.882812 65.210938 53.875 65.203125 53.871094 C 65.175781 53.847656 65.183594 53.820312 65.21875 53.777344 C 65.242188 53.753906 65.253906 53.75 65.289062 53.753906 Z M 61.292969 52.515625 C 61.242188 52.535156 61.175781 52.609375 61.125 52.609375 C 61.007812 52.617188 61.023438 52.730469 61.109375 52.769531 C 61.121094 52.804688 61.109375 52.847656 61.113281 52.886719 C 61.128906 52.992188 61.0625 53.078125 61.074219 53.183594 C 61.070312 53.300781 61.035156 53.410156 61.03125 53.527344 C 60.996094 53.648438 60.996094 53.773438 60.976562 53.894531 C 60.960938 54.003906 60.882812 53.964844 60.8125 53.9375 C 60.8125 53.890625 60.808594 53.84375 60.808594 53.796875 C 60.839844 53.6875 60.75 53.65625 60.664062 53.640625 C 60.570312 53.648438 60.527344 53.570312 60.546875 53.492188 C 60.585938 53.445312 60.683594 53.457031 60.746094 53.449219 C 60.878906 53.476562 60.871094 53.300781 60.804688 53.242188 C 60.757812 53.15625 60.644531 53.121094 60.613281 53.03125 C 60.625 52.917969 60.550781 52.800781 60.453125 52.746094 C 60.308594 52.734375 60.199219 52.859375 60.148438 52.984375 C 60.085938 53 60.027344 53.019531 59.96875 53.042969 C 59.871094 53.066406 59.738281 53.230469 59.867188 53.292969 C 59.941406 53.3125 60.160156 53.363281 60.0625 53.460938 C 60.007812 53.554688 59.902344 53.558594 59.808594 53.53125 C 59.710938 53.53125 59.605469 53.484375 59.609375 53.375 C 59.589844 53.273438 59.59375 53.167969 59.546875 53.074219 C 59.527344 52.960938 59.398438 52.988281 59.390625 53.089844 C 59.292969 53.164062 59.308594 53.277344 59.375 53.363281 C 59.417969 53.460938 59.375 53.574219 59.335938 53.660156 C 59.308594 53.777344 59.179688 53.78125 59.089844 53.820312 C 59.042969 53.835938 58.871094 53.808594 58.933594 53.90625 C 59.035156 53.941406 59.15625 53.976562 59.257812 53.949219 C 59.367188 53.9375 59.464844 53.859375 59.515625 53.765625 C 59.589844 53.691406 59.71875 53.730469 59.8125 53.730469 C 59.917969 53.726562 60.023438 53.800781 60.121094 53.753906 C 60.152344 53.679688 60.285156 53.554688 60.324219 53.683594 C 60.320312 53.796875 60.421875 53.859375 60.527344 53.84375 C 60.640625 53.839844 60.597656 53.925781 60.597656 53.996094 C 60.605469 54.121094 60.683594 54.183594 60.789062 54.238281 C 60.824219 54.246094 60.859375 54.242188 60.898438 54.238281 C 60.996094 54.207031 61.105469 54.160156 61.132812 54.050781 C 61.175781 53.957031 61.175781 53.855469 61.203125 53.761719 C 61.226562 53.609375 61.257812 53.460938 61.261719 53.308594 C 61.300781 53.167969 61.289062 53.023438 61.316406 52.882812 C 61.335938 52.777344 61.347656 52.675781 61.359375 52.570312 C 61.347656 52.515625 61.324219 52.503906 61.292969 52.515625 Z M 60.386719 53.070312 C 60.410156 53.074219 60.417969 53.097656 60.421875 53.140625 C 60.421875 53.191406 60.449219 53.230469 60.480469 53.238281 C 60.503906 53.242188 60.503906 53.269531 60.476562 53.285156 C 60.460938 53.296875 60.433594 53.304688 60.382812 53.304688 C 60.308594 53.304688 60.257812 53.285156 60.21875 53.242188 L 60.191406 53.214844 L 60.230469 53.191406 C 60.257812 53.171875 60.28125 53.148438 60.304688 53.125 C 60.34375 53.085938 60.367188 53.066406 60.386719 53.070312 Z M 69.191406 52.019531 C 69.117188 52.023438 69.039062 52.035156 68.96875 52.054688 C 68.832031 52.046875 68.761719 52.191406 68.894531 52.261719 C 68.976562 52.464844 69.101562 52.21875 69.230469 52.238281 C 69.421875 52.273438 69.4375 52.480469 69.464844 52.636719 C 69.476562 52.792969 69.523438 52.941406 69.566406 53.085938 C 69.695312 53.230469 69.46875 53.320312 69.375 53.207031 C 69.292969 53.117188 69.117188 53.011719 69.019531 53.132812 C 68.898438 53.183594 68.894531 53.34375 68.796875 53.390625 C 68.632812 53.441406 68.613281 53.242188 68.527344 53.15625 C 68.449219 53.046875 68.300781 53.039062 68.179688 53 C 68.121094 52.882812 68.152344 52.6875 68.035156 52.609375 C 67.933594 52.648438 67.75 52.835938 67.902344 52.921875 C 68.054688 53.046875 67.839844 53.105469 67.769531 53.195312 C 67.671875 53.304688 67.65625 53.453125 67.640625 53.589844 C 67.472656 53.683594 67.441406 53.484375 67.421875 53.363281 C 67.40625 53.214844 67.28125 53.257812 67.195312 53.3125 C 67.070312 53.363281 67.003906 53.484375 66.917969 53.578125 C 66.90625 53.664062 66.921875 53.757812 66.921875 53.847656 C 66.949219 53.957031 67.082031 53.90625 67.164062 53.898438 C 67.292969 53.84375 67.347656 53.984375 67.242188 54.0625 C 67.171875 54.152344 66.945312 54.105469 66.964844 54.25 C 67.039062 54.257812 67.113281 54.253906 67.1875 54.25 C 67.332031 54.210938 67.488281 54.105469 67.503906 53.945312 C 67.523438 53.804688 67.726562 53.828125 67.835938 53.800781 C 67.976562 53.757812 68.144531 53.75 68.175781 53.925781 C 68.269531 54.023438 68.476562 54.136719 68.578125 54 C 68.683594 53.933594 68.734375 53.820312 68.730469 53.699219 C 68.707031 53.59375 68.898438 53.589844 68.945312 53.648438 C 69.015625 53.761719 69.230469 53.730469 69.335938 53.664062 C 69.449219 53.582031 69.472656 53.4375 69.632812 53.4375 C 69.871094 53.367188 70.117188 53.324219 70.351562 53.238281 C 70.539062 53.195312 70.320312 53.078125 70.273438 53.007812 C 70.132812 52.9375 70.007812 53.226562 69.84375 53.082031 C 69.722656 52.988281 69.730469 52.804688 69.683594 52.667969 C 69.652344 52.484375 69.660156 52.277344 69.527344 52.132812 C 69.4375 52.039062 69.316406 52.015625 69.191406 52.019531 Z M 68.285156 53.28125 C 68.300781 53.28125 68.320312 53.289062 68.351562 53.308594 C 68.410156 53.339844 68.449219 53.394531 68.449219 53.4375 C 68.449219 53.464844 68.441406 53.46875 68.398438 53.488281 C 68.375 53.5 68.34375 53.511719 68.332031 53.511719 C 68.308594 53.511719 68.25 53.464844 68.25 53.445312 C 68.25 53.4375 68.242188 53.40625 68.234375 53.382812 C 68.21875 53.339844 68.21875 53.339844 68.242188 53.3125 C 68.253906 53.292969 68.265625 53.28125 68.285156 53.28125 Z M 69.152344 53.328125 C 69.203125 53.324219 69.234375 53.339844 69.253906 53.378906 C 69.277344 53.421875 69.261719 53.457031 69.199219 53.484375 C 69.171875 53.496094 69.144531 53.503906 69.140625 53.503906 C 69.136719 53.503906 69.113281 53.488281 69.089844 53.472656 C 69.054688 53.449219 69.050781 53.4375 69.050781 53.410156 C 69.050781 53.371094 69.097656 53.332031 69.152344 53.328125 Z M 67.960938 53.339844 C 67.976562 53.339844 67.988281 53.347656 68.007812 53.363281 C 68.03125 53.382812 68.039062 53.398438 68.046875 53.441406 C 68.050781 53.46875 68.050781 53.507812 68.046875 53.523438 C 68.039062 53.554688 68.039062 53.554688 67.972656 53.554688 C 67.886719 53.554688 67.878906 53.542969 67.878906 53.464844 C 67.878906 53.414062 67.878906 53.402344 67.910156 53.375 C 67.929688 53.351562 67.949219 53.34375 67.960938 53.339844 Z M 67.230469 53.53125 C 67.253906 53.539062 67.28125 53.558594 67.289062 53.589844 C 67.296875 53.632812 67.289062 53.652344 67.253906 53.671875 C 67.222656 53.683594 67.15625 53.691406 67.136719 53.679688 C 67.132812 53.675781 67.117188 53.664062 67.113281 53.652344 C 67.101562 53.636719 67.105469 53.628906 67.117188 53.621094 C 67.125 53.613281 67.132812 53.605469 67.132812 53.597656 C 67.132812 53.59375 67.140625 53.578125 67.152344 53.5625 C 67.171875 53.535156 67.203125 53.527344 67.230469 53.53125 Z M 68.460938 53.691406 C 68.484375 53.691406 68.507812 53.699219 68.519531 53.710938 C 68.546875 53.734375 68.542969 53.765625 68.515625 53.785156 C 68.5 53.800781 68.398438 53.800781 68.367188 53.785156 C 68.351562 53.78125 68.347656 53.773438 68.347656 53.757812 C 68.34375 53.738281 68.351562 53.726562 68.382812 53.710938 C 68.410156 53.699219 68.4375 53.691406 68.460938 53.691406 Z M 66.171875 54.332031 C 66.160156 54.324219 66.140625 54.316406 66.160156 54.304688 C 66.183594 54.261719 66.230469 54.25 66.269531 54.234375 C 66.34375 54.203125 66.40625 54.148438 66.453125 54.085938 C 66.460938 54.042969 66.511719 54.015625 66.511719 53.96875 C 66.511719 53.90625 66.515625 53.84375 66.5 53.78125 C 66.480469 53.722656 66.4375 53.679688 66.386719 53.652344 C 66.355469 53.625 66.296875 53.617188 66.285156 53.570312 C 66.277344 53.523438 66.320312 53.488281 66.332031 53.449219 C 66.363281 53.390625 66.390625 53.332031 66.421875 53.277344 C 66.457031 53.238281 66.507812 53.277344 66.527344 53.3125 C 66.550781 53.347656 66.574219 53.390625 66.585938 53.433594 C 66.625 53.476562 66.664062 53.527344 66.675781 53.585938 C 66.695312 53.628906 66.726562 53.667969 66.726562 53.714844 C 66.726562 53.769531 66.757812 53.820312 66.753906 53.875 C 66.757812 53.953125 66.757812 54.027344 66.730469 54.101562 C 66.710938 54.140625 66.675781 54.164062 66.648438 54.199219 C 66.605469 54.238281 66.558594 54.273438 66.503906 54.296875 C 66.464844 54.308594 66.445312 54.351562 66.394531 54.339844 C 66.328125 54.34375 66.257812 54.351562 66.191406 54.339844 C 66.195312 54.347656 66.167969 54.328125 66.171875 54.332031 Z M 65.261719 54.394531 C 65.226562 54.359375 65.21875 54.347656 65.21875 54.3125 C 65.21875 54.28125 65.226562 54.265625 65.257812 54.234375 C 65.316406 54.175781 65.34375 54.175781 65.445312 54.226562 C 65.542969 54.273438 65.574219 54.277344 65.582031 54.246094 C 65.589844 54.210938 65.648438 54.179688 65.699219 54.179688 C 65.734375 54.179688 65.753906 54.1875 65.777344 54.207031 C 65.8125 54.234375 65.8125 54.238281 65.816406 54.296875 C 65.816406 54.359375 65.816406 54.363281 65.777344 54.394531 C 65.738281 54.429688 65.734375 54.429688 65.6875 54.425781 C 65.628906 54.421875 65.59375 54.394531 65.585938 54.347656 C 65.578125 54.3125 65.566406 54.304688 65.558594 54.328125 C 65.554688 54.335938 65.539062 54.34375 65.523438 54.347656 C 65.5 54.355469 65.453125 54.386719 65.417969 54.414062 C 65.40625 54.425781 65.386719 54.433594 65.351562 54.433594 C 65.304688 54.433594 65.296875 54.429688 65.261719 54.394531 Z M 62.617188 53.207031 C 62.527344 53.207031 62.433594 53.28125 62.421875 53.371094 C 62.441406 53.46875 62.523438 53.566406 62.472656 53.671875 C 62.507812 53.808594 62.371094 53.859375 62.277344 53.78125 C 62.21875 53.652344 62.191406 53.511719 62.105469 53.394531 C 61.996094 53.363281 61.949219 53.535156 61.875 53.59375 C 61.914062 53.695312 62.023438 53.785156 62.035156 53.910156 C 62.058594 54.03125 61.984375 54.167969 61.878906 54.230469 C 61.789062 54.320312 61.664062 54.289062 61.550781 54.308594 C 61.414062 54.386719 61.652344 54.414062 61.714844 54.417969 C 61.851562 54.433594 62 54.414062 62.101562 54.3125 C 62.203125 54.261719 62.195312 54.085938 62.316406 54.066406 C 62.527344 54.054688 62.738281 54.097656 62.949219 54.101562 C 63.0625 54.128906 63.238281 54.089844 63.316406 54.171875 C 63.316406 54.320312 63.441406 54.410156 63.5625 54.46875 C 63.628906 54.488281 63.699219 54.40625 63.765625 54.390625 C 63.894531 54.347656 63.855469 54.191406 63.933594 54.128906 C 64.152344 54.117188 64.375 54.117188 64.597656 54.113281 C 64.636719 54.117188 64.652344 54.054688 64.679688 54.03125 C 64.675781 53.945312 64.671875 53.863281 64.660156 53.777344 C 64.617188 53.671875 64.664062 53.53125 64.589844 53.441406 C 64.476562 53.410156 64.382812 53.511719 64.273438 53.519531 C 64.148438 53.574219 64.042969 53.6875 64.039062 53.828125 C 63.964844 53.945312 63.847656 53.804688 63.886719 53.707031 C 63.882812 53.664062 63.898438 53.613281 63.882812 53.574219 C 63.816406 53.492188 63.699219 53.519531 63.605469 53.507812 C 63.46875 53.511719 63.335938 53.484375 63.199219 53.484375 C 63.082031 53.476562 62.957031 53.496094 62.84375 53.464844 C 62.703125 53.460938 62.722656 53.328125 62.699219 53.230469 C 62.675781 53.214844 62.648438 53.207031 62.617188 53.207031 Z M 62.882812 53.699219 C 62.929688 53.699219 62.972656 53.707031 63.015625 53.710938 C 63.074219 53.71875 63.136719 53.691406 63.191406 53.710938 C 63.324219 53.734375 63.453125 53.726562 63.585938 53.738281 C 63.617188 53.738281 63.644531 53.765625 63.667969 53.785156 C 63.667969 53.878906 63.667969 53.96875 63.667969 54.0625 C 63.664062 54.09375 63.675781 54.140625 63.648438 54.164062 C 63.636719 54.171875 63.625 54.179688 63.613281 54.183594 C 63.578125 54.171875 63.539062 54.148438 63.523438 54.113281 C 63.515625 54.066406 63.523438 54.019531 63.527344 53.972656 C 63.523438 53.960938 63.53125 53.941406 63.527344 53.933594 C 63.496094 53.910156 63.464844 53.898438 63.429688 53.898438 C 63.316406 53.894531 63.207031 53.886719 63.09375 53.882812 C 63 53.875 62.902344 53.890625 62.808594 53.863281 C 62.773438 53.851562 62.726562 53.855469 62.703125 53.820312 C 62.671875 53.78125 62.71875 53.738281 62.75 53.722656 C 62.792969 53.703125 62.839844 53.699219 62.882812 53.699219 Z M 64.386719 53.730469 C 64.410156 53.730469 64.417969 53.738281 64.425781 53.777344 C 64.433594 53.800781 64.4375 53.832031 64.441406 53.84375 C 64.445312 53.859375 64.4375 53.863281 64.417969 53.875 C 64.351562 53.898438 64.285156 53.894531 64.261719 53.863281 C 64.253906 53.851562 64.265625 53.808594 64.285156 53.789062 C 64.324219 53.753906 64.367188 53.730469 64.386719 53.730469 Z M 64.386719 53.730469 "/>
<path fill-rule="nonzero" fill="rgb(100%, 100%, 100%)" fill-opacity="1" stroke-width="0.24896" stroke-linecap="butt" stroke-linejoin="miter" stroke="rgb(77.253723%, 66.273499%, 0%)" stroke-opacity="1" stroke-miterlimit="10" d="M 1.631812 6.331221 C 1.722069 6.323372 1.510161 6.806053 1.510161 6.806053 C 1.745615 6.566675 2.640339 6.507811 2.640339 6.507811 C 2.10272 6.743265 1.569025 8.528789 1.631812 9.953284 C 1.690676 11.381703 1.427752 11.942868 1.215844 12.154776 C 0.948996 12.421623 0.0856662 12.657077 -0.479423 12.688471 C -0.801209 12.704168 -0.74627 12.445169 -0.74627 12.445169 C -1.338829 12.598214 -1.935311 12.657077 -2.202159 12.476563 C -2.45331 12.311745 -2.508249 11.47196 -2.32381 11.617157 C -1.876448 11.974261 -1.487949 11.64855 -1.221102 11.260052 C -0.985648 10.918644 -1.001345 9.953284 -1.342753 8.823106 C -1.695933 7.637989 -2.673066 6.448948 -2.673066 6.448948 C -2.143296 6.448948 -1.397692 6.923779 -1.397692 6.923779 L -1.578207 6.1821 C -1.017042 6.448948 -0.56968 6.864916 -0.56968 6.864916 L -0.0320606 6.303751 C 0.14453 6.539205 0.501634 6.864916 0.501634 6.864916 C 0.501634 6.864916 0.948996 6.394009 1.631812 6.331221 Z M 1.631812 6.331221 " transform="matrix(0.995419, 0, 0, -0.995419, 63.805351, 42.606903)"/>
<path fill="none" stroke-width="0.2597" stroke-linecap="butt" stroke-linejoin="miter" stroke="rgb(77.253723%, 66.273499%, 0%)" stroke-opacity="1" stroke-miterlimit="10" d="M -0.538286 9.749224 C -0.538286 9.749224 -0.836527 7.547732 -1.397692 6.923779 M -0.0634545 9.804163 C -0.0634545 9.804163 -0.181181 7.579126 -0.56968 6.864916 M 0.356438 9.713906 C 0.356438 9.713906 0.356438 7.27696 0.501634 6.864916 M 0.886209 9.596179 C 0.886209 9.596179 1.00786 7.547732 1.510161 6.806053 " transform="matrix(0.995419, 0, 0, -0.995419, 63.805351, 42.606903)"/>
<path fill-rule="nonzero" fill="rgb(77.253723%, 66.273499%, 0%)" fill-opacity="1" stroke-width="0.07233" stroke-linecap="butt" stroke-linejoin="miter" stroke="rgb(77.253723%, 66.273499%, 0%)" stroke-opacity="1" stroke-miterlimit="10" d="M -1.07983 10.81269 C -1.103375 11.008901 -1.150466 11.158022 -1.221102 11.260052 C -1.487949 11.64855 -1.876448 11.974261 -2.32381 11.617157 C -2.32381 11.617157 -2.170765 12.088064 -1.845054 12.103761 C -1.593904 12.119458 -1.020966 11.915398 -0.514741 11.055992 C -0.514741 11.055992 -0.887542 11.138401 -0.9778 11.059916 C -1.146542 10.91472 -1.07983 10.81269 -1.07983 10.81269 Z M -1.07983 10.81269 " transform="matrix(0.995419, 0, 0, -0.995419, 63.805351, 42.606903)"/>
<path fill-rule="nonzero" fill="rgb(77.253723%, 66.273499%, 0%)" fill-opacity="1" stroke-width="0.07233" stroke-linecap="butt" stroke-linejoin="miter" stroke="rgb(77.253723%, 66.273499%, 0%)" stroke-opacity="1" stroke-miterlimit="10" d="M -2.370901 12.197942 C -2.331659 12.319593 -2.272795 12.429472 -2.202159 12.476563 C -1.931387 12.657077 -1.338829 12.598214 -0.74627 12.445169 C -0.74627 12.445169 -0.797285 12.704168 -0.479423 12.688471 C 0.0895904 12.657077 0.948996 12.421623 1.215844 12.150852 C 1.278632 12.08414 1.353192 11.986034 1.41598 11.832989 L 1.408131 11.832989 C 1.274707 12.017428 0.901906 12.005655 0.811648 11.993883 C 0.670376 11.978186 0.580119 11.986034 0.391756 11.935019 C 0.301499 11.915398 0.168075 11.887928 0.0935147 11.832989 C 0.0346512 11.785898 -0.0124395 11.613232 -0.102697 11.613232 C -0.243969 11.613232 -0.232196 11.64855 -0.267514 11.691717 C -0.314605 11.746656 -0.342075 11.832989 -0.389165 11.825141 C -0.538286 11.801595 -0.77374 11.915398 -1.071981 12.150852 C -1.370223 12.39023 -1.487949 12.445169 -1.876448 12.421623 C -2.257098 12.39023 -2.378749 12.174397 -2.378749 12.174397 Z M -2.370901 12.197942 " transform="matrix(0.995419, 0, 0, -0.995419, 63.805351, 42.606903)"/>
<path fill-rule="nonzero" fill="rgb(100%, 100%, 100%)" fill-opacity="1" d="M 63.789062 30.652344 C 63.789062 30.738281 63.71875 30.808594 63.632812 30.808594 C 63.542969 30.808594 63.472656 30.738281 63.472656 30.652344 C 63.472656 30.566406 63.542969 30.496094 63.632812 30.496094 C 63.71875 30.496094 63.789062 30.566406 63.789062 30.652344 Z M 63.789062 30.652344 "/>
<path fill-rule="nonzero" fill="rgb(100%, 100%, 100%)" fill-opacity="1" stroke-width="0.23515" stroke-linecap="butt" stroke-linejoin="miter" stroke="rgb(77.253723%, 66.273499%, 0%)" stroke-opacity="1" stroke-miterlimit="10" d="M -0.020288 -3.601001 C 4.351303 -0.237938 3.974577 4.686969 3.974577 4.686969 C 3.860774 4.663424 3.750896 4.655575 3.637093 4.655575 C 2.718823 4.655575 0.533028 5.177498 0.0228786 5.844617 C -0.526513 5.240285 -2.759399 4.655575 -3.66982 4.655575 C -3.787547 4.655575 -3.90135 4.663424 -4.011228 4.686969 C -4.011228 4.686969 -4.391878 -0.237938 -0.020288 -3.601001 Z M -0.020288 -3.601001 " transform="matrix(0.995419, 0, 0, -0.995419, 63.805351, 42.606903)"/>
<path fill="none" stroke-width="0.25562" stroke-linecap="butt" stroke-linejoin="miter" stroke="rgb(77.253723%, 66.273499%, 0%)" stroke-opacity="1" stroke-miterlimit="10" d="M 3.629244 4.32594 C 3.590002 4.32594 3.55076 4.32594 3.515442 4.32594 C 2.683505 4.32594 0.752785 4.749757 0.00718165 5.389406 C -0.769816 4.800772 -2.73193 4.32594 -3.552094 4.32594 C -3.587412 4.32594 -3.626654 4.329864 -3.665896 4.333789 C -3.665896 4.14935 -3.658048 3.957063 -3.646275 3.780472 C -3.603109 3.125126 -3.485382 2.465856 -3.312716 1.830131 C -2.763324 -0.163377 -1.63707 -1.858644 -0.020288 -3.145791 C 1.596494 -1.858644 2.722748 -0.159453 3.27214 1.837979 C 3.44873 2.46978 3.562533 3.12905 3.609623 3.784397 C 3.617472 3.968835 3.629244 4.192516 3.629244 4.32594 Z M 3.629244 4.32594 " transform="matrix(0.995419, 0, 0, -0.995419, 63.805351, 42.606903)"/>
<g clip-path="url(#clip-3)">
<g clip-path="url(#clip-4)">
<path fill-rule="evenodd" fill="rgb(77.253723%, 66.273499%, 0%)" fill-opacity="1" d="M 60.140625 37.195312 L 62.578125 37.195312 L 62.578125 45.769531 L 60.140625 45.769531 Z M 60.140625 37.195312 "/>
</g>
</g>
<g clip-path="url(#clip-5)">
<g clip-path="url(#clip-6)">
<path fill-rule="evenodd" fill="rgb(100%, 100%, 100%)" fill-opacity="1" d="M 62.578125 37.195312 L 65.011719 37.195312 L 65.011719 45.769531 L 62.578125 45.769531 Z M 62.578125 37.195312 "/>
</g>
</g>
<g clip-path="url(#clip-7)">
<g clip-path="url(#clip-8)">
<path fill-rule="evenodd" fill="rgb(77.253723%, 66.273499%, 0%)" fill-opacity="1" d="M 65.011719 37.195312 L 67.445312 37.195312 L 67.445312 45.769531 L 65.011719 45.769531 Z M 65.011719 37.195312 "/>
</g>
</g>
<g clip-path="url(#clip-9)">
<path fill="none" stroke-width="0.56693" stroke-linecap="butt" stroke-linejoin="miter" stroke="rgb(39.99939%, 39.99939%, 39.99939%)" stroke-opacity="1" stroke-miterlimit="10" d="M -63.785076 -42.521499 L -63.785076 42.520456 L 63.783742 42.520456 L 63.783742 -42.521499 Z M -63.785076 -42.521499 " transform="matrix(0.995419, 0, 0, -0.995419, 63.805351, 42.606903)"/>
</g>
</svg>
