<?xml version="1.0" encoding="UTF-8"?>
<svg xmlns="http://www.w3.org/2000/svg" xmlns:xlink="http://www.w3.org/1999/xlink" width="131.457pt" height="85.606pt" viewBox="0 0 131.457 85.606">
<defs>
<clipPath id="clip-0">
<path clip-rule="nonzero" d="M 0.3125 0.28125 L 43 0.28125 L 43 84.933594 L 0.3125 84.933594 Z M 0.3125 0.28125 "/>
</clipPath>
<clipPath id="clip-1">
<path clip-rule="nonzero" d="M 42 0.28125 L 85 0.28125 L 85 84.933594 L 42 84.933594 Z M 42 0.28125 "/>
</clipPath>
<clipPath id="clip-2">
<path clip-rule="nonzero" d="M 84 0.28125 L 127.296875 0.28125 L 127.296875 84.933594 L 84 84.933594 Z M 84 0.28125 "/>
</clipPath>
<clipPath id="clip-3">
<path clip-rule="nonzero" d="M 0.03125 0 L 128 0 L 128 85.214844 L 0.03125 85.214844 Z M 0.03125 0 "/>
</clipPath>
</defs>
<g clip-path="url(#clip-0)">
<path fill-rule="nonzero" fill="rgb(0%, 33.332825%, 64.312744%)" fill-opacity="1" d="M 0.3125 84.933594 L 0.3125 0.28125 L 42.640625 0.28125 L 42.640625 84.933594 Z M 0.3125 84.933594 "/>
</g>
<g clip-path="url(#clip-1)">
<path fill-rule="nonzero" fill="rgb(100%, 100%, 100%)" fill-opacity="1" d="M 42.640625 84.933594 L 42.640625 0.28125 L 84.96875 0.28125 L 84.96875 84.933594 Z M 42.640625 84.933594 "/>
</g>
<g clip-path="url(#clip-2)">
<path fill-rule="nonzero" fill="rgb(93.725586%, 25.489807%, 20.783997%)" fill-opacity="1" d="M 84.96875 84.933594 L 84.96875 0.28125 L 127.296875 0.28125 L 127.296875 84.933594 Z M 84.96875 84.933594 "/>
</g>
<g clip-path="url(#clip-3)">
<path fill="none" stroke-width="0.56693" stroke-linecap="butt" stroke-linejoin="miter" stroke="rgb(39.99939%, 39.99939%, 39.99939%)" stroke-opacity="1" stroke-miterlimit="10" d="M -63.785076 -42.521499 L -63.785076 42.520456 L 63.783742 42.520456 L 63.783742 -42.521499 Z M -63.785076 -42.521499 " transform="matrix(0.995419, 0, 0, -0.995419, 63.805351, 42.606903)"/>
</g>
</svg>
