<?xml version="1.0" encoding="UTF-8"?>
<svg xmlns="http://www.w3.org/2000/svg" xmlns:xlink="http://www.w3.org/1999/xlink" width="145.627pt" height="85.606pt" viewBox="0 0 145.627 85.606">
<defs>
<clipPath id="clip-0">
<path clip-rule="nonzero" d="M 0.429688 0.28125 L 141.519531 0.28125 L 141.519531 29 L 0.429688 29 Z M 0.429688 0.28125 "/>
</clipPath>
<clipPath id="clip-1">
<path clip-rule="nonzero" d="M 0.429688 28 L 141.519531 28 L 141.519531 57 L 0.429688 57 Z M 0.429688 28 "/>
</clipPath>
<clipPath id="clip-2">
<path clip-rule="nonzero" d="M 0.429688 56 L 141.519531 56 L 141.519531 84.933594 L 0.429688 84.933594 Z M 0.429688 56 "/>
</clipPath>
<clipPath id="clip-3">
<path clip-rule="nonzero" d="M 0.148438 0 L 142 0 L 142 85.214844 L 0.148438 85.214844 Z M 0.148438 0 "/>
</clipPath>
</defs>
<g clip-path="url(#clip-0)">
<path fill-rule="nonzero" fill="rgb(0%, 0%, 0%)" fill-opacity="1" d="M 0.429688 28.5 L 0.429688 0.28125 L 141.519531 0.28125 L 141.519531 28.5 Z M 0.429688 28.5 "/>
</g>
<g clip-path="url(#clip-1)">
<path fill-rule="nonzero" fill="rgb(85.488892%, 16.07666%, 10.978699%)" fill-opacity="1" d="M 0.429688 56.714844 L 0.429688 28.5 L 141.519531 28.5 L 141.519531 56.714844 Z M 0.429688 56.714844 "/>
</g>
<g clip-path="url(#clip-2)">
<path fill-rule="nonzero" fill="rgb(100%, 80.39093%, 0%)" fill-opacity="1" d="M 0.429688 84.933594 L 0.429688 56.714844 L 141.519531 56.714844 L 141.519531 84.933594 Z M 0.429688 84.933594 "/>
</g>
<g clip-path="url(#clip-3)">
<path fill="none" stroke-width="0.56693" stroke-linecap="butt" stroke-linejoin="miter" stroke="rgb(39.99939%, 39.99939%, 39.99939%)" stroke-opacity="1" stroke-miterlimit="10" d="M -70.869958 -42.521499 L -70.869958 42.520456 L 70.869249 42.520456 L 70.869249 -42.521499 Z M -70.869958 -42.521499 " transform="matrix(0.995419, 0, 0, -0.995419, 70.974962, 42.606903)"/>
</g>
</svg>
