<?xml version="1.0" encoding="UTF-8"?>
<svg xmlns="http://www.w3.org/2000/svg" xmlns:xlink="http://www.w3.org/1999/xlink" width="152.713pt" height="85.606pt" viewBox="0 0 152.713 85.606">
<defs>
<clipPath id="clip-0">
<path clip-rule="nonzero" d="M 0.488281 0.28125 L 148.632812 0.28125 L 148.632812 29 L 0.488281 29 Z M 0.488281 0.28125 "/>
</clipPath>
<clipPath id="clip-1">
<path clip-rule="nonzero" d="M 0.488281 28 L 148.632812 28 L 148.632812 57 L 0.488281 57 Z M 0.488281 28 "/>
</clipPath>
<clipPath id="clip-2">
<path clip-rule="nonzero" d="M 0.488281 56 L 148.632812 56 L 148.632812 84.933594 L 0.488281 84.933594 Z M 0.488281 56 "/>
</clipPath>
<clipPath id="clip-3">
<path clip-rule="nonzero" d="M 0.207031 0 L 149 0 L 149 85.214844 L 0.207031 85.214844 Z M 0.207031 0 "/>
</clipPath>
</defs>
<g clip-path="url(#clip-0)">
<path fill-rule="nonzero" fill="rgb(0%, 58.822632%, 22.3526%)" fill-opacity="1" d="M 0.488281 28.5 L 0.488281 0.28125 L 148.632812 0.28125 L 148.632812 28.5 Z M 0.488281 28.5 "/>
</g>
<g clip-path="url(#clip-1)">
<path fill-rule="nonzero" fill="rgb(100%, 100%, 100%)" fill-opacity="1" d="M 0.488281 56.714844 L 0.488281 28.5 L 148.632812 28.5 L 148.632812 56.714844 Z M 0.488281 56.714844 "/>
</g>
<g clip-path="url(#clip-2)">
<path fill-rule="nonzero" fill="rgb(78.431702%, 6.27594%, 18.03894%)" fill-opacity="1" d="M 0.488281 84.933594 L 0.488281 56.714844 L 148.632812 56.714844 L 148.632812 84.933594 Z M 0.488281 84.933594 "/>
</g>
<path fill-rule="nonzero" fill="rgb(100%, 100%, 100%)" fill-opacity="1" d="M 2.464844 61.304688 L 3.121094 61.304688 L 3.121094 59.992188 L 5.097656 59.992188 L 5.097656 61.304688 L 8.390625 61.304688 L 8.390625 59.335938 L 6.414062 59.335938 L 6.414062 59.992188 L 7.730469 59.992188 L 7.730469 60.648438 L 5.753906 60.648438 L 5.753906 59.335938 L 2.464844 59.335938 L 2.464844 61.304688 M 9.046875 61.304688 L 11.023438 61.304688 L 11.023438 60.648438 L 9.707031 60.648438 L 9.707031 59.992188 L 11.679688 59.992188 L 11.679688 61.304688 L 14.972656 61.304688 L 14.972656 58.027344 L 14.316406 58.027344 L 14.316406 60.648438 L 13.65625 60.648438 L 13.65625 58.027344 L 13 58.027344 L 13 60.648438 L 12.339844 60.648438 L 12.339844 58.027344 L 11.679688 58.027344 L 11.679688 59.335938 L 9.046875 59.335938 L 9.046875 61.304688 M 3.78125 61.304688 L 3.78125 60.648438 L 4.4375 60.648438 L 4.4375 61.304688 Z M 2.464844 58.683594 L 2.464844 58.027344 L 11.023438 58.027344 L 11.023438 58.683594 Z M 2.464844 57.371094 L 2.464844 56.058594 L 8.390625 56.058594 L 8.390625 57.371094 Z M 9.046875 57.371094 L 9.046875 56.058594 L 14.972656 56.058594 L 14.972656 57.371094 Z M 9.046875 57.371094 "/>
<path fill-rule="nonzero" fill="rgb(100%, 100%, 100%)" fill-opacity="1" d="M 15.632812 61.304688 L 16.289062 61.304688 L 16.289062 59.992188 L 18.265625 59.992188 L 18.265625 61.304688 L 21.558594 61.304688 L 21.558594 59.335938 L 19.582031 59.335938 L 19.582031 59.992188 L 20.898438 59.992188 L 20.898438 60.648438 L 18.925781 60.648438 L 18.925781 59.335938 L 15.632812 59.335938 L 15.632812 61.304688 M 22.214844 61.304688 L 24.191406 61.304688 L 24.191406 60.648438 L 22.875 60.648438 L 22.875 59.992188 L 24.851562 59.992188 L 24.851562 61.304688 L 28.140625 61.304688 L 28.140625 58.027344 L 27.484375 58.027344 L 27.484375 60.648438 L 26.824219 60.648438 L 26.824219 58.027344 L 26.167969 58.027344 L 26.167969 60.648438 L 25.507812 60.648438 L 25.507812 58.027344 L 24.851562 58.027344 L 24.851562 59.335938 L 22.214844 59.335938 L 22.214844 61.304688 M 16.949219 61.304688 L 16.949219 60.648438 L 17.605469 60.648438 L 17.605469 61.304688 Z M 15.632812 58.683594 L 15.632812 58.027344 L 24.191406 58.027344 L 24.191406 58.683594 Z M 15.632812 57.371094 L 15.632812 56.058594 L 21.558594 56.058594 L 21.558594 57.371094 Z M 22.214844 57.371094 L 22.214844 56.058594 L 28.140625 56.058594 L 28.140625 57.371094 Z M 22.214844 57.371094 "/>
<path fill-rule="nonzero" fill="rgb(100%, 100%, 100%)" fill-opacity="1" d="M 28.800781 61.304688 L 29.457031 61.304688 L 29.457031 59.992188 L 31.433594 59.992188 L 31.433594 61.304688 L 34.726562 61.304688 L 34.726562 59.335938 L 32.75 59.335938 L 32.75 59.992188 L 34.066406 59.992188 L 34.066406 60.648438 L 32.09375 60.648438 L 32.09375 59.335938 L 28.800781 59.335938 L 28.800781 61.304688 M 35.382812 61.304688 L 37.359375 61.304688 L 37.359375 60.648438 L 36.042969 60.648438 L 36.042969 59.992188 L 38.019531 59.992188 L 38.019531 61.304688 L 41.308594 61.304688 L 41.308594 58.027344 L 40.652344 58.027344 L 40.652344 60.648438 L 39.992188 60.648438 L 39.992188 58.027344 L 39.335938 58.027344 L 39.335938 60.648438 L 38.675781 60.648438 L 38.675781 58.027344 L 38.019531 58.027344 L 38.019531 59.335938 L 35.382812 59.335938 L 35.382812 61.304688 M 30.117188 61.304688 L 30.117188 60.648438 L 30.777344 60.648438 L 30.777344 61.304688 Z M 28.800781 58.683594 L 28.800781 58.027344 L 37.359375 58.027344 L 37.359375 58.683594 Z M 28.800781 57.371094 L 28.800781 56.058594 L 34.726562 56.058594 L 34.726562 57.371094 Z M 35.382812 57.371094 L 35.382812 56.058594 L 41.308594 56.058594 L 41.308594 57.371094 Z M 35.382812 57.371094 "/>
<path fill-rule="nonzero" fill="rgb(100%, 100%, 100%)" fill-opacity="1" d="M 41.96875 61.304688 L 42.628906 61.304688 L 42.628906 59.992188 L 44.601562 59.992188 L 44.601562 61.304688 L 47.894531 61.304688 L 47.894531 59.335938 L 45.917969 59.335938 L 45.917969 59.992188 L 47.234375 59.992188 L 47.234375 60.648438 L 45.261719 60.648438 L 45.261719 59.335938 L 41.96875 59.335938 L 41.96875 61.304688 M 48.554688 61.304688 L 50.527344 61.304688 L 50.527344 60.648438 L 49.210938 60.648438 L 49.210938 59.992188 L 51.1875 59.992188 L 51.1875 61.304688 L 54.480469 61.304688 L 54.480469 58.027344 L 53.820312 58.027344 L 53.820312 60.648438 L 53.160156 60.648438 L 53.160156 58.027344 L 52.503906 58.027344 L 52.503906 60.648438 L 51.84375 60.648438 L 51.84375 58.027344 L 51.1875 58.027344 L 51.1875 59.335938 L 48.554688 59.335938 L 48.554688 61.304688 M 43.285156 61.304688 L 43.285156 60.648438 L 43.945312 60.648438 L 43.945312 61.304688 Z M 41.96875 58.683594 L 41.96875 58.027344 L 50.527344 58.027344 L 50.527344 58.683594 Z M 41.96875 57.371094 L 41.96875 56.058594 L 47.894531 56.058594 L 47.894531 57.371094 Z M 48.554688 57.371094 L 48.554688 56.058594 L 54.480469 56.058594 L 54.480469 57.371094 Z M 48.554688 57.371094 "/>
<path fill-rule="nonzero" fill="rgb(100%, 100%, 100%)" fill-opacity="1" d="M 55.136719 61.304688 L 55.796875 61.304688 L 55.796875 59.992188 L 57.769531 59.992188 L 57.769531 61.304688 L 61.0625 61.304688 L 61.0625 59.335938 L 59.085938 59.335938 L 59.085938 59.992188 L 60.40625 59.992188 L 60.40625 60.648438 L 58.429688 60.648438 L 58.429688 59.335938 L 55.136719 59.335938 L 55.136719 61.304688 M 61.722656 61.304688 L 63.695312 61.304688 L 63.695312 60.648438 L 62.378906 60.648438 L 62.378906 59.992188 L 64.355469 59.992188 L 64.355469 61.304688 L 67.648438 61.304688 L 67.648438 58.027344 L 66.988281 58.027344 L 66.988281 60.648438 L 66.332031 60.648438 L 66.332031 58.027344 L 65.671875 58.027344 L 65.671875 60.648438 L 65.011719 60.648438 L 65.011719 58.027344 L 64.355469 58.027344 L 64.355469 59.335938 L 61.722656 59.335938 L 61.722656 61.304688 M 56.453125 61.304688 L 56.453125 60.648438 L 57.113281 60.648438 L 57.113281 61.304688 Z M 55.136719 58.683594 L 55.136719 58.027344 L 63.695312 58.027344 L 63.695312 58.683594 Z M 55.136719 57.371094 L 55.136719 56.058594 L 61.0625 56.058594 L 61.0625 57.371094 Z M 61.722656 57.371094 L 61.722656 56.058594 L 67.648438 56.058594 L 67.648438 57.371094 Z M 61.722656 57.371094 "/>
<path fill-rule="nonzero" fill="rgb(100%, 100%, 100%)" fill-opacity="1" d="M 68.304688 61.304688 L 68.964844 61.304688 L 68.964844 59.992188 L 70.9375 59.992188 L 70.9375 61.304688 L 74.230469 61.304688 L 74.230469 59.335938 L 72.257812 59.335938 L 72.257812 59.992188 L 73.574219 59.992188 L 73.574219 60.648438 L 71.597656 60.648438 L 71.597656 59.335938 L 68.304688 59.335938 L 68.304688 61.304688 M 74.890625 61.304688 L 76.863281 61.304688 L 76.863281 60.648438 L 75.546875 60.648438 L 75.546875 59.992188 L 77.523438 59.992188 L 77.523438 61.304688 L 80.816406 61.304688 L 80.816406 58.027344 L 80.15625 58.027344 L 80.15625 60.648438 L 79.5 60.648438 L 79.5 58.027344 L 78.839844 58.027344 L 78.839844 60.648438 L 78.183594 60.648438 L 78.183594 58.027344 L 77.523438 58.027344 L 77.523438 59.335938 L 74.890625 59.335938 L 74.890625 61.304688 M 69.621094 61.304688 L 69.621094 60.648438 L 70.28125 60.648438 L 70.28125 61.304688 Z M 68.304688 58.683594 L 68.304688 58.027344 L 76.863281 58.027344 L 76.863281 58.683594 Z M 68.304688 57.371094 L 68.304688 56.058594 L 74.230469 56.058594 L 74.230469 57.371094 Z M 74.890625 57.371094 L 74.890625 56.058594 L 80.816406 56.058594 L 80.816406 57.371094 Z M 74.890625 57.371094 "/>
<path fill-rule="nonzero" fill="rgb(100%, 100%, 100%)" fill-opacity="1" d="M 81.472656 61.304688 L 82.132812 61.304688 L 82.132812 59.992188 L 84.109375 59.992188 L 84.109375 61.304688 L 87.398438 61.304688 L 87.398438 59.335938 L 85.425781 59.335938 L 85.425781 59.992188 L 86.742188 59.992188 L 86.742188 60.648438 L 84.765625 60.648438 L 84.765625 59.335938 L 81.472656 59.335938 L 81.472656 61.304688 M 88.058594 61.304688 L 90.035156 61.304688 L 90.035156 60.648438 L 88.714844 60.648438 L 88.714844 59.992188 L 90.691406 59.992188 L 90.691406 61.304688 L 93.984375 61.304688 L 93.984375 58.027344 L 93.324219 58.027344 L 93.324219 60.648438 L 92.667969 60.648438 L 92.667969 58.027344 L 92.007812 58.027344 L 92.007812 60.648438 L 91.351562 60.648438 L 91.351562 58.027344 L 90.691406 58.027344 L 90.691406 59.335938 L 88.058594 59.335938 L 88.058594 61.304688 M 82.789062 61.304688 L 82.789062 60.648438 L 83.449219 60.648438 L 83.449219 61.304688 Z M 81.472656 58.683594 L 81.472656 58.027344 L 90.035156 58.027344 L 90.035156 58.683594 Z M 81.472656 57.371094 L 81.472656 56.058594 L 87.398438 56.058594 L 87.398438 57.371094 Z M 88.058594 57.371094 L 88.058594 56.058594 L 93.984375 56.058594 L 93.984375 57.371094 Z M 88.058594 57.371094 "/>
<path fill-rule="nonzero" fill="rgb(100%, 100%, 100%)" fill-opacity="1" d="M 94.640625 61.304688 L 95.300781 61.304688 L 95.300781 59.992188 L 97.277344 59.992188 L 97.277344 61.304688 L 100.566406 61.304688 L 100.566406 59.335938 L 98.59375 59.335938 L 98.59375 59.992188 L 99.910156 59.992188 L 99.910156 60.648438 L 97.933594 60.648438 L 97.933594 59.335938 L 94.640625 59.335938 L 94.640625 61.304688 M 101.226562 61.304688 L 103.203125 61.304688 L 103.203125 60.648438 L 101.886719 60.648438 L 101.886719 59.992188 L 103.859375 59.992188 L 103.859375 61.304688 L 107.152344 61.304688 L 107.152344 58.027344 L 106.492188 58.027344 L 106.492188 60.648438 L 105.835938 60.648438 L 105.835938 58.027344 L 105.175781 58.027344 L 105.175781 60.648438 L 104.519531 60.648438 L 104.519531 58.027344 L 103.859375 58.027344 L 103.859375 59.335938 L 101.226562 59.335938 L 101.226562 61.304688 M 95.960938 61.304688 L 95.960938 60.648438 L 96.617188 60.648438 L 96.617188 61.304688 Z M 94.640625 58.683594 L 94.640625 58.027344 L 103.203125 58.027344 L 103.203125 58.683594 Z M 94.640625 57.371094 L 94.640625 56.058594 L 100.566406 56.058594 L 100.566406 57.371094 Z M 101.226562 57.371094 L 101.226562 56.058594 L 107.152344 56.058594 L 107.152344 57.371094 Z M 101.226562 57.371094 "/>
<path fill-rule="nonzero" fill="rgb(100%, 100%, 100%)" fill-opacity="1" d="M 107.8125 61.304688 L 108.46875 61.304688 L 108.46875 59.992188 L 110.445312 59.992188 L 110.445312 61.304688 L 113.738281 61.304688 L 113.738281 59.335938 L 111.761719 59.335938 L 111.761719 59.992188 L 113.078125 59.992188 L 113.078125 60.648438 L 111.101562 60.648438 L 111.101562 59.335938 L 107.8125 59.335938 L 107.8125 61.304688 M 114.394531 61.304688 L 116.371094 61.304688 L 116.371094 60.648438 L 115.054688 60.648438 L 115.054688 59.992188 L 117.027344 59.992188 L 117.027344 61.304688 L 120.320312 61.304688 L 120.320312 58.027344 L 119.664062 58.027344 L 119.664062 60.648438 L 119.003906 60.648438 L 119.003906 58.027344 L 118.347656 58.027344 L 118.347656 60.648438 L 117.6875 60.648438 L 117.6875 58.027344 L 117.027344 58.027344 L 117.027344 59.335938 L 114.394531 59.335938 L 114.394531 61.304688 M 109.128906 61.304688 L 109.128906 60.648438 L 109.785156 60.648438 L 109.785156 61.304688 Z M 107.8125 58.683594 L 107.8125 58.027344 L 116.371094 58.027344 L 116.371094 58.683594 Z M 107.8125 57.371094 L 107.8125 56.058594 L 113.738281 56.058594 L 113.738281 57.371094 Z M 114.394531 57.371094 L 114.394531 56.058594 L 120.320312 56.058594 L 120.320312 57.371094 Z M 114.394531 57.371094 "/>
<path fill-rule="nonzero" fill="rgb(100%, 100%, 100%)" fill-opacity="1" d="M 120.980469 61.304688 L 121.636719 61.304688 L 121.636719 59.992188 L 123.613281 59.992188 L 123.613281 61.304688 L 126.90625 61.304688 L 126.90625 59.335938 L 124.929688 59.335938 L 124.929688 59.992188 L 126.246094 59.992188 L 126.246094 60.648438 L 124.273438 60.648438 L 124.273438 59.335938 L 120.980469 59.335938 L 120.980469 61.304688 M 127.5625 61.304688 L 129.539062 61.304688 L 129.539062 60.648438 L 128.222656 60.648438 L 128.222656 59.992188 L 130.199219 59.992188 L 130.199219 61.304688 L 133.488281 61.304688 L 133.488281 58.027344 L 132.832031 58.027344 L 132.832031 60.648438 L 132.171875 60.648438 L 132.171875 58.027344 L 131.515625 58.027344 L 131.515625 60.648438 L 130.855469 60.648438 L 130.855469 58.027344 L 130.199219 58.027344 L 130.199219 59.335938 L 127.5625 59.335938 L 127.5625 61.304688 M 122.296875 61.304688 L 122.296875 60.648438 L 122.953125 60.648438 L 122.953125 61.304688 Z M 120.980469 58.683594 L 120.980469 58.027344 L 129.539062 58.027344 L 129.539062 58.683594 Z M 120.980469 57.371094 L 120.980469 56.058594 L 126.90625 56.058594 L 126.90625 57.371094 Z M 127.5625 57.371094 L 127.5625 56.058594 L 133.488281 56.058594 L 133.488281 57.371094 Z M 127.5625 57.371094 "/>
<path fill-rule="nonzero" fill="rgb(100%, 100%, 100%)" fill-opacity="1" d="M 134.148438 61.304688 L 134.804688 61.304688 L 134.804688 59.992188 L 136.78125 59.992188 L 136.78125 61.304688 L 140.074219 61.304688 L 140.074219 59.335938 L 138.097656 59.335938 L 138.097656 59.992188 L 139.414062 59.992188 L 139.414062 60.648438 L 137.441406 60.648438 L 137.441406 59.335938 L 134.148438 59.335938 L 134.148438 61.304688 M 140.730469 61.304688 L 142.707031 61.304688 L 142.707031 60.648438 L 141.390625 60.648438 L 141.390625 59.992188 L 143.367188 59.992188 L 143.367188 61.304688 L 146.65625 61.304688 L 146.65625 58.027344 L 146 58.027344 L 146 60.648438 L 145.339844 60.648438 L 145.339844 58.027344 L 144.683594 58.027344 L 144.683594 60.648438 L 144.023438 60.648438 L 144.023438 58.027344 L 143.367188 58.027344 L 143.367188 59.335938 L 140.730469 59.335938 L 140.730469 61.304688 M 135.464844 61.304688 L 135.464844 60.648438 L 136.125 60.648438 L 136.125 61.304688 Z M 134.148438 58.683594 L 134.148438 58.027344 L 142.707031 58.027344 L 142.707031 58.683594 Z M 134.148438 57.371094 L 134.148438 56.058594 L 140.074219 56.058594 L 140.074219 57.371094 Z M 140.730469 57.371094 L 140.730469 56.058594 L 146.65625 56.058594 L 146.65625 57.371094 Z M 140.730469 57.371094 "/>
<path fill-rule="nonzero" fill="rgb(100%, 100%, 100%)" fill-opacity="1" d="M 2.464844 27.1875 L 3.121094 27.1875 L 3.121094 25.875 L 5.097656 25.875 L 5.097656 27.1875 L 8.390625 27.1875 L 8.390625 25.222656 L 6.414062 25.222656 L 6.414062 25.875 L 7.730469 25.875 L 7.730469 26.53125 L 5.753906 26.53125 L 5.753906 25.222656 L 2.464844 25.222656 L 2.464844 27.1875 M 9.046875 27.1875 L 11.023438 27.1875 L 11.023438 26.53125 L 9.707031 26.53125 L 9.707031 25.875 L 11.679688 25.875 L 11.679688 27.1875 L 14.972656 27.1875 L 14.972656 23.910156 L 14.316406 23.910156 L 14.316406 26.53125 L 13.65625 26.53125 L 13.65625 23.910156 L 13 23.910156 L 13 26.53125 L 12.339844 26.53125 L 12.339844 23.910156 L 11.679688 23.910156 L 11.679688 25.222656 L 9.046875 25.222656 L 9.046875 27.1875 M 3.78125 27.1875 L 3.78125 26.53125 L 4.4375 26.53125 L 4.4375 27.1875 Z M 2.464844 24.566406 L 2.464844 23.910156 L 11.023438 23.910156 L 11.023438 24.566406 Z M 2.464844 27.84375 L 2.464844 29.152344 L 8.390625 29.152344 L 8.390625 27.84375 Z M 9.046875 27.84375 L 9.046875 29.152344 L 14.972656 29.152344 L 14.972656 27.84375 Z M 9.046875 27.84375 "/>
<path fill-rule="nonzero" fill="rgb(100%, 100%, 100%)" fill-opacity="1" d="M 15.632812 27.1875 L 16.289062 27.1875 L 16.289062 25.875 L 18.265625 25.875 L 18.265625 27.1875 L 21.558594 27.1875 L 21.558594 25.222656 L 19.582031 25.222656 L 19.582031 25.875 L 20.898438 25.875 L 20.898438 26.53125 L 18.925781 26.53125 L 18.925781 25.222656 L 15.632812 25.222656 L 15.632812 27.1875 M 22.214844 27.1875 L 24.191406 27.1875 L 24.191406 26.53125 L 22.875 26.53125 L 22.875 25.875 L 24.851562 25.875 L 24.851562 27.1875 L 28.140625 27.1875 L 28.140625 23.910156 L 27.484375 23.910156 L 27.484375 26.53125 L 26.824219 26.53125 L 26.824219 23.910156 L 26.167969 23.910156 L 26.167969 26.53125 L 25.507812 26.53125 L 25.507812 23.910156 L 24.851562 23.910156 L 24.851562 25.222656 L 22.214844 25.222656 L 22.214844 27.1875 M 16.949219 27.1875 L 16.949219 26.53125 L 17.605469 26.53125 L 17.605469 27.1875 Z M 15.632812 24.566406 L 15.632812 23.910156 L 24.191406 23.910156 L 24.191406 24.566406 Z M 15.632812 27.84375 L 15.632812 29.152344 L 21.558594 29.152344 L 21.558594 27.84375 Z M 22.214844 27.84375 L 22.214844 29.152344 L 28.140625 29.152344 L 28.140625 27.84375 Z M 22.214844 27.84375 "/>
<path fill-rule="nonzero" fill="rgb(100%, 100%, 100%)" fill-opacity="1" d="M 28.800781 27.1875 L 29.457031 27.1875 L 29.457031 25.875 L 31.433594 25.875 L 31.433594 27.1875 L 34.726562 27.1875 L 34.726562 25.222656 L 32.75 25.222656 L 32.75 25.875 L 34.066406 25.875 L 34.066406 26.53125 L 32.09375 26.53125 L 32.09375 25.222656 L 28.800781 25.222656 L 28.800781 27.1875 M 35.382812 27.1875 L 37.359375 27.1875 L 37.359375 26.53125 L 36.042969 26.53125 L 36.042969 25.875 L 38.019531 25.875 L 38.019531 27.1875 L 41.308594 27.1875 L 41.308594 23.910156 L 40.652344 23.910156 L 40.652344 26.53125 L 39.992188 26.53125 L 39.992188 23.910156 L 39.335938 23.910156 L 39.335938 26.53125 L 38.675781 26.53125 L 38.675781 23.910156 L 38.019531 23.910156 L 38.019531 25.222656 L 35.382812 25.222656 L 35.382812 27.1875 M 30.117188 27.1875 L 30.117188 26.53125 L 30.777344 26.53125 L 30.777344 27.1875 Z M 28.800781 24.566406 L 28.800781 23.910156 L 37.359375 23.910156 L 37.359375 24.566406 Z M 28.800781 27.84375 L 28.800781 29.152344 L 34.726562 29.152344 L 34.726562 27.84375 Z M 35.382812 27.84375 L 35.382812 29.152344 L 41.308594 29.152344 L 41.308594 27.84375 Z M 35.382812 27.84375 "/>
<path fill-rule="nonzero" fill="rgb(100%, 100%, 100%)" fill-opacity="1" d="M 41.96875 27.1875 L 42.628906 27.1875 L 42.628906 25.875 L 44.601562 25.875 L 44.601562 27.1875 L 47.894531 27.1875 L 47.894531 25.222656 L 45.917969 25.222656 L 45.917969 25.875 L 47.234375 25.875 L 47.234375 26.53125 L 45.261719 26.53125 L 45.261719 25.222656 L 41.96875 25.222656 L 41.96875 27.1875 M 48.554688 27.1875 L 50.527344 27.1875 L 50.527344 26.53125 L 49.210938 26.53125 L 49.210938 25.875 L 51.1875 25.875 L 51.1875 27.1875 L 54.480469 27.1875 L 54.480469 23.910156 L 53.820312 23.910156 L 53.820312 26.53125 L 53.160156 26.53125 L 53.160156 23.910156 L 52.503906 23.910156 L 52.503906 26.53125 L 51.84375 26.53125 L 51.84375 23.910156 L 51.1875 23.910156 L 51.1875 25.222656 L 48.554688 25.222656 L 48.554688 27.1875 M 43.285156 27.1875 L 43.285156 26.53125 L 43.945312 26.53125 L 43.945312 27.1875 Z M 41.96875 24.566406 L 41.96875 23.910156 L 50.527344 23.910156 L 50.527344 24.566406 Z M 41.96875 27.84375 L 41.96875 29.152344 L 47.894531 29.152344 L 47.894531 27.84375 Z M 48.554688 27.84375 L 48.554688 29.152344 L 54.480469 29.152344 L 54.480469 27.84375 Z M 48.554688 27.84375 "/>
<path fill-rule="nonzero" fill="rgb(100%, 100%, 100%)" fill-opacity="1" d="M 55.136719 27.1875 L 55.796875 27.1875 L 55.796875 25.875 L 57.769531 25.875 L 57.769531 27.1875 L 61.0625 27.1875 L 61.0625 25.222656 L 59.085938 25.222656 L 59.085938 25.875 L 60.40625 25.875 L 60.40625 26.53125 L 58.429688 26.53125 L 58.429688 25.222656 L 55.136719 25.222656 L 55.136719 27.1875 M 61.722656 27.1875 L 63.695312 27.1875 L 63.695312 26.53125 L 62.378906 26.53125 L 62.378906 25.875 L 64.355469 25.875 L 64.355469 27.1875 L 67.648438 27.1875 L 67.648438 23.910156 L 66.988281 23.910156 L 66.988281 26.53125 L 66.332031 26.53125 L 66.332031 23.910156 L 65.671875 23.910156 L 65.671875 26.53125 L 65.011719 26.53125 L 65.011719 23.910156 L 64.355469 23.910156 L 64.355469 25.222656 L 61.722656 25.222656 L 61.722656 27.1875 M 56.453125 27.1875 L 56.453125 26.53125 L 57.113281 26.53125 L 57.113281 27.1875 Z M 55.136719 24.566406 L 55.136719 23.910156 L 63.695312 23.910156 L 63.695312 24.566406 Z M 55.136719 27.84375 L 55.136719 29.152344 L 61.0625 29.152344 L 61.0625 27.84375 Z M 61.722656 27.84375 L 61.722656 29.152344 L 67.648438 29.152344 L 67.648438 27.84375 Z M 61.722656 27.84375 "/>
<path fill-rule="nonzero" fill="rgb(100%, 100%, 100%)" fill-opacity="1" d="M 68.304688 27.1875 L 68.964844 27.1875 L 68.964844 25.875 L 70.9375 25.875 L 70.9375 27.1875 L 74.230469 27.1875 L 74.230469 25.222656 L 72.257812 25.222656 L 72.257812 25.875 L 73.574219 25.875 L 73.574219 26.53125 L 71.597656 26.53125 L 71.597656 25.222656 L 68.304688 25.222656 L 68.304688 27.1875 M 74.890625 27.1875 L 76.863281 27.1875 L 76.863281 26.53125 L 75.546875 26.53125 L 75.546875 25.875 L 77.523438 25.875 L 77.523438 27.1875 L 80.816406 27.1875 L 80.816406 23.910156 L 80.15625 23.910156 L 80.15625 26.53125 L 79.5 26.53125 L 79.5 23.910156 L 78.839844 23.910156 L 78.839844 26.53125 L 78.183594 26.53125 L 78.183594 23.910156 L 77.523438 23.910156 L 77.523438 25.222656 L 74.890625 25.222656 L 74.890625 27.1875 M 69.621094 27.1875 L 69.621094 26.53125 L 70.28125 26.53125 L 70.28125 27.1875 Z M 68.304688 24.566406 L 68.304688 23.910156 L 76.863281 23.910156 L 76.863281 24.566406 Z M 68.304688 27.84375 L 68.304688 29.152344 L 74.230469 29.152344 L 74.230469 27.84375 Z M 74.890625 27.84375 L 74.890625 29.152344 L 80.816406 29.152344 L 80.816406 27.84375 Z M 74.890625 27.84375 "/>
<path fill-rule="nonzero" fill="rgb(100%, 100%, 100%)" fill-opacity="1" d="M 81.472656 27.1875 L 82.132812 27.1875 L 82.132812 25.875 L 84.109375 25.875 L 84.109375 27.1875 L 87.398438 27.1875 L 87.398438 25.222656 L 85.425781 25.222656 L 85.425781 25.875 L 86.742188 25.875 L 86.742188 26.53125 L 84.765625 26.53125 L 84.765625 25.222656 L 81.472656 25.222656 L 81.472656 27.1875 M 88.058594 27.1875 L 90.035156 27.1875 L 90.035156 26.53125 L 88.714844 26.53125 L 88.714844 25.875 L 90.691406 25.875 L 90.691406 27.1875 L 93.984375 27.1875 L 93.984375 23.910156 L 93.324219 23.910156 L 93.324219 26.53125 L 92.667969 26.53125 L 92.667969 23.910156 L 92.007812 23.910156 L 92.007812 26.53125 L 91.351562 26.53125 L 91.351562 23.910156 L 90.691406 23.910156 L 90.691406 25.222656 L 88.058594 25.222656 L 88.058594 27.1875 M 82.789062 27.1875 L 82.789062 26.53125 L 83.449219 26.53125 L 83.449219 27.1875 Z M 81.472656 24.566406 L 81.472656 23.910156 L 90.035156 23.910156 L 90.035156 24.566406 Z M 81.472656 27.84375 L 81.472656 29.152344 L 87.398438 29.152344 L 87.398438 27.84375 Z M 88.058594 27.84375 L 88.058594 29.152344 L 93.984375 29.152344 L 93.984375 27.84375 Z M 88.058594 27.84375 "/>
<path fill-rule="nonzero" fill="rgb(100%, 100%, 100%)" fill-opacity="1" d="M 94.640625 27.1875 L 95.300781 27.1875 L 95.300781 25.875 L 97.277344 25.875 L 97.277344 27.1875 L 100.566406 27.1875 L 100.566406 25.222656 L 98.59375 25.222656 L 98.59375 25.875 L 99.910156 25.875 L 99.910156 26.53125 L 97.933594 26.53125 L 97.933594 25.222656 L 94.640625 25.222656 L 94.640625 27.1875 M 101.226562 27.1875 L 103.203125 27.1875 L 103.203125 26.53125 L 101.886719 26.53125 L 101.886719 25.875 L 103.859375 25.875 L 103.859375 27.1875 L 107.152344 27.1875 L 107.152344 23.910156 L 106.492188 23.910156 L 106.492188 26.53125 L 105.835938 26.53125 L 105.835938 23.910156 L 105.175781 23.910156 L 105.175781 26.53125 L 104.519531 26.53125 L 104.519531 23.910156 L 103.859375 23.910156 L 103.859375 25.222656 L 101.226562 25.222656 L 101.226562 27.1875 M 95.960938 27.1875 L 95.960938 26.53125 L 96.617188 26.53125 L 96.617188 27.1875 Z M 94.640625 24.566406 L 94.640625 23.910156 L 103.203125 23.910156 L 103.203125 24.566406 Z M 94.640625 27.84375 L 94.640625 29.152344 L 100.566406 29.152344 L 100.566406 27.84375 Z M 101.226562 27.84375 L 101.226562 29.152344 L 107.152344 29.152344 L 107.152344 27.84375 Z M 101.226562 27.84375 "/>
<path fill-rule="nonzero" fill="rgb(100%, 100%, 100%)" fill-opacity="1" d="M 107.8125 27.1875 L 108.46875 27.1875 L 108.46875 25.875 L 110.445312 25.875 L 110.445312 27.1875 L 113.738281 27.1875 L 113.738281 25.222656 L 111.761719 25.222656 L 111.761719 25.875 L 113.078125 25.875 L 113.078125 26.53125 L 111.101562 26.53125 L 111.101562 25.222656 L 107.8125 25.222656 L 107.8125 27.1875 M 114.394531 27.1875 L 116.371094 27.1875 L 116.371094 26.53125 L 115.054688 26.53125 L 115.054688 25.875 L 117.027344 25.875 L 117.027344 27.1875 L 120.320312 27.1875 L 120.320312 23.910156 L 119.664062 23.910156 L 119.664062 26.53125 L 119.003906 26.53125 L 119.003906 23.910156 L 118.347656 23.910156 L 118.347656 26.53125 L 117.6875 26.53125 L 117.6875 23.910156 L 117.027344 23.910156 L 117.027344 25.222656 L 114.394531 25.222656 L 114.394531 27.1875 M 109.128906 27.1875 L 109.128906 26.53125 L 109.785156 26.53125 L 109.785156 27.1875 Z M 107.8125 24.566406 L 107.8125 23.910156 L 116.371094 23.910156 L 116.371094 24.566406 Z M 107.8125 27.84375 L 107.8125 29.152344 L 113.738281 29.152344 L 113.738281 27.84375 Z M 114.394531 27.84375 L 114.394531 29.152344 L 120.320312 29.152344 L 120.320312 27.84375 Z M 114.394531 27.84375 "/>
<path fill-rule="nonzero" fill="rgb(100%, 100%, 100%)" fill-opacity="1" d="M 120.980469 27.1875 L 121.636719 27.1875 L 121.636719 25.875 L 123.613281 25.875 L 123.613281 27.1875 L 126.90625 27.1875 L 126.90625 25.222656 L 124.929688 25.222656 L 124.929688 25.875 L 126.246094 25.875 L 126.246094 26.53125 L 124.273438 26.53125 L 124.273438 25.222656 L 120.980469 25.222656 L 120.980469 27.1875 M 127.5625 27.1875 L 129.539062 27.1875 L 129.539062 26.53125 L 128.222656 26.53125 L 128.222656 25.875 L 130.199219 25.875 L 130.199219 27.1875 L 133.488281 27.1875 L 133.488281 23.910156 L 132.832031 23.910156 L 132.832031 26.53125 L 132.171875 26.53125 L 132.171875 23.910156 L 131.515625 23.910156 L 131.515625 26.53125 L 130.855469 26.53125 L 130.855469 23.910156 L 130.199219 23.910156 L 130.199219 25.222656 L 127.5625 25.222656 L 127.5625 27.1875 M 122.296875 27.1875 L 122.296875 26.53125 L 122.953125 26.53125 L 122.953125 27.1875 Z M 120.980469 24.566406 L 120.980469 23.910156 L 129.539062 23.910156 L 129.539062 24.566406 Z M 120.980469 27.84375 L 120.980469 29.152344 L 126.90625 29.152344 L 126.90625 27.84375 Z M 127.5625 27.84375 L 127.5625 29.152344 L 133.488281 29.152344 L 133.488281 27.84375 Z M 127.5625 27.84375 "/>
<path fill-rule="nonzero" fill="rgb(100%, 100%, 100%)" fill-opacity="1" d="M 134.148438 27.1875 L 134.804688 27.1875 L 134.804688 25.875 L 136.78125 25.875 L 136.78125 27.1875 L 140.074219 27.1875 L 140.074219 25.222656 L 138.097656 25.222656 L 138.097656 25.875 L 139.414062 25.875 L 139.414062 26.53125 L 137.441406 26.53125 L 137.441406 25.222656 L 134.148438 25.222656 L 134.148438 27.1875 M 140.730469 27.1875 L 142.707031 27.1875 L 142.707031 26.53125 L 141.390625 26.53125 L 141.390625 25.875 L 143.367188 25.875 L 143.367188 27.1875 L 146.65625 27.1875 L 146.65625 23.910156 L 146 23.910156 L 146 26.53125 L 145.339844 26.53125 L 145.339844 23.910156 L 144.683594 23.910156 L 144.683594 26.53125 L 144.023438 26.53125 L 144.023438 23.910156 L 143.367188 23.910156 L 143.367188 25.222656 L 140.730469 25.222656 L 140.730469 27.1875 M 135.464844 27.1875 L 135.464844 26.53125 L 136.125 26.53125 L 136.125 27.1875 Z M 134.148438 24.566406 L 134.148438 23.910156 L 142.707031 23.910156 L 142.707031 24.566406 Z M 134.148438 27.84375 L 134.148438 29.152344 L 140.074219 29.152344 L 140.074219 27.84375 Z M 140.730469 27.84375 L 140.730469 29.152344 L 146.65625 29.152344 L 146.65625 27.84375 Z M 140.730469 27.84375 "/>
<path fill-rule="nonzero" fill="rgb(78.431702%, 6.27594%, 18.03894%)" fill-opacity="1" d="M 69.238281 50.578125 C 73.894531 52.089844 78.890625 49.542969 80.40625 44.890625 C 81.507812 41.492188 80.464844 37.761719 77.757812 35.433594 C 80.761719 39.878906 79.59375 45.921875 75.144531 48.925781 C 73.40625 50.101562 71.332031 50.679688 69.238281 50.578125 "/>
<path fill-rule="nonzero" fill="rgb(78.431702%, 6.27594%, 18.03894%)" fill-opacity="1" d="M 80.574219 48.878906 C 84.121094 46.828125 85.335938 42.285156 83.285156 38.738281 C 82.28125 36.996094 80.609375 35.738281 78.660156 35.25 C 81.4375 37.335938 82.886719 40.746094 82.46875 44.191406 C 82.261719 45.890625 81.605469 47.511719 80.574219 48.878906 "/>
<path fill-rule="nonzero" fill="rgb(78.431702%, 6.27594%, 18.03894%)" fill-opacity="1" d="M 74.566406 52.167969 L 74.078125 42.453125 L 74.566406 34.800781 C 74.859375 35.214844 75.253906 35.546875 75.710938 35.765625 L 75.710938 41.476562 L 75.320312 51.128906 Z M 74.566406 52.167969 "/>
<path fill-rule="nonzero" fill="rgb(78.431702%, 6.27594%, 18.03894%)" fill-opacity="1" d="M 74.371094 34.191406 L 74.566406 34.375 C 75.007812 35.007812 75.882812 35.160156 76.511719 34.714844 C 77.042969 34.339844 77.246094 33.652344 77.007812 33.050781 C 76.871094 33.769531 76.179688 34.242188 75.464844 34.105469 C 75.085938 34.035156 74.757812 33.800781 74.566406 33.46875 "/>
<path fill-rule="nonzero" fill="rgb(78.431702%, 6.27594%, 18.03894%)" fill-opacity="1" d="M 79.890625 50.578125 C 75.234375 52.089844 70.238281 49.542969 68.722656 44.890625 C 67.621094 41.492188 68.664062 37.761719 71.371094 35.433594 C 68.367188 39.878906 69.535156 45.921875 73.984375 48.925781 C 75.722656 50.101562 77.796875 50.679688 79.890625 50.578125 "/>
<path fill-rule="nonzero" fill="rgb(78.431702%, 6.27594%, 18.03894%)" fill-opacity="1" d="M 68.554688 48.878906 C 65.007812 46.828125 63.792969 42.285156 65.84375 38.738281 C 66.847656 36.996094 68.519531 35.738281 70.46875 35.25 C 67.695312 37.335938 66.242188 40.746094 66.660156 44.191406 C 66.867188 45.890625 67.523438 47.511719 68.558594 48.878906 "/>
<path fill-rule="nonzero" fill="rgb(78.431702%, 6.27594%, 18.03894%)" fill-opacity="1" d="M 74.566406 52.167969 L 75.050781 42.453125 L 74.566406 34.800781 C 74.269531 35.214844 73.875 35.546875 73.417969 35.765625 L 73.417969 41.476562 L 73.808594 51.128906 Z M 74.566406 52.167969 "/>
<path fill-rule="nonzero" fill="rgb(78.431702%, 6.27594%, 18.03894%)" fill-opacity="1" d="M 74.757812 34.191406 L 74.566406 34.375 C 74.121094 35.007812 73.246094 35.160156 72.617188 34.714844 C 72.085938 34.339844 71.882812 33.652344 72.121094 33.050781 C 72.257812 33.769531 72.949219 34.242188 73.664062 34.105469 C 74.042969 34.035156 74.371094 33.800781 74.5625 33.46875 "/>
<g clip-path="url(#clip-3)">
<path fill="none" stroke-width="0.56693" stroke-linecap="butt" stroke-linejoin="miter" stroke="rgb(39.99939%, 39.99939%, 39.99939%)" stroke-opacity="1" stroke-miterlimit="10" d="M -74.413401 -42.521499 L -74.413401 42.520456 L 74.412963 42.520456 L 74.412963 -42.521499 Z M -74.413401 -42.521499 " transform="matrix(0.995419, 0, 0, -0.995419, 74.560765, 42.606903)"/>
</g>
</svg>
