<?xml version="1.0" encoding="UTF-8"?>
<svg xmlns="http://www.w3.org/2000/svg" xmlns:xlink="http://www.w3.org/1999/xlink" width="131.457pt" height="85.606pt" viewBox="0 0 131.457 85.606">
<defs>
<clipPath id="clip-0">
<path clip-rule="nonzero" d="M 0.3125 0.28125 L 127.296875 0.28125 L 127.296875 84.933594 L 0.3125 84.933594 Z M 0.3125 0.28125 "/>
</clipPath>
<clipPath id="clip-1">
<path clip-rule="nonzero" d="M 0.03125 0 L 128 0 L 128 85.214844 L 0.03125 85.214844 Z M 0.03125 0 "/>
</clipPath>
</defs>
<g clip-path="url(#clip-0)">
<path fill-rule="nonzero" fill="rgb(100%, 100%, 100%)" fill-opacity="1" d="M 0.3125 84.933594 L 0.3125 0.28125 L 127.296875 0.28125 L 127.296875 84.933594 Z M 0.3125 84.933594 "/>
</g>
<path fill-rule="nonzero" fill="rgb(78.431702%, 6.27594%, 18.03894%)" fill-opacity="1" d="M 89.199219 42.605469 C 89.199219 28.582031 77.832031 17.210938 63.804688 17.210938 C 49.78125 17.210938 38.410156 28.582031 38.410156 42.605469 C 38.410156 56.632812 49.78125 68.003906 63.804688 68.003906 C 77.832031 68.003906 89.199219 56.632812 89.199219 42.605469 Z M 89.199219 42.605469 "/>
<g clip-path="url(#clip-1)">
<path fill="none" stroke-width="0.56693" stroke-linecap="butt" stroke-linejoin="miter" stroke="rgb(39.99939%, 39.99939%, 39.99939%)" stroke-opacity="1" stroke-miterlimit="10" d="M -63.785076 -42.521499 L -63.785076 42.520456 L 63.783742 42.520456 L 63.783742 -42.521499 Z M -63.785076 -42.521499 " transform="matrix(0.995419, 0, 0, -0.995419, 63.805351, 42.606903)"/>
</g>
</svg>
