<?xml version="1.0" encoding="UTF-8"?>
<svg xmlns="http://www.w3.org/2000/svg" xmlns:xlink="http://www.w3.org/1999/xlink" width="131.457pt" height="85.606pt" viewBox="0 0 131.457 85.606">
<defs>
<clipPath id="clip-0">
<path clip-rule="nonzero" d="M 0.3125 0.28125 L 127.296875 0.28125 L 127.296875 84.933594 L 0.3125 84.933594 Z M 0.3125 0.28125 "/>
</clipPath>
<clipPath id="clip-1">
<path clip-rule="nonzero" d="M 18 0.28125 L 110 0.28125 L 110 84.933594 L 18 84.933594 Z M 18 0.28125 "/>
</clipPath>
<clipPath id="clip-2">
<path clip-rule="nonzero" d="M 0.03125 0 L 128 0 L 128 85.214844 L 0.03125 85.214844 Z M 0.03125 0 "/>
</clipPath>
</defs>
<g clip-path="url(#clip-0)">
<path fill-rule="nonzero" fill="rgb(83.529663%, 0%, 19.607544%)" fill-opacity="1" d="M 0.3125 84.933594 L 0.3125 0.28125 L 127.296875 0.28125 L 127.296875 84.933594 Z M 0.3125 84.933594 "/>
</g>
<g clip-path="url(#clip-1)">
<path fill="none" stroke-width="2.02477" stroke-linecap="butt" stroke-linejoin="miter" stroke="rgb(0%, 51.763916%, 23.922729%)" stroke-opacity="1" stroke-miterlimit="10" d="M -0.000666811 17.986179 L -10.568614 -14.549599 L 17.105045 5.558148 L -17.102454 5.558148 L 10.571205 -14.549599 Z M -0.000666811 17.986179 " transform="matrix(0.995419, 0, 0, -0.995419, 63.805351, 42.606903)"/>
</g>
<g clip-path="url(#clip-2)">
<path fill="none" stroke-width="0.56693" stroke-linecap="butt" stroke-linejoin="miter" stroke="rgb(39.99939%, 39.99939%, 39.99939%)" stroke-opacity="1" stroke-miterlimit="10" d="M -63.785076 -42.521499 L -63.785076 42.520456 L 63.783742 42.520456 L 63.783742 -42.521499 Z M -63.785076 -42.521499 " transform="matrix(0.995419, 0, 0, -0.995419, 63.805351, 42.606903)"/>
</g>
</svg>
