<?xml version="1.0" encoding="UTF-8"?>
<svg xmlns="http://www.w3.org/2000/svg" xmlns:xlink="http://www.w3.org/1999/xlink" width="120.825pt" height="85.606pt" viewBox="0 0 120.825 85.606">
<defs>
<clipPath id="clip-0">
<path clip-rule="nonzero" d="M 0.472656 0.28125 L 116.875 0.28125 L 116.875 84.933594 L 0.472656 84.933594 Z M 0.472656 0.28125 "/>
</clipPath>
<clipPath id="clip-1">
<path clip-rule="nonzero" d="M 0.472656 32 L 116.875 32 L 116.875 54 L 0.472656 54 Z M 0.472656 32 "/>
</clipPath>
<clipPath id="clip-2">
<path clip-rule="nonzero" d="M 32 0.28125 L 54 0.28125 L 54 84.933594 L 32 84.933594 Z M 32 0.28125 "/>
</clipPath>
<clipPath id="clip-3">
<path clip-rule="nonzero" d="M 0.472656 37 L 116.875 37 L 116.875 48 L 0.472656 48 Z M 0.472656 37 "/>
</clipPath>
<clipPath id="clip-4">
<path clip-rule="nonzero" d="M 37 0.28125 L 49 0.28125 L 49 84.933594 L 37 84.933594 Z M 37 0.28125 "/>
</clipPath>
<clipPath id="clip-5">
<path clip-rule="nonzero" d="M 0.191406 0 L 118 0 L 118 85.214844 L 0.191406 85.214844 Z M 0.191406 0 "/>
</clipPath>
</defs>
<g clip-path="url(#clip-0)">
<path fill-rule="nonzero" fill="rgb(72.941589%, 4.705811%, 18.429565%)" fill-opacity="1" d="M 0.472656 84.933594 L 0.472656 0.28125 L 116.875 0.28125 L 116.875 84.933594 Z M 0.472656 84.933594 "/>
</g>
<g clip-path="url(#clip-1)">
<path fill-rule="nonzero" fill="rgb(100%, 100%, 100%)" fill-opacity="1" d="M 0.472656 53.1875 L 0.472656 32.027344 L 116.875 32.027344 L 116.875 53.1875 Z M 0.472656 53.1875 "/>
</g>
<g clip-path="url(#clip-2)">
<path fill-rule="nonzero" fill="rgb(100%, 100%, 100%)" fill-opacity="1" d="M 32.214844 84.933594 L 32.214844 0.28125 L 53.378906 0.28125 L 53.378906 84.933594 Z M 32.214844 84.933594 "/>
</g>
<g clip-path="url(#clip-3)">
<path fill-rule="nonzero" fill="rgb(0%, 12.548828%, 35.68573%)" fill-opacity="1" d="M 0.472656 47.898438 L 0.472656 37.316406 L 116.875 37.316406 L 116.875 47.898438 Z M 0.472656 47.898438 "/>
</g>
<g clip-path="url(#clip-4)">
<path fill-rule="nonzero" fill="rgb(0%, 12.548828%, 35.68573%)" fill-opacity="1" d="M 37.507812 84.933594 L 37.507812 0.28125 L 48.085938 0.28125 L 48.085938 84.933594 Z M 37.507812 84.933594 "/>
</g>
<g clip-path="url(#clip-5)">
<path fill="none" stroke-width="0.56693" stroke-linecap="butt" stroke-linejoin="miter" stroke="rgb(39.99939%, 39.99939%, 39.99939%)" stroke-opacity="1" stroke-miterlimit="10" d="M -58.467716 -42.521499 L -58.467716 42.520456 L 58.470368 42.520456 L 58.470368 -42.521499 Z M -58.467716 -42.521499 " transform="matrix(0.995419, 0, 0, -0.995419, 58.672508, 42.606903)"/>
</g>
</svg>
