<?xml version="1.0" encoding="UTF-8"?>
<svg xmlns="http://www.w3.org/2000/svg" xmlns:xlink="http://www.w3.org/1999/xlink" width="131.457pt" height="85.606pt" viewBox="0 0 131.457 85.606">
<defs>
<clipPath id="clip-0">
<path clip-rule="nonzero" d="M 63 0.28125 L 127.296875 0.28125 L 127.296875 43 L 63 43 Z M 63 0.28125 "/>
</clipPath>
<clipPath id="clip-1">
<path clip-rule="nonzero" d="M 0.3125 42 L 64 42 L 64 84.933594 L 0.3125 84.933594 Z M 0.3125 42 "/>
</clipPath>
<clipPath id="clip-2">
<path clip-rule="nonzero" d="M 0.03125 0 L 128 0 L 128 85.214844 L 0.03125 85.214844 Z M 0.03125 0 "/>
</clipPath>
</defs>
<g clip-path="url(#clip-0)">
<path fill-rule="nonzero" fill="rgb(78.431702%, 6.27594%, 18.03894%)" fill-opacity="1" d="M 63.804688 42.605469 L 63.804688 0.28125 L 127.296875 0.28125 L 127.296875 42.605469 Z M 63.804688 42.605469 "/>
</g>
<g clip-path="url(#clip-1)">
<path fill-rule="nonzero" fill="rgb(0%, 15.684509%, 33.332825%)" fill-opacity="1" d="M 0.3125 84.933594 L 0.3125 42.605469 L 63.804688 42.605469 L 63.804688 84.933594 Z M 0.3125 84.933594 "/>
</g>
<path fill-rule="nonzero" fill="rgb(0%, 15.684509%, 33.332825%)" fill-opacity="1" d="M 32.058594 10.863281 L 29.4375 18.933594 L 20.949219 18.933594 L 27.816406 23.921875 L 25.191406 31.996094 L 32.058594 27.007812 L 38.925781 31.996094 L 36.300781 23.921875 L 43.167969 18.933594 L 34.679688 18.933594 Z M 32.058594 10.863281 "/>
<path fill-rule="nonzero" fill="rgb(78.431702%, 6.27594%, 18.03894%)" fill-opacity="1" d="M 95.550781 53.1875 L 92.929688 61.261719 L 84.441406 61.261719 L 91.308594 66.25 L 88.6875 74.320312 L 95.550781 69.332031 L 102.417969 74.320312 L 99.796875 66.25 L 106.664062 61.261719 L 98.175781 61.261719 Z M 95.550781 53.1875 "/>
<g clip-path="url(#clip-2)">
<path fill="none" stroke-width="0.56693" stroke-linecap="butt" stroke-linejoin="miter" stroke="rgb(39.99939%, 39.99939%, 39.99939%)" stroke-opacity="1" stroke-miterlimit="10" d="M -63.785076 -42.521499 L -63.785076 42.520456 L 63.783742 42.520456 L 63.783742 -42.521499 Z M -63.785076 -42.521499 " transform="matrix(0.995419, 0, 0, -0.995419, 63.805351, 42.606903)"/>
</g>
</svg>
