<?xml version="1.0" encoding="UTF-8"?>
<svg xmlns="http://www.w3.org/2000/svg" xmlns:xlink="http://www.w3.org/1999/xlink" width="145.627pt" height="85.606pt" viewBox="0 0 145.627 85.606">
<defs>
<clipPath id="clip-0">
<path clip-rule="nonzero" d="M 0.429688 0.28125 L 141.519531 0.28125 L 141.519531 29 L 0.429688 29 Z M 0.429688 0.28125 "/>
</clipPath>
<clipPath id="clip-1">
<path clip-rule="nonzero" d="M 0.429688 28 L 141.519531 28 L 141.519531 57 L 0.429688 57 Z M 0.429688 28 "/>
</clipPath>
<clipPath id="clip-2">
<path clip-rule="nonzero" d="M 0.429688 56 L 141.519531 56 L 141.519531 84.933594 L 0.429688 84.933594 Z M 0.429688 56 "/>
</clipPath>
<clipPath id="clip-3">
<path clip-rule="nonzero" d="M 0.148438 0 L 142 0 L 142 85.214844 L 0.148438 85.214844 Z M 0.148438 0 "/>
</clipPath>
</defs>
<g clip-path="url(#clip-0)">
<path fill-rule="nonzero" fill="rgb(74.900818%, 5.097961%, 24.31488%)" fill-opacity="1" d="M 0.429688 28.5 L 0.429688 0.28125 L 141.519531 0.28125 L 141.519531 28.5 Z M 0.429688 28.5 "/>
</g>
<g clip-path="url(#clip-1)">
<path fill-rule="nonzero" fill="rgb(100%, 100%, 100%)" fill-opacity="1" d="M 0.429688 56.714844 L 0.429688 28.5 L 141.519531 28.5 L 141.519531 56.714844 Z M 0.429688 56.714844 "/>
</g>
<g clip-path="url(#clip-2)">
<path fill-rule="nonzero" fill="rgb(0%, 19.999695%, 62.745667%)" fill-opacity="1" d="M 0.429688 84.933594 L 0.429688 56.714844 L 141.519531 56.714844 L 141.519531 84.933594 Z M 0.429688 84.933594 "/>
</g>
<path fill-rule="nonzero" fill="rgb(100%, 100%, 100%)" fill-opacity="1" stroke-width="0.33301" stroke-linecap="butt" stroke-linejoin="miter" stroke="rgb(0%, 0%, 0%)" stroke-opacity="1" stroke-miterlimit="10" d="M 9.45115 0.00144038 C 9.45115 -5.217783 5.220832 -9.448102 0.00160803 -9.448102 C -5.217616 -9.448102 -9.447934 -5.217783 -9.447934 0.00144038 C -9.447934 5.220664 -5.217616 9.450982 0.00160803 9.450982 C 5.220832 9.450982 9.45115 5.220664 9.45115 0.00144038 Z M 9.45115 0.00144038 " transform="matrix(0.995419, 0, 0, -0.995419, 70.974962, 42.606903)"/>
<path fill="none" stroke-width="0.1332" stroke-linecap="butt" stroke-linejoin="miter" stroke="rgb(0%, 0%, 0%)" stroke-opacity="1" stroke-miterlimit="10" d="M 7.908928 0.00144038 C 7.908928 -4.37015 4.369274 -7.909804 0.00160803 -7.909804 C -4.369982 -7.909804 -7.909637 -4.37015 -7.909637 0.00144038 C -7.909637 4.369107 -4.369982 7.908761 0.00160803 7.908761 C 4.369274 7.908761 7.908928 4.369107 7.908928 0.00144038 Z M 7.908928 0.00144038 " transform="matrix(0.995419, 0, 0, -0.995419, 70.974962, 42.606903)"/>
<path fill="none" stroke-width="0.1332" stroke-linecap="butt" stroke-linejoin="miter" stroke="rgb(0%, 0%, 0%)" stroke-opacity="1" stroke-miterlimit="10" d="M 5.884026 0.00144038 C 5.884026 -3.251745 3.250869 -5.884902 0.00160803 -5.884902 C -3.251577 -5.884902 -5.884735 -3.251745 -5.884735 0.00144038 C -5.884735 3.250702 -3.251577 5.887783 0.00160803 5.887783 C 3.250869 5.887783 5.884026 3.250702 5.884026 0.00144038 Z M 5.884026 0.00144038 " transform="matrix(0.995419, 0, 0, -0.995419, 70.974962, 42.606903)"/>
<path fill-rule="nonzero" fill="rgb(0%, 0%, 0%)" fill-opacity="1" d="M 65.074219 46.371094 L 64.992188 46.238281 C 64.984375 46.222656 64.964844 46.195312 64.929688 46.160156 C 64.914062 46.144531 64.890625 46.132812 64.867188 46.128906 C 64.84375 46.125 64.816406 46.132812 64.792969 46.144531 C 64.761719 46.164062 64.742188 46.1875 64.738281 46.21875 C 64.734375 46.253906 64.75 46.296875 64.785156 46.355469 L 64.867188 46.496094 Z M 65.871094 46.324219 L 64.847656 46.933594 L 64.535156 46.40625 C 64.476562 46.308594 64.441406 46.230469 64.425781 46.167969 C 64.410156 46.105469 64.417969 46.046875 64.445312 45.988281 C 64.472656 45.929688 64.519531 45.878906 64.582031 45.839844 C 64.632812 45.808594 64.691406 45.792969 64.75 45.789062 C 64.808594 45.789062 64.859375 45.804688 64.910156 45.832031 C 64.941406 45.847656 64.976562 45.875 65.015625 45.917969 C 65.007812 45.875 65.003906 45.839844 65.003906 45.8125 C 65.007812 45.796875 65.015625 45.769531 65.03125 45.730469 C 65.042969 45.691406 65.054688 45.664062 65.066406 45.648438 L 65.269531 45.320312 L 65.480469 45.675781 L 65.269531 46.03125 C 65.246094 46.078125 65.230469 46.109375 65.226562 46.136719 C 65.226562 46.167969 65.234375 46.195312 65.25 46.226562 L 65.265625 46.253906 L 65.679688 46.007812 Z M 64.070312 45.492188 L 63.757812 44.558594 L 63.996094 44.476562 L 64.191406 45.0625 L 64.375 45 L 64.1875 44.457031 L 64.421875 44.382812 L 64.601562 44.921875 L 64.824219 44.851562 L 64.625 44.25 L 64.878906 44.160156 L 65.195312 45.113281 Z M 64.101562 43.589844 L 64.089844 43.503906 C 64.082031 43.429688 64.0625 43.382812 64.035156 43.359375 C 64.007812 43.335938 63.972656 43.324219 63.9375 43.328125 C 63.898438 43.332031 63.871094 43.347656 63.847656 43.375 C 63.824219 43.402344 63.816406 43.449219 63.824219 43.519531 L 63.835938 43.625 Z M 63.640625 44.015625 L 63.566406 43.410156 C 63.554688 43.28125 63.574219 43.175781 63.625 43.101562 C 63.683594 43.03125 63.769531 42.988281 63.882812 42.972656 C 64.003906 42.957031 64.101562 42.984375 64.175781 43.046875 C 64.25 43.109375 64.296875 43.21875 64.316406 43.363281 L 64.339844 43.5625 L 64.777344 43.511719 L 64.820312 43.878906 Z M 63.597656 41.695312 L 63.636719 41.332031 L 64.34375 41.40625 C 64.410156 41.414062 64.472656 41.433594 64.535156 41.460938 C 64.59375 41.488281 64.648438 41.53125 64.6875 41.582031 C 64.726562 41.632812 64.757812 41.683594 64.769531 41.738281 C 64.789062 41.808594 64.792969 41.898438 64.78125 42 C 64.773438 42.0625 64.765625 42.125 64.75 42.183594 C 64.734375 42.25 64.710938 42.308594 64.683594 42.351562 C 64.652344 42.394531 64.613281 42.433594 64.566406 42.464844 C 64.523438 42.496094 64.472656 42.515625 64.421875 42.527344 C 64.34375 42.542969 64.277344 42.546875 64.21875 42.539062 L 63.515625 42.464844 L 63.554688 42.101562 L 64.273438 42.179688 C 64.339844 42.183594 64.390625 42.171875 64.433594 42.140625 C 64.472656 42.105469 64.496094 42.058594 64.503906 42 C 64.507812 41.933594 64.496094 41.882812 64.464844 41.84375 C 64.433594 41.804688 64.382812 41.78125 64.320312 41.773438 Z M 64.78125 40.695312 L 64.84375 40.519531 C 64.863281 40.460938 64.867188 40.414062 64.855469 40.382812 C 64.84375 40.351562 64.816406 40.324219 64.785156 40.316406 C 64.75 40.304688 64.71875 40.304688 64.691406 40.324219 C 64.660156 40.34375 64.636719 40.378906 64.613281 40.441406 L 64.550781 40.617188 Z M 64.339844 40.542969 L 64.394531 40.390625 C 64.410156 40.335938 64.417969 40.296875 64.402344 40.269531 C 64.394531 40.242188 64.371094 40.21875 64.335938 40.210938 C 64.304688 40.199219 64.273438 40.199219 64.246094 40.214844 C 64.222656 40.230469 64.199219 40.261719 64.183594 40.3125 L 64.125 40.46875 Z M 63.777344 40.738281 L 64.003906 40.085938 C 64.042969 39.980469 64.097656 39.90625 64.171875 39.867188 C 64.246094 39.828125 64.328125 39.820312 64.402344 39.847656 C 64.46875 39.875 64.515625 39.914062 64.550781 39.972656 C 64.570312 40.011719 64.585938 40.0625 64.585938 40.121094 C 64.632812 40.046875 64.683594 39.996094 64.746094 39.976562 C 64.808594 39.957031 64.875 39.957031 64.945312 39.980469 C 65.003906 40 65.050781 40.035156 65.085938 40.078125 C 65.121094 40.121094 65.148438 40.171875 65.160156 40.226562 C 65.164062 40.261719 65.160156 40.3125 65.148438 40.371094 C 65.128906 40.453125 65.117188 40.507812 65.109375 40.53125 L 64.898438 41.132812 Z M 64.382812 39.214844 L 64.578125 38.902344 L 65.34375 39.363281 L 65.640625 38.875 L 65.890625 39.027344 L 65.402344 39.832031 Z M 65.167969 38.042969 L 65.40625 37.761719 L 66.3125 38.53125 L 66.078125 38.8125 Z M 66.816406 37.40625 L 67.128906 37.273438 C 67.167969 37.355469 67.1875 37.4375 67.191406 37.511719 C 67.195312 37.585938 67.179688 37.660156 67.148438 37.730469 C 67.113281 37.796875 67.054688 37.863281 66.976562 37.933594 C 66.875 38.015625 66.78125 38.070312 66.695312 38.09375 C 66.609375 38.113281 66.511719 38.109375 66.402344 38.074219 C 66.300781 38.039062 66.199219 37.964844 66.105469 37.855469 C 65.980469 37.703125 65.921875 37.550781 65.933594 37.40625 C 65.949219 37.257812 66.027344 37.121094 66.175781 37 C 66.289062 36.902344 66.398438 36.851562 66.503906 36.84375 C 66.609375 36.835938 66.71875 36.867188 66.828125 36.933594 L 66.625 37.199219 C 66.59375 37.179688 66.570312 37.164062 66.546875 37.160156 C 66.515625 37.148438 66.480469 37.148438 66.449219 37.160156 C 66.414062 37.167969 66.382812 37.183594 66.359375 37.203125 C 66.292969 37.257812 66.265625 37.324219 66.273438 37.40625 C 66.28125 37.464844 66.320312 37.535156 66.386719 37.617188 C 66.46875 37.71875 66.542969 37.773438 66.605469 37.785156 C 66.667969 37.796875 66.726562 37.78125 66.78125 37.734375 C 66.835938 37.6875 66.867188 37.640625 66.867188 37.589844 C 66.867188 37.53125 66.851562 37.472656 66.816406 37.40625 M 68.019531 36.691406 L 67.710938 36.371094 L 67.789062 36.808594 Z M 68.207031 36.886719 L 67.832031 37.074219 L 67.871094 37.277344 L 67.539062 37.445312 L 67.394531 36.183594 L 67.753906 36 L 68.691406 36.859375 L 68.347656 37.035156 Z M 69.652344 35.644531 L 69.742188 36.289062 L 69.832031 36.273438 C 69.910156 36.265625 69.964844 36.25 69.992188 36.226562 C 70.023438 36.203125 70.042969 36.175781 70.054688 36.128906 C 70.066406 36.082031 70.066406 36.015625 70.054688 35.917969 C 70.035156 35.796875 70.003906 35.710938 69.957031 35.671875 C 69.910156 35.632812 69.839844 35.621094 69.742188 35.632812 Z M 69.253906 35.429688 L 69.792969 35.355469 C 69.898438 35.339844 69.984375 35.339844 70.054688 35.359375 C 70.125 35.378906 70.183594 35.414062 70.238281 35.460938 C 70.289062 35.507812 70.328125 35.566406 70.355469 35.636719 C 70.386719 35.707031 70.40625 35.785156 70.417969 35.859375 C 70.4375 35.984375 70.4375 36.085938 70.417969 36.15625 C 70.398438 36.226562 70.367188 36.292969 70.324219 36.351562 C 70.277344 36.402344 70.226562 36.445312 70.171875 36.464844 C 70.105469 36.496094 70.03125 36.519531 69.957031 36.53125 L 69.417969 36.609375 Z M 70.871094 35.199219 L 71.851562 35.273438 L 71.832031 35.527344 L 71.21875 35.480469 L 71.203125 35.667969 L 71.773438 35.710938 L 71.753906 35.953125 L 71.1875 35.914062 L 71.171875 36.144531 L 71.804688 36.191406 L 71.78125 36.460938 L 70.78125 36.386719 Z M 72.382812 35.339844 L 72.734375 35.4375 L 72.492188 36.300781 L 73.042969 36.457031 L 72.960938 36.738281 L 72.058594 36.480469 Z M 74.386719 36.660156 L 74.464844 36.707031 C 74.523438 36.746094 74.574219 36.761719 74.609375 36.757812 C 74.644531 36.757812 74.675781 36.738281 74.695312 36.703125 C 74.714844 36.675781 74.722656 36.640625 74.71875 36.605469 C 74.710938 36.570312 74.679688 36.535156 74.621094 36.496094 L 74.535156 36.4375 Z M 74.359375 36.03125 L 74.871094 36.371094 C 74.980469 36.441406 75.046875 36.523438 75.066406 36.613281 C 75.085938 36.703125 75.066406 36.796875 75 36.894531 C 74.9375 36.992188 74.851562 37.050781 74.753906 37.066406 C 74.65625 37.082031 74.546875 37.054688 74.421875 36.972656 L 74.253906 36.859375 L 74.015625 37.226562 L 73.707031 37.023438 Z M 75.648438 37.84375 L 75.855469 37.449219 L 75.460938 37.660156 Z M 75.523438 38.082031 L 75.226562 37.789062 L 75.046875 37.886719 L 74.777344 37.625 L 75.328125 37.371094 L 75.933594 37.089844 L 76.21875 37.371094 L 75.699219 38.535156 L 75.425781 38.261719 Z M 76.628906 38.597656 L 76.710938 38.730469 C 76.722656 38.742188 76.738281 38.769531 76.777344 38.804688 C 76.792969 38.820312 76.816406 38.832031 76.839844 38.832031 C 76.867188 38.835938 76.890625 38.828125 76.910156 38.8125 C 76.941406 38.792969 76.960938 38.769531 76.964844 38.738281 C 76.96875 38.707031 76.953125 38.660156 76.917969 38.605469 L 76.832031 38.46875 Z M 75.832031 38.667969 L 76.835938 38.027344 L 77.164062 38.542969 C 77.226562 38.640625 77.265625 38.71875 77.28125 38.777344 C 77.296875 38.839844 77.292969 38.902344 77.265625 38.957031 C 77.242188 39.019531 77.199219 39.066406 77.136719 39.109375 C 77.078125 39.144531 77.023438 39.164062 76.96875 39.164062 C 76.914062 39.167969 76.859375 39.15625 76.804688 39.132812 C 76.765625 39.109375 76.730469 39.082031 76.699219 39.046875 C 76.707031 39.09375 76.714844 39.128906 76.714844 39.152344 C 76.707031 39.179688 76.703125 39.207031 76.691406 39.234375 C 76.683594 39.261719 76.671875 39.292969 76.65625 39.316406 L 76.464844 39.652344 L 76.238281 39.304688 L 76.441406 38.945312 C 76.46875 38.894531 76.480469 38.859375 76.480469 38.835938 C 76.480469 38.804688 76.476562 38.773438 76.453125 38.746094 L 76.4375 38.71875 L 76.03125 38.980469 Z M 77.238281 40.269531 L 77.59375 40 L 77.148438 40.023438 Z M 77.023438 40.429688 L 76.878906 40.035156 L 76.675781 40.050781 L 76.546875 39.695312 L 77.816406 39.710938 L 77.953125 40.085938 L 76.988281 40.914062 L 76.855469 40.550781 Z M 77.589844 41.691406 L 77.835938 41.660156 L 77.90625 42.226562 L 77.402344 42.289062 C 77.316406 42.1875 77.253906 42.101562 77.21875 42.019531 C 77.179688 41.941406 77.15625 41.84375 77.140625 41.730469 C 77.121094 41.589844 77.132812 41.472656 77.171875 41.378906 C 77.207031 41.285156 77.269531 41.207031 77.355469 41.144531 C 77.445312 41.085938 77.550781 41.046875 77.671875 41.035156 C 77.800781 41.015625 77.917969 41.03125 78.019531 41.070312 C 78.121094 41.113281 78.203125 41.179688 78.265625 41.277344 C 78.3125 41.351562 78.347656 41.457031 78.363281 41.59375 C 78.378906 41.722656 78.378906 41.820312 78.363281 41.890625 C 78.351562 41.953125 78.320312 42.015625 78.273438 42.066406 C 78.226562 42.117188 78.164062 42.160156 78.097656 42.183594 L 77.992188 41.839844 C 78.035156 41.820312 78.066406 41.792969 78.085938 41.753906 C 78.101562 41.714844 78.109375 41.667969 78.101562 41.617188 C 78.089844 41.535156 78.058594 41.476562 77.996094 41.4375 C 77.933594 41.394531 77.84375 41.382812 77.722656 41.398438 C 77.59375 41.414062 77.507812 41.449219 77.457031 41.503906 C 77.410156 41.558594 77.394531 41.632812 77.402344 41.714844 C 77.40625 41.757812 77.417969 41.792969 77.433594 41.828125 C 77.449219 41.867188 77.476562 41.90625 77.511719 41.953125 L 77.621094 41.9375 Z M 78.34375 43.476562 L 78.300781 43.839844 L 77.597656 43.761719 C 77.53125 43.753906 77.464844 43.734375 77.402344 43.707031 C 77.34375 43.675781 77.292969 43.636719 77.253906 43.585938 C 77.210938 43.53125 77.183594 43.480469 77.171875 43.429688 C 77.152344 43.351562 77.148438 43.265625 77.160156 43.167969 C 77.167969 43.109375 77.179688 43.046875 77.195312 42.980469 C 77.210938 42.914062 77.234375 42.859375 77.261719 42.816406 C 77.292969 42.769531 77.332031 42.730469 77.375 42.699219 C 77.429688 42.667969 77.476562 42.648438 77.523438 42.640625 C 77.601562 42.625 77.667969 42.621094 77.726562 42.628906 L 78.429688 42.710938 L 78.390625 43.074219 L 77.667969 42.992188 C 77.605469 42.984375 77.550781 42.996094 77.511719 43.027344 C 77.472656 43.058594 77.449219 43.105469 77.441406 43.167969 C 77.433594 43.234375 77.445312 43.285156 77.476562 43.324219 C 77.507812 43.363281 77.558594 43.386719 77.621094 43.394531 Z M 77.25 44.828125 L 77.695312 44.84375 L 77.335938 44.582031 Z M 76.984375 44.816406 L 77.117188 44.421875 L 76.953125 44.300781 L 77.078125 43.949219 L 78.054688 44.757812 L 77.917969 45.140625 L 76.652344 45.171875 L 76.777344 44.804688 Z M 77.640625 45.910156 L 77.433594 46.261719 L 76.964844 46.261719 L 77.1875 46.675781 L 76.984375 47.023438 L 76.621094 46.273438 L 76.191406 46.019531 L 76.382812 45.703125 L 76.808594 45.957031 Z M 77.640625 45.910156 "/>
<path fill-rule="nonzero" fill="rgb(99.607849%, 86.66687%, 0%)" fill-opacity="1" stroke-width="0.0544" stroke-linecap="butt" stroke-linejoin="miter" stroke="rgb(0%, 0%, 0%)" stroke-opacity="1" stroke-miterlimit="10" d="M -0.0023162 2.144069 L 0.492137 0.731347 L 1.991192 0.696029 L 0.798226 -0.210468 L 1.229892 -1.646736 L -0.0023162 -0.791254 L -1.234524 -1.646736 L -0.802859 -0.210468 L -1.995824 0.696029 L -0.496769 0.731347 Z M -0.0023162 2.144069 " transform="matrix(0.995419, 0, 0, -0.995419, 70.974962, 42.606903)"/>
<path fill-rule="nonzero" fill="rgb(0%, 58.822632%, 22.3526%)" fill-opacity="1" stroke-width="0.08894" stroke-linecap="butt" stroke-linejoin="miter" stroke="rgb(0%, 0%, 0%)" stroke-opacity="1" stroke-miterlimit="10" d="M 4.56941 1.465178 C 4.33788 1.47695 4.33788 1.221875 4.33788 1.221875 C 4.33788 1.221875 4.345729 1.296436 4.33788 1.214027 C 4.333956 1.127694 4.377123 0.923634 4.545865 0.907937 C 4.726379 0.89224 4.785243 1.100224 4.785243 1.202254 C 4.785243 1.241497 4.77347 1.461253 4.56941 1.465178 " transform="matrix(0.995419, 0, 0, -0.995419, 70.974962, 42.606903)"/>
<path fill-rule="nonzero" fill="rgb(0%, 58.822632%, 22.3526%)" fill-opacity="1" stroke-width="0.06805" stroke-linecap="butt" stroke-linejoin="miter" stroke="rgb(0%, 0%, 0%)" stroke-opacity="1" stroke-miterlimit="10" d="M 2.717174 -4.036591 C 2.666159 -4.075833 2.466023 -4.099378 2.411084 -4.107227 C 2.360069 -4.115075 2.148161 -4.118999 2.057904 -4.122924 C 2.010813 -4.122924 1.916632 -4.138621 1.865617 -4.138621 C 1.433951 -4.087606 2.568053 -4.095454 2.717174 -4.036591 M 1.583072 -3.703031 C 1.610542 -3.652016 1.751814 -3.334154 1.802829 -3.243897 C 1.857768 -3.157564 1.975495 -2.92211 2.046131 -2.824004 C 2.081449 -2.772989 2.222721 -2.619944 2.254115 -2.686656 C 2.010813 -2.898564 1.814602 -3.271366 1.712572 -3.522517 C 1.700799 -3.546062 1.61839 -3.687334 1.586996 -3.722652 C 1.559527 -3.75797 1.571299 -3.824682 1.524209 -3.832531 C 1.477118 -3.836455 1.512436 -3.844303 1.512436 -3.844303 C 1.512436 -3.844303 1.551678 -3.754046 1.583072 -3.703031 Z M 3.215551 -3.942409 C 3.215551 -3.942409 3.01934 -3.91494 2.897689 -3.871773 C 2.776038 -3.828607 2.575902 -3.797213 2.399312 -3.801137 C 2.23057 -3.805061 2.073601 -3.856076 1.932328 -3.911015 C 1.79498 -3.96203 1.614466 -3.965955 1.614466 -3.965955 C 1.614466 -3.965955 1.512436 -3.981651 1.559527 -3.958106 C 1.606617 -3.934561 1.763587 -3.81291 1.763587 -3.81291 L 1.865617 -3.671637 C 1.89701 -3.663789 2.411084 -2.984897 2.356145 -2.804383 C 2.43463 -2.670959 2.528811 -2.431581 2.493493 -2.388415 C 2.477796 -2.372718 2.089298 -2.51399 2.006889 -2.58855 C 1.908783 -2.674883 1.838147 -2.851474 1.810677 -2.953504 C 1.779284 -3.051609 1.634087 -3.137942 1.634087 -3.137942 C 1.512436 -3.224275 1.426103 -3.498971 1.382936 -3.722652 C 1.343694 -3.946333 0.794302 -4.067985 0.794302 -4.067985 C 0.794302 -4.067985 0.645181 -4.122924 0.778605 -4.16609 C 0.802151 -4.173939 0.861014 -4.275969 0.908105 -4.275969 C 0.974817 -4.283817 1.316225 -4.138621 1.36724 -4.150393 C 1.484966 -4.177863 1.598769 -4.209257 1.708647 -4.244575 C 1.838147 -4.287741 1.948025 -4.311287 2.038283 -4.275969 C 2.12854 -4.244575 2.261964 -4.256347 2.360069 -4.275969 C 2.454251 -4.29559 2.564129 -4.287741 2.626917 -4.26812 C 2.693629 -4.248499 2.870219 -4.150393 2.870219 -4.150393 C 2.870219 -4.150393 3.062506 -4.067985 3.172385 -4.01697 C 3.282263 -3.965955 3.215551 -3.942409 3.215551 -3.942409 " transform="matrix(0.995419, 0, 0, -0.995419, 70.974962, 42.606903)"/>
<path fill-rule="nonzero" fill="rgb(0%, 58.822632%, 22.3526%)" fill-opacity="1" stroke-width="0.0544" stroke-linecap="butt" stroke-linejoin="miter" stroke="rgb(0%, 0%, 0%)" stroke-opacity="1" stroke-miterlimit="10" d="M 1.728269 -4.60168 C 1.728269 -4.60168 0.974817 -4.209257 0.935574 -4.197484 C 0.912029 -4.197484 0.594167 -4.020894 0.44897 -3.973803 C 0.343016 -3.942409 0.197819 -3.930637 0.146804 -3.934561 C 0.0212292 -3.946333 -0.178906 -4.001273 -0.178906 -4.001273 L 0.00553226 -4.075833 C 0.00553226 -4.075833 0.182123 -4.162166 0.268456 -4.209257 C 0.390107 -4.272044 0.397955 -4.350529 0.397955 -4.350529 L 1.076847 -4.652695 L 1.214195 -4.7508 C 1.214195 -4.7508 1.343694 -4.578134 1.728269 -4.60168 " transform="matrix(0.995419, 0, 0, -0.995419, 70.974962, 42.606903)"/>
<path fill-rule="nonzero" fill="rgb(0%, 58.822632%, 22.3526%)" fill-opacity="1" stroke-width="0.07167" stroke-linecap="butt" stroke-linejoin="miter" stroke="rgb(0%, 0%, 0%)" stroke-opacity="1" stroke-miterlimit="10" d="M 2.485645 -3.039837 C 2.721098 -2.827928 2.838825 -2.525763 3.031112 -2.360945 C 3.062506 -2.384491 3.062506 -2.419809 3.027188 -2.48652 C 2.987946 -2.553232 2.940855 -2.576778 2.91731 -2.612096 C 2.878067 -2.663111 2.760341 -2.761216 2.728947 -2.82008 C 2.697553 -2.878943 2.662235 -2.957428 2.560205 -3.016291 C 2.458175 -3.075155 2.489569 -3.17326 2.48172 -3.216427 C 2.473872 -3.259593 2.312979 -3.373396 2.238418 -3.514668 C 2.222721 -3.659865 2.214873 -3.597077 2.12854 -3.652016 C 2.289433 -3.408714 2.371842 -3.251745 2.485645 -3.039837 M 1.95195 -3.706955 C 1.936253 -3.738349 1.469269 -4.005197 1.61839 -3.965955 C 1.763587 -3.926712 2.195252 -3.769743 2.316903 -3.714804 C 2.466023 -3.652016 2.556281 -3.514668 2.670083 -3.400866 C 2.783886 -3.287063 3.137067 -2.949579 3.199854 -2.816156 C 3.258718 -2.682732 3.313657 -2.494369 3.074279 -2.074476 C 3.074279 -2.074476 3.035037 -2.152961 2.948704 -2.231446 C 2.858446 -2.313854 2.725023 -2.404112 2.725023 -2.404112 L 2.571978 -2.549308 C 2.571978 -2.549308 2.02651 -3.549986 1.95195 -3.706955 " transform="matrix(0.995419, 0, 0, -0.995419, 70.974962, 42.606903)"/>
<path fill-rule="nonzero" fill="rgb(0%, 58.822632%, 22.3526%)" fill-opacity="1" stroke-width="0.06805" stroke-linecap="butt" stroke-linejoin="miter" stroke="rgb(0%, 0%, 0%)" stroke-opacity="1" stroke-miterlimit="10" d="M 3.851276 -3.353775 C 3.851276 -3.353775 3.553035 -3.326305 3.525565 -3.326305 C 3.498096 -3.326305 3.333278 -3.306684 3.0939 -3.306684 C 2.858446 -3.306684 2.772113 -3.385169 2.709326 -3.451881 C 2.642614 -3.526441 2.454251 -3.695183 2.454251 -3.695183 L 2.556281 -3.687334 C 2.795659 -3.502896 2.980097 -3.569607 3.054658 -3.565683 C 3.133142 -3.561759 3.227324 -3.569607 3.466702 -3.483274 C 3.710004 -3.400866 3.694307 -3.47935 3.666837 -3.487199 C 3.553035 -3.530365 3.431384 -3.553911 3.305808 -3.561759 C 3.125294 -3.569607 2.968325 -3.604926 2.897689 -3.604926 C 2.827053 -3.604926 2.301206 -3.750122 2.301206 -3.750122 C 2.301206 -3.750122 2.870219 -3.781516 2.929082 -3.801137 C 2.99187 -3.828607 3.086052 -3.816834 3.16846 -3.777592 C 3.384293 -3.675562 3.482399 -3.659865 3.572656 -3.636319 C 3.662913 -3.620622 3.768867 -3.557835 3.768867 -3.557835 C 3.768867 -3.557835 3.827731 -3.522517 3.88267 -3.428335 C 3.937609 -3.326305 3.851276 -3.353775 3.851276 -3.353775 M 4.129896 -1.795856 C 4.165214 -1.705599 4.255472 -1.497615 4.349653 -1.415206 C 4.408517 -1.364191 4.510547 -1.340646 4.561561 -1.3171 C 4.585107 -1.309252 4.749924 -1.301403 4.54194 -1.356343 C 4.459532 -1.379888 4.345729 -1.430903 4.294714 -1.517236 C 4.224078 -1.713447 4.16129 -1.886113 4.027866 -2.011689 C 3.929761 -2.113719 3.866973 -2.247143 3.866973 -2.247143 L 3.764943 -2.282461 C 3.95723 -2.168658 4.039639 -1.948901 4.129896 -1.795856 Z M 5.056014 -1.682054 C 4.946136 -1.717372 4.906894 -1.748766 4.906894 -1.748766 C 4.663591 -1.823326 4.565486 -1.976371 4.455607 -2.101946 C 4.404592 -2.164734 4.326108 -2.215749 4.067109 -2.325627 C 3.835579 -2.427657 3.65114 -2.580702 3.647216 -2.580702 C 3.647216 -2.580702 3.572656 -2.596399 3.588353 -2.631717 C 3.592277 -2.651338 3.655065 -2.635641 3.655065 -2.635641 C 3.655065 -2.635641 4.141669 -2.568929 4.341805 -2.443354 C 4.471304 -2.364869 4.545865 -2.306006 4.667516 -2.117643 C 4.722455 -2.03131 4.781318 -1.874341 4.785243 -1.976371 C 4.797015 -2.243218 4.381047 -2.506142 4.196608 -2.584626 C 4.102427 -2.627793 3.972927 -2.64349 3.800261 -2.670959 C 3.635444 -2.702353 3.533414 -2.694505 3.545186 -2.655262 C 3.560883 -2.604247 3.580504 -2.592475 3.627595 -2.537535 C 3.70608 -2.443354 3.898367 -2.41196 4.039639 -2.345248 C 4.208381 -2.266764 4.36535 -2.156885 4.447759 -2.062704 C 4.526243 -1.968522 4.557637 -1.933204 4.577258 -1.850795 C 4.640046 -1.642811 4.64397 -1.525084 4.702834 -1.450524 C 4.906894 -1.195449 4.934363 -1.116965 4.946136 -1.003162 C 4.95006 -0.975692 4.840182 -1.062026 4.785243 -1.093419 C 4.67144 -1.160131 4.632198 -1.160131 4.404592 -1.218995 C 4.176987 -1.273934 4.180911 -1.423055 4.145593 -1.493691 C 4.137745 -1.52116 4.043563 -1.634963 4.000397 -1.658508 C 3.953306 -1.682054 3.847352 -1.839023 3.804185 -1.92928 C 3.776716 -1.999916 3.721777 -2.047007 3.67861 -2.043083 C 3.635444 -2.03131 3.764943 -1.544706 3.792413 -1.462297 C 3.823807 -1.383812 3.831655 -1.226843 3.831655 -1.175828 C 3.831655 -1.124813 3.831655 -0.991389 3.745322 -0.975692 C 3.655065 -0.959996 3.65114 -0.838345 3.65114 -0.838345 C 3.439232 -1.022783 3.556959 -1.34457 3.580504 -1.536857 C 3.60405 -1.729144 3.537338 -2.078401 3.537338 -2.078401 C 3.741398 -2.168658 3.580504 -2.415884 3.517717 -2.494369 C 3.451005 -2.576778 3.32543 -2.592475 3.266566 -2.663111 C 3.207703 -2.737671 2.779962 -3.334154 2.779962 -3.334154 L 3.309733 -3.185033 C 3.309733 -3.185033 3.360748 -3.192882 3.282263 -3.134018 C 3.199854 -3.075155 3.305808 -2.851474 3.376444 -2.796534 C 3.505944 -2.694505 3.686459 -2.769065 3.686459 -2.769065 C 3.686459 -2.769065 3.933685 -2.808307 4.235851 -2.686656 C 4.487001 -2.584626 4.59688 -2.423733 4.718531 -2.302082 C 4.781318 -2.23537 4.902969 -2.015613 4.97753 -1.886113 C 5.02462 -1.807629 5.103105 -1.666357 5.056014 -1.682054 " transform="matrix(0.995419, 0, 0, -0.995419, 70.974962, 42.606903)"/>
<path fill-rule="nonzero" fill="rgb(0%, 58.822632%, 22.3526%)" fill-opacity="1" stroke-width="0.07585" stroke-linecap="butt" stroke-linejoin="miter" stroke="rgb(0%, 0%, 0%)" stroke-opacity="1" stroke-miterlimit="10" d="M 3.541262 -3.118321 C 3.584429 -3.0987 3.588353 -3.094776 3.662913 -3.012367 C 3.737474 -2.929958 3.670762 -2.79261 3.556959 -2.800459 C 3.50202 -2.800459 3.443156 -2.788686 3.333278 -2.937807 C 3.231248 -3.083003 3.384293 -3.137942 3.443156 -3.141867 C 3.470626 -3.145791 3.50202 -3.134018 3.541262 -3.118321 " transform="matrix(0.995419, 0, 0, -0.995419, 70.974962, 42.606903)"/>
<path fill-rule="nonzero" fill="rgb(0%, 58.822632%, 22.3526%)" fill-opacity="1" stroke-width="0.07744" stroke-linecap="butt" stroke-linejoin="miter" stroke="rgb(0%, 0%, 0%)" stroke-opacity="1" stroke-miterlimit="10" d="M 3.266566 -2.188279 C 3.19593 -2.306006 3.156688 -2.43943 3.215551 -2.482596 C 3.227324 -2.490445 3.274415 -2.533611 3.317581 -2.533611 C 3.356823 -2.533611 3.47455 -2.478672 3.541262 -2.376642 C 3.607974 -2.274612 3.658989 -2.168658 3.525565 -2.101946 C 3.403914 -2.039158 3.317581 -2.098022 3.266566 -2.188279 " transform="matrix(0.995419, 0, 0, -0.995419, 70.974962, 42.606903)"/>
<path fill-rule="nonzero" fill="rgb(0%, 58.822632%, 22.3526%)" fill-opacity="1" stroke-width="0.06805" stroke-linecap="butt" stroke-linejoin="miter" stroke="rgb(0%, 0%, 0%)" stroke-opacity="1" stroke-miterlimit="10" d="M 3.670762 -0.744163 C 3.670762 -0.744163 3.682534 -0.724542 3.635444 -0.677451 C 3.560883 -0.602891 3.470626 -0.465543 3.470626 -0.465543 C 3.321505 -0.547952 3.274415 -0.708845 3.274415 -0.775557 C 3.274415 -0.842269 3.29796 -0.987465 3.274415 -1.136586 C 3.266566 -1.183677 3.258718 -1.24254 3.188082 -1.426979 C 3.113521 -1.607493 3.19593 -1.772311 3.215551 -1.831174 C 3.227324 -1.890038 3.286187 -2.070552 3.286187 -2.070552 C 3.286187 -2.070552 3.345051 -2.035234 3.364672 -2.03131 C 3.388217 -2.023461 3.466702 -2.027386 3.466702 -2.027386 C 3.466702 -2.027386 3.553035 -1.870417 3.556959 -1.780159 C 3.556959 -1.713447 3.549111 -1.603569 3.517717 -1.434827 C 3.47455 -1.183677 3.47455 -1.11304 3.505944 -0.975692 C 3.533414 -0.83442 3.670762 -0.744163 3.670762 -0.744163 " transform="matrix(0.995419, 0, 0, -0.995419, 70.974962, 42.606903)"/>
<path fill-rule="nonzero" fill="rgb(0%, 58.822632%, 22.3526%)" fill-opacity="1" stroke-width="0.07472" stroke-linecap="butt" stroke-linejoin="miter" stroke="rgb(0%, 0%, 0%)" stroke-opacity="1" stroke-miterlimit="10" d="M 3.890518 -0.991389 C 3.890518 -0.991389 3.972927 -0.971768 4.012169 -0.897208 C 4.067109 -0.803026 4.051412 -0.708845 4.051412 -0.708845 C 3.925836 -0.457694 3.749246 -0.65783 3.749246 -0.65783 C 3.596201 -0.975692 3.890518 -0.991389 3.890518 -0.991389 " transform="matrix(0.995419, 0, 0, -0.995419, 70.974962, 42.606903)"/>
<path fill-rule="nonzero" fill="rgb(0%, 58.822632%, 22.3526%)" fill-opacity="1" stroke-width="0.08884" stroke-linecap="butt" stroke-linejoin="miter" stroke="rgb(0%, 0%, 0%)" stroke-opacity="1" stroke-miterlimit="10" d="M 4.326108 -0.532255 C 4.133821 -0.544027 4.039639 -0.889359 4.039639 -0.889359 C 4.039639 -0.889359 4.008245 -0.975692 3.906215 -1.03848 C 3.796337 -1.109116 3.863049 -1.203298 3.863049 -1.375964 C 3.863049 -1.54863 3.741398 -1.85472 3.741398 -1.85472 L 3.698231 -1.95675 C 3.698231 -1.95675 3.702155 -2.035234 3.772792 -1.893962 C 3.890518 -1.654584 4.020018 -1.713447 4.071033 -1.458373 C 4.102427 -1.27001 4.416365 -1.211146 4.416365 -1.211146 L 4.326108 -1.191525 C 4.000397 -1.03848 4.345729 -0.65783 4.400668 -0.591118 C 4.463456 -0.524406 4.518395 -0.524406 4.326108 -0.532255 " transform="matrix(0.995419, 0, 0, -0.995419, 70.974962, 42.606903)"/>
<path fill-rule="nonzero" fill="rgb(0%, 58.822632%, 22.3526%)" fill-opacity="1" stroke-width="0.07562" stroke-linecap="butt" stroke-linejoin="miter" stroke="rgb(0%, 0%, 0%)" stroke-opacity="1" stroke-miterlimit="10" d="M 4.271169 -0.944299 C 4.184836 -1.132662 4.435986 -1.14051 4.49485 -1.109116 C 4.518395 -1.093419 4.56941 -1.030632 4.56941 -1.030632 C 4.67144 -0.885435 4.577258 -0.78733 4.526243 -0.771633 C 4.475228 -0.755936 4.36535 -0.744163 4.271169 -0.944299 " transform="matrix(0.995419, 0, 0, -0.995419, 70.974962, 42.606903)"/>
<path fill-rule="nonzero" fill="rgb(0%, 58.822632%, 22.3526%)" fill-opacity="1" stroke-width="0.06805" stroke-linecap="butt" stroke-linejoin="miter" stroke="rgb(0%, 0%, 0%)" stroke-opacity="1" stroke-miterlimit="10" d="M 3.796337 -0.210468 C 3.863049 -0.332119 4.047488 -0.673527 4.090654 -0.649982 C 4.118124 -0.638209 4.094578 -0.567573 4.094578 -0.567573 C 4.094578 -0.567573 4.090654 -0.477315 4.05926 -0.363513 C 4.031791 -0.253634 4.035715 -0.108438 3.976851 -0.0142565 C 3.921912 0.0760007 3.784564 0.185879 3.729625 0.331076 C 3.67861 0.476272 3.721777 0.754892 3.725701 0.786286 C 3.729625 0.81768 3.745322 0.798059 3.717852 0.833377 C 3.690383 0.868695 3.454929 0.990346 3.454929 0.990346 C 3.454929 0.990346 3.470626 0.900089 3.462778 0.739195 C 3.462778 0.699953 3.451005 0.652862 3.447081 0.582226 C 3.439232 0.519439 3.478474 0.43703 3.572656 0.248667 C 3.686459 0.02891 3.737474 -0.104514 3.796337 -0.210468 M 5.189438 1.414163 C 5.189438 1.414163 5.122726 1.30036 5.099181 1.276815 C 5.075635 1.253269 4.694985 0.927558 4.675364 0.911861 C 4.655743 0.900089 4.459532 0.837301 4.279017 0.350697 C 4.098503 -0.135908 4.176987 -0.587194 4.176987 -0.587194 L 4.26332 -0.579345 L 4.279017 -0.52833 C 4.279017 -0.52833 4.306487 -0.367437 4.330032 -0.245786 C 4.357502 -0.128059 4.490925 0.0406827 4.581183 0.166258 C 4.663591 0.287909 4.734228 0.460575 4.734228 0.460575 C 4.836257 0.664635 4.883348 0.849074 4.985378 0.990346 C 4.989302 0.821604 4.345729 -0.222241 4.275093 -0.579345 L 4.46738 -0.547952 C 4.616501 -0.410604 4.816636 -0.116286 4.953984 0.0720765 C 5.091332 0.264364 5.146272 0.558681 5.173741 0.68818 C 5.197286 0.81768 5.189438 1.414163 5.189438 1.414163 " transform="matrix(0.995419, 0, 0, -0.995419, 70.974962, 42.606903)"/>
<path fill-rule="nonzero" fill="rgb(0%, 58.822632%, 22.3526%)" fill-opacity="1" stroke-width="0.06805" stroke-linecap="butt" stroke-linejoin="miter" stroke="rgb(0%, 0%, 0%)" stroke-opacity="1" stroke-miterlimit="10" d="M 3.902291 1.304284 C 3.80811 1.394541 3.729625 1.422011 3.729625 1.422011 C 3.729625 1.422011 3.75317 1.245421 3.75317 1.139467 C 3.75317 1.029588 3.764943 0.849074 3.757095 0.750968 C 3.75317 0.656787 3.70608 0.495893 3.772792 0.338924 C 3.843428 0.185879 3.921912 0.107395 3.980776 0.00928884 C 4.031791 -0.0848926 4.122048 -0.579345 4.122048 -0.579345 C 4.122048 -0.579345 4.090654 0.0877734 4.118124 0.276136 C 4.145593 0.460575 4.153442 0.750968 4.114199 0.896164 C 4.071033 1.041361 4.000397 1.214027 3.902291 1.304284 M 4.349653 1.95963 C 4.377123 2.01457 4.447759 2.132296 4.475228 2.312811 C 4.487001 2.387371 4.49485 2.512947 4.490925 2.59928 C 4.487001 2.654219 4.46738 2.756249 4.490925 2.760173 C 4.514471 2.768021 4.49485 2.732703 4.506622 2.64637 C 4.514471 2.614977 4.490925 2.532568 4.487001 2.426614 C 4.483077 2.340281 4.479153 2.269644 4.443835 2.151918 C 4.408517 2.049888 4.43991 1.936085 4.416365 1.904691 C 4.396744 1.873297 4.33788 1.751646 4.33788 1.751646 C 4.33788 1.751646 4.302562 1.649616 4.306487 1.559359 C 4.310411 1.469102 4.318259 1.367072 4.318259 1.367072 C 4.318259 1.367072 4.357502 1.449481 4.455607 1.461253 C 4.455607 1.461253 4.475228 1.614298 4.475228 1.665313 C 4.475228 1.712404 4.538016 2.030266 4.56941 2.124448 C 4.612576 2.26572 4.64397 2.512947 4.573334 2.799415 C 4.553713 2.8779 4.54194 3.121202 4.54194 3.121202 C 4.54194 3.121202 4.451683 3.046642 4.396744 2.771946 C 4.381047 2.685613 4.416365 2.461932 4.400668 2.222554 C 4.396744 2.08913 4.267244 1.551511 4.251547 1.520117 " transform="matrix(0.995419, 0, 0, -0.995419, 70.974962, 42.606903)"/>
<path fill-rule="nonzero" fill="rgb(0%, 58.822632%, 22.3526%)" fill-opacity="1" stroke-width="0.06805" stroke-linecap="butt" stroke-linejoin="miter" stroke="rgb(0%, 0%, 0%)" stroke-opacity="1" stroke-miterlimit="10" d="M 4.349653 1.95963 C 4.345729 1.951782 4.341805 1.947858 4.341805 1.947858 C 4.341805 1.947858 4.345729 1.951782 4.349653 1.95963 " transform="matrix(0.995419, 0, 0, -0.995419, 70.974962, 42.606903)"/>
<path fill-rule="nonzero" fill="rgb(0%, 58.822632%, 22.3526%)" fill-opacity="1" stroke-width="0.06805" stroke-linecap="butt" stroke-linejoin="miter" stroke="rgb(0%, 0%, 0%)" stroke-opacity="1" stroke-miterlimit="10" d="M 3.988624 3.352731 C 4.039639 3.352731 4.039639 3.297792 4.027866 3.254626 C 4.020018 3.215383 4.020018 3.132975 4.020018 3.117278 C 4.020018 3.097657 4.043563 2.983854 4.05926 2.924991 C 4.074957 2.866127 4.106351 2.846506 4.094578 2.724855 C 4.082806 2.64637 4.004321 2.556113 4.031791 2.426614 C 4.047488 2.355977 4.098503 2.285341 4.122048 2.226478 C 4.141669 2.183311 4.129896 2.081281 4.137745 1.998873 C 4.137745 1.920388 4.180911 1.865449 4.180911 1.865449 C 4.180911 1.865449 4.125972 1.763419 4.110275 1.892918 C 4.090654 2.038115 4.082806 2.104827 4.055336 2.171539 C 4.008245 2.277493 3.965079 2.473704 4.039639 2.626749 C 4.051412 2.654219 4.05926 2.709158 4.05926 2.771946 C 4.05926 2.838658 4.020018 2.95246 4.012169 3.019172 C 4.004321 3.074111 4.008245 3.191838 4.008245 3.23108 M 3.75317 2.618901 C 3.764943 2.536492 3.792413 2.489401 3.886594 2.308887 C 3.914064 2.250023 3.980776 2.096978 3.988624 2.049888 C 4.000397 1.998873 4.012169 1.940009 4.012169 1.928237 C 4.012169 1.91254 4.020018 1.798737 4.020018 1.798737 L 4.020018 1.751646 C 4.020018 1.751646 3.761019 1.900767 3.647216 1.983176 C 3.537338 2.06166 3.407838 2.175463 3.32543 2.242175 C 3.231248 2.316735 3.011491 2.579658 3.007567 2.791567 L 2.905537 2.885748 C 2.905537 2.885748 2.830977 2.414841 3.19593 2.112675 C 3.301884 2.026342 3.415687 1.932161 3.662913 1.818358 C 3.91014 1.704556 3.878746 1.602526 3.980776 1.386693 C 4.082806 1.166936 4.145593 1.041361 4.157366 0.978573 C 4.165214 0.911861 4.129896 -0.022105 4.129896 -0.022105 L 4.137745 -0.108438 C 4.137745 -0.108438 4.36535 0.758816 4.471304 0.852998 C 4.471304 0.852998 4.255472 0.888316 4.275093 1.2258 L 4.235851 1.449481 C 4.235851 1.449481 4.192684 1.716328 4.275093 1.881146 C 4.275093 1.881146 4.369274 2.187236 4.33788 2.450159 C 4.318259 2.611052 4.310411 2.658143 4.29079 2.807264 C 4.259396 3.042717 4.165214 3.380201 4.157366 3.419443 C 4.125972 3.53717 4.114199 3.556791 4.074957 3.650973 C 4.063184 3.682367 4.043563 3.792245 4.008245 3.792245 C 3.988624 3.792245 3.95723 3.650973 3.95723 3.650973 C 3.95723 3.650973 3.914064 3.497928 3.902291 3.458686 C 3.874822 3.33311 3.804185 3.227156 3.772792 2.948536 C 3.768867 2.897521 3.761019 2.764097 3.757095 2.744476 C 3.75317 2.728779 3.745322 2.650295 3.75317 2.618901 " transform="matrix(0.995419, 0, 0, -0.995419, 70.974962, 42.606903)"/>
<path fill-rule="nonzero" fill="rgb(0%, 58.822632%, 22.3526%)" fill-opacity="1" stroke-width="0.06805" stroke-linecap="butt" stroke-linejoin="miter" stroke="rgb(0%, 0%, 0%)" stroke-opacity="1" stroke-miterlimit="10" d="M 3.945458 1.437708 C 3.945458 1.437708 3.91014 1.520117 3.870897 1.563283 C 3.792413 1.653541 3.690383 1.732025 3.396066 1.877222 C 3.101748 2.022418 3.023264 2.261796 2.874143 2.359902 C 2.807431 2.406992 2.674008 2.430538 2.674008 2.430538 C 2.674008 2.430538 2.803507 2.250023 2.834901 2.187236 C 2.874143 2.108751 2.885916 2.053812 3.046809 1.904691 C 3.207703 1.75557 3.403914 1.700631 3.529489 1.665313 C 3.70608 1.610374 3.945458 1.437708 3.945458 1.437708 M 3.023264 2.826885 C 3.031112 2.803339 3.105673 2.54434 3.262642 2.344205 C 3.505944 2.038115 3.972927 1.818358 3.972927 1.818358 C 3.929761 2.006721 3.8552 2.230402 3.792413 2.328508 C 3.580504 2.669916 3.01934 2.838658 3.01934 2.838658 C 3.01934 2.838658 3.011491 2.85043 3.023264 2.826885 M 3.690383 2.681688 C 3.815958 2.956384 3.443156 3.219308 3.337202 3.411595 C 3.376444 3.442989 3.423535 3.36058 3.466702 3.305641 C 3.525565 3.223232 3.698231 2.987778 3.698231 2.987778 L 3.75317 3.238929 L 3.305808 3.647049 C 3.301884 3.588185 3.160612 3.541094 3.160612 3.541094 C 3.0939 3.164369 3.690383 2.681688 3.690383 2.681688 " transform="matrix(0.995419, 0, 0, -0.995419, 70.974962, 42.606903)"/>
<path fill-rule="nonzero" fill="rgb(0%, 58.822632%, 22.3526%)" fill-opacity="1" stroke-width="0.06805" stroke-linecap="butt" stroke-linejoin="miter" stroke="rgb(0%, 0%, 0%)" stroke-opacity="1" stroke-miterlimit="10" d="M 2.913386 3.321338 C 2.803507 3.270323 2.768189 3.270323 2.768189 3.270323 L 2.827053 3.113354 L 2.862371 3.070187 C 2.862371 3.070187 3.003643 2.866127 3.086052 2.838658 C 3.117445 2.826885 3.246945 2.803339 3.376444 2.7484 C 3.537338 2.681688 3.800261 2.450159 3.800261 2.450159 C 3.800261 2.450159 3.360748 2.944612 3.192006 3.317413 L 3.137067 3.529322 L 2.976173 3.517549 C 2.976173 3.517549 3.01934 3.368428 2.913386 3.321338 " transform="matrix(0.995419, 0, 0, -0.995419, 70.974962, 42.606903)"/>
<path fill-rule="nonzero" fill="rgb(0%, 58.822632%, 22.3526%)" fill-opacity="1" stroke-width="0.06805" stroke-linecap="butt" stroke-linejoin="miter" stroke="rgb(0%, 0%, 0%)" stroke-opacity="1" stroke-miterlimit="10" d="M 1.269134 3.635276 C 1.343694 3.568564 1.426103 3.509701 1.508512 3.458686 C 1.606617 3.399822 1.885238 3.235005 2.093222 3.195762 C 2.144237 3.187914 2.403236 3.15652 2.403236 3.15652 C 2.415009 3.270323 2.540584 3.282095 2.540584 3.282095 L 2.167782 3.321338 C 1.869541 3.344883 1.641936 3.470458 1.465345 3.670594 C 1.700799 3.525398 2.042207 3.297792 2.320827 3.309565 C 3.458853 3.423368 1.979419 3.450837 1.84992 3.533246 C 1.712572 3.615655 1.598769 3.756927 1.598769 3.756927 L 1.26521 3.772624 C 1.26521 3.772624 1.100392 3.780472 1.269134 3.635276 " transform="matrix(0.995419, 0, 0, -0.995419, 70.974962, 42.606903)"/>
<path fill-rule="nonzero" fill="rgb(0%, 58.822632%, 22.3526%)" fill-opacity="1" stroke-width="0.06805" stroke-linecap="butt" stroke-linejoin="miter" stroke="rgb(0%, 0%, 0%)" stroke-opacity="1" stroke-miterlimit="10" d="M 2.61122 2.987778 C 2.68578 2.991702 2.736795 3.007399 2.752492 3.089808 C 2.768189 3.180065 2.732871 3.242853 2.622993 3.266398 C 2.564129 3.282095 2.458175 3.28602 2.415009 3.180065 C 2.367918 3.070187 2.540584 2.999551 2.540584 2.999551 C 2.540584 2.999551 2.571978 2.983854 2.61122 2.987778 M 2.736795 3.6392 C 2.642614 3.6392 2.61122 3.560716 2.630841 3.407671 C 2.654386 3.254626 2.88984 3.321338 2.88984 3.321338 L 2.936931 3.344883 C 2.936931 3.344883 2.968325 3.368428 2.948704 3.494004 C 2.933007 3.619579 2.834901 3.6392 2.736795 3.6392 M 3.125294 3.533246 L 3.12137 3.533246 C 3.12137 3.529322 3.125294 3.533246 3.125294 3.533246 " transform="matrix(0.995419, 0, 0, -0.995419, 70.974962, 42.606903)"/>
<path fill-rule="nonzero" fill="rgb(0%, 58.822632%, 22.3526%)" fill-opacity="1" stroke-width="0.06805" stroke-linecap="butt" stroke-linejoin="miter" stroke="rgb(0%, 0%, 0%)" stroke-opacity="1" stroke-miterlimit="10" d="M 3.12137 3.533246 C 3.125294 3.533246 3.129218 3.53717 3.156688 3.545019 C 3.203778 3.560716 3.254793 3.682367 3.254793 3.682367 C 3.278339 3.839336 3.164536 3.878578 3.164536 3.878578 C 2.972249 3.91782 2.968325 3.749079 2.968325 3.749079 C 2.913386 3.529322 3.0939 3.529322 3.12137 3.533246 M 2.261964 4.290622 C 2.273736 4.216062 2.37969 4.110108 2.395387 4.090486 C 2.415009 4.07479 2.544508 3.937442 2.591599 3.874654 C 2.634765 3.811866 2.783886 3.529322 2.783886 3.529322 C 2.783886 3.529322 2.811356 3.533246 2.823128 3.556791 C 2.846674 3.599958 2.721098 3.941366 2.709326 3.964911 C 2.662235 4.066941 2.587675 4.145426 2.513114 4.227834 C 2.493493 4.239607 2.430705 4.318092 2.363994 4.404425 C 2.497417 4.231759 2.842749 3.74123 2.944779 3.521473 C 2.944779 3.521473 2.933007 3.756927 2.921234 3.878578 C 2.878067 4.243531 2.783886 4.357334 2.752492 4.408349 C 2.697553 4.506455 2.564129 4.60456 2.466023 4.635954 C 2.367918 4.671272 2.254115 4.718363 2.12854 4.761529 C 2.002965 4.796848 2.10107 4.683045 2.148161 4.584939 C 2.207024 4.467212 2.254115 4.361258 2.261964 4.286698 " transform="matrix(0.995419, 0, 0, -0.995419, 70.974962, 42.606903)"/>
<path fill-rule="nonzero" fill="rgb(0%, 58.822632%, 22.3526%)" fill-opacity="1" stroke-width="0.06805" stroke-linecap="butt" stroke-linejoin="miter" stroke="rgb(0%, 0%, 0%)" stroke-opacity="1" stroke-miterlimit="10" d="M 1.787132 3.690215 C 1.912707 3.584261 1.971571 3.509701 2.23057 3.470458 C 2.493493 3.431216 2.517038 3.446913 2.517038 3.446913 C 2.517038 3.446913 2.654386 3.513625 2.58375 3.572488 C 2.199176 3.74123 1.830298 3.941366 1.64586 4.168971 C 1.64586 4.168971 1.677254 4.200365 1.810677 4.066941 C 1.889162 3.988456 1.940177 3.949214 1.987268 3.913896 C 2.12854 3.81579 2.191328 3.788321 2.328675 3.709836 C 2.403236 3.670594 2.591599 3.627427 2.591599 3.627427 C 2.591599 3.627427 2.619068 3.682367 2.642614 3.690215 C 2.666159 3.694139 2.626917 3.784397 2.466023 3.913896 C 2.375766 3.988456 2.297282 4.07479 2.23057 4.172895 C 2.23057 4.172895 2.038283 4.212138 1.830298 4.247456 C 1.673329 4.271001 1.382936 4.498606 1.386861 4.435819 C 1.390785 4.373031 1.430027 4.176819 1.508512 4.055168 C 1.586996 3.929593 1.665481 3.800094 1.787132 3.690215 " transform="matrix(0.995419, 0, 0, -0.995419, 70.974962, 42.606903)"/>
<path fill-rule="nonzero" fill="rgb(0%, 58.822632%, 22.3526%)" fill-opacity="1" stroke-width="0.0544" stroke-linecap="butt" stroke-linejoin="miter" stroke="rgb(0%, 0%, 0%)" stroke-opacity="1" stroke-miterlimit="10" d="M -0.382966 -4.170014 C -0.496769 -4.201408 -1.352251 -4.523195 -1.352251 -4.523195 L -1.591629 -4.621301 C -1.261994 -4.54674 -1.006919 -4.711558 -1.006919 -4.711558 L -0.0572554 -4.272044 C -0.0572554 -4.272044 -0.0572554 -4.256347 -0.084725 -4.240651 C -0.10827 -4.221029 -0.269164 -4.134696 -0.382966 -4.170014 " transform="matrix(0.995419, 0, 0, -0.995419, 70.974962, 42.606903)"/>
<path fill-rule="nonzero" fill="rgb(0%, 58.822632%, 22.3526%)" fill-opacity="1" stroke-width="0.05812" stroke-linecap="butt" stroke-linejoin="miter" stroke="rgb(0%, 0%, 0%)" stroke-opacity="1" stroke-miterlimit="10" d="M -1.626947 -4.64877 C -1.630871 -4.652695 -1.638719 -4.67624 -1.623023 -4.684088 C -1.575932 -4.711558 -1.587704 -4.719406 -1.371872 -4.746876 C -1.156039 -4.770421 -1.010843 -4.727255 -0.975525 -4.688013 C -0.932358 -4.640922 -1.513144 -4.550665 -1.626947 -4.64877 " transform="matrix(0.995419, 0, 0, -0.995419, 70.974962, 42.606903)"/>
<path fill-rule="nonzero" fill="rgb(0%, 58.822632%, 22.3526%)" fill-opacity="1" stroke-width="0.07552" stroke-linecap="butt" stroke-linejoin="miter" stroke="rgb(0%, 0%, 0%)" stroke-opacity="1" stroke-miterlimit="10" d="M -2.992578 -1.576099 L -3.031821 -1.309252 C -3.031821 -1.309252 -3.082836 -0.587194 -3.165244 -0.441997 C -3.180941 -0.410604 -3.173093 -0.336043 -3.224108 -0.332119 C -3.326138 -0.324271 -3.326138 -0.559724 -3.33791 -0.771633 C -3.498804 -1.846871 -2.643322 -2.667035 -2.643322 -2.667035 Z M -2.992578 -1.576099 " transform="matrix(0.995419, 0, 0, -0.995419, 70.974962, 42.606903)"/>
<path fill-rule="nonzero" fill="rgb(0%, 58.822632%, 22.3526%)" fill-opacity="1" stroke-width="0.06952" stroke-linecap="butt" stroke-linejoin="miter" stroke="rgb(0%, 0%, 0%)" stroke-opacity="1" stroke-miterlimit="10" d="M 1.241664 -4.754724 C 1.241664 -4.754724 1.151407 -4.735103 1.21027 -4.664467 C 1.26521 -4.597755 1.426103 -4.562437 1.457497 -4.562437 C 1.488891 -4.562437 1.579148 -4.570286 1.649784 -4.585983 C 1.716496 -4.605604 1.810677 -4.664467 1.783208 -4.707634 C 1.755738 -4.7508 1.661557 -4.801815 1.535981 -4.801815 C 1.430027 -4.801815 1.371164 -4.797891 1.324073 -4.786118 C 1.280907 -4.766497 1.241664 -4.754724 1.241664 -4.754724 " transform="matrix(0.995419, 0, 0, -0.995419, 70.974962, 42.606903)"/>
<path fill-rule="nonzero" fill="rgb(0%, 58.822632%, 22.3526%)" fill-opacity="1" stroke-width="0.0544" stroke-linecap="butt" stroke-linejoin="miter" stroke="rgb(0%, 0%, 0%)" stroke-opacity="1" stroke-miterlimit="10" d="M 0.315546 -4.244575 C 0.315546 -4.244575 0.0212292 -4.107227 -0.257391 -3.973803 C -0.626269 -3.793289 -1.065782 -3.546062 -1.371872 -3.086927 C -1.756446 -2.521839 -2.09393 -2.219673 -2.172415 -2.160809 C -2.254823 -2.098022 -2.266596 -2.074476 -2.29799 -2.117643 C -2.325459 -2.156885 -2.305838 -2.188279 -2.282293 -2.227521 C -2.203808 -2.357021 -2.011521 -2.596399 -1.940885 -2.725898 C -1.819234 -2.961352 -1.572008 -3.212503 -1.572008 -3.361623 C -1.572008 -3.385169 -1.646568 -3.349851 -1.646568 -3.349851 C -1.646568 -3.349851 -2.227354 -3.149715 -2.462807 -2.443354 C -2.635473 -1.933204 -2.560913 -1.784084 -2.60408 -1.529009 C -2.670792 -1.073798 -2.682564 -1.03848 -2.910169 -0.52833 C -2.914094 -0.516558 -3.047517 -0.304649 -3.063214 -0.35174 C -3.08676 -0.410604 -3.043593 -0.638209 -3.043593 -0.638209 L -3.016124 -0.901132 C -3.016124 -0.901132 -3.035745 -1.481918 -3.035745 -1.517236 C -3.035745 -1.552554 -3.184865 -1.917507 -2.560913 -2.525763 C -2.560913 -2.525763 -2.553065 -2.631717 -2.635473 -2.537535 C -2.694337 -2.474748 -3.141699 -2.129416 -3.275123 -1.568251 C -3.416395 -1.003162 -3.436016 -0.441997 -3.330062 -0.206544 C -3.23588 0.00536461 -3.043593 0.523363 -3.122078 0.974649 C -3.13385 1.02174 -3.145623 1.159088 -3.177017 1.12377 C -3.18879 1.104149 -3.243729 0.876543 -3.279047 0.798059 C -3.326138 0.68818 -3.400698 0.582226 -3.420319 0.507666 C -3.463486 0.382091 -3.679318 0.185879 -3.636152 -0.17515 C -3.589061 -0.591118 -3.561591 -0.65783 -3.514501 -0.803026 C -3.49488 -0.857966 -3.455637 -0.995314 -3.483107 -1.007086 C -3.506652 -1.022783 -3.592985 -0.846193 -3.592985 -0.846193 C -3.592985 -0.846193 -3.989332 -0.0691957 -3.74603 0.558681 C -3.498804 1.182633 -2.8827 1.779116 -2.8827 1.779116 C -2.8827 1.779116 -2.384323 2.195084 -2.282293 2.289266 C -2.239126 2.328508 -2.250899 2.355977 -2.262672 2.352053 C -2.388247 2.320659 -3.353607 2.120524 -3.691091 0.970725 C -3.691091 0.970725 -3.706788 0.923634 -3.734257 0.935407 C -3.765651 0.951104 -3.734257 1.002119 -3.734257 1.002119 C -3.734257 1.002119 -3.522349 1.818358 -2.925866 2.187236 C -2.278369 2.591431 -2.352929 2.532568 -2.137096 2.658143 C -2.003673 2.744476 -1.882022 2.854354 -1.728977 3.105505 C -1.71328 3.132975 -1.654416 3.278171 -1.662265 3.305641 C -1.666189 3.329186 -1.697583 3.293868 -1.709356 3.254626 C -1.709356 3.254626 -1.893794 2.968157 -2.16849 2.873976 C -2.447111 2.779794 -2.670792 2.913218 -2.949412 2.607128 C -3.224108 2.301038 -3.447789 1.873297 -3.447789 1.873297 C -3.447789 1.873297 -3.518425 1.763419 -3.534122 1.767343 C -3.565516 1.775192 -3.518425 1.88507 -3.518425 1.88507 C -3.518425 1.88507 -3.149547 2.669916 -2.851306 2.830809 C -2.553065 2.991702 -2.286217 3.144747 -2.117475 3.278171 C -1.913415 3.439064 -1.556311 3.835412 -1.430735 3.968835 C -1.403266 4.000229 -1.210979 4.192516 -1.171736 4.255304 C -1.144267 4.286698 -1.085403 4.337713 -1.093252 4.345561 C -1.120721 4.365182 -1.301236 4.278849 -1.301236 4.278849 C -1.301236 4.278849 -2.282293 4.008078 -2.894473 3.085884 C -2.921942 3.042717 -2.988654 2.956384 -3.027896 2.921066 C -3.090684 2.85043 -3.126002 2.740552 -3.126002 2.740552 C -3.165244 2.771946 -2.78067 3.254626 -2.78067 3.254626 L -2.710034 3.56464 C -2.710034 3.56464 -2.596231 4.031623 -2.356853 4.365182 C -2.333308 4.392652 -2.192036 4.537848 -2.16849 4.565318 C -2.1214 4.616333 -2.258748 4.522152 -2.235202 4.541773 C -2.235202 4.541773 -3.149547 3.886427 -3.149547 3.058414 C -3.149547 2.909294 -3.243729 2.771946 -3.369304 2.587507 C -3.518425 2.371674 -3.56944 2.242175 -3.636152 1.920388 C -3.659697 1.786964 -3.691091 1.649616 -3.718561 1.516193 C -3.718561 1.516193 -3.710712 1.398466 -3.749954 1.410238 C -3.789197 1.418087 -3.7735 1.516193 -3.7735 1.516193 C -3.7735 1.516193 -3.679318 2.132296 -3.612606 2.324584 C -3.549819 2.509022 -3.506652 2.634598 -3.506652 2.634598 C -3.506652 2.634598 -3.545894 3.097657 -3.443865 3.352731 C -3.353607 3.572488 -3.13385 3.866805 -3.098532 3.937442 C -3.082836 3.97276 -2.980806 4.180744 -2.953336 4.416197 C -2.949412 4.447591 -2.972957 4.420122 -3.016124 4.329864 C -3.114229 4.102259 -3.200562 4.043396 -3.36538 3.827563 C -3.36538 3.827563 -3.789197 3.521473 -3.942242 2.607128 C -3.942242 2.607128 -3.95009 2.26572 -4.001105 1.732025 C -4.040347 1.339602 -4.005029 0.970725 -3.961863 0.750968 C -3.934393 0.617544 -3.879454 0.61362 -3.914772 0.597923 C -3.934393 0.58615 -3.899075 0.597923 -3.95009 0.699953 C -4.008953 0.821604 -4.05212 1.009967 -4.05212 1.268966 C -4.05212 1.747722 -4.008953 2.132296 -4.008953 2.132296 C -4.008953 2.132296 -3.981484 2.901445 -4.299346 3.250702 C -4.315043 3.266398 -4.244407 3.093732 -4.213013 2.921066 C -4.173771 2.705234 -4.244407 2.406992 -4.264028 2.289266 C -4.283649 2.171539 -4.499482 1.661389 -4.420997 1.182633 C -4.420997 1.182633 -4.244407 0.374242 -4.008953 -0.022105 C -4.008953 -0.022105 -3.863757 -0.190847 -3.993257 -0.0299534 C -4.118832 0.127016 -4.381755 0.758816 -4.401376 0.813756 C -4.420997 0.864771 -4.60936 1.257193 -4.785951 1.418087 C -4.876208 1.500496 -5.123434 1.653541 -5.123434 1.653541 C -5.123434 1.653541 -5.260782 1.75557 -5.158752 1.618223 C -5.076344 1.508344 -4.966465 1.316057 -4.91545 1.229724 C -4.805572 1.057058 -4.71139 0.872619 -4.628982 0.684256 C -4.542649 0.503742 -4.350361 -0.0378019 -4.350361 -0.0378019 L -4.224786 -0.37921 C -4.224786 -0.37921 -4.016802 -0.496937 -3.902999 -0.622512 C -3.808818 -0.724542 -3.616531 -0.959996 -3.459561 -1.375964 C -3.385001 -1.560403 -3.243729 -1.729144 -3.243729 -1.729144 C -3.243729 -1.729144 -3.271198 -1.788008 -3.400698 -1.568251 C -3.526273 -1.34457 -3.651849 -0.924678 -3.954014 -0.595042 C -4.185544 -0.343892 -4.805572 -0.0927411 -4.805572 -0.0927411 C -4.805572 -0.0927411 -4.409225 -0.78733 -4.307195 -0.908981 C -4.142377 -1.109116 -3.899075 -1.387736 -3.836287 -1.462297 C -3.769576 -1.536857 -3.396774 -1.999916 -3.341835 -2.074476 C -3.251577 -2.192203 -3.196638 -2.243218 -3.149547 -2.290309 C -3.051442 -2.396263 -2.757125 -2.58855 -2.733579 -2.61602 C -2.729655 -2.647414 -2.725731 -2.623868 -2.749276 -2.604247 C -2.878776 -2.525763 -3.035745 -2.404112 -3.196638 -2.302082 C -3.353607 -2.196128 -3.973635 -1.92928 -4.389604 -1.356343 C -4.487709 -1.187601 -4.5348 -1.120889 -4.566194 -1.136586 C -4.617209 -1.164055 -4.287574 -2.258915 -3.604758 -2.608172 C -3.604758 -2.608172 -2.85523 -2.941731 -2.690413 -3.043761 C -2.596231 -3.0987 -2.411792 -3.181109 -2.329384 -3.247821 C -2.278369 -3.287063 -2.37255 -3.287063 -2.376474 -3.283139 C -2.776746 -3.251745 -3.349683 -3.20073 -3.702864 -2.99667 C -3.702864 -2.99667 -3.851984 -2.890716 -3.730333 -3.039837 C -3.628303 -3.153639 -3.443865 -3.440108 -3.082836 -3.597077 C -2.721807 -3.75797 -2.19596 -3.848228 -2.003673 -3.86 C -1.81531 -3.871773 -1.140342 -3.875697 -1.010843 -3.91494 C -0.885268 -3.958106 -0.673359 -4.095454 -0.547784 -4.134696 C -0.437906 -4.170014 -0.100422 -4.299514 -0.100422 -4.299514 C -0.100422 -4.299514 0.00160803 -4.354453 0.0565472 -4.377999 C 0.115411 -4.401544 0.370486 -4.39762 0.386182 -4.350529 C 0.401879 -4.307362 0.315546 -4.244575 0.315546 -4.244575 " transform="matrix(0.995419, 0, 0, -0.995419, 70.974962, 42.606903)"/>
<path fill-rule="nonzero" fill="rgb(0%, 58.822632%, 22.3526%)" fill-opacity="1" stroke-width="0.06805" stroke-linecap="butt" stroke-linejoin="miter" stroke="rgb(0%, 0%, 0%)" stroke-opacity="1" stroke-miterlimit="10" d="M 4.679288 1.461253 C 4.753849 1.433784 4.789167 1.206179 4.789167 1.206179 C 4.789167 1.206179 4.781318 1.335678 4.781318 1.398466 C 4.781318 1.465178 4.749924 1.704556 4.749924 1.704556 L 4.683213 1.657465 C 4.600804 1.590753 4.557637 1.47695 4.557637 1.47695 C 4.557637 1.47695 4.604728 1.484799 4.679288 1.461253 " transform="matrix(0.995419, 0, 0, -0.995419, 70.974962, 42.606903)"/>
<g clip-path="url(#clip-3)">
<path fill="none" stroke-width="0.56693" stroke-linecap="butt" stroke-linejoin="miter" stroke="rgb(39.99939%, 39.99939%, 39.99939%)" stroke-opacity="1" stroke-miterlimit="10" d="M -70.869958 -42.521499 L -70.869958 42.520456 L 70.869249 42.520456 L 70.869249 -42.521499 Z M -70.869958 -42.521499 " transform="matrix(0.995419, 0, 0, -0.995419, 70.974962, 42.606903)"/>
</g>
</svg>
