<?xml version="1.0" encoding="UTF-8"?>
<svg xmlns="http://www.w3.org/2000/svg" xmlns:xlink="http://www.w3.org/1999/xlink" width="131.457pt" height="85.606pt" viewBox="0 0 131.457 85.606">
<defs>
<clipPath id="clip-0">
<path clip-rule="nonzero" d="M 0.3125 0.28125 L 127.296875 0.28125 L 127.296875 84.933594 L 0.3125 84.933594 Z M 0.3125 0.28125 "/>
</clipPath>
<clipPath id="clip-1">
<path clip-rule="nonzero" d="M 0.3125 0.28125 L 52 0.28125 L 52 84.933594 L 0.3125 84.933594 Z M 0.3125 0.28125 "/>
</clipPath>
<clipPath id="clip-2">
<path clip-rule="nonzero" d="M 0.03125 0 L 128 0 L 128 85.214844 L 0.03125 85.214844 Z M 0.03125 0 "/>
</clipPath>
</defs>
<g clip-path="url(#clip-0)">
<path fill-rule="nonzero" fill="rgb(85.488892%, 16.07666%, 10.978699%)" fill-opacity="1" d="M 0.3125 84.933594 L 0.3125 0.28125 L 127.296875 0.28125 L 127.296875 84.933594 Z M 0.3125 84.933594 "/>
</g>
<g clip-path="url(#clip-1)">
<path fill-rule="nonzero" fill="rgb(1.568604%, 41.569519%, 21.961975%)" fill-opacity="1" d="M 0.3125 84.933594 L 0.3125 0.28125 L 51.105469 0.28125 L 51.105469 84.933594 Z M 0.3125 84.933594 "/>
</g>
<path fill-rule="evenodd" fill="rgb(100%, 91.372681%, 0%)" fill-opacity="1" stroke-width="0.12715" stroke-linecap="round" stroke-linejoin="round" stroke="rgb(0%, 0%, 0%)" stroke-opacity="1" stroke-miterlimit="10" d="M 4.633847 -13.98451 C -2.064811 -13.784374 -32.779747 5.389406 -32.987731 8.442456 L -31.292464 11.271824 C -28.247263 6.845295 3.154413 -11.802639 6.238856 -11.139444 L 4.633847 -13.98451 " transform="matrix(0.995419, 0, 0, -0.995419, 63.805351, 42.606903)"/>
<path fill-rule="evenodd" fill="rgb(100%, 91.372681%, 0%)" fill-opacity="1" stroke-width="0.12715" stroke-linecap="round" stroke-linejoin="round" stroke="rgb(0%, 0%, 0%)" stroke-opacity="1" stroke-miterlimit="10" d="M -31.649569 11.656399 C -32.249976 10.039617 -23.636295 4.710515 -13.268483 -1.591796 C -2.904596 -7.898031 6.034797 -11.79479 6.697991 -11.233626 C 6.737233 -11.16299 7.023702 -10.672461 6.996233 -10.676385 C 6.874581 -10.864748 6.572416 -10.923612 6.097584 -10.786264 C 3.299609 -9.977873 -4.007304 -6.626581 -13.052651 -1.14051 C -22.097997 4.345561 -29.966075 9.399968 -31.190434 11.550445 C -31.276767 11.699565 -31.335631 11.970337 -31.323858 12.182245 L -31.355252 12.182245 L -31.614251 11.727035 Z M 4.790816 -14.074767 C 4.677013 -14.278827 4.465105 -14.286675 4.064834 -14.243509 C 1.557252 -13.964889 -6.043979 -10.268265 -15.03831 -4.884224 C -25.508152 1.382769 -34.153227 7.092521 -33.215336 8.583728 L -32.960261 9.035014 L -32.909247 9.019317 C -33.752956 6.492114 -15.846701 -3.746198 -14.795008 -4.39762 C -4.435045 -10.817657 4.300288 -14.565296 5.073361 -13.592087 Z M 4.790816 -14.074767 " transform="matrix(0.995419, 0, 0, -0.995419, 63.805351, 42.606903)"/>
<path fill-rule="evenodd" fill="rgb(100%, 91.372681%, 0%)" fill-opacity="1" stroke-width="0.12715" stroke-linecap="round" stroke-linejoin="round" stroke="rgb(0%, 0%, 0%)" stroke-opacity="1" stroke-miterlimit="10" d="M -12.675925 6.594144 C -5.969418 6.645159 2.302855 7.508489 7.062944 9.407816 L 6.038721 11.071689 C 3.221125 9.517694 -5.094315 8.493471 -12.730864 8.340426 C -21.764438 8.422835 -28.137385 9.26262 -31.331707 11.405248 L -32.300991 9.631497 C -26.430345 7.14746 -20.410579 6.61769 -12.675925 6.594144 " transform="matrix(0.995419, 0, 0, -0.995419, 63.805351, 42.606903)"/>
<path fill-rule="evenodd" fill="rgb(100%, 91.372681%, 0%)" fill-opacity="1" stroke-width="0.12715" stroke-linecap="round" stroke-linejoin="round" stroke="rgb(0%, 0%, 0%)" stroke-opacity="1" stroke-miterlimit="10" d="M 7.33764 9.368574 C 7.176747 9.10565 4.068758 8.03826 -0.502968 7.245566 C -3.603109 6.774659 -7.648988 6.370463 -12.69947 6.362615 C -17.494877 6.35869 -21.415181 6.700098 -24.381898 7.104294 C -29.18123 7.857746 -31.661342 8.90159 -32.575687 9.274392 C -32.489354 9.447058 -32.430491 9.568709 -32.348082 9.733527 C -29.711 8.681834 -27.219115 8.050033 -24.303414 7.602671 C -21.356318 7.2024 -17.487029 6.857067 -12.711243 6.860992 C -7.68823 6.864916 -3.685517 7.300505 -0.604998 7.75964 C 4.088379 8.517016 6.646976 9.490225 7.008005 9.941511 L 7.341565 9.368574 Z M 6.438992 11.059916 C 5.928842 10.651796 3.397715 9.753148 -1.060208 9.038938 C -4.034774 8.615122 -7.813806 8.234472 -12.648455 8.226623 C -17.235878 8.222699 -20.987441 8.532713 -23.840355 8.948681 C -28.368914 9.54124 -30.774466 10.604706 -31.645645 10.918644 C -31.559312 11.067765 -31.469055 11.212961 -31.378797 11.362082 C -30.70383 11.024598 -28.380687 10.078859 -23.78934 9.431361 C -20.971744 9.03109 -17.216257 8.732849 -12.648455 8.736773 C -7.837351 8.740697 -4.097561 9.129196 -1.142617 9.553012 C 3.334927 10.169116 5.748328 11.314991 6.113281 11.60146 Z M 6.438992 11.059916 " transform="matrix(0.995419, 0, 0, -0.995419, 63.805351, 42.606903)"/>
<path fill-rule="evenodd" fill="rgb(100%, 91.372681%, 0%)" fill-opacity="1" stroke-width="0.12715" stroke-linecap="round" stroke-linejoin="round" stroke="rgb(0%, 0%, 0%)" stroke-opacity="1" stroke-miterlimit="10" d="M -34.690846 -1.485842 C -30.566482 -3.703031 -21.407333 -4.821436 -12.742637 -4.895997 C -4.851013 -4.907769 5.430465 -3.675562 9.276209 -1.638887 L 9.170255 0.582226 C 7.965517 -1.297479 -3.049792 -3.102624 -12.825045 -3.028064 C -22.604223 -2.953504 -31.680963 -1.442676 -34.706543 0.51159 L -34.690846 -1.481918 " transform="matrix(0.995419, 0, 0, -0.995419, 63.805351, 42.606903)"/>
<path fill-rule="evenodd" fill="rgb(100%, 91.372681%, 0%)" fill-opacity="1" stroke-width="0.12715" stroke-linecap="round" stroke-linejoin="round" stroke="rgb(0%, 0%, 0%)" stroke-opacity="1" stroke-miterlimit="10" d="M 9.484193 -1.164055 L 9.484193 -1.693826 C 8.907332 -2.384491 5.285269 -3.428335 0.741012 -4.16609 C -2.716233 -4.695861 -7.225171 -5.096132 -12.840742 -5.096132 C -18.177693 -5.096132 -22.431557 -4.715482 -25.731833 -4.205333 C -30.951057 -3.447956 -34.286651 -2.117643 -34.957694 -1.721296 L -34.95377 -1.101268 C -32.94064 -2.43943 -27.489887 -3.420487 -25.661197 -3.718728 C -22.380542 -4.221029 -18.150223 -4.597755 -12.840742 -4.597755 C -7.248717 -4.597755 -2.767248 -4.201408 0.666452 -3.675562 C 3.927486 -3.204654 8.569848 -1.980295 9.484193 -1.164055 Z M 9.488118 0.719574 L 9.488118 0.189803 C 8.911256 -0.500861 5.289193 -1.544706 0.744937 -2.282461 C -2.712309 -2.812231 -7.221247 -3.212503 -12.840742 -3.212503 C -18.173769 -3.212503 -22.431557 -2.831853 -25.731833 -2.325627 C -30.947132 -1.564327 -34.286651 -0.234013 -34.95377 0.162334 L -34.95377 0.778438 C -32.94064 -0.5558 -27.489887 -1.536857 -25.657272 -1.835099 C -22.380542 -2.3374 -18.150223 -2.71805 -12.840742 -2.71805 C -7.248717 -2.71805 -2.767248 -2.317779 0.670376 -1.791932 C 3.93141 -1.321025 8.573772 -0.0966653 9.488118 0.719574 Z M 9.488118 0.719574 " transform="matrix(0.995419, 0, 0, -0.995419, 63.805351, 42.606903)"/>
<path fill-rule="evenodd" fill="rgb(100%, 91.372681%, 0%)" fill-opacity="1" stroke-width="0.12715" stroke-linecap="round" stroke-linejoin="round" stroke="rgb(0%, 0%, 0%)" stroke-opacity="1" stroke-miterlimit="10" d="M -12.758333 -13.60386 C -22.243194 -13.544996 -30.370271 -11.017793 -32.085159 -10.601825 L -30.83333 -12.560015 C -27.803825 -13.835389 -19.876884 -15.734716 -12.668076 -15.522807 C -5.463193 -15.314823 0.835194 -14.753659 5.273496 -12.595333 L 6.556719 -10.562583 C 3.531139 -11.987078 -6.762112 -13.588163 -12.758333 -13.60386 " transform="matrix(0.995419, 0, 0, -0.995419, 63.805351, 42.606903)"/>
<path fill-rule="evenodd" fill="rgb(100%, 91.372681%, 0%)" fill-opacity="1" stroke-width="0.12715" stroke-linecap="round" stroke-linejoin="round" stroke="rgb(0%, 0%, 0%)" stroke-opacity="1" stroke-miterlimit="10" d="M 5.756176 -12.140122 C 5.567813 -12.426591 5.375526 -12.71306 5.179315 -12.987756 C 3.087701 -13.725511 -0.212575 -14.502508 -1.601752 -14.726189 C -4.446818 -15.314823 -8.845878 -15.746488 -12.750485 -15.750413 C -21.152258 -15.624837 -28.027506 -13.980586 -31.261071 -12.579636 L -31.523994 -12.12835 L -31.480827 -12.061638 L -31.03739 -12.234304 C -25.284471 -14.2906 -18.825191 -15.114688 -12.703394 -15.259884 C -8.814484 -15.275581 -4.921649 -14.816446 -1.774418 -14.251357 C 3.052383 -13.285997 5.006649 -12.556091 5.603131 -12.226455 Z M 6.866733 -10.303584 C 6.874581 -10.311432 6.878506 -10.315356 6.88243 -10.323205 C 6.741158 -10.558658 6.595961 -10.801961 6.446841 -11.045263 C 5.33236 -11.445534 2.302855 -12.33241 -2.123674 -12.948513 C -5.039376 -13.348785 -6.85237 -13.733359 -12.648455 -13.843238 C -23.518568 -13.568542 -30.554709 -11.44161 -32.226431 -10.919687 L -32.473657 -10.444856 C -26.175271 -12.089107 -19.74346 -13.234982 -12.648455 -13.352709 C -7.342898 -13.238906 -5.086467 -12.850408 -2.194311 -12.454061 C 2.96605 -11.653518 5.563889 -10.801961 6.344811 -10.558658 C 6.333038 -10.542961 6.321265 -10.527265 6.309493 -10.515492 L 6.870657 -10.303584 Z M 6.866733 -10.303584 " transform="matrix(0.995419, 0, 0, -0.995419, 63.805351, 42.606903)"/>
<path fill-rule="evenodd" fill="rgb(100%, 91.372681%, 0%)" fill-opacity="1" stroke-width="0.12715" stroke-linecap="round" stroke-linejoin="round" stroke="rgb(0%, 0%, 0%)" stroke-opacity="1" stroke-miterlimit="10" d="M 6.980536 0.268288 C 7.011929 -5.971235 3.821532 -11.567185 1.247238 -14.039449 C -2.390522 -17.532012 -7.213399 -19.780595 -12.844667 -19.882625 C -19.135205 -20.000352 -25.064714 -15.899533 -26.657951 -14.098312 C -29.76594 -10.574355 -32.300991 -6.104659 -32.379476 -0.0770442 C -31.994901 6.735416 -29.322502 11.475884 -25.449288 14.72907 C -21.572151 17.982255 -16.415714 19.563719 -12.118684 19.449917 C -7.162384 19.320417 -1.370223 16.887395 2.63249 12.060594 C 5.253875 8.897666 6.387977 5.463966 6.980536 0.268288 Z M -12.793652 21.627863 C -0.710952 21.627863 9.225194 11.797671 9.225194 -0.257559 C 9.225194 -12.308864 -0.710952 -22.139056 -12.793652 -22.139056 C -24.872427 -22.139056 -34.726164 -12.308864 -34.726164 -0.257559 C -34.726164 11.797671 -24.872427 21.627863 -12.793652 21.627863 " transform="matrix(0.995419, 0, 0, -0.995419, 63.805351, 42.606903)"/>
<path fill-rule="evenodd" fill="rgb(100%, 91.372681%, 0%)" fill-opacity="1" stroke-width="0.12715" stroke-linecap="round" stroke-linejoin="round" stroke="rgb(0%, 0%, 0%)" stroke-opacity="1" stroke-miterlimit="10" d="M -12.734788 21.702424 C -0.640316 21.702424 9.22127 11.840838 9.22127 -0.24971 C 9.22127 -12.344182 -0.640316 -22.205768 -12.734788 -22.205768 C -24.825336 -22.205768 -34.686922 -12.344182 -34.686922 -0.24971 C -34.686922 11.840838 -24.825336 21.702424 -12.734788 21.702424 Z M -34.204242 -0.253634 C -34.204242 -12.061638 -24.503549 -21.723088 -12.734788 -21.723088 C -0.962103 -21.723088 8.73859 -12.061638 8.73859 -0.253634 C 8.73859 11.558293 -0.962103 21.219744 -12.734788 21.219744 C -24.503549 21.219744 -34.204242 11.558293 -34.204242 -0.253634 Z M -34.204242 -0.253634 " transform="matrix(0.995419, 0, 0, -0.995419, 63.805351, 42.606903)"/>
<path fill-rule="evenodd" fill="rgb(100%, 91.372681%, 0%)" fill-opacity="1" stroke-width="0.12715" stroke-linecap="round" stroke-linejoin="round" stroke="rgb(0%, 0%, 0%)" stroke-opacity="1" stroke-miterlimit="10" d="M -12.715167 19.877657 C -1.688085 19.877657 7.39258 10.828387 7.39258 -0.234013 C 7.39258 -11.292489 -1.688085 -20.34176 -12.715167 -20.34176 C -23.742249 -20.34176 -32.822913 -11.292489 -32.822913 -0.234013 C -32.822913 10.828387 -23.742249 19.877657 -12.715167 19.877657 Z M -32.340233 -0.230089 C -32.340233 -11.025642 -23.475401 -19.85908 -12.715167 -19.85908 C -1.954933 -19.85908 6.909899 -11.025642 6.909899 -0.230089 C 6.909899 10.561539 -1.954933 19.394977 -12.715167 19.394977 C -23.475401 19.394977 -32.340233 10.561539 -32.340233 -0.230089 Z M -32.340233 -0.230089 " transform="matrix(0.995419, 0, 0, -0.995419, 63.805351, 42.606903)"/>
<path fill-rule="evenodd" fill="rgb(100%, 91.372681%, 0%)" fill-opacity="1" stroke-width="0.12715" stroke-linecap="round" stroke-linejoin="round" stroke="rgb(0%, 0%, 0%)" stroke-opacity="1" stroke-miterlimit="10" d="M -11.832216 21.792681 L -13.711921 21.792681 L -13.707997 -22.319571 L -11.820443 -22.319571 Z M -11.832216 21.792681 " transform="matrix(0.995419, 0, 0, -0.995419, 63.805351, 42.606903)"/>
<path fill-rule="evenodd" fill="rgb(100%, 91.372681%, 0%)" fill-opacity="1" stroke-width="0.12715" stroke-linecap="round" stroke-linejoin="round" stroke="rgb(0%, 0%, 0%)" stroke-opacity="1" stroke-miterlimit="10" d="M -12.020579 22.043832 L -11.541823 22.043832 L -11.537898 -22.57857 L -12.016654 -22.57857 Z M -13.884587 22.043832 L -13.401907 22.043832 L -13.401907 -22.57857 L -13.884587 -22.57857 Z M -13.884587 22.043832 " transform="matrix(0.995419, 0, 0, -0.995419, 63.805351, 42.606903)"/>
<path fill-rule="evenodd" fill="rgb(100%, 91.372681%, 0%)" fill-opacity="1" stroke-width="0.12715" stroke-linecap="round" stroke-linejoin="round" stroke="rgb(0%, 0%, 0%)" stroke-opacity="1" stroke-miterlimit="10" d="M 9.236967 -1.101268 L 9.236967 0.531211 L 7.906653 1.767343 L 0.368211 3.760851 L -10.494054 4.871408 L -23.577431 4.204289 L -32.889625 1.9871 L -34.769331 0.593999 L -34.769331 -1.034556 L -30.005317 1.100224 L -18.699615 2.873976 L -7.833427 2.873976 L 0.148454 1.9871 L 5.689464 0.656787 Z M 9.236967 -1.101268 " transform="matrix(0.995419, 0, 0, -0.995419, 63.805351, 42.606903)"/>
<path fill-rule="evenodd" fill="rgb(100%, 91.372681%, 0%)" fill-opacity="1" stroke-width="0.12715" stroke-linecap="round" stroke-linejoin="round" stroke="rgb(0%, 0%, 0%)" stroke-opacity="1" stroke-miterlimit="10" d="M -12.723015 3.148672 C -7.53911 3.15652 -2.508249 2.658143 1.478767 1.881146 C 5.599207 1.057058 8.495288 0.02891 9.484193 -1.128737 L 9.484193 -1.701675 C 8.291228 -0.261483 4.390545 0.79021 1.38851 1.394541 C -2.571036 2.16369 -7.566579 2.662067 -12.723015 2.654219 C -18.16592 2.642446 -23.232099 2.128372 -27.132782 1.367072 C -30.264317 0.747044 -34.439696 -0.489088 -34.957694 -1.705599 L -34.957694 -1.109116 C -34.671225 -0.269331 -31.563236 0.990346 -27.203418 1.865449 C -23.271341 2.630673 -18.197314 3.136899 -12.723015 3.148672 Z M -12.723015 5.032301 C -7.53911 5.04015 -2.508249 4.537848 1.482692 3.760851 C 5.599207 2.940687 8.495288 1.908615 9.488118 0.754892 L 9.488118 0.181955 C 8.291228 1.618223 4.394469 2.67384 1.38851 3.278171 C -2.571036 4.04732 -7.566579 4.545697 -12.723015 4.533924 C -18.161996 4.526076 -23.20463 4.012002 -27.105313 3.250702 C -30.126969 2.677764 -34.471089 1.394541 -34.957694 0.178031 L -34.957694 0.774513 C -34.671225 1.60645 -31.500449 2.909294 -27.199494 3.749079 C -23.271341 4.514303 -18.19339 5.020529 -12.723015 5.032301 Z M -12.723015 5.032301 " transform="matrix(0.995419, 0, 0, -0.995419, 63.805351, 42.606903)"/>
<path fill-rule="evenodd" fill="rgb(100%, 91.372681%, 0%)" fill-opacity="1" stroke-width="0.12715" stroke-linecap="round" stroke-linejoin="round" stroke="rgb(0%, 0%, 0%)" stroke-opacity="1" stroke-miterlimit="10" d="M -12.82897 14.634888 C -4.658726 14.674131 2.467673 13.492938 5.728707 11.821216 L 6.917748 9.764921 C 4.084455 11.291446 -3.603109 12.880758 -12.817197 12.64138 C -20.324246 12.598214 -28.341445 11.817292 -32.367703 9.670739 L -30.947132 12.044897 C -27.642932 13.755861 -19.857263 14.62704 -12.82897 14.634888 " transform="matrix(0.995419, 0, 0, -0.995419, 63.805351, 42.606903)"/>
<path fill-rule="evenodd" fill="rgb(100%, 91.372681%, 0%)" fill-opacity="1" stroke-width="0.12715" stroke-linecap="round" stroke-linejoin="round" stroke="rgb(0%, 0%, 0%)" stroke-opacity="1" stroke-miterlimit="10" d="M -12.719091 12.935697 C -8.061032 12.94747 -3.556018 12.684547 0.0228786 12.040973 C 3.358473 11.420945 6.541022 10.486979 6.992308 9.988602 L 7.345489 9.364649 C 6.238856 10.086707 3.487972 10.891174 -0.0438333 11.558293 C -3.59526 12.225412 -8.092426 12.449093 -12.72694 12.43732 C -17.98933 12.453017 -22.074452 12.174397 -25.578788 11.566142 C -29.291108 10.871553 -31.861478 9.878723 -32.497203 9.407816 L -32.15187 10.067086 C -30.919663 10.694963 -28.961473 11.456263 -25.672969 12.048822 C -22.046982 12.708092 -17.91477 12.908228 -12.719091 12.935697 Z M -12.723015 14.819327 C -8.261168 14.8311 -3.858183 14.579949 -0.428408 13.963845 C 2.27931 13.437999 4.955634 12.613911 5.936691 11.884004 L 6.454689 11.06384 C 5.575662 12.037049 2.275386 12.959243 -0.636392 13.477241 C -4.042622 14.065875 -8.261168 14.297405 -12.723015 14.336647 C -17.400696 14.32095 -21.725195 14.034481 -25.084335 13.422302 C -28.286505 12.814046 -30.35065 12.091988 -31.225753 11.530824 L -30.770542 12.213639 C -29.565804 12.849364 -27.615462 13.434074 -25.16282 13.908906 C -21.780135 14.52501 -17.428165 14.80363 -12.723015 14.819327 Z M -12.723015 14.819327 " transform="matrix(0.995419, 0, 0, -0.995419, 63.805351, 42.606903)"/>
<path fill-rule="evenodd" fill="rgb(100%, 91.372681%, 0%)" fill-opacity="1" stroke-width="0.12715" stroke-linecap="round" stroke-linejoin="round" stroke="rgb(0%, 0%, 0%)" stroke-opacity="1" stroke-miterlimit="10" d="M -1.81366 -9.377466 C -5.855616 -8.624014 -9.901495 -8.514135 -12.72694 -8.545529 C -26.344012 -8.706423 -30.743072 -11.343504 -31.276767 -12.140122 L -32.297067 -10.480174 C -28.828049 -7.968668 -21.415181 -6.55987 -12.652379 -6.705066 C -8.104199 -6.779626 -4.17997 -7.081792 -0.87577 -7.721441 L -1.817585 -9.377466 " transform="matrix(0.995419, 0, 0, -0.995419, 63.805351, 42.606903)"/>
<path fill-rule="evenodd" fill="rgb(100%, 91.372681%, 0%)" fill-opacity="1" stroke-width="0.12715" stroke-linecap="round" stroke-linejoin="round" stroke="rgb(0%, 0%, 0%)" stroke-opacity="1" stroke-miterlimit="10" d="M -12.805424 -8.314 C -9.018544 -8.368939 -5.302299 -8.525908 -1.71163 -9.196951 L -1.974554 -9.652162 C -5.306224 -9.039982 -8.85765 -8.804528 -12.793652 -8.824149 C -17.816664 -8.784907 -22.89854 -9.25189 -27.325069 -10.52334 C -28.722095 -10.911839 -31.033465 -11.806563 -31.268919 -12.548242 L -31.527918 -12.124426 C -31.453358 -11.684912 -30.056332 -10.774491 -27.442796 -10.04066 C -22.376617 -8.588696 -17.636149 -8.345394 -12.805424 -8.314 Z M -12.632758 -6.406825 C -8.70853 -6.481385 -4.658726 -6.6619 -0.718801 -7.442821 L -0.989572 -7.917653 C -4.544923 -7.215216 -7.943305 -6.979762 -12.609213 -6.905202 C -17.651846 -6.916974 -23.00057 -7.274079 -27.858765 -8.686801 C -29.428456 -9.145936 -32.140098 -10.134842 -32.230355 -10.915763 L -32.489354 -10.456628 C -32.430491 -9.746343 -30.083802 -8.820225 -27.972567 -8.208046 C -23.07513 -6.783551 -17.714634 -6.414673 -12.632758 -6.406825 Z M -12.632758 -6.406825 " transform="matrix(0.995419, 0, 0, -0.995419, 63.805351, 42.606903)"/>
<path fill-rule="evenodd" fill="rgb(100%, 91.372681%, 0%)" fill-opacity="1" stroke-width="0.12715" stroke-linecap="round" stroke-linejoin="round" stroke="rgb(0%, 0%, 0%)" stroke-opacity="1" stroke-miterlimit="10" d="M 6.70584 -10.735249 L 5.069436 -13.274224 L 0.368211 -9.098845 L -11.824367 -0.893284 L -25.570939 6.645159 L -32.709111 9.086029 L -31.190434 11.907549 L -30.672436 12.18617 L -26.238058 11.079537 L -11.60461 3.541094 L -3.179292 -1.780159 L 3.915713 -6.881656 L 6.800021 -10.205478 Z M 6.70584 -10.735249 " transform="matrix(0.995419, 0, 0, -0.995419, 63.805351, 42.606903)"/>
<path fill-rule="evenodd" fill="rgb(100%, 91.372681%, 0%)" fill-opacity="1" stroke-width="0.12715" stroke-linecap="round" stroke-linejoin="round" stroke="rgb(0%, 0%, 0%)" stroke-opacity="1" stroke-miterlimit="10" d="M -32.96811 9.019317 C -31.716281 9.866951 -22.513965 5.770056 -12.887833 -0.0338777 C -3.28917 -5.857433 5.885676 -12.43444 5.057664 -13.662723 L 4.782968 -14.094388 L 4.661317 -14.192494 C 4.684862 -14.172873 4.826134 -14.004131 4.64562 -13.54892 C 4.2375 -12.20291 -2.268871 -7.007232 -13.068348 -0.489088 C -23.593128 5.785753 -32.367703 9.568709 -33.242806 8.489547 Z M 7.039399 -10.696006 C 7.832093 -9.134163 -0.703104 -2.706277 -11.282824 3.552867 C -22.101921 9.686436 -29.903288 13.296726 -31.327782 12.221488 L -31.645645 11.644626 C -31.649569 11.613232 -31.633872 11.683868 -31.56716 11.734883 C -31.308161 11.962489 -30.88042 11.946792 -30.684209 11.950716 C -28.231566 11.911474 -21.222894 8.689682 -11.392702 3.050566 C -7.087823 0.542984 6.803945 -8.365015 6.749006 -10.868672 C 6.75293 -11.084505 6.768627 -11.127671 6.686218 -11.233626 L 7.039399 -10.699931 Z M 7.039399 -10.696006 " transform="matrix(0.995419, 0, 0, -0.995419, 63.805351, 42.606903)"/>
<path fill-rule="nonzero" fill="rgb(100%, 100%, 100%)" fill-opacity="1" stroke-width="0.12715" stroke-linecap="butt" stroke-linejoin="miter" stroke="rgb(0%, 0%, 0%)" stroke-opacity="1" stroke-miterlimit="10" d="M -25.884878 -2.670959 C -25.884878 -6.277325 -24.405443 -9.542283 -22.011664 -11.92429 C -19.613961 -14.314145 -16.356851 -15.821049 -12.742637 -15.821049 C -9.108801 -15.821049 -5.816373 -14.349463 -3.426518 -11.967456 C -1.040587 -9.58545 0.438847 -6.30087 0.442771 -2.682732 L 0.438847 -2.682732 L 0.438847 14.874266 L -25.884878 14.90566 Z M -25.884878 -2.670959 " transform="matrix(0.995419, 0, 0, -0.995419, 63.805351, 42.606903)"/>
<path fill-rule="nonzero" fill="rgb(85.488892%, 16.07666%, 10.978699%)" fill-opacity="1" stroke-width="0.12715" stroke-linecap="butt" stroke-linejoin="miter" stroke="rgb(0%, 0%, 0%)" stroke-opacity="1" stroke-miterlimit="10" d="M -25.390425 -2.694505 L -25.390425 -2.706277 C -25.390425 -6.155674 -23.962006 -9.295057 -21.670256 -11.575034 C -19.374583 -13.858934 -16.215579 -15.279505 -12.754409 -15.279505 C -9.277543 -15.279505 -6.122463 -13.870707 -3.838562 -11.594655 C -1.550737 -9.318602 -0.134091 -6.175295 -0.134091 -2.714126 L -0.134091 14.317026 L -25.374728 14.32095 L -25.390425 -2.694505 M -5.208118 9.223377 L -5.208118 -1.619266 L -5.219891 -2.765141 C -5.219891 -3.067306 -5.235588 -3.408714 -5.270906 -3.703031 C -5.474965 -5.417919 -6.263735 -6.909126 -7.433155 -8.074622 C -8.798787 -9.432405 -10.686341 -10.276114 -12.762258 -10.276114 C -14.830326 -10.276114 -16.674713 -9.404935 -18.048193 -8.039304 C -19.453067 -6.63443 -20.269307 -4.715482 -20.269307 -2.729823 L -20.273231 9.250847 L -5.212042 9.223377 Z M -5.208118 9.223377 " transform="matrix(0.995419, 0, 0, -0.995419, 63.805351, 42.606903)"/>
<path fill-rule="nonzero" fill="rgb(100%, 91.372681%, 0%)" fill-opacity="1" d="M 50.246094 32.777344 C 50.277344 31.558594 51.140625 31.269531 51.148438 31.265625 C 51.152344 31.261719 52.082031 31.578125 52.078125 32.789062 L 50.246094 32.777344 "/>
<path fill-rule="nonzero" fill="rgb(100%, 91.372681%, 0%)" fill-opacity="1" stroke-width="0.12715" stroke-linecap="butt" stroke-linejoin="miter" stroke="rgb(0%, 0%, 0%)" stroke-opacity="1" stroke-miterlimit="10" d="M -14.371191 11.36993 L -14.520312 9.961132 L -13.602043 9.961132 C -13.594194 11.122704 -12.723015 11.318915 -12.703394 11.314991 C -12.679849 11.314991 -11.816519 11.055992 -11.792973 9.961132 L -10.874704 9.961132 L -11.039521 11.377779 Z M -14.371191 11.36993 " transform="matrix(0.995419, 0, 0, -0.995419, 63.805351, 42.606903)"/>
<path fill-rule="nonzero" fill="rgb(100%, 91.372681%, 0%)" fill-opacity="1" stroke-width="0.12715" stroke-linecap="butt" stroke-linejoin="miter" stroke="rgb(0%, 0%, 0%)" stroke-opacity="1" stroke-miterlimit="10" d="M -14.5831 9.957208 L -10.827613 9.957208 C -10.745204 9.957208 -10.682417 9.878723 -10.682417 9.784542 C -10.682417 9.686436 -10.745204 9.607952 -10.827613 9.607952 L -14.5831 9.607952 C -14.661584 9.607952 -14.728296 9.686436 -14.728296 9.784542 C -14.728296 9.878723 -14.661584 9.957208 -14.5831 9.957208 Z M -14.5831 9.957208 " transform="matrix(0.995419, 0, 0, -0.995419, 63.805351, 42.606903)"/>
<path fill-rule="nonzero" fill="rgb(100%, 91.372681%, 0%)" fill-opacity="1" stroke-width="0.12715" stroke-linecap="butt" stroke-linejoin="miter" stroke="rgb(0%, 0%, 0%)" stroke-opacity="1" stroke-miterlimit="10" d="M -13.217468 9.965056 C -13.213544 10.698887 -12.715167 10.906871 -12.715167 10.906871 C -12.715167 10.906871 -12.193245 10.691039 -12.18932 9.965056 L -13.217468 9.965056 " transform="matrix(0.995419, 0, 0, -0.995419, 63.805351, 42.606903)"/>
<path fill-rule="nonzero" fill="rgb(100%, 91.372681%, 0%)" fill-opacity="1" stroke-width="0.12715" stroke-linecap="butt" stroke-linejoin="miter" stroke="rgb(0%, 0%, 0%)" stroke-opacity="1" stroke-miterlimit="10" d="M -14.504615 11.95464 L -10.902173 11.95464 C -10.827613 11.95464 -10.764825 11.884004 -10.764825 11.797671 C -10.764825 11.711338 -10.827613 11.640702 -10.902173 11.640702 L -14.504615 11.640702 C -14.579175 11.640702 -14.641963 11.711338 -14.641963 11.797671 C -14.641963 11.884004 -14.579175 11.95464 -14.504615 11.95464 Z M -14.504615 11.95464 " transform="matrix(0.995419, 0, 0, -0.995419, 63.805351, 42.606903)"/>
<path fill-rule="nonzero" fill="rgb(100%, 91.372681%, 0%)" fill-opacity="1" stroke-width="0.12715" stroke-linecap="butt" stroke-linejoin="miter" stroke="rgb(0%, 0%, 0%)" stroke-opacity="1" stroke-miterlimit="10" d="M -14.430055 11.640702 L -10.984582 11.640702 C -10.910022 11.640702 -10.851158 11.570066 -10.851158 11.483733 C -10.851158 11.3974 -10.910022 11.326764 -10.984582 11.326764 L -14.430055 11.326764 C -14.500691 11.326764 -14.559554 11.3974 -14.559554 11.483733 C -14.559554 11.570066 -14.500691 11.640702 -14.430055 11.640702 Z M -14.430055 11.640702 " transform="matrix(0.995419, 0, 0, -0.995419, 63.805351, 42.606903)"/>
<path fill-rule="nonzero" fill="rgb(100%, 91.372681%, 0%)" fill-opacity="1" stroke-width="0.12715" stroke-linecap="butt" stroke-linejoin="miter" stroke="rgb(0%, 0%, 0%)" stroke-opacity="1" stroke-miterlimit="10" d="M -13.315574 13.987391 L -13.044802 13.987391 L -13.044802 13.795103 L -12.844667 13.795103 L -12.844667 13.991315 L -12.566046 13.991315 L -12.566046 13.795103 L -12.365911 13.795103 L -12.365911 13.991315 L -12.08729 13.991315 L -12.08729 13.543953 C -12.08729 13.473317 -12.146154 13.43015 -12.208941 13.43015 L -13.189999 13.43015 C -13.252786 13.43015 -13.315574 13.481165 -13.315574 13.547877 Z M -13.315574 13.987391 " transform="matrix(0.995419, 0, 0, -0.995419, 63.805351, 42.606903)"/>
<path fill-rule="nonzero" fill="rgb(100%, 91.372681%, 0%)" fill-opacity="1" stroke-width="0.12715" stroke-linecap="butt" stroke-linejoin="miter" stroke="rgb(0%, 0%, 0%)" stroke-opacity="1" stroke-miterlimit="10" d="M -12.29135 13.390908 L -12.228563 11.962489 L -13.18215 11.962489 L -13.119362 13.394832 L -12.29135 13.390908 " transform="matrix(0.995419, 0, 0, -0.995419, 63.805351, 42.606903)"/>
<path fill-rule="nonzero" fill="rgb(100%, 91.372681%, 0%)" fill-opacity="1" stroke-width="0.12715" stroke-linecap="butt" stroke-linejoin="miter" stroke="rgb(0%, 0%, 0%)" stroke-opacity="1" stroke-miterlimit="10" d="M -13.452922 12.727713 L -13.425452 11.958564 L -14.339798 11.958564 L -14.316252 12.727713 Z M -13.452922 12.727713 " transform="matrix(0.995419, 0, 0, -0.995419, 63.805351, 42.606903)"/>
<path fill-rule="nonzero" fill="rgb(100%, 91.372681%, 0%)" fill-opacity="1" stroke-width="0.12715" stroke-linecap="butt" stroke-linejoin="miter" stroke="rgb(0%, 0%, 0%)" stroke-opacity="1" stroke-miterlimit="10" d="M -11.102309 12.727713 L -11.074839 11.958564 L -11.989185 11.958564 L -11.961715 12.727713 Z M -11.102309 12.727713 " transform="matrix(0.995419, 0, 0, -0.995419, 63.805351, 42.606903)"/>
<path fill-rule="nonzero" fill="rgb(100%, 91.372681%, 0%)" fill-opacity="1" stroke-width="0.12715" stroke-linecap="butt" stroke-linejoin="miter" stroke="rgb(0%, 0%, 0%)" stroke-opacity="1" stroke-miterlimit="10" d="M -14.484994 13.288878 L -14.218146 13.284954 L -14.218146 13.092666 L -14.021935 13.092666 L -14.021935 13.288878 L -13.751163 13.288878 L -13.751163 13.092666 L -13.554952 13.092666 L -13.554952 13.288878 L -13.28418 13.288878 L -13.28418 12.84544 C -13.28418 12.774804 -13.339119 12.727713 -13.401907 12.727713 L -14.359419 12.727713 C -14.422206 12.727713 -14.484994 12.782652 -14.484994 12.84544 Z M -14.484994 13.288878 " transform="matrix(0.995419, 0, 0, -0.995419, 63.805351, 42.606903)"/>
<path fill-rule="nonzero" fill="rgb(100%, 91.372681%, 0%)" fill-opacity="1" stroke-width="0.12715" stroke-linecap="butt" stroke-linejoin="miter" stroke="rgb(0%, 0%, 0%)" stroke-opacity="1" stroke-miterlimit="10" d="M -12.130457 13.288878 L -11.863609 13.284954 L -11.863609 13.092666 L -11.671322 13.092666 L -11.671322 13.288878 L -11.396626 13.288878 L -11.396626 13.092666 L -11.204339 13.092666 L -11.204339 13.288878 L -10.929643 13.288878 L -10.929643 12.84544 C -10.929643 12.774804 -10.984582 12.727713 -11.051294 12.727713 L -12.008806 12.727713 C -12.071593 12.727713 -12.130457 12.782652 -12.130457 12.84544 Z M -12.130457 13.288878 " transform="matrix(0.995419, 0, 0, -0.995419, 63.805351, 42.606903)"/>
<path fill-rule="nonzero" fill="rgb(0%, 0%, 0%)" fill-opacity="1" d="M 51.066406 29.726562 C 51.058594 29.589844 51.257812 29.585938 51.257812 29.726562 L 51.257812 30.066406 L 51.066406 30.066406 L 51.066406 29.726562 "/>
<path fill-rule="nonzero" fill="rgb(0%, 0%, 0%)" fill-opacity="1" d="M 49.890625 30.21875 C 49.886719 30.085938 50.074219 30.082031 50.070312 30.21875 L 50.070312 30.480469 L 49.890625 30.480469 L 49.890625 30.21875 "/>
<path fill-rule="nonzero" fill="rgb(0%, 0%, 0%)" fill-opacity="1" d="M 52.238281 30.21875 C 52.238281 30.085938 52.421875 30.082031 52.421875 30.21875 L 52.421875 30.480469 L 52.238281 30.480469 L 52.238281 30.21875 "/>
<path fill-rule="nonzero" fill="rgb(100%, 91.372681%, 0%)" fill-opacity="1" d="M 40.15625 32.777344 C 40.1875 31.558594 41.050781 31.269531 41.058594 31.265625 C 41.0625 31.261719 41.992188 31.578125 41.988281 32.789062 L 40.15625 32.777344 "/>
<path fill-rule="nonzero" fill="rgb(100%, 91.372681%, 0%)" fill-opacity="1" stroke-width="0.12715" stroke-linecap="butt" stroke-linejoin="miter" stroke="rgb(0%, 0%, 0%)" stroke-opacity="1" stroke-miterlimit="10" d="M -24.507473 11.36993 L -24.656594 9.961132 L -23.738325 9.961132 C -23.730476 11.122704 -22.859297 11.318915 -22.835752 11.314991 C -22.816131 11.314991 -21.952801 11.055992 -21.929255 9.961132 L -21.010986 9.961132 L -21.175803 11.377779 Z M -24.507473 11.36993 " transform="matrix(0.995419, 0, 0, -0.995419, 63.805351, 42.606903)"/>
<path fill-rule="nonzero" fill="rgb(100%, 91.372681%, 0%)" fill-opacity="1" stroke-width="0.12715" stroke-linecap="butt" stroke-linejoin="miter" stroke="rgb(0%, 0%, 0%)" stroke-opacity="1" stroke-miterlimit="10" d="M -24.719382 9.957208 L -20.959971 9.957208 C -20.881486 9.957208 -20.818699 9.878723 -20.818699 9.784542 C -20.818699 9.686436 -20.881486 9.607952 -20.959971 9.607952 L -24.719382 9.607952 C -24.797866 9.607952 -24.864578 9.686436 -24.864578 9.784542 C -24.864578 9.878723 -24.797866 9.957208 -24.719382 9.957208 Z M -24.719382 9.957208 " transform="matrix(0.995419, 0, 0, -0.995419, 63.805351, 42.606903)"/>
<path fill-rule="nonzero" fill="rgb(100%, 91.372681%, 0%)" fill-opacity="1" stroke-width="0.12715" stroke-linecap="butt" stroke-linejoin="miter" stroke="rgb(0%, 0%, 0%)" stroke-opacity="1" stroke-miterlimit="10" d="M -23.35375 9.965056 C -23.349826 10.698887 -22.851449 10.906871 -22.847525 10.906871 C -22.847525 10.906871 -22.329527 10.691039 -22.325602 9.965056 L -23.35375 9.965056 " transform="matrix(0.995419, 0, 0, -0.995419, 63.805351, 42.606903)"/>
<path fill-rule="nonzero" fill="rgb(100%, 91.372681%, 0%)" fill-opacity="1" stroke-width="0.12715" stroke-linecap="butt" stroke-linejoin="miter" stroke="rgb(0%, 0%, 0%)" stroke-opacity="1" stroke-miterlimit="10" d="M -24.640897 11.95464 L -21.038455 11.95464 C -20.959971 11.95464 -20.901107 11.884004 -20.901107 11.797671 C -20.901107 11.711338 -20.959971 11.640702 -21.038455 11.640702 L -24.640897 11.640702 C -24.715458 11.640702 -24.778245 11.711338 -24.778245 11.797671 C -24.778245 11.884004 -24.715458 11.95464 -24.640897 11.95464 Z M -24.640897 11.95464 " transform="matrix(0.995419, 0, 0, -0.995419, 63.805351, 42.606903)"/>
<path fill-rule="nonzero" fill="rgb(100%, 91.372681%, 0%)" fill-opacity="1" stroke-width="0.12715" stroke-linecap="butt" stroke-linejoin="miter" stroke="rgb(0%, 0%, 0%)" stroke-opacity="1" stroke-miterlimit="10" d="M -24.562413 11.640702 L -21.11694 11.640702 C -21.046304 11.640702 -20.987441 11.570066 -20.987441 11.483733 C -20.987441 11.3974 -21.046304 11.326764 -21.11694 11.326764 L -24.562413 11.326764 C -24.636973 11.326764 -24.695836 11.3974 -24.695836 11.483733 C -24.695836 11.570066 -24.636973 11.640702 -24.562413 11.640702 Z M -24.562413 11.640702 " transform="matrix(0.995419, 0, 0, -0.995419, 63.805351, 42.606903)"/>
<path fill-rule="nonzero" fill="rgb(100%, 91.372681%, 0%)" fill-opacity="1" stroke-width="0.12715" stroke-linecap="butt" stroke-linejoin="miter" stroke="rgb(0%, 0%, 0%)" stroke-opacity="1" stroke-miterlimit="10" d="M -23.451856 13.987391 L -23.17716 13.987391 L -23.17716 13.795103 L -22.980949 13.795103 L -22.980949 13.991315 L -22.702328 13.991315 L -22.702328 13.795103 L -22.502193 13.795103 L -22.502193 13.991315 L -22.223572 13.991315 L -22.223572 13.543953 C -22.223572 13.473317 -22.282436 13.43015 -22.345224 13.43015 L -23.322356 13.43015 C -23.389068 13.43015 -23.451856 13.481165 -23.451856 13.547877 Z M -23.451856 13.987391 " transform="matrix(0.995419, 0, 0, -0.995419, 63.805351, 42.606903)"/>
<path fill-rule="nonzero" fill="rgb(100%, 91.372681%, 0%)" fill-opacity="1" stroke-width="0.12715" stroke-linecap="butt" stroke-linejoin="miter" stroke="rgb(0%, 0%, 0%)" stroke-opacity="1" stroke-miterlimit="10" d="M -22.427632 13.390908 L -22.364845 11.962489 L -23.318432 11.962489 L -23.255645 13.394832 L -22.427632 13.390908 " transform="matrix(0.995419, 0, 0, -0.995419, 63.805351, 42.606903)"/>
<path fill-rule="nonzero" fill="rgb(100%, 91.372681%, 0%)" fill-opacity="1" stroke-width="0.12715" stroke-linecap="butt" stroke-linejoin="miter" stroke="rgb(0%, 0%, 0%)" stroke-opacity="1" stroke-miterlimit="10" d="M -23.589204 12.727713 L -23.561734 11.958564 L -24.47608 11.958564 L -24.44861 12.727713 Z M -23.589204 12.727713 " transform="matrix(0.995419, 0, 0, -0.995419, 63.805351, 42.606903)"/>
<path fill-rule="nonzero" fill="rgb(100%, 91.372681%, 0%)" fill-opacity="1" stroke-width="0.12715" stroke-linecap="butt" stroke-linejoin="miter" stroke="rgb(0%, 0%, 0%)" stroke-opacity="1" stroke-miterlimit="10" d="M -21.238591 12.727713 L -21.207197 11.958564 L -22.125467 11.958564 L -22.097997 12.727713 Z M -21.238591 12.727713 " transform="matrix(0.995419, 0, 0, -0.995419, 63.805351, 42.606903)"/>
<path fill-rule="nonzero" fill="rgb(100%, 91.372681%, 0%)" fill-opacity="1" stroke-width="0.12715" stroke-linecap="butt" stroke-linejoin="miter" stroke="rgb(0%, 0%, 0%)" stroke-opacity="1" stroke-miterlimit="10" d="M -24.617352 13.288878 L -24.354429 13.284954 L -24.354429 13.092666 L -24.158217 13.092666 L -24.158217 13.288878 L -23.887445 13.288878 L -23.887445 13.092666 L -23.691234 13.092666 L -23.691234 13.288878 L -23.416538 13.288878 L -23.420462 12.84544 C -23.420462 12.774804 -23.475401 12.727713 -23.538189 12.727713 L -24.495701 12.727713 C -24.558488 12.727713 -24.617352 12.782652 -24.617352 12.84544 L -24.621276 13.284954 Z M -24.617352 13.288878 " transform="matrix(0.995419, 0, 0, -0.995419, 63.805351, 42.606903)"/>
<path fill-rule="nonzero" fill="rgb(100%, 91.372681%, 0%)" fill-opacity="1" stroke-width="0.12715" stroke-linecap="butt" stroke-linejoin="miter" stroke="rgb(0%, 0%, 0%)" stroke-opacity="1" stroke-miterlimit="10" d="M -22.266739 13.288878 L -21.999891 13.284954 L -21.999891 13.092666 L -21.807604 13.092666 L -21.807604 13.288878 L -21.532908 13.288878 L -21.532908 13.092666 L -21.340621 13.092666 L -21.340621 13.288878 L -21.065925 13.288878 L -21.065925 12.84544 C -21.065925 12.774804 -21.120864 12.727713 -21.183652 12.727713 L -22.141164 12.727713 C -22.207876 12.727713 -22.266739 12.782652 -22.266739 12.84544 Z M -22.266739 13.288878 " transform="matrix(0.995419, 0, 0, -0.995419, 63.805351, 42.606903)"/>
<path fill-rule="nonzero" fill="rgb(0%, 0%, 0%)" fill-opacity="1" d="M 40.976562 29.726562 C 40.96875 29.589844 41.167969 29.585938 41.167969 29.726562 L 41.167969 30.066406 L 40.976562 30.066406 L 40.976562 29.726562 "/>
<path fill-rule="nonzero" fill="rgb(0%, 0%, 0%)" fill-opacity="1" d="M 39.800781 30.21875 C 39.800781 30.085938 39.984375 30.082031 39.980469 30.21875 L 39.980469 30.480469 L 39.800781 30.480469 L 39.800781 30.21875 "/>
<path fill-rule="nonzero" fill="rgb(0%, 0%, 0%)" fill-opacity="1" d="M 42.148438 30.21875 C 42.148438 30.085938 42.332031 30.082031 42.332031 30.21875 L 42.332031 30.480469 L 42.148438 30.480469 L 42.148438 30.21875 "/>
<path fill-rule="nonzero" fill="rgb(100%, 91.372681%, 0%)" fill-opacity="1" d="M 40.15625 43 C 40.1875 41.78125 41.050781 41.492188 41.058594 41.488281 C 41.0625 41.484375 41.992188 41.800781 41.988281 43.011719 L 40.15625 43 "/>
<path fill-rule="nonzero" fill="rgb(100%, 91.372681%, 0%)" fill-opacity="1" stroke-width="0.12715" stroke-linecap="butt" stroke-linejoin="miter" stroke="rgb(0%, 0%, 0%)" stroke-opacity="1" stroke-miterlimit="10" d="M -24.507473 1.100224 L -24.656594 -0.308574 L -23.738325 -0.308574 C -23.730476 0.852998 -22.859297 1.049209 -22.835752 1.045285 C -22.816131 1.045285 -21.952801 0.786286 -21.929255 -0.308574 L -21.010986 -0.308574 L -21.175803 1.108073 Z M -24.507473 1.100224 " transform="matrix(0.995419, 0, 0, -0.995419, 63.805351, 42.606903)"/>
<path fill-rule="nonzero" fill="rgb(100%, 91.372681%, 0%)" fill-opacity="1" stroke-width="0.12715" stroke-linecap="butt" stroke-linejoin="miter" stroke="rgb(0%, 0%, 0%)" stroke-opacity="1" stroke-miterlimit="10" d="M -24.719382 -0.312498 L -20.959971 -0.312498 C -20.881486 -0.312498 -20.818699 -0.390982 -20.818699 -0.485164 C -20.818699 -0.58327 -20.881486 -0.661754 -20.959971 -0.661754 L -24.719382 -0.661754 C -24.797866 -0.661754 -24.864578 -0.58327 -24.864578 -0.485164 C -24.864578 -0.390982 -24.797866 -0.312498 -24.719382 -0.312498 Z M -24.719382 -0.312498 " transform="matrix(0.995419, 0, 0, -0.995419, 63.805351, 42.606903)"/>
<path fill-rule="nonzero" fill="rgb(100%, 91.372681%, 0%)" fill-opacity="1" stroke-width="0.12715" stroke-linecap="butt" stroke-linejoin="miter" stroke="rgb(0%, 0%, 0%)" stroke-opacity="1" stroke-miterlimit="10" d="M -23.35375 -0.304649 C -23.349826 0.429181 -22.851449 0.637165 -22.847525 0.637165 C -22.847525 0.637165 -22.329527 0.421333 -22.325602 -0.304649 L -23.35375 -0.304649 " transform="matrix(0.995419, 0, 0, -0.995419, 63.805351, 42.606903)"/>
<path fill-rule="nonzero" fill="rgb(100%, 91.372681%, 0%)" fill-opacity="1" stroke-width="0.12715" stroke-linecap="butt" stroke-linejoin="miter" stroke="rgb(0%, 0%, 0%)" stroke-opacity="1" stroke-miterlimit="10" d="M -24.640897 1.684934 L -21.038455 1.684934 C -20.959971 1.684934 -20.901107 1.614298 -20.901107 1.527965 C -20.901107 1.441632 -20.959971 1.370996 -21.038455 1.370996 L -24.640897 1.370996 C -24.715458 1.370996 -24.778245 1.441632 -24.778245 1.527965 C -24.778245 1.614298 -24.715458 1.684934 -24.640897 1.684934 Z M -24.640897 1.684934 " transform="matrix(0.995419, 0, 0, -0.995419, 63.805351, 42.606903)"/>
<path fill-rule="nonzero" fill="rgb(100%, 91.372681%, 0%)" fill-opacity="1" stroke-width="0.12715" stroke-linecap="butt" stroke-linejoin="miter" stroke="rgb(0%, 0%, 0%)" stroke-opacity="1" stroke-miterlimit="10" d="M -24.562413 1.370996 L -21.11694 1.370996 C -21.046304 1.370996 -20.987441 1.30036 -20.987441 1.214027 C -20.987441 1.127694 -21.046304 1.057058 -21.11694 1.057058 L -24.562413 1.057058 C -24.636973 1.057058 -24.695836 1.127694 -24.695836 1.214027 C -24.695836 1.30036 -24.636973 1.370996 -24.562413 1.370996 Z M -24.562413 1.370996 " transform="matrix(0.995419, 0, 0, -0.995419, 63.805351, 42.606903)"/>
<path fill-rule="nonzero" fill="rgb(100%, 91.372681%, 0%)" fill-opacity="1" stroke-width="0.12715" stroke-linecap="butt" stroke-linejoin="miter" stroke="rgb(0%, 0%, 0%)" stroke-opacity="1" stroke-miterlimit="10" d="M -23.451856 3.717685 L -23.17716 3.717685 L -23.17716 3.525398 L -22.980949 3.525398 L -22.980949 3.721609 L -22.702328 3.721609 L -22.702328 3.525398 L -22.502193 3.525398 L -22.502193 3.721609 L -22.223572 3.721609 L -22.223572 3.274247 C -22.223572 3.203611 -22.282436 3.160444 -22.345224 3.160444 L -23.322356 3.160444 C -23.389068 3.160444 -23.451856 3.211459 -23.451856 3.278171 Z M -23.451856 3.717685 " transform="matrix(0.995419, 0, 0, -0.995419, 63.805351, 42.606903)"/>
<path fill-rule="nonzero" fill="rgb(100%, 91.372681%, 0%)" fill-opacity="1" stroke-width="0.12715" stroke-linecap="butt" stroke-linejoin="miter" stroke="rgb(0%, 0%, 0%)" stroke-opacity="1" stroke-miterlimit="10" d="M -22.427632 3.121202 L -22.364845 1.688859 L -23.318432 1.692783 L -23.255645 3.125126 L -22.427632 3.121202 " transform="matrix(0.995419, 0, 0, -0.995419, 63.805351, 42.606903)"/>
<path fill-rule="nonzero" fill="rgb(100%, 91.372681%, 0%)" fill-opacity="1" stroke-width="0.12715" stroke-linecap="butt" stroke-linejoin="miter" stroke="rgb(0%, 0%, 0%)" stroke-opacity="1" stroke-miterlimit="10" d="M -23.589204 2.458007 L -23.561734 1.688859 L -24.47608 1.684934 L -24.44861 2.458007 Z M -23.589204 2.458007 " transform="matrix(0.995419, 0, 0, -0.995419, 63.805351, 42.606903)"/>
<path fill-rule="nonzero" fill="rgb(100%, 91.372681%, 0%)" fill-opacity="1" stroke-width="0.12715" stroke-linecap="butt" stroke-linejoin="miter" stroke="rgb(0%, 0%, 0%)" stroke-opacity="1" stroke-miterlimit="10" d="M -21.238591 2.458007 L -21.207197 1.688859 L -22.125467 1.684934 L -22.097997 2.458007 Z M -21.238591 2.458007 " transform="matrix(0.995419, 0, 0, -0.995419, 63.805351, 42.606903)"/>
<path fill-rule="nonzero" fill="rgb(100%, 91.372681%, 0%)" fill-opacity="1" stroke-width="0.12715" stroke-linecap="butt" stroke-linejoin="miter" stroke="rgb(0%, 0%, 0%)" stroke-opacity="1" stroke-miterlimit="10" d="M -24.617352 3.015248 L -24.354429 3.015248 L -24.354429 2.822961 L -24.158217 2.822961 L -24.158217 3.019172 L -23.887445 3.019172 L -23.887445 2.822961 L -23.691234 2.822961 L -23.691234 3.019172 L -23.416538 3.019172 L -23.420462 2.575734 C -23.420462 2.505098 -23.475401 2.458007 -23.538189 2.458007 L -24.495701 2.458007 C -24.558488 2.458007 -24.617352 2.512947 -24.617352 2.575734 L -24.621276 3.015248 Z M -24.617352 3.015248 " transform="matrix(0.995419, 0, 0, -0.995419, 63.805351, 42.606903)"/>
<path fill-rule="nonzero" fill="rgb(100%, 91.372681%, 0%)" fill-opacity="1" stroke-width="0.12715" stroke-linecap="butt" stroke-linejoin="miter" stroke="rgb(0%, 0%, 0%)" stroke-opacity="1" stroke-miterlimit="10" d="M -22.266739 3.015248 L -21.999891 3.015248 L -21.999891 2.822961 L -21.807604 2.822961 L -21.807604 3.019172 L -21.532908 3.019172 L -21.532908 2.822961 L -21.340621 2.822961 L -21.340621 3.019172 L -21.065925 3.019172 L -21.065925 2.575734 C -21.065925 2.505098 -21.120864 2.458007 -21.183652 2.458007 L -22.141164 2.458007 C -22.207876 2.458007 -22.266739 2.512947 -22.266739 2.575734 Z M -22.266739 3.015248 " transform="matrix(0.995419, 0, 0, -0.995419, 63.805351, 42.606903)"/>
<path fill-rule="nonzero" fill="rgb(0%, 0%, 0%)" fill-opacity="1" d="M 40.976562 39.949219 C 40.96875 39.8125 41.167969 39.808594 41.167969 39.949219 L 41.167969 40.289062 L 40.976562 40.289062 L 40.976562 39.949219 "/>
<path fill-rule="nonzero" fill="rgb(0%, 0%, 0%)" fill-opacity="1" d="M 39.800781 40.441406 C 39.800781 40.308594 39.984375 40.304688 39.980469 40.441406 L 39.980469 40.703125 L 39.800781 40.703125 L 39.800781 40.441406 "/>
<path fill-rule="nonzero" fill="rgb(0%, 0%, 0%)" fill-opacity="1" d="M 42.148438 40.441406 C 42.148438 40.308594 42.332031 40.304688 42.332031 40.441406 L 42.332031 40.703125 L 42.148438 40.703125 L 42.148438 40.441406 "/>
<path fill-rule="nonzero" fill="rgb(100%, 91.372681%, 0%)" fill-opacity="1" d="M 44.144531 53.640625 C 43.300781 52.761719 43.707031 51.945312 43.707031 51.9375 C 43.707031 51.929688 44.585938 51.492188 45.441406 52.347656 L 44.144531 53.640625 "/>
<path fill-rule="nonzero" fill="rgb(100%, 91.372681%, 0%)" fill-opacity="1" stroke-width="0.12715" stroke-linecap="butt" stroke-linejoin="miter" stroke="rgb(0%, 0%, 0%)" stroke-opacity="1" stroke-miterlimit="10" d="M -21.340621 -10.562583 L -20.445897 -11.661367 L -19.798399 -11.009945 C -20.618563 -10.185857 -20.143731 -9.428481 -20.12411 -9.416708 C -20.112338 -9.404935 -19.319643 -8.97327 -18.523025 -9.726722 L -17.875527 -9.0753 L -18.997857 -8.192349 Z M -21.340621 -10.562583 " transform="matrix(0.995419, 0, 0, -0.995419, 63.805351, 42.606903)"/>
<path fill-rule="nonzero" fill="rgb(100%, 91.372681%, 0%)" fill-opacity="1" stroke-width="0.12715" stroke-linecap="butt" stroke-linejoin="miter" stroke="rgb(0%, 0%, 0%)" stroke-opacity="1" stroke-miterlimit="10" d="M -20.489064 -11.708457 L -17.840209 -9.043906 C -17.78527 -8.988967 -17.68324 -8.996815 -17.616528 -9.063527 C -17.545892 -9.130239 -17.538044 -9.232269 -17.592983 -9.287208 L -20.241837 -11.955684 C -20.296776 -12.010623 -20.398806 -12.002774 -20.465518 -11.936063 C -20.53223 -11.865426 -20.544003 -11.767321 -20.489064 -11.708457 Z M -20.489064 -11.708457 " transform="matrix(0.995419, 0, 0, -0.995419, 63.805351, 42.606903)"/>
<path fill-rule="nonzero" fill="rgb(100%, 91.372681%, 0%)" fill-opacity="1" stroke-width="0.12715" stroke-linecap="butt" stroke-linejoin="miter" stroke="rgb(0%, 0%, 0%)" stroke-opacity="1" stroke-miterlimit="10" d="M -19.531552 -10.735249 C -20.04955 -10.21725 -19.84549 -9.714949 -19.841566 -9.714949 C -19.841566 -9.714949 -19.323568 -9.495192 -18.80557 -10.005342 L -19.531552 -10.735249 " transform="matrix(0.995419, 0, 0, -0.995419, 63.805351, 42.606903)"/>
<path fill-rule="nonzero" fill="rgb(100%, 91.372681%, 0%)" fill-opacity="1" stroke-width="0.12715" stroke-linecap="butt" stroke-linejoin="miter" stroke="rgb(0%, 0%, 0%)" stroke-opacity="1" stroke-miterlimit="10" d="M -21.846847 -10.24472 L -19.311795 -7.690047 C -19.256856 -7.635108 -19.162674 -7.642957 -19.103811 -7.70182 C -19.041023 -7.760683 -19.037099 -7.854865 -19.088114 -7.909804 L -21.62709 -10.464477 C -21.682029 -10.519416 -21.772286 -10.515492 -21.835074 -10.452704 C -21.893937 -10.393841 -21.901786 -10.299659 -21.846847 -10.24472 Z M -21.846847 -10.24472 " transform="matrix(0.995419, 0, 0, -0.995419, 63.805351, 42.606903)"/>
<path fill-rule="nonzero" fill="rgb(100%, 91.372681%, 0%)" fill-opacity="1" stroke-width="0.12715" stroke-linecap="butt" stroke-linejoin="miter" stroke="rgb(0%, 0%, 0%)" stroke-opacity="1" stroke-miterlimit="10" d="M -21.572151 -10.413462 L -19.143053 -7.968668 C -19.092038 -7.917653 -19.001781 -7.925501 -18.938993 -7.984364 C -18.88013 -8.047152 -18.872281 -8.137409 -18.923296 -8.188424 L -21.34847 -10.633219 C -21.403409 -10.684234 -21.493666 -10.676385 -21.552529 -10.617522 C -21.615317 -10.558658 -21.623166 -10.464477 -21.572151 -10.413462 Z M -21.572151 -10.413462 " transform="matrix(0.995419, 0, 0, -0.995419, 63.805351, 42.606903)"/>
<path fill-rule="nonzero" fill="rgb(100%, 91.372681%, 0%)" fill-opacity="1" stroke-width="0.12715" stroke-linecap="butt" stroke-linejoin="miter" stroke="rgb(0%, 0%, 0%)" stroke-opacity="1" stroke-miterlimit="10" d="M -22.455102 -7.968668 L -22.262815 -7.77638 L -22.125467 -7.913728 L -21.984195 -7.772456 L -22.125467 -7.631184 L -21.929255 -7.434973 L -21.787983 -7.576245 L -21.646711 -7.434973 L -21.787983 -7.2937 L -21.591772 -7.097489 L -21.273909 -7.411427 C -21.226818 -7.458518 -21.234667 -7.533078 -21.277833 -7.580169 L -21.968498 -8.270833 C -22.015588 -8.317924 -22.094073 -8.325772 -22.141164 -8.278682 Z M -22.455102 -7.968668 " transform="matrix(0.995419, 0, 0, -0.995419, 63.805351, 42.606903)"/>
<path fill-rule="nonzero" fill="rgb(100%, 91.372681%, 0%)" fill-opacity="1" stroke-width="0.12715" stroke-linecap="butt" stroke-linejoin="miter" stroke="rgb(0%, 0%, 0%)" stroke-opacity="1" stroke-miterlimit="10" d="M -21.309227 -7.662578 L -20.249686 -8.627938 L -20.924653 -9.302905 L -21.897862 -8.247288 L -21.309227 -7.662578 " transform="matrix(0.995419, 0, 0, -0.995419, 63.805351, 42.606903)"/>
<path fill-rule="nonzero" fill="rgb(100%, 91.372681%, 0%)" fill-opacity="1" stroke-width="0.12715" stroke-linecap="butt" stroke-linejoin="miter" stroke="rgb(0%, 0%, 0%)" stroke-opacity="1" stroke-miterlimit="10" d="M -21.658484 -8.957573 L -21.08947 -9.479496 L -21.736968 -10.126993 L -22.262815 -9.565829 Z M -21.658484 -8.957573 " transform="matrix(0.995419, 0, 0, -0.995419, 63.805351, 42.606903)"/>
<path fill-rule="nonzero" fill="rgb(100%, 91.372681%, 0%)" fill-opacity="1" stroke-width="0.12715" stroke-linecap="butt" stroke-linejoin="miter" stroke="rgb(0%, 0%, 0%)" stroke-opacity="1" stroke-miterlimit="10" d="M -20.002459 -7.285852 L -19.433446 -7.807774 L -20.07702 -8.459196 L -20.60679 -7.898031 Z M -20.002459 -7.285852 " transform="matrix(0.995419, 0, 0, -0.995419, 63.805351, 42.606903)"/>
<path fill-rule="nonzero" fill="rgb(100%, 91.372681%, 0%)" fill-opacity="1" stroke-width="0.12715" stroke-linecap="butt" stroke-linejoin="miter" stroke="rgb(0%, 0%, 0%)" stroke-opacity="1" stroke-miterlimit="10" d="M -22.780813 -9.291133 L -22.59245 -9.10277 L -22.455102 -9.240118 L -22.317754 -9.10277 L -22.459026 -8.961497 L -22.266739 -8.76921 L -22.125467 -8.910482 L -21.988119 -8.76921 L -22.129391 -8.631862 L -21.937104 -8.439575 L -21.619241 -8.753513 C -21.572151 -8.800604 -21.576075 -8.87124 -21.623166 -8.918331 L -22.298133 -9.597222 C -22.341299 -9.644313 -22.419784 -9.648237 -22.466875 -9.601147 Z M -22.780813 -9.291133 " transform="matrix(0.995419, 0, 0, -0.995419, 63.805351, 42.606903)"/>
<path fill-rule="nonzero" fill="rgb(100%, 91.372681%, 0%)" fill-opacity="1" stroke-width="0.12715" stroke-linecap="butt" stroke-linejoin="miter" stroke="rgb(0%, 0%, 0%)" stroke-opacity="1" stroke-miterlimit="10" d="M -21.120864 -7.623335 L -20.936426 -7.434973 L -20.799078 -7.572321 L -20.66173 -7.434973 L -20.799078 -7.2937 L -20.60679 -7.101413 L -20.469442 -7.238761 L -20.332094 -7.101413 L -20.469442 -6.964065 L -20.277155 -6.767854 L -19.963217 -7.081792 C -19.912202 -7.132807 -19.92005 -7.203443 -19.963217 -7.250534 L -20.638184 -7.929425 C -20.685275 -7.972592 -20.763759 -7.98044 -20.81085 -7.93335 Z M -21.120864 -7.623335 " transform="matrix(0.995419, 0, 0, -0.995419, 63.805351, 42.606903)"/>
<path fill-rule="nonzero" fill="rgb(0%, 0%, 0%)" fill-opacity="1" d="M 42.558594 50.910156 C 42.457031 50.816406 42.59375 50.675781 42.691406 50.773438 L 42.933594 51.015625 L 42.796875 51.148438 L 42.558594 50.910156 "/>
<path fill-rule="nonzero" fill="rgb(0%, 0%, 0%)" fill-opacity="1" d="M 42.078125 52.09375 C 41.984375 52 42.109375 51.863281 42.207031 51.960938 L 42.390625 52.148438 L 42.265625 52.277344 L 42.078125 52.09375 "/>
<path fill-rule="nonzero" fill="rgb(0%, 0%, 0%)" fill-opacity="1" d="M 43.734375 50.425781 C 43.636719 50.332031 43.765625 50.199219 43.859375 50.296875 L 44.046875 50.480469 L 43.917969 50.609375 L 43.734375 50.425781 "/>
<path fill-rule="nonzero" fill="rgb(100%, 91.372681%, 0%)" fill-opacity="1" d="M 62.097656 32.777344 C 62.066406 31.558594 61.203125 31.269531 61.199219 31.265625 C 61.191406 31.261719 60.261719 31.578125 60.265625 32.789062 L 62.097656 32.777344 "/>
<path fill-rule="nonzero" fill="rgb(100%, 91.372681%, 0%)" fill-opacity="1" stroke-width="0.12715" stroke-linecap="butt" stroke-linejoin="miter" stroke="rgb(0%, 0%, 0%)" stroke-opacity="1" stroke-miterlimit="10" d="M -0.966027 11.36993 L -0.812982 9.961132 L -1.731252 9.961132 C -1.743024 11.122704 -2.614203 11.318915 -2.633824 11.314991 C -2.653445 11.314991 -3.5207 11.055992 -3.544245 9.961132 L -4.462515 9.961132 L -4.297697 11.377779 Z M -0.966027 11.36993 " transform="matrix(0.995419, 0, 0, -0.995419, 63.805351, 42.606903)"/>
<path fill-rule="nonzero" fill="rgb(100%, 91.372681%, 0%)" fill-opacity="1" stroke-width="0.12715" stroke-linecap="butt" stroke-linejoin="miter" stroke="rgb(0%, 0%, 0%)" stroke-opacity="1" stroke-miterlimit="10" d="M -0.754119 9.957208 L -4.509605 9.957208 C -4.58809 9.957208 -4.654802 9.878723 -4.654802 9.784542 C -4.654802 9.686436 -4.58809 9.607952 -4.509605 9.607952 L -0.754119 9.607952 C -0.675634 9.607952 -0.608922 9.686436 -0.608922 9.784542 C -0.608922 9.878723 -0.675634 9.957208 -0.754119 9.957208 Z M -0.754119 9.957208 " transform="matrix(0.995419, 0, 0, -0.995419, 63.805351, 42.606903)"/>
<path fill-rule="nonzero" fill="rgb(100%, 91.372681%, 0%)" fill-opacity="1" stroke-width="0.12715" stroke-linecap="butt" stroke-linejoin="miter" stroke="rgb(0%, 0%, 0%)" stroke-opacity="1" stroke-miterlimit="10" d="M -2.11975 9.965056 C -2.123674 10.698887 -2.622051 10.906871 -2.622051 10.906871 C -2.622051 10.906871 -3.143974 10.691039 -3.147898 9.965056 L -2.11975 9.965056 " transform="matrix(0.995419, 0, 0, -0.995419, 63.805351, 42.606903)"/>
<path fill-rule="nonzero" fill="rgb(100%, 91.372681%, 0%)" fill-opacity="1" stroke-width="0.12715" stroke-linecap="butt" stroke-linejoin="miter" stroke="rgb(0%, 0%, 0%)" stroke-opacity="1" stroke-miterlimit="10" d="M -0.832603 11.95464 L -4.435045 11.95464 C -4.509605 11.95464 -4.572393 11.884004 -4.572393 11.797671 C -4.572393 11.711338 -4.509605 11.640702 -4.435045 11.640702 L -0.832603 11.640702 C -0.758043 11.640702 -0.695255 11.711338 -0.695255 11.797671 C -0.695255 11.884004 -0.758043 11.95464 -0.832603 11.95464 Z M -0.832603 11.95464 " transform="matrix(0.995419, 0, 0, -0.995419, 63.805351, 42.606903)"/>
<path fill-rule="nonzero" fill="rgb(100%, 91.372681%, 0%)" fill-opacity="1" stroke-width="0.12715" stroke-linecap="butt" stroke-linejoin="miter" stroke="rgb(0%, 0%, 0%)" stroke-opacity="1" stroke-miterlimit="10" d="M -0.907164 11.640702 L -4.352636 11.640702 C -4.427196 11.640702 -4.48606 11.570066 -4.48606 11.483733 C -4.48606 11.3974 -4.427196 11.326764 -4.352636 11.326764 L -0.907164 11.326764 C -0.836527 11.326764 -0.777664 11.3974 -0.777664 11.483733 C -0.777664 11.570066 -0.836527 11.640702 -0.907164 11.640702 Z M -0.907164 11.640702 " transform="matrix(0.995419, 0, 0, -0.995419, 63.805351, 42.606903)"/>
<path fill-rule="nonzero" fill="rgb(100%, 91.372681%, 0%)" fill-opacity="1" stroke-width="0.12715" stroke-linecap="butt" stroke-linejoin="miter" stroke="rgb(0%, 0%, 0%)" stroke-opacity="1" stroke-miterlimit="10" d="M -2.021644 13.987391 L -2.292416 13.987391 L -2.292416 13.795103 L -2.492552 13.795103 L -2.492552 13.991315 L -2.771172 13.991315 L -2.771172 13.795103 L -2.967384 13.795103 L -2.967384 13.991315 L -3.249928 13.991315 L -3.246004 13.543953 C -3.246004 13.473317 -3.191065 13.43015 -3.124353 13.43015 L -2.14722 13.43015 C -2.080508 13.43015 -2.021644 13.481165 -2.021644 13.547877 Z M -2.021644 13.987391 " transform="matrix(0.995419, 0, 0, -0.995419, 63.805351, 42.606903)"/>
<path fill-rule="nonzero" fill="rgb(100%, 91.372681%, 0%)" fill-opacity="1" stroke-width="0.12715" stroke-linecap="butt" stroke-linejoin="miter" stroke="rgb(0%, 0%, 0%)" stroke-opacity="1" stroke-miterlimit="10" d="M -3.045868 13.390908 L -3.108656 11.962489 L -2.151144 11.962489 L -2.217856 13.394832 L -3.045868 13.390908 " transform="matrix(0.995419, 0, 0, -0.995419, 63.805351, 42.606903)"/>
<path fill-rule="nonzero" fill="rgb(100%, 91.372681%, 0%)" fill-opacity="1" stroke-width="0.12715" stroke-linecap="butt" stroke-linejoin="miter" stroke="rgb(0%, 0%, 0%)" stroke-opacity="1" stroke-miterlimit="10" d="M -1.880372 12.727713 L -1.911766 11.958564 L -0.997421 11.958564 L -1.020966 12.727713 Z M -1.880372 12.727713 " transform="matrix(0.995419, 0, 0, -0.995419, 63.805351, 42.606903)"/>
<path fill-rule="nonzero" fill="rgb(100%, 91.372681%, 0%)" fill-opacity="1" stroke-width="0.12715" stroke-linecap="butt" stroke-linejoin="miter" stroke="rgb(0%, 0%, 0%)" stroke-opacity="1" stroke-miterlimit="10" d="M -4.234909 12.727713 L -4.262379 11.958564 L -3.348034 11.958564 L -3.375503 12.727713 Z M -4.234909 12.727713 " transform="matrix(0.995419, 0, 0, -0.995419, 63.805351, 42.606903)"/>
<path fill-rule="nonzero" fill="rgb(100%, 91.372681%, 0%)" fill-opacity="1" stroke-width="0.12715" stroke-linecap="butt" stroke-linejoin="miter" stroke="rgb(0%, 0%, 0%)" stroke-opacity="1" stroke-miterlimit="10" d="M -0.852224 13.288878 L -1.119072 13.284954 L -1.119072 13.092666 L -1.311359 13.092666 L -1.311359 13.288878 L -1.586055 13.288878 L -1.586055 13.092666 L -1.782267 13.092666 L -1.782267 13.288878 L -2.053038 13.288878 L -2.053038 12.84544 C -2.053038 12.774804 -1.998099 12.727713 -1.935311 12.727713 L -0.9778 12.727713 C -0.911088 12.727713 -0.852224 12.782652 -0.852224 12.84544 Z M -0.852224 13.288878 " transform="matrix(0.995419, 0, 0, -0.995419, 63.805351, 42.606903)"/>
<path fill-rule="nonzero" fill="rgb(100%, 91.372681%, 0%)" fill-opacity="1" stroke-width="0.12715" stroke-linecap="butt" stroke-linejoin="miter" stroke="rgb(0%, 0%, 0%)" stroke-opacity="1" stroke-miterlimit="10" d="M -3.206761 13.288878 L -3.469685 13.284954 L -3.469685 13.092666 L -3.665896 13.092666 L -3.665896 13.288878 L -3.936668 13.288878 L -3.936668 13.092666 L -4.132879 13.092666 L -4.132879 13.288878 L -4.407575 13.288878 L -4.403651 12.84544 C -4.403651 12.774804 -4.348712 12.727713 -4.285924 12.727713 L -3.328413 12.727713 C -3.265625 12.727713 -3.206761 12.782652 -3.206761 12.84544 L -3.202837 13.284954 L -3.206761 13.284954 Z M -3.206761 13.288878 " transform="matrix(0.995419, 0, 0, -0.995419, 63.805351, 42.606903)"/>
<path fill-rule="nonzero" fill="rgb(0%, 0%, 0%)" fill-opacity="1" d="M 61.277344 29.726562 C 61.285156 29.589844 61.085938 29.585938 61.089844 29.726562 L 61.089844 30.066406 L 61.277344 30.066406 L 61.277344 29.726562 "/>
<path fill-rule="nonzero" fill="rgb(0%, 0%, 0%)" fill-opacity="1" d="M 62.457031 30.21875 C 62.457031 30.085938 62.269531 30.082031 62.273438 30.21875 L 62.273438 30.480469 L 62.457031 30.480469 L 62.457031 30.21875 "/>
<path fill-rule="nonzero" fill="rgb(0%, 0%, 0%)" fill-opacity="1" d="M 60.105469 30.21875 C 60.109375 30.085938 59.921875 30.082031 59.925781 30.21875 L 59.925781 30.480469 L 60.105469 30.480469 L 60.105469 30.21875 "/>
<path fill-rule="nonzero" fill="rgb(100%, 91.372681%, 0%)" fill-opacity="1" d="M 62.097656 43 C 62.066406 41.78125 61.203125 41.492188 61.199219 41.488281 C 61.191406 41.484375 60.261719 41.800781 60.265625 43.011719 L 62.097656 43 "/>
<path fill-rule="nonzero" fill="rgb(100%, 91.372681%, 0%)" fill-opacity="1" stroke-width="0.12715" stroke-linecap="butt" stroke-linejoin="miter" stroke="rgb(0%, 0%, 0%)" stroke-opacity="1" stroke-miterlimit="10" d="M -0.966027 1.100224 L -0.812982 -0.308574 L -1.731252 -0.308574 C -1.743024 0.852998 -2.614203 1.049209 -2.633824 1.045285 C -2.653445 1.045285 -3.5207 0.786286 -3.544245 -0.308574 L -4.462515 -0.308574 L -4.297697 1.108073 Z M -0.966027 1.100224 " transform="matrix(0.995419, 0, 0, -0.995419, 63.805351, 42.606903)"/>
<path fill-rule="nonzero" fill="rgb(100%, 91.372681%, 0%)" fill-opacity="1" stroke-width="0.12715" stroke-linecap="butt" stroke-linejoin="miter" stroke="rgb(0%, 0%, 0%)" stroke-opacity="1" stroke-miterlimit="10" d="M -0.754119 -0.312498 L -4.509605 -0.312498 C -4.58809 -0.312498 -4.654802 -0.390982 -4.654802 -0.485164 C -4.654802 -0.58327 -4.58809 -0.661754 -4.509605 -0.661754 L -0.754119 -0.661754 C -0.675634 -0.661754 -0.608922 -0.58327 -0.608922 -0.485164 C -0.608922 -0.390982 -0.675634 -0.312498 -0.754119 -0.312498 Z M -0.754119 -0.312498 " transform="matrix(0.995419, 0, 0, -0.995419, 63.805351, 42.606903)"/>
<path fill-rule="nonzero" fill="rgb(100%, 91.372681%, 0%)" fill-opacity="1" stroke-width="0.12715" stroke-linecap="butt" stroke-linejoin="miter" stroke="rgb(0%, 0%, 0%)" stroke-opacity="1" stroke-miterlimit="10" d="M -2.11975 -0.304649 C -2.123674 0.429181 -2.622051 0.637165 -2.622051 0.637165 C -2.622051 0.637165 -3.143974 0.421333 -3.147898 -0.304649 L -2.11975 -0.304649 " transform="matrix(0.995419, 0, 0, -0.995419, 63.805351, 42.606903)"/>
<path fill-rule="nonzero" fill="rgb(100%, 91.372681%, 0%)" fill-opacity="1" stroke-width="0.12715" stroke-linecap="butt" stroke-linejoin="miter" stroke="rgb(0%, 0%, 0%)" stroke-opacity="1" stroke-miterlimit="10" d="M -0.832603 1.684934 L -4.435045 1.684934 C -4.509605 1.684934 -4.572393 1.614298 -4.572393 1.527965 C -4.572393 1.441632 -4.509605 1.370996 -4.435045 1.370996 L -0.832603 1.370996 C -0.758043 1.370996 -0.695255 1.441632 -0.695255 1.527965 C -0.695255 1.614298 -0.758043 1.684934 -0.832603 1.684934 Z M -0.832603 1.684934 " transform="matrix(0.995419, 0, 0, -0.995419, 63.805351, 42.606903)"/>
<path fill-rule="nonzero" fill="rgb(100%, 91.372681%, 0%)" fill-opacity="1" stroke-width="0.12715" stroke-linecap="butt" stroke-linejoin="miter" stroke="rgb(0%, 0%, 0%)" stroke-opacity="1" stroke-miterlimit="10" d="M -0.907164 1.370996 L -4.352636 1.370996 C -4.427196 1.370996 -4.48606 1.30036 -4.48606 1.214027 C -4.48606 1.127694 -4.427196 1.057058 -4.352636 1.057058 L -0.907164 1.057058 C -0.836527 1.057058 -0.777664 1.127694 -0.777664 1.214027 C -0.777664 1.30036 -0.836527 1.370996 -0.907164 1.370996 Z M -0.907164 1.370996 " transform="matrix(0.995419, 0, 0, -0.995419, 63.805351, 42.606903)"/>
<path fill-rule="nonzero" fill="rgb(100%, 91.372681%, 0%)" fill-opacity="1" stroke-width="0.12715" stroke-linecap="butt" stroke-linejoin="miter" stroke="rgb(0%, 0%, 0%)" stroke-opacity="1" stroke-miterlimit="10" d="M -2.021644 3.717685 L -2.292416 3.717685 L -2.292416 3.525398 L -2.492552 3.525398 L -2.492552 3.721609 L -2.771172 3.721609 L -2.771172 3.525398 L -2.967384 3.525398 L -2.967384 3.721609 L -3.249928 3.721609 L -3.246004 3.274247 C -3.246004 3.203611 -3.191065 3.160444 -3.124353 3.160444 L -2.14722 3.160444 C -2.080508 3.160444 -2.021644 3.211459 -2.021644 3.278171 Z M -2.021644 3.717685 " transform="matrix(0.995419, 0, 0, -0.995419, 63.805351, 42.606903)"/>
<path fill-rule="nonzero" fill="rgb(100%, 91.372681%, 0%)" fill-opacity="1" stroke-width="0.12715" stroke-linecap="butt" stroke-linejoin="miter" stroke="rgb(0%, 0%, 0%)" stroke-opacity="1" stroke-miterlimit="10" d="M -3.045868 3.121202 L -3.108656 1.688859 L -2.151144 1.692783 L -2.217856 3.125126 L -3.045868 3.121202 " transform="matrix(0.995419, 0, 0, -0.995419, 63.805351, 42.606903)"/>
<path fill-rule="nonzero" fill="rgb(100%, 91.372681%, 0%)" fill-opacity="1" stroke-width="0.12715" stroke-linecap="butt" stroke-linejoin="miter" stroke="rgb(0%, 0%, 0%)" stroke-opacity="1" stroke-miterlimit="10" d="M -1.880372 2.458007 L -1.911766 1.688859 L -0.997421 1.684934 L -1.020966 2.458007 Z M -1.880372 2.458007 " transform="matrix(0.995419, 0, 0, -0.995419, 63.805351, 42.606903)"/>
<path fill-rule="nonzero" fill="rgb(100%, 91.372681%, 0%)" fill-opacity="1" stroke-width="0.12715" stroke-linecap="butt" stroke-linejoin="miter" stroke="rgb(0%, 0%, 0%)" stroke-opacity="1" stroke-miterlimit="10" d="M -4.234909 2.458007 L -4.262379 1.688859 L -3.348034 1.684934 L -3.375503 2.458007 Z M -4.234909 2.458007 " transform="matrix(0.995419, 0, 0, -0.995419, 63.805351, 42.606903)"/>
<path fill-rule="nonzero" fill="rgb(100%, 91.372681%, 0%)" fill-opacity="1" stroke-width="0.12715" stroke-linecap="butt" stroke-linejoin="miter" stroke="rgb(0%, 0%, 0%)" stroke-opacity="1" stroke-miterlimit="10" d="M -0.852224 3.015248 L -1.119072 3.015248 L -1.119072 2.822961 L -1.311359 2.822961 L -1.311359 3.019172 L -1.586055 3.019172 L -1.586055 2.822961 L -1.782267 2.822961 L -1.782267 3.019172 L -2.053038 3.019172 L -2.053038 2.575734 C -2.053038 2.505098 -1.998099 2.458007 -1.935311 2.458007 L -0.9778 2.458007 C -0.911088 2.458007 -0.852224 2.512947 -0.852224 2.575734 Z M -0.852224 3.015248 " transform="matrix(0.995419, 0, 0, -0.995419, 63.805351, 42.606903)"/>
<path fill-rule="nonzero" fill="rgb(100%, 91.372681%, 0%)" fill-opacity="1" stroke-width="0.12715" stroke-linecap="butt" stroke-linejoin="miter" stroke="rgb(0%, 0%, 0%)" stroke-opacity="1" stroke-miterlimit="10" d="M -3.206761 3.015248 L -3.469685 3.015248 L -3.469685 2.822961 L -3.665896 2.822961 L -3.665896 3.019172 L -3.936668 3.019172 L -3.936668 2.822961 L -4.132879 2.822961 L -4.132879 3.019172 L -4.407575 3.019172 L -4.403651 2.575734 C -4.403651 2.505098 -4.348712 2.458007 -4.285924 2.458007 L -3.328413 2.458007 C -3.265625 2.458007 -3.206761 2.512947 -3.206761 2.575734 L -3.202837 3.015248 Z M -3.206761 3.015248 " transform="matrix(0.995419, 0, 0, -0.995419, 63.805351, 42.606903)"/>
<path fill-rule="nonzero" fill="rgb(0%, 0%, 0%)" fill-opacity="1" d="M 61.277344 39.949219 C 61.285156 39.8125 61.085938 39.808594 61.089844 39.949219 L 61.089844 40.289062 L 61.277344 40.289062 L 61.277344 39.949219 "/>
<path fill-rule="nonzero" fill="rgb(0%, 0%, 0%)" fill-opacity="1" d="M 62.457031 40.441406 C 62.457031 40.308594 62.269531 40.304688 62.273438 40.441406 L 62.273438 40.703125 L 62.457031 40.703125 L 62.457031 40.441406 "/>
<path fill-rule="nonzero" fill="rgb(0%, 0%, 0%)" fill-opacity="1" d="M 60.105469 40.441406 C 60.109375 40.308594 59.921875 40.304688 59.925781 40.441406 L 59.925781 40.703125 L 60.105469 40.703125 L 60.105469 40.441406 "/>
<path fill-rule="nonzero" fill="rgb(100%, 91.372681%, 0%)" fill-opacity="1" d="M 58.109375 53.640625 C 58.953125 52.761719 58.550781 51.945312 58.546875 51.9375 C 58.546875 51.929688 57.671875 51.492188 56.8125 52.347656 L 58.109375 53.640625 "/>
<path fill-rule="nonzero" fill="rgb(100%, 91.372681%, 0%)" fill-opacity="1" stroke-width="0.12715" stroke-linecap="butt" stroke-linejoin="miter" stroke="rgb(0%, 0%, 0%)" stroke-opacity="1" stroke-miterlimit="10" d="M -4.132879 -10.562583 L -5.023679 -11.661367 L -5.671177 -11.009945 C -4.851013 -10.185857 -5.329769 -9.428481 -5.34939 -9.416708 C -5.361163 -9.404935 -6.153857 -8.97327 -6.946551 -9.726722 L -7.594049 -9.0753 L -6.47172 -8.192349 Z M -4.132879 -10.562583 " transform="matrix(0.995419, 0, 0, -0.995419, 63.805351, 42.606903)"/>
<path fill-rule="nonzero" fill="rgb(100%, 91.372681%, 0%)" fill-opacity="1" stroke-width="0.12715" stroke-linecap="butt" stroke-linejoin="miter" stroke="rgb(0%, 0%, 0%)" stroke-opacity="1" stroke-miterlimit="10" d="M -4.984437 -11.708457 L -7.633291 -9.043906 C -7.68823 -8.988967 -7.79026 -8.996815 -7.856972 -9.063527 C -7.923684 -9.130239 -7.935457 -9.232269 -7.876593 -9.287208 L -5.231663 -11.955684 C -5.176724 -12.010623 -5.074694 -12.002774 -5.007982 -11.936063 C -4.937346 -11.865426 -4.929498 -11.767321 -4.984437 -11.708457 Z M -4.984437 -11.708457 " transform="matrix(0.995419, 0, 0, -0.995419, 63.805351, 42.606903)"/>
<path fill-rule="nonzero" fill="rgb(100%, 91.372681%, 0%)" fill-opacity="1" stroke-width="0.12715" stroke-linecap="butt" stroke-linejoin="miter" stroke="rgb(0%, 0%, 0%)" stroke-opacity="1" stroke-miterlimit="10" d="M -5.941949 -10.735249 C -5.423951 -10.21725 -5.62801 -9.714949 -5.62801 -9.714949 C -5.62801 -9.714949 -6.146009 -9.495192 -6.667931 -10.005342 L -5.941949 -10.735249 " transform="matrix(0.995419, 0, 0, -0.995419, 63.805351, 42.606903)"/>
<path fill-rule="nonzero" fill="rgb(100%, 91.372681%, 0%)" fill-opacity="1" stroke-width="0.12715" stroke-linecap="butt" stroke-linejoin="miter" stroke="rgb(0%, 0%, 0%)" stroke-opacity="1" stroke-miterlimit="10" d="M -3.62273 -10.24472 L -6.161705 -7.690047 C -6.21272 -7.635108 -6.306902 -7.642957 -6.36969 -7.70182 C -6.428553 -7.760683 -6.436401 -7.854865 -6.381462 -7.909804 L -3.846411 -10.464477 C -3.791471 -10.519416 -3.69729 -10.515492 -3.638427 -10.452704 C -3.575639 -10.393841 -3.571715 -10.299659 -3.62273 -10.24472 Z M -3.62273 -10.24472 " transform="matrix(0.995419, 0, 0, -0.995419, 63.805351, 42.606903)"/>
<path fill-rule="nonzero" fill="rgb(100%, 91.372681%, 0%)" fill-opacity="1" stroke-width="0.12715" stroke-linecap="butt" stroke-linejoin="miter" stroke="rgb(0%, 0%, 0%)" stroke-opacity="1" stroke-miterlimit="10" d="M -3.90135 -10.413462 L -6.326523 -7.968668 C -6.377538 -7.917653 -6.47172 -7.925501 -6.530583 -7.984364 C -6.593371 -8.047152 -6.601219 -8.137409 -6.550204 -8.188424 L -4.121107 -10.633219 C -4.070092 -10.684234 -3.979834 -10.676385 -3.917047 -10.617522 C -3.858183 -10.558658 -3.850335 -10.464477 -3.90135 -10.413462 Z M -3.90135 -10.413462 " transform="matrix(0.995419, 0, 0, -0.995419, 63.805351, 42.606903)"/>
<path fill-rule="nonzero" fill="rgb(100%, 91.372681%, 0%)" fill-opacity="1" stroke-width="0.12715" stroke-linecap="butt" stroke-linejoin="miter" stroke="rgb(0%, 0%, 0%)" stroke-opacity="1" stroke-miterlimit="10" d="M -3.018398 -7.968668 L -3.210686 -7.77638 L -3.348034 -7.913728 L -3.485382 -7.772456 L -3.348034 -7.631184 L -3.544245 -7.434973 L -3.681593 -7.576245 L -3.822865 -7.434973 L -3.681593 -7.2937 L -3.881729 -7.097489 L -4.195667 -7.411427 C -4.246682 -7.458518 -4.238834 -7.533078 -4.191743 -7.580169 L -3.505003 -8.270833 C -3.457912 -8.317924 -3.375503 -8.325772 -3.332337 -8.278682 Z M -3.018398 -7.968668 " transform="matrix(0.995419, 0, 0, -0.995419, 63.805351, 42.606903)"/>
<path fill-rule="nonzero" fill="rgb(100%, 91.372681%, 0%)" fill-opacity="1" stroke-width="0.12715" stroke-linecap="butt" stroke-linejoin="miter" stroke="rgb(0%, 0%, 0%)" stroke-opacity="1" stroke-miterlimit="10" d="M -4.164273 -7.662578 L -5.219891 -8.627938 L -4.544923 -9.302905 L -3.575639 -8.247288 L -4.164273 -7.662578 " transform="matrix(0.995419, 0, 0, -0.995419, 63.805351, 42.606903)"/>
<path fill-rule="nonzero" fill="rgb(100%, 91.372681%, 0%)" fill-opacity="1" stroke-width="0.12715" stroke-linecap="butt" stroke-linejoin="miter" stroke="rgb(0%, 0%, 0%)" stroke-opacity="1" stroke-miterlimit="10" d="M -3.815017 -8.957573 L -4.380106 -9.479496 L -3.736532 -10.126993 L -3.206761 -9.565829 Z M -3.815017 -8.957573 " transform="matrix(0.995419, 0, 0, -0.995419, 63.805351, 42.606903)"/>
<path fill-rule="nonzero" fill="rgb(100%, 91.372681%, 0%)" fill-opacity="1" stroke-width="0.12715" stroke-linecap="butt" stroke-linejoin="miter" stroke="rgb(0%, 0%, 0%)" stroke-opacity="1" stroke-miterlimit="10" d="M -5.471041 -7.285852 L -6.040054 -7.807774 L -5.392557 -8.459196 L -4.86671 -7.898031 Z M -5.471041 -7.285852 " transform="matrix(0.995419, 0, 0, -0.995419, 63.805351, 42.606903)"/>
<path fill-rule="nonzero" fill="rgb(100%, 91.372681%, 0%)" fill-opacity="1" stroke-width="0.12715" stroke-linecap="butt" stroke-linejoin="miter" stroke="rgb(0%, 0%, 0%)" stroke-opacity="1" stroke-miterlimit="10" d="M -2.692688 -9.291133 L -2.88105 -9.10277 L -3.018398 -9.240118 L -3.155746 -9.10277 L -3.014474 -8.961497 L -3.206761 -8.76921 L -3.348034 -8.910482 L -3.485382 -8.76921 L -3.344109 -8.631862 L -3.536397 -8.439575 L -3.850335 -8.753513 C -3.90135 -8.800604 -3.893501 -8.87124 -3.850335 -8.918331 L -3.175368 -9.597222 C -3.128277 -9.644313 -3.049792 -9.648237 -3.006626 -9.601147 Z M -2.692688 -9.291133 " transform="matrix(0.995419, 0, 0, -0.995419, 63.805351, 42.606903)"/>
<path fill-rule="nonzero" fill="rgb(100%, 91.372681%, 0%)" fill-opacity="1" stroke-width="0.12715" stroke-linecap="butt" stroke-linejoin="miter" stroke="rgb(0%, 0%, 0%)" stroke-opacity="1" stroke-miterlimit="10" d="M -4.348712 -7.623335 L -4.537075 -7.434973 L -4.674423 -7.572321 L -4.811771 -7.434973 L -4.670499 -7.2937 L -4.862786 -7.101413 L -5.004058 -7.238761 L -5.141406 -7.101413 L -5.000134 -6.964065 L -5.192421 -6.767854 L -5.510284 -7.081792 C -5.557374 -7.132807 -5.55345 -7.203443 -5.506359 -7.250534 L -4.831392 -7.929425 C -4.788226 -7.972592 -4.709741 -7.98044 -4.66265 -7.93335 Z M -4.348712 -7.623335 " transform="matrix(0.995419, 0, 0, -0.995419, 63.805351, 42.606903)"/>
<path fill-rule="nonzero" fill="rgb(0%, 0%, 0%)" fill-opacity="1" d="M 59.699219 50.910156 C 59.800781 50.816406 59.660156 50.675781 59.5625 50.773438 L 59.324219 51.015625 L 59.457031 51.148438 L 59.699219 50.910156 "/>
<path fill-rule="nonzero" fill="rgb(0%, 0%, 0%)" fill-opacity="1" d="M 60.175781 52.09375 C 60.273438 52 60.144531 51.863281 60.050781 51.960938 L 59.863281 52.148438 L 59.992188 52.277344 L 60.175781 52.09375 "/>
<path fill-rule="nonzero" fill="rgb(0%, 0%, 0%)" fill-opacity="1" d="M 58.523438 50.425781 C 58.617188 50.332031 58.488281 50.199219 58.394531 50.296875 L 58.207031 50.480469 L 58.335938 50.609375 L 58.523438 50.425781 "/>
<path fill-rule="nonzero" fill="rgb(0%, 17.64679%, 44.706726%)" fill-opacity="1" d="M 49.527344 43.367188 C 49.527344 43.855469 49.710938 44.300781 50.011719 44.621094 C 50.316406 44.945312 50.730469 45.148438 51.183594 45.148438 C 51.640625 45.148438 52.054688 44.949219 52.355469 44.625 C 52.652344 44.304688 52.839844 43.859375 52.839844 43.367188 L 52.839844 40.992188 L 49.53125 40.988281 L 49.523438 43.367188 "/>
<path fill-rule="nonzero" fill="rgb(100%, 100%, 100%)" fill-opacity="1" d="M 50.613281 41.894531 C 50.613281 42.074219 50.464844 42.222656 50.285156 42.222656 C 50.101562 42.222656 49.957031 42.074219 49.957031 41.894531 C 49.957031 41.710938 50.101562 41.566406 50.285156 41.566406 C 50.464844 41.566406 50.613281 41.710938 50.613281 41.894531 Z M 50.613281 41.894531 "/>
<path fill-rule="nonzero" fill="rgb(100%, 100%, 100%)" fill-opacity="1" d="M 52.449219 41.894531 C 52.449219 42.078125 52.300781 42.222656 52.121094 42.222656 C 51.9375 42.222656 51.792969 42.078125 51.792969 41.894531 C 51.792969 41.714844 51.9375 41.566406 52.121094 41.566406 C 52.300781 41.566406 52.449219 41.714844 52.449219 41.894531 Z M 52.449219 41.894531 "/>
<path fill-rule="nonzero" fill="rgb(100%, 100%, 100%)" fill-opacity="1" d="M 51.527344 42.777344 C 51.527344 42.957031 51.382812 43.105469 51.199219 43.105469 C 51.019531 43.105469 50.871094 42.957031 50.871094 42.777344 C 50.871094 42.59375 51.019531 42.449219 51.199219 42.449219 C 51.382812 42.449219 51.527344 42.59375 51.527344 42.777344 Z M 51.527344 42.777344 "/>
<path fill-rule="nonzero" fill="rgb(100%, 100%, 100%)" fill-opacity="1" d="M 50.613281 43.699219 C 50.613281 43.878906 50.464844 44.027344 50.285156 44.027344 C 50.101562 44.027344 49.957031 43.878906 49.957031 43.699219 C 49.957031 43.519531 50.101562 43.371094 50.285156 43.371094 C 50.464844 43.371094 50.613281 43.519531 50.613281 43.699219 Z M 50.613281 43.699219 "/>
<path fill-rule="nonzero" fill="rgb(100%, 100%, 100%)" fill-opacity="1" d="M 52.445312 43.695312 C 52.445312 43.878906 52.300781 44.023438 52.117188 44.023438 C 51.9375 44.023438 51.789062 43.878906 51.789062 43.695312 C 51.789062 43.515625 51.9375 43.367188 52.117188 43.367188 C 52.300781 43.367188 52.445312 43.515625 52.445312 43.695312 Z M 52.445312 43.695312 "/>
<path fill-rule="nonzero" fill="rgb(0%, 17.64679%, 44.706726%)" fill-opacity="1" d="M 49.527344 37.625 C 49.527344 38.113281 49.710938 38.558594 50.011719 38.882812 C 50.316406 39.203125 50.730469 39.40625 51.183594 39.40625 C 51.640625 39.40625 52.054688 39.207031 52.355469 38.882812 C 52.652344 38.5625 52.839844 38.117188 52.839844 37.628906 L 52.839844 35.25 L 49.53125 35.246094 L 49.523438 37.625 "/>
<path fill-rule="nonzero" fill="rgb(100%, 100%, 100%)" fill-opacity="1" d="M 50.613281 36.152344 C 50.613281 36.332031 50.464844 36.480469 50.285156 36.480469 C 50.101562 36.480469 49.957031 36.332031 49.957031 36.152344 C 49.957031 35.972656 50.101562 35.824219 50.285156 35.824219 C 50.464844 35.824219 50.613281 35.972656 50.613281 36.152344 Z M 50.613281 36.152344 "/>
<path fill-rule="nonzero" fill="rgb(100%, 100%, 100%)" fill-opacity="1" d="M 52.449219 36.152344 C 52.449219 36.335938 52.300781 36.480469 52.121094 36.480469 C 51.9375 36.480469 51.792969 36.335938 51.792969 36.152344 C 51.792969 35.972656 51.9375 35.824219 52.121094 35.824219 C 52.300781 35.824219 52.449219 35.972656 52.449219 36.152344 Z M 52.449219 36.152344 "/>
<path fill-rule="nonzero" fill="rgb(100%, 100%, 100%)" fill-opacity="1" d="M 51.527344 37.035156 C 51.527344 37.214844 51.382812 37.363281 51.199219 37.363281 C 51.019531 37.363281 50.871094 37.214844 50.871094 37.035156 C 50.871094 36.855469 51.019531 36.707031 51.199219 36.707031 C 51.382812 36.707031 51.527344 36.855469 51.527344 37.035156 Z M 51.527344 37.035156 "/>
<path fill-rule="nonzero" fill="rgb(100%, 100%, 100%)" fill-opacity="1" d="M 50.613281 37.957031 C 50.613281 38.136719 50.464844 38.285156 50.285156 38.285156 C 50.101562 38.285156 49.957031 38.136719 49.957031 37.957031 C 49.957031 37.777344 50.101562 37.628906 50.285156 37.628906 C 50.464844 37.628906 50.613281 37.777344 50.613281 37.957031 Z M 50.613281 37.957031 "/>
<path fill-rule="nonzero" fill="rgb(100%, 100%, 100%)" fill-opacity="1" d="M 52.445312 37.953125 C 52.445312 38.136719 52.300781 38.28125 52.117188 38.28125 C 51.9375 38.28125 51.789062 38.136719 51.789062 37.953125 C 51.789062 37.773438 51.9375 37.628906 52.117188 37.628906 C 52.300781 37.628906 52.445312 37.773438 52.445312 37.953125 Z M 52.445312 37.953125 "/>
<path fill-rule="nonzero" fill="rgb(0%, 17.64679%, 44.706726%)" fill-opacity="1" d="M 44.933594 43.367188 C 44.933594 43.855469 45.121094 44.300781 45.421875 44.621094 C 45.722656 44.945312 46.140625 45.148438 46.59375 45.148438 C 47.050781 45.148438 47.464844 44.949219 47.765625 44.625 C 48.0625 44.304688 48.25 43.859375 48.25 43.367188 L 48.25 40.992188 L 44.941406 40.988281 L 44.933594 43.367188 "/>
<path fill-rule="nonzero" fill="rgb(100%, 100%, 100%)" fill-opacity="1" d="M 46.023438 41.894531 C 46.023438 42.074219 45.875 42.222656 45.695312 42.222656 C 45.511719 42.222656 45.367188 42.074219 45.367188 41.894531 C 45.367188 41.710938 45.511719 41.566406 45.695312 41.566406 C 45.875 41.566406 46.023438 41.710938 46.023438 41.894531 Z M 46.023438 41.894531 "/>
<path fill-rule="nonzero" fill="rgb(100%, 100%, 100%)" fill-opacity="1" d="M 47.859375 41.894531 C 47.859375 42.078125 47.710938 42.222656 47.53125 42.222656 C 47.347656 42.222656 47.203125 42.078125 47.203125 41.894531 C 47.203125 41.714844 47.347656 41.566406 47.53125 41.566406 C 47.710938 41.566406 47.859375 41.714844 47.859375 41.894531 Z M 47.859375 41.894531 "/>
<path fill-rule="nonzero" fill="rgb(100%, 100%, 100%)" fill-opacity="1" d="M 46.9375 42.777344 C 46.9375 42.957031 46.792969 43.105469 46.609375 43.105469 C 46.429688 43.105469 46.28125 42.957031 46.28125 42.777344 C 46.28125 42.59375 46.429688 42.449219 46.609375 42.449219 C 46.792969 42.449219 46.9375 42.59375 46.9375 42.777344 Z M 46.9375 42.777344 "/>
<path fill-rule="nonzero" fill="rgb(100%, 100%, 100%)" fill-opacity="1" d="M 46.023438 43.699219 C 46.023438 43.878906 45.875 44.027344 45.695312 44.027344 C 45.511719 44.027344 45.367188 43.878906 45.367188 43.699219 C 45.367188 43.519531 45.511719 43.371094 45.695312 43.371094 C 45.875 43.371094 46.023438 43.519531 46.023438 43.699219 Z M 46.023438 43.699219 "/>
<path fill-rule="nonzero" fill="rgb(100%, 100%, 100%)" fill-opacity="1" d="M 47.855469 43.695312 C 47.855469 43.878906 47.707031 44.023438 47.527344 44.023438 C 47.347656 44.023438 47.199219 43.878906 47.199219 43.695312 C 47.199219 43.515625 47.347656 43.367188 47.527344 43.367188 C 47.707031 43.367188 47.855469 43.515625 47.855469 43.695312 Z M 47.855469 43.695312 "/>
<path fill-rule="nonzero" fill="rgb(0%, 17.64679%, 44.706726%)" fill-opacity="1" d="M 54.105469 43.367188 C 54.105469 43.855469 54.292969 44.300781 54.59375 44.621094 C 54.894531 44.945312 55.308594 45.148438 55.761719 45.148438 C 56.21875 45.148438 56.632812 44.949219 56.933594 44.625 C 57.230469 44.304688 57.417969 43.859375 57.417969 43.367188 L 57.417969 40.992188 L 54.109375 40.988281 L 54.105469 43.367188 "/>
<path fill-rule="nonzero" fill="rgb(100%, 100%, 100%)" fill-opacity="1" d="M 55.191406 41.894531 C 55.191406 42.074219 55.042969 42.222656 54.863281 42.222656 C 54.679688 42.222656 54.535156 42.074219 54.535156 41.894531 C 54.535156 41.710938 54.679688 41.566406 54.863281 41.566406 C 55.042969 41.566406 55.191406 41.710938 55.191406 41.894531 Z M 55.191406 41.894531 "/>
<path fill-rule="nonzero" fill="rgb(100%, 100%, 100%)" fill-opacity="1" d="M 57.027344 41.894531 C 57.027344 42.078125 56.878906 42.222656 56.699219 42.222656 C 56.515625 42.222656 56.371094 42.078125 56.371094 41.894531 C 56.371094 41.714844 56.515625 41.566406 56.699219 41.566406 C 56.878906 41.566406 57.027344 41.714844 57.027344 41.894531 Z M 57.027344 41.894531 "/>
<path fill-rule="nonzero" fill="rgb(100%, 100%, 100%)" fill-opacity="1" d="M 56.105469 42.777344 C 56.105469 42.957031 55.960938 43.105469 55.777344 43.105469 C 55.597656 43.105469 55.449219 42.957031 55.449219 42.777344 C 55.449219 42.59375 55.597656 42.449219 55.777344 42.449219 C 55.960938 42.449219 56.105469 42.59375 56.105469 42.777344 Z M 56.105469 42.777344 "/>
<path fill-rule="nonzero" fill="rgb(100%, 100%, 100%)" fill-opacity="1" d="M 55.191406 43.699219 C 55.191406 43.878906 55.042969 44.027344 54.863281 44.027344 C 54.679688 44.027344 54.535156 43.878906 54.535156 43.699219 C 54.535156 43.519531 54.679688 43.371094 54.863281 43.371094 C 55.042969 43.371094 55.191406 43.519531 55.191406 43.699219 Z M 55.191406 43.699219 "/>
<path fill-rule="nonzero" fill="rgb(100%, 100%, 100%)" fill-opacity="1" d="M 57.023438 43.695312 C 57.023438 43.878906 56.878906 44.023438 56.695312 44.023438 C 56.515625 44.023438 56.367188 43.878906 56.367188 43.695312 C 56.367188 43.515625 56.515625 43.367188 56.695312 43.367188 C 56.878906 43.367188 57.023438 43.515625 57.023438 43.695312 Z M 57.023438 43.695312 "/>
<path fill-rule="nonzero" fill="rgb(0%, 17.64679%, 44.706726%)" fill-opacity="1" d="M 49.527344 49.054688 L 49.527344 49.058594 C 49.527344 49.546875 49.710938 49.992188 50.011719 50.3125 C 50.316406 50.636719 50.730469 50.839844 51.183594 50.839844 C 51.640625 50.839844 52.054688 50.636719 52.355469 50.316406 C 52.652344 49.992188 52.839844 49.550781 52.839844 49.058594 L 52.839844 46.683594 L 49.53125 46.679688 L 49.523438 49.054688 "/>
<path fill-rule="nonzero" fill="rgb(100%, 100%, 100%)" fill-opacity="1" d="M 50.613281 47.585938 C 50.613281 47.765625 50.464844 47.914062 50.285156 47.914062 C 50.101562 47.914062 49.957031 47.765625 49.957031 47.585938 C 49.957031 47.402344 50.101562 47.257812 50.285156 47.257812 C 50.464844 47.257812 50.613281 47.402344 50.613281 47.585938 Z M 50.613281 47.585938 "/>
<path fill-rule="nonzero" fill="rgb(100%, 100%, 100%)" fill-opacity="1" d="M 52.449219 47.585938 C 52.449219 47.765625 52.300781 47.914062 52.121094 47.914062 C 51.9375 47.914062 51.792969 47.765625 51.792969 47.585938 C 51.792969 47.40625 51.9375 47.257812 52.121094 47.257812 C 52.300781 47.257812 52.449219 47.40625 52.449219 47.585938 Z M 52.449219 47.585938 "/>
<path fill-rule="nonzero" fill="rgb(100%, 100%, 100%)" fill-opacity="1" d="M 51.527344 48.46875 C 51.527344 48.648438 51.382812 48.796875 51.199219 48.796875 C 51.019531 48.796875 50.871094 48.648438 50.871094 48.46875 C 50.871094 48.285156 51.019531 48.140625 51.199219 48.140625 C 51.382812 48.140625 51.527344 48.285156 51.527344 48.46875 Z M 51.527344 48.46875 "/>
<path fill-rule="nonzero" fill="rgb(100%, 100%, 100%)" fill-opacity="1" d="M 50.613281 49.390625 C 50.613281 49.570312 50.464844 49.71875 50.285156 49.71875 C 50.101562 49.71875 49.957031 49.570312 49.957031 49.390625 C 49.957031 49.207031 50.101562 49.0625 50.285156 49.0625 C 50.464844 49.0625 50.613281 49.207031 50.613281 49.390625 Z M 50.613281 49.390625 "/>
<path fill-rule="nonzero" fill="rgb(100%, 100%, 100%)" fill-opacity="1" d="M 52.445312 49.386719 C 52.445312 49.570312 52.300781 49.714844 52.117188 49.714844 C 51.9375 49.714844 51.789062 49.570312 51.789062 49.386719 C 51.789062 49.207031 51.9375 49.058594 52.117188 49.058594 C 52.300781 49.058594 52.445312 49.207031 52.445312 49.386719 Z M 52.445312 49.386719 "/>
<g clip-path="url(#clip-2)">
<path fill="none" stroke-width="0.56693" stroke-linecap="butt" stroke-linejoin="miter" stroke="rgb(39.99939%, 39.99939%, 39.99939%)" stroke-opacity="1" stroke-miterlimit="10" d="M -63.785076 -42.521499 L -63.785076 42.520456 L 63.783742 42.520456 L 63.783742 -42.521499 Z M -63.785076 -42.521499 " transform="matrix(0.995419, 0, 0, -0.995419, 63.805351, 42.606903)"/>
</g>
</svg>
