<?xml version="1.0" encoding="UTF-8"?>
<svg xmlns="http://www.w3.org/2000/svg" xmlns:xlink="http://www.w3.org/1999/xlink" width="131.457pt" height="85.606pt" viewBox="0 0 131.457 85.606">
<defs>
<clipPath id="clip-0">
<path clip-rule="nonzero" d="M 0.3125 0.28125 L 127.296875 0.28125 L 127.296875 29 L 0.3125 29 Z M 0.3125 0.28125 "/>
</clipPath>
<clipPath id="clip-1">
<path clip-rule="nonzero" d="M 0.3125 28 L 127.296875 28 L 127.296875 57 L 0.3125 57 Z M 0.3125 28 "/>
</clipPath>
<clipPath id="clip-2">
<path clip-rule="nonzero" d="M 0.3125 56 L 127.296875 56 L 127.296875 84.933594 L 0.3125 84.933594 Z M 0.3125 56 "/>
</clipPath>
<clipPath id="clip-3">
<path clip-rule="nonzero" d="M 0.3125 0.28125 L 57 0.28125 L 57 84.933594 L 0.3125 84.933594 Z M 0.3125 0.28125 "/>
</clipPath>
<clipPath id="clip-4">
<path clip-rule="nonzero" d="M 0.3125 0.28125 L 84.964844 0.28125 L 84.964844 84.933594 L 0.3125 84.933594 Z M 0.3125 0.28125 "/>
</clipPath>
<clipPath id="clip-5">
<path clip-rule="nonzero" d="M 0.3125 0.28125 L 57 0.28125 L 57 84.933594 L 0.3125 84.933594 Z M 0.3125 0.28125 "/>
</clipPath>
<clipPath id="clip-6">
<path clip-rule="nonzero" d="M 0.3125 84.933594 L 56.746094 42.605469 L 0.3125 0.28125 Z M 0.3125 84.933594 "/>
</clipPath>
<clipPath id="clip-7">
<path clip-rule="nonzero" d="M 0.3125 0.28125 L 84.964844 0.28125 L 84.964844 84.933594 L 0.3125 84.933594 Z M 0.3125 0.28125 "/>
</clipPath>
<clipPath id="clip-8">
<path clip-rule="nonzero" d="M 56 34 L 127.296875 34 L 127.296875 52 L 56 52 Z M 56 34 "/>
</clipPath>
<clipPath id="clip-9">
<path clip-rule="nonzero" d="M 0.03125 0 L 128 0 L 128 85.214844 L 0.03125 85.214844 Z M 0.03125 0 "/>
</clipPath>
</defs>
<g clip-path="url(#clip-0)">
<path fill-rule="nonzero" fill="rgb(87.841797%, 23.527527%, 19.216919%)" fill-opacity="1" d="M 0.3125 28.5 L 0.3125 0.28125 L 127.296875 0.28125 L 127.296875 28.5 Z M 0.3125 28.5 "/>
</g>
<g clip-path="url(#clip-1)">
<path fill-rule="nonzero" fill="rgb(100%, 100%, 100%)" fill-opacity="1" d="M 0.3125 56.714844 L 0.3125 28.5 L 127.296875 28.5 L 127.296875 56.714844 Z M 0.3125 56.714844 "/>
</g>
<g clip-path="url(#clip-2)">
<path fill-rule="nonzero" fill="rgb(0%, 7.841492%, 53.72467%)" fill-opacity="1" d="M 0.3125 84.933594 L 0.3125 56.714844 L 127.296875 56.714844 L 127.296875 84.933594 Z M 0.3125 84.933594 "/>
</g>
<g clip-path="url(#clip-3)">
<path fill-rule="nonzero" fill="rgb(0%, 0%, 0%)" fill-opacity="1" d="M 0.3125 84.933594 L 56.746094 42.605469 L 0.3125 0.28125 Z M 0.3125 84.933594 "/>
</g>
<g clip-path="url(#clip-4)">
<path fill="none" stroke-width="28.3468" stroke-linecap="butt" stroke-linejoin="miter" stroke="rgb(100%, 100%, 100%)" stroke-opacity="1" stroke-miterlimit="10" d="M -63.785076 -42.521499 L -7.091748 0.00144038 " transform="matrix(0.995419, 0, 0, -0.995419, 63.805351, 42.606903)"/>
<path fill="none" stroke-width="28.3468" stroke-linecap="butt" stroke-linejoin="miter" stroke="rgb(100%, 100%, 100%)" stroke-opacity="1" stroke-miterlimit="10" d="M -63.785076 42.520456 L -7.091748 0.00144038 " transform="matrix(0.995419, 0, 0, -0.995419, 63.805351, 42.606903)"/>
</g>
<g clip-path="url(#clip-5)">
<g clip-path="url(#clip-6)">
<path fill="none" stroke-width="28.3468" stroke-linecap="butt" stroke-linejoin="miter" stroke="rgb(100%, 72.155762%, 10.978699%)" stroke-opacity="1" stroke-miterlimit="10" d="M -63.785076 -42.521499 L -7.091748 0.00144038 " transform="matrix(0.995419, 0, 0, -0.995419, 63.805351, 42.606903)"/>
<path fill="none" stroke-width="28.3468" stroke-linecap="butt" stroke-linejoin="miter" stroke="rgb(100%, 72.155762%, 10.978699%)" stroke-opacity="1" stroke-miterlimit="10" d="M -63.785076 42.520456 L -7.091748 0.00144038 " transform="matrix(0.995419, 0, 0, -0.995419, 63.805351, 42.606903)"/>
</g>
</g>
<g clip-path="url(#clip-7)">
<path fill="none" stroke-width="17.00807" stroke-linecap="butt" stroke-linejoin="miter" stroke="rgb(0%, 46.665955%, 28.625488%)" stroke-opacity="1" stroke-miterlimit="10" d="M -63.785076 -42.521499 L -7.091748 0.00144038 " transform="matrix(0.995419, 0, 0, -0.995419, 63.805351, 42.606903)"/>
<path fill="none" stroke-width="17.00807" stroke-linecap="butt" stroke-linejoin="miter" stroke="rgb(0%, 46.665955%, 28.625488%)" stroke-opacity="1" stroke-miterlimit="10" d="M -63.785076 42.520456 L -7.091748 0.00144038 " transform="matrix(0.995419, 0, 0, -0.995419, 63.805351, 42.606903)"/>
</g>
<g clip-path="url(#clip-8)">
<path fill-rule="nonzero" fill="rgb(0%, 46.665955%, 28.625488%)" fill-opacity="1" d="M 127.296875 34.140625 L 56.746094 34.140625 L 56.746094 51.074219 L 127.296875 51.074219 Z M 127.296875 34.140625 "/>
</g>
<g clip-path="url(#clip-9)">
<path fill="none" stroke-width="0.56693" stroke-linecap="butt" stroke-linejoin="miter" stroke="rgb(39.99939%, 39.99939%, 39.99939%)" stroke-opacity="1" stroke-miterlimit="10" d="M -63.785076 -42.521499 L -63.785076 42.520456 L 63.783742 42.520456 L 63.783742 -42.521499 Z M -63.785076 -42.521499 " transform="matrix(0.995419, 0, 0, -0.995419, 63.805351, 42.606903)"/>
</g>
</svg>
