<?xml version="1.0" encoding="UTF-8"?>
<svg xmlns="http://www.w3.org/2000/svg" xmlns:xlink="http://www.w3.org/1999/xlink" width="131.457pt" height="85.606pt" viewBox="0 0 131.457 85.606">
<defs>
<clipPath id="clip-0">
<path clip-rule="nonzero" d="M 0.3125 0.28125 L 127.296875 0.28125 L 127.296875 84.933594 L 0.3125 84.933594 Z M 0.3125 0.28125 "/>
</clipPath>
<clipPath id="clip-1">
<path clip-rule="nonzero" d="M 0.03125 0 L 128 0 L 128 85.214844 L 0.03125 85.214844 Z M 0.03125 0 "/>
</clipPath>
</defs>
<path fill-rule="nonzero" fill="rgb(78.431702%, 6.27594%, 18.03894%)" fill-opacity="1" d="M 81.382812 54.324219 C 87.855469 44.617188 85.230469 31.5 75.523438 25.03125 C 65.816406 18.558594 52.699219 21.179688 46.226562 30.890625 "/>
<path fill-rule="nonzero" fill="rgb(0%, 18.429565%, 42.353821%)" fill-opacity="1" d="M 46.226562 30.890625 C 39.757812 40.597656 42.378906 53.710938 52.085938 60.183594 C 61.796875 66.65625 74.910156 64.03125 81.382812 54.324219 "/>
<path fill-rule="nonzero" fill="rgb(78.431702%, 6.27594%, 18.03894%)" fill-opacity="1" d="M 63.804688 42.605469 C 67.042969 37.753906 65.730469 31.195312 60.875 27.960938 C 56.023438 24.722656 49.464844 26.035156 46.226562 30.890625 C 42.992188 35.742188 44.304688 42.300781 49.15625 45.535156 C 54.011719 48.773438 60.570312 47.460938 63.804688 42.605469 Z M 63.804688 42.605469 "/>
<path fill-rule="nonzero" fill="rgb(0%, 18.429565%, 42.353821%)" fill-opacity="1" d="M 81.382812 54.324219 C 84.617188 49.472656 83.308594 42.914062 78.453125 39.675781 C 73.597656 36.441406 67.042969 37.753906 63.804688 42.605469 C 60.570312 47.460938 61.882812 54.019531 66.734375 57.253906 C 71.589844 60.492188 78.148438 59.179688 81.382812 54.324219 Z M 81.382812 54.324219 "/>
<g clip-path="url(#clip-0)">
<path fill="none" stroke-width="3.54378" stroke-linecap="butt" stroke-linejoin="miter" stroke="rgb(0%, 0%, 0%)" stroke-opacity="1" stroke-miterlimit="10" d="M 28.449989 -17.904814 L 33.845804 -9.809131 M 27.468932 -19.3764 L 22.073118 -27.468159 M -33.843213 9.808087 L -22.070528 27.467115 M 32.864746 -20.847985 L 38.26056 -12.752302 M 31.883689 -22.319571 L 26.487875 -30.41133 M -38.25797 12.751259 L -26.485285 30.410287 M 37.279503 -23.787232 L 42.671393 -15.695473 M 36.298446 -25.258818 L 30.902632 -33.354501 M -42.672727 15.69443 L -30.900042 33.353458 " transform="matrix(0.995419, 0, 0, -0.995419, 63.805351, 42.606903)"/>
<path fill="none" stroke-width="3.54378" stroke-linecap="butt" stroke-linejoin="miter" stroke="rgb(0%, 0%, 0%)" stroke-opacity="1" stroke-miterlimit="10" d="M 27.468932 19.375356 L 22.073118 27.467115 M 28.449989 17.903771 L 33.845804 9.808087 M -22.070528 -27.468159 L -33.843213 -9.809131 M -32.862156 -20.847985 L -38.25797 -12.752302 M -31.881099 -22.319571 L -26.485285 -30.41133 M 38.26056 12.751259 L 26.487875 30.410287 M 36.298446 25.261699 L 30.902632 33.353458 M 37.279503 23.790113 L 42.671393 15.69443 M -30.900042 -33.354501 L -42.672727 -15.695473 " transform="matrix(0.995419, 0, 0, -0.995419, 63.805351, 42.606903)"/>
</g>
<g clip-path="url(#clip-1)">
<path fill="none" stroke-width="0.56693" stroke-linecap="butt" stroke-linejoin="miter" stroke="rgb(39.99939%, 39.99939%, 39.99939%)" stroke-opacity="1" stroke-miterlimit="10" d="M -63.785076 -42.521499 L -63.785076 42.520456 L 63.783742 42.520456 L 63.783742 -42.521499 Z M -63.785076 -42.521499 " transform="matrix(0.995419, 0, 0, -0.995419, 63.805351, 42.606903)"/>
</g>
</svg>
