<?xml version="1.0" encoding="UTF-8"?>
<svg xmlns="http://www.w3.org/2000/svg" xmlns:xlink="http://www.w3.org/1999/xlink" width="88.927pt" height="85.606pt" viewBox="0 0 88.927 85.606">
<defs>
<clipPath id="clip-0">
<path clip-rule="nonzero" d="M 0.449219 0.28125 L 85.101562 0.28125 L 85.101562 84.933594 L 0.449219 84.933594 Z M 0.449219 0.28125 "/>
</clipPath>
<clipPath id="clip-1">
<path clip-rule="nonzero" d="M 0.167969 0 L 86 0 L 86 85.214844 L 0.167969 85.214844 Z M 0.167969 0 "/>
</clipPath>
</defs>
<g clip-path="url(#clip-0)">
<path fill-rule="nonzero" fill="rgb(85.488892%, 16.07666%, 10.978699%)" fill-opacity="1" d="M 0.449219 84.933594 L 0.449219 0.28125 L 85.101562 0.28125 L 85.101562 84.933594 Z M 0.449219 84.933594 "/>
</g>
<path fill-rule="nonzero" fill="rgb(100%, 100%, 100%)" fill-opacity="1" d="M 50.710938 16.152344 L 50.710938 34.671875 L 69.226562 34.671875 L 69.226562 50.542969 L 50.710938 50.542969 L 50.710938 69.058594 L 34.839844 69.058594 L 34.839844 50.542969 L 16.320312 50.542969 L 16.320312 34.671875 L 34.839844 34.671875 L 34.839844 16.152344 Z M 50.710938 16.152344 "/>
<g clip-path="url(#clip-1)">
<path fill="none" stroke-width="0.56693" stroke-linecap="butt" stroke-linejoin="miter" stroke="rgb(39.99939%, 39.99939%, 39.99939%)" stroke-opacity="1" stroke-miterlimit="10" d="M -42.519856 -42.521499 L -42.519856 42.520456 L 42.522098 42.520456 L 42.522098 -42.521499 Z M -42.519856 -42.521499 " transform="matrix(0.995419, 0, 0, -0.995419, 42.774275, 42.606903)"/>
</g>
</svg>
