<?xml version="1.0" encoding="UTF-8"?>
<svg xmlns="http://www.w3.org/2000/svg" xmlns:xlink="http://www.w3.org/1999/xlink" width="165.48pt" height="85.606pt" viewBox="0 0 165.48 85.606">
<defs>
<clipPath id="clip-0">
<path clip-rule="nonzero" d="M 0.402344 0.28125 L 161.257812 0.28125 L 161.257812 84.933594 L 0.402344 84.933594 Z M 0.402344 0.28125 "/>
</clipPath>
<clipPath id="clip-1">
<path clip-rule="nonzero" d="M 0.402344 78 L 161.257812 78 L 161.257812 84.933594 L 0.402344 84.933594 Z M 0.402344 78 "/>
</clipPath>
<clipPath id="clip-2">
<path clip-rule="nonzero" d="M 0.402344 65 L 161.257812 65 L 161.257812 72 L 0.402344 72 Z M 0.402344 65 "/>
</clipPath>
<clipPath id="clip-3">
<path clip-rule="nonzero" d="M 0.402344 52 L 161.257812 52 L 161.257812 59 L 0.402344 59 Z M 0.402344 52 "/>
</clipPath>
<clipPath id="clip-4">
<path clip-rule="nonzero" d="M 0.402344 39 L 161.257812 39 L 161.257812 46 L 0.402344 46 Z M 0.402344 39 "/>
</clipPath>
<clipPath id="clip-5">
<path clip-rule="nonzero" d="M 0.402344 26 L 161.257812 26 L 161.257812 33 L 0.402344 33 Z M 0.402344 26 "/>
</clipPath>
<clipPath id="clip-6">
<path clip-rule="nonzero" d="M 0.402344 13 L 161.257812 13 L 161.257812 20 L 0.402344 20 Z M 0.402344 13 "/>
</clipPath>
<clipPath id="clip-7">
<path clip-rule="nonzero" d="M 0.402344 0.28125 L 161.257812 0.28125 L 161.257812 7 L 0.402344 7 Z M 0.402344 0.28125 "/>
</clipPath>
<clipPath id="clip-8">
<path clip-rule="nonzero" d="M 0.402344 0.28125 L 65 0.28125 L 65 46 L 0.402344 46 Z M 0.402344 0.28125 "/>
</clipPath>
<clipPath id="clip-9">
<path clip-rule="nonzero" d="M 0.121094 0 L 162 0 L 162 85.214844 L 0.121094 85.214844 Z M 0.121094 0 "/>
</clipPath>
</defs>
<g clip-path="url(#clip-0)">
<path fill-rule="nonzero" fill="rgb(100%, 100%, 100%)" fill-opacity="1" d="M 0.402344 84.933594 L 0.402344 0.28125 L 161.257812 0.28125 L 161.257812 84.933594 Z M 0.402344 84.933594 "/>
</g>
<g clip-path="url(#clip-1)">
<path fill-rule="nonzero" fill="rgb(74.900818%, 5.097961%, 24.31488%)" fill-opacity="1" d="M 0.402344 84.933594 L 0.402344 78.421875 L 161.257812 78.421875 L 161.257812 84.933594 Z M 0.402344 84.933594 "/>
</g>
<g clip-path="url(#clip-2)">
<path fill-rule="nonzero" fill="rgb(74.900818%, 5.097961%, 24.31488%)" fill-opacity="1" d="M 0.402344 71.910156 L 0.402344 65.398438 L 161.257812 65.398438 L 161.257812 71.910156 Z M 0.402344 71.910156 "/>
</g>
<g clip-path="url(#clip-3)">
<path fill-rule="nonzero" fill="rgb(74.900818%, 5.097961%, 24.31488%)" fill-opacity="1" d="M 0.402344 58.886719 L 0.402344 52.375 L 161.257812 52.375 L 161.257812 58.886719 Z M 0.402344 58.886719 "/>
</g>
<g clip-path="url(#clip-4)">
<path fill-rule="nonzero" fill="rgb(74.900818%, 5.097961%, 24.31488%)" fill-opacity="1" d="M 0.402344 45.863281 L 0.402344 39.351562 L 161.257812 39.351562 L 161.257812 45.863281 Z M 0.402344 45.863281 "/>
</g>
<g clip-path="url(#clip-5)">
<path fill-rule="nonzero" fill="rgb(74.900818%, 5.097961%, 24.31488%)" fill-opacity="1" d="M 0.402344 32.839844 L 0.402344 26.328125 L 161.257812 26.328125 L 161.257812 32.839844 Z M 0.402344 32.839844 "/>
</g>
<g clip-path="url(#clip-6)">
<path fill-rule="nonzero" fill="rgb(74.900818%, 5.097961%, 24.31488%)" fill-opacity="1" d="M 0.402344 19.816406 L 0.402344 13.304688 L 161.257812 13.304688 L 161.257812 19.816406 Z M 0.402344 19.816406 "/>
</g>
<g clip-path="url(#clip-7)">
<path fill-rule="nonzero" fill="rgb(74.900818%, 5.097961%, 24.31488%)" fill-opacity="1" d="M 0.402344 6.792969 L 0.402344 0.28125 L 161.257812 0.28125 L 161.257812 6.792969 Z M 0.402344 6.792969 "/>
</g>
<g clip-path="url(#clip-8)">
<path fill-rule="nonzero" fill="rgb(3.921509%, 19.216919%, 38.038635%)" fill-opacity="1" d="M 0.402344 45.863281 L 0.402344 0.277344 L 64.734375 0.277344 L 64.734375 45.863281 Z M 0.402344 45.863281 "/>
</g>
<path fill-rule="nonzero" fill="rgb(100%, 100%, 100%)" fill-opacity="1" d="M 5.734375 38.683594 L 5.148438 40.488281 L 3.253906 40.488281 L 4.789062 41.597656 L 4.203125 43.402344 L 5.734375 42.289062 L 7.265625 43.402344 L 6.683594 41.597656 L 8.214844 40.488281 L 6.320312 40.488281 Z M 5.734375 38.683594 "/>
<path fill-rule="nonzero" fill="rgb(100%, 100%, 100%)" fill-opacity="1" d="M 5.734375 29.542969 L 5.148438 31.34375 L 3.253906 31.34375 L 4.789062 32.457031 L 4.203125 34.257812 L 5.734375 33.144531 L 7.265625 34.257812 L 6.683594 32.457031 L 8.214844 31.34375 L 6.320312 31.34375 Z M 5.734375 29.542969 "/>
<path fill-rule="nonzero" fill="rgb(100%, 100%, 100%)" fill-opacity="1" d="M 5.734375 20.398438 L 5.148438 22.203125 L 3.253906 22.203125 L 4.789062 23.316406 L 4.203125 25.117188 L 5.734375 24.003906 L 7.265625 25.117188 L 6.683594 23.316406 L 8.214844 22.203125 L 6.320312 22.203125 Z M 5.734375 20.398438 "/>
<path fill-rule="nonzero" fill="rgb(100%, 100%, 100%)" fill-opacity="1" d="M 5.734375 11.257812 L 5.148438 13.058594 L 3.253906 13.058594 L 4.789062 14.171875 L 4.203125 15.972656 L 5.734375 14.859375 L 7.265625 15.972656 L 6.683594 14.171875 L 8.214844 13.058594 L 6.320312 13.058594 Z M 5.734375 11.257812 "/>
<path fill-rule="nonzero" fill="rgb(100%, 100%, 100%)" fill-opacity="1" d="M 5.734375 2.113281 L 5.148438 3.917969 L 3.253906 3.917969 L 4.789062 5.03125 L 4.203125 6.832031 L 5.734375 5.71875 L 7.265625 6.832031 L 6.683594 5.03125 L 8.214844 3.917969 L 6.320312 3.917969 Z M 5.734375 2.113281 "/>
<path fill-rule="nonzero" fill="rgb(100%, 100%, 100%)" fill-opacity="1" d="M 16.402344 38.683594 L 15.816406 40.488281 L 13.921875 40.488281 L 15.453125 41.597656 L 14.871094 43.402344 L 16.402344 42.289062 L 17.933594 43.402344 L 17.347656 41.597656 L 18.882812 40.488281 L 16.988281 40.488281 Z M 16.402344 38.683594 "/>
<path fill-rule="nonzero" fill="rgb(100%, 100%, 100%)" fill-opacity="1" d="M 16.402344 29.542969 L 15.816406 31.34375 L 13.921875 31.34375 L 15.453125 32.457031 L 14.871094 34.257812 L 16.402344 33.144531 L 17.933594 34.257812 L 17.347656 32.457031 L 18.882812 31.34375 L 16.988281 31.34375 Z M 16.402344 29.542969 "/>
<path fill-rule="nonzero" fill="rgb(100%, 100%, 100%)" fill-opacity="1" d="M 16.402344 20.398438 L 15.816406 22.203125 L 13.921875 22.203125 L 15.453125 23.316406 L 14.871094 25.117188 L 16.402344 24.003906 L 17.933594 25.117188 L 17.347656 23.316406 L 18.882812 22.203125 L 16.988281 22.203125 Z M 16.402344 20.398438 "/>
<path fill-rule="nonzero" fill="rgb(100%, 100%, 100%)" fill-opacity="1" d="M 16.402344 11.257812 L 15.816406 13.058594 L 13.921875 13.058594 L 15.453125 14.171875 L 14.871094 15.972656 L 16.402344 14.859375 L 17.933594 15.972656 L 17.347656 14.171875 L 18.882812 13.058594 L 16.988281 13.058594 Z M 16.402344 11.257812 "/>
<path fill-rule="nonzero" fill="rgb(100%, 100%, 100%)" fill-opacity="1" d="M 16.402344 2.113281 L 15.816406 3.917969 L 13.921875 3.917969 L 15.453125 5.03125 L 14.871094 6.832031 L 16.402344 5.71875 L 17.933594 6.832031 L 17.347656 5.03125 L 18.882812 3.917969 L 16.988281 3.917969 Z M 16.402344 2.113281 "/>
<path fill-rule="nonzero" fill="rgb(100%, 100%, 100%)" fill-opacity="1" d="M 27.066406 38.683594 L 26.484375 40.488281 L 24.589844 40.488281 L 26.121094 41.597656 L 25.535156 43.402344 L 27.066406 42.289062 L 28.601562 43.402344 L 28.015625 41.597656 L 29.546875 40.488281 L 27.652344 40.488281 Z M 27.066406 38.683594 "/>
<path fill-rule="nonzero" fill="rgb(100%, 100%, 100%)" fill-opacity="1" d="M 27.066406 29.542969 L 26.484375 31.34375 L 24.589844 31.34375 L 26.121094 32.457031 L 25.535156 34.257812 L 27.066406 33.144531 L 28.601562 34.257812 L 28.015625 32.457031 L 29.546875 31.34375 L 27.652344 31.34375 Z M 27.066406 29.542969 "/>
<path fill-rule="nonzero" fill="rgb(100%, 100%, 100%)" fill-opacity="1" d="M 27.066406 20.398438 L 26.484375 22.203125 L 24.589844 22.203125 L 26.121094 23.316406 L 25.535156 25.117188 L 27.066406 24.003906 L 28.601562 25.117188 L 28.015625 23.316406 L 29.546875 22.203125 L 27.652344 22.203125 Z M 27.066406 20.398438 "/>
<path fill-rule="nonzero" fill="rgb(100%, 100%, 100%)" fill-opacity="1" d="M 27.066406 11.257812 L 26.484375 13.058594 L 24.589844 13.058594 L 26.121094 14.171875 L 25.535156 15.972656 L 27.066406 14.859375 L 28.601562 15.972656 L 28.015625 14.171875 L 29.546875 13.058594 L 27.652344 13.058594 Z M 27.066406 11.257812 "/>
<path fill-rule="nonzero" fill="rgb(100%, 100%, 100%)" fill-opacity="1" d="M 27.066406 2.113281 L 26.484375 3.917969 L 24.589844 3.917969 L 26.121094 5.03125 L 25.535156 6.832031 L 27.066406 5.71875 L 28.601562 6.832031 L 28.015625 5.03125 L 29.546875 3.917969 L 27.652344 3.917969 Z M 27.066406 2.113281 "/>
<path fill-rule="nonzero" fill="rgb(100%, 100%, 100%)" fill-opacity="1" d="M 37.734375 38.683594 L 37.148438 40.488281 L 35.253906 40.488281 L 36.789062 41.597656 L 36.203125 43.402344 L 37.734375 42.289062 L 39.265625 43.402344 L 38.679688 41.597656 L 40.214844 40.488281 L 38.320312 40.488281 Z M 37.734375 38.683594 "/>
<path fill-rule="nonzero" fill="rgb(100%, 100%, 100%)" fill-opacity="1" d="M 37.734375 29.542969 L 37.148438 31.34375 L 35.253906 31.34375 L 36.789062 32.457031 L 36.203125 34.257812 L 37.734375 33.144531 L 39.265625 34.257812 L 38.679688 32.457031 L 40.214844 31.34375 L 38.320312 31.34375 Z M 37.734375 29.542969 "/>
<path fill-rule="nonzero" fill="rgb(100%, 100%, 100%)" fill-opacity="1" d="M 37.734375 20.398438 L 37.148438 22.203125 L 35.253906 22.203125 L 36.789062 23.316406 L 36.203125 25.117188 L 37.734375 24.003906 L 39.265625 25.117188 L 38.679688 23.316406 L 40.214844 22.203125 L 38.320312 22.203125 Z M 37.734375 20.398438 "/>
<path fill-rule="nonzero" fill="rgb(100%, 100%, 100%)" fill-opacity="1" d="M 37.734375 11.257812 L 37.148438 13.058594 L 35.253906 13.058594 L 36.789062 14.171875 L 36.203125 15.972656 L 37.734375 14.859375 L 39.265625 15.972656 L 38.679688 14.171875 L 40.214844 13.058594 L 38.320312 13.058594 Z M 37.734375 11.257812 "/>
<path fill-rule="nonzero" fill="rgb(100%, 100%, 100%)" fill-opacity="1" d="M 37.734375 2.113281 L 37.148438 3.917969 L 35.253906 3.917969 L 36.789062 5.03125 L 36.203125 6.832031 L 37.734375 5.71875 L 39.265625 6.832031 L 38.679688 5.03125 L 40.214844 3.917969 L 38.320312 3.917969 Z M 37.734375 2.113281 "/>
<path fill-rule="nonzero" fill="rgb(100%, 100%, 100%)" fill-opacity="1" d="M 48.402344 38.683594 L 47.816406 40.488281 L 45.921875 40.488281 L 47.453125 41.597656 L 46.871094 43.402344 L 48.402344 42.289062 L 49.933594 43.402344 L 49.347656 41.597656 L 50.882812 40.488281 L 48.988281 40.488281 Z M 48.402344 38.683594 "/>
<path fill-rule="nonzero" fill="rgb(100%, 100%, 100%)" fill-opacity="1" d="M 48.402344 29.542969 L 47.816406 31.34375 L 45.921875 31.34375 L 47.453125 32.457031 L 46.871094 34.257812 L 48.402344 33.144531 L 49.933594 34.257812 L 49.347656 32.457031 L 50.882812 31.34375 L 48.988281 31.34375 Z M 48.402344 29.542969 "/>
<path fill-rule="nonzero" fill="rgb(100%, 100%, 100%)" fill-opacity="1" d="M 48.402344 20.398438 L 47.816406 22.203125 L 45.921875 22.203125 L 47.453125 23.316406 L 46.871094 25.117188 L 48.402344 24.003906 L 49.933594 25.117188 L 49.347656 23.316406 L 50.882812 22.203125 L 48.988281 22.203125 Z M 48.402344 20.398438 "/>
<path fill-rule="nonzero" fill="rgb(100%, 100%, 100%)" fill-opacity="1" d="M 48.402344 11.257812 L 47.816406 13.058594 L 45.921875 13.058594 L 47.453125 14.171875 L 46.871094 15.972656 L 48.402344 14.859375 L 49.933594 15.972656 L 49.347656 14.171875 L 50.882812 13.058594 L 48.988281 13.058594 Z M 48.402344 11.257812 "/>
<path fill-rule="nonzero" fill="rgb(100%, 100%, 100%)" fill-opacity="1" d="M 48.402344 2.113281 L 47.816406 3.917969 L 45.921875 3.917969 L 47.453125 5.03125 L 46.871094 6.832031 L 48.402344 5.71875 L 49.933594 6.832031 L 49.347656 5.03125 L 50.882812 3.917969 L 48.988281 3.917969 Z M 48.402344 2.113281 "/>
<path fill-rule="nonzero" fill="rgb(100%, 100%, 100%)" fill-opacity="1" d="M 59.066406 38.683594 L 58.484375 40.488281 L 56.589844 40.488281 L 58.121094 41.597656 L 57.535156 43.402344 L 59.066406 42.289062 L 60.601562 43.402344 L 60.015625 41.597656 L 61.546875 40.488281 L 59.652344 40.488281 Z M 59.066406 38.683594 "/>
<path fill-rule="nonzero" fill="rgb(100%, 100%, 100%)" fill-opacity="1" d="M 59.066406 29.542969 L 58.484375 31.34375 L 56.589844 31.34375 L 58.121094 32.457031 L 57.535156 34.257812 L 59.066406 33.144531 L 60.601562 34.257812 L 60.015625 32.457031 L 61.546875 31.34375 L 59.652344 31.34375 Z M 59.066406 29.542969 "/>
<path fill-rule="nonzero" fill="rgb(100%, 100%, 100%)" fill-opacity="1" d="M 59.066406 20.398438 L 58.484375 22.203125 L 56.589844 22.203125 L 58.121094 23.316406 L 57.535156 25.117188 L 59.066406 24.003906 L 60.601562 25.117188 L 60.015625 23.316406 L 61.546875 22.203125 L 59.652344 22.203125 Z M 59.066406 20.398438 "/>
<path fill-rule="nonzero" fill="rgb(100%, 100%, 100%)" fill-opacity="1" d="M 59.066406 11.257812 L 58.484375 13.058594 L 56.589844 13.058594 L 58.121094 14.171875 L 57.535156 15.972656 L 59.066406 14.859375 L 60.601562 15.972656 L 60.015625 14.171875 L 61.546875 13.058594 L 59.652344 13.058594 Z M 59.066406 11.257812 "/>
<path fill-rule="nonzero" fill="rgb(100%, 100%, 100%)" fill-opacity="1" d="M 59.066406 2.113281 L 58.484375 3.917969 L 56.589844 3.917969 L 58.121094 5.03125 L 57.535156 6.832031 L 59.066406 5.71875 L 60.601562 6.832031 L 60.015625 5.03125 L 61.546875 3.917969 L 59.652344 3.917969 Z M 59.066406 2.113281 "/>
<path fill-rule="nonzero" fill="rgb(100%, 100%, 100%)" fill-opacity="1" d="M 11.066406 34.113281 L 10.484375 35.917969 L 8.589844 35.917969 L 10.121094 37.027344 L 9.535156 38.832031 L 11.066406 37.714844 L 12.601562 38.832031 L 12.015625 37.027344 L 13.546875 35.917969 L 11.652344 35.917969 Z M 11.066406 34.113281 "/>
<path fill-rule="nonzero" fill="rgb(100%, 100%, 100%)" fill-opacity="1" d="M 11.066406 24.96875 L 10.484375 26.773438 L 8.589844 26.773438 L 10.121094 27.886719 L 9.535156 29.6875 L 11.066406 28.574219 L 12.601562 29.6875 L 12.015625 27.886719 L 13.546875 26.773438 L 11.652344 26.773438 Z M 11.066406 24.96875 "/>
<path fill-rule="nonzero" fill="rgb(100%, 100%, 100%)" fill-opacity="1" d="M 11.066406 15.828125 L 10.484375 17.632812 L 8.589844 17.632812 L 10.121094 18.742188 L 9.535156 20.546875 L 11.066406 19.433594 L 12.601562 20.546875 L 12.015625 18.742188 L 13.546875 17.632812 L 11.652344 17.632812 Z M 11.066406 15.828125 "/>
<path fill-rule="nonzero" fill="rgb(100%, 100%, 100%)" fill-opacity="1" d="M 11.066406 6.6875 L 10.484375 8.488281 L 8.589844 8.488281 L 10.121094 9.601562 L 9.535156 11.402344 L 11.066406 10.289062 L 12.601562 11.402344 L 12.015625 9.601562 L 13.546875 8.488281 L 11.652344 8.488281 Z M 11.066406 6.6875 "/>
<path fill-rule="nonzero" fill="rgb(100%, 100%, 100%)" fill-opacity="1" d="M 21.734375 34.113281 L 21.148438 35.917969 L 19.253906 35.917969 L 20.789062 37.027344 L 20.203125 38.832031 L 21.734375 37.714844 L 23.265625 38.832031 L 22.683594 37.027344 L 24.214844 35.917969 L 22.320312 35.917969 Z M 21.734375 34.113281 "/>
<path fill-rule="nonzero" fill="rgb(100%, 100%, 100%)" fill-opacity="1" d="M 21.734375 24.96875 L 21.148438 26.773438 L 19.253906 26.773438 L 20.789062 27.886719 L 20.203125 29.6875 L 21.734375 28.574219 L 23.265625 29.6875 L 22.683594 27.886719 L 24.214844 26.773438 L 22.320312 26.773438 Z M 21.734375 24.96875 "/>
<path fill-rule="nonzero" fill="rgb(100%, 100%, 100%)" fill-opacity="1" d="M 21.734375 15.828125 L 21.148438 17.632812 L 19.253906 17.632812 L 20.789062 18.742188 L 20.203125 20.546875 L 21.734375 19.433594 L 23.265625 20.546875 L 22.683594 18.742188 L 24.214844 17.632812 L 22.320312 17.632812 Z M 21.734375 15.828125 "/>
<path fill-rule="nonzero" fill="rgb(100%, 100%, 100%)" fill-opacity="1" d="M 21.734375 6.6875 L 21.148438 8.488281 L 19.253906 8.488281 L 20.789062 9.601562 L 20.203125 11.402344 L 21.734375 10.289062 L 23.265625 11.402344 L 22.683594 9.601562 L 24.214844 8.488281 L 22.320312 8.488281 Z M 21.734375 6.6875 "/>
<path fill-rule="nonzero" fill="rgb(100%, 100%, 100%)" fill-opacity="1" d="M 32.402344 34.113281 L 31.816406 35.917969 L 29.921875 35.917969 L 31.453125 37.027344 L 30.871094 38.832031 L 32.402344 37.714844 L 33.933594 38.832031 L 33.347656 37.027344 L 34.882812 35.917969 L 32.988281 35.917969 Z M 32.402344 34.113281 "/>
<path fill-rule="nonzero" fill="rgb(100%, 100%, 100%)" fill-opacity="1" d="M 32.402344 24.96875 L 31.816406 26.773438 L 29.921875 26.773438 L 31.453125 27.886719 L 30.871094 29.6875 L 32.402344 28.574219 L 33.933594 29.6875 L 33.347656 27.886719 L 34.882812 26.773438 L 32.988281 26.773438 Z M 32.402344 24.96875 "/>
<path fill-rule="nonzero" fill="rgb(100%, 100%, 100%)" fill-opacity="1" d="M 32.402344 15.828125 L 31.816406 17.632812 L 29.921875 17.632812 L 31.453125 18.742188 L 30.871094 20.546875 L 32.402344 19.433594 L 33.933594 20.546875 L 33.347656 18.742188 L 34.882812 17.632812 L 32.988281 17.632812 Z M 32.402344 15.828125 "/>
<path fill-rule="nonzero" fill="rgb(100%, 100%, 100%)" fill-opacity="1" d="M 32.402344 6.6875 L 31.816406 8.488281 L 29.921875 8.488281 L 31.453125 9.601562 L 30.871094 11.402344 L 32.402344 10.289062 L 33.933594 11.402344 L 33.347656 9.601562 L 34.882812 8.488281 L 32.988281 8.488281 Z M 32.402344 6.6875 "/>
<path fill-rule="nonzero" fill="rgb(100%, 100%, 100%)" fill-opacity="1" d="M 43.066406 34.113281 L 42.484375 35.917969 L 40.589844 35.917969 L 42.121094 37.027344 L 41.535156 38.832031 L 43.066406 37.714844 L 44.601562 38.832031 L 44.015625 37.027344 L 45.546875 35.917969 L 43.652344 35.917969 Z M 43.066406 34.113281 "/>
<path fill-rule="nonzero" fill="rgb(100%, 100%, 100%)" fill-opacity="1" d="M 43.066406 24.96875 L 42.484375 26.773438 L 40.589844 26.773438 L 42.121094 27.886719 L 41.535156 29.6875 L 43.066406 28.574219 L 44.601562 29.6875 L 44.015625 27.886719 L 45.546875 26.773438 L 43.652344 26.773438 Z M 43.066406 24.96875 "/>
<path fill-rule="nonzero" fill="rgb(100%, 100%, 100%)" fill-opacity="1" d="M 43.066406 15.828125 L 42.484375 17.632812 L 40.589844 17.632812 L 42.121094 18.742188 L 41.535156 20.546875 L 43.066406 19.433594 L 44.601562 20.546875 L 44.015625 18.742188 L 45.546875 17.632812 L 43.652344 17.632812 Z M 43.066406 15.828125 "/>
<path fill-rule="nonzero" fill="rgb(100%, 100%, 100%)" fill-opacity="1" d="M 43.066406 6.6875 L 42.484375 8.488281 L 40.589844 8.488281 L 42.121094 9.601562 L 41.535156 11.402344 L 43.066406 10.289062 L 44.601562 11.402344 L 44.015625 9.601562 L 45.546875 8.488281 L 43.652344 8.488281 Z M 43.066406 6.6875 "/>
<path fill-rule="nonzero" fill="rgb(100%, 100%, 100%)" fill-opacity="1" d="M 53.734375 34.113281 L 53.148438 35.917969 L 51.253906 35.917969 L 52.789062 37.027344 L 52.203125 38.832031 L 53.734375 37.714844 L 55.265625 38.832031 L 54.679688 37.027344 L 56.214844 35.917969 L 54.320312 35.917969 Z M 53.734375 34.113281 "/>
<path fill-rule="nonzero" fill="rgb(100%, 100%, 100%)" fill-opacity="1" d="M 53.734375 24.96875 L 53.148438 26.773438 L 51.253906 26.773438 L 52.789062 27.886719 L 52.203125 29.6875 L 53.734375 28.574219 L 55.265625 29.6875 L 54.679688 27.886719 L 56.214844 26.773438 L 54.320312 26.773438 Z M 53.734375 24.96875 "/>
<path fill-rule="nonzero" fill="rgb(100%, 100%, 100%)" fill-opacity="1" d="M 53.734375 15.828125 L 53.148438 17.632812 L 51.253906 17.632812 L 52.789062 18.742188 L 52.203125 20.546875 L 53.734375 19.433594 L 55.265625 20.546875 L 54.679688 18.742188 L 56.214844 17.632812 L 54.320312 17.632812 Z M 53.734375 15.828125 "/>
<path fill-rule="nonzero" fill="rgb(100%, 100%, 100%)" fill-opacity="1" d="M 53.734375 6.6875 L 53.148438 8.488281 L 51.253906 8.488281 L 52.789062 9.601562 L 52.203125 11.402344 L 53.734375 10.289062 L 55.265625 11.402344 L 54.679688 9.601562 L 56.214844 8.488281 L 54.320312 8.488281 Z M 53.734375 6.6875 "/>
<g clip-path="url(#clip-9)">
<path fill="none" stroke-width="0.56693" stroke-linecap="butt" stroke-linejoin="miter" stroke="rgb(39.99939%, 39.99939%, 39.99939%)" stroke-opacity="1" stroke-miterlimit="10" d="M -80.796614 -42.521499 L -80.796614 42.520456 L 80.799189 42.520456 L 80.799189 -42.521499 Z M -80.796614 -42.521499 " transform="matrix(0.995419, 0, 0, -0.995419, 80.828796, 42.606903)"/>
</g>
</svg>
