<?xml version="1.0" encoding="UTF-8"?>
<svg xmlns="http://www.w3.org/2000/svg" xmlns:xlink="http://www.w3.org/1999/xlink" width="173.967pt" height="85.606pt" viewBox="0 0 173.967 85.606">
<defs>
<clipPath id="clip-0">
<path clip-rule="nonzero" d="M 0.664062 0.28125 L 169.964844 0.28125 L 169.964844 29 L 0.664062 29 Z M 0.664062 0.28125 "/>
</clipPath>
<clipPath id="clip-1">
<path clip-rule="nonzero" d="M 0.664062 28 L 169.964844 28 L 169.964844 57 L 0.664062 57 Z M 0.664062 28 "/>
</clipPath>
<clipPath id="clip-2">
<path clip-rule="nonzero" d="M 0.664062 56 L 169.964844 56 L 169.964844 84.933594 L 0.664062 84.933594 Z M 0.664062 56 "/>
</clipPath>
<clipPath id="clip-3">
<path clip-rule="nonzero" d="M 0.664062 55 L 169.964844 55 L 169.964844 58 L 0.664062 58 Z M 0.664062 55 "/>
</clipPath>
<clipPath id="clip-4">
<path clip-rule="nonzero" d="M 0.664062 27 L 169.964844 27 L 169.964844 30 L 0.664062 30 Z M 0.664062 27 "/>
</clipPath>
<clipPath id="clip-5">
<path clip-rule="nonzero" d="M 14 3 L 35 3 L 35 24 L 14 24 Z M 14 3 "/>
</clipPath>
<clipPath id="clip-6">
<path clip-rule="nonzero" d="M 34.523438 13.824219 C 34.523438 8.214844 29.976562 3.667969 24.367188 3.667969 C 18.753906 3.667969 14.207031 8.214844 14.207031 13.824219 C 14.207031 19.4375 18.753906 23.984375 24.367188 23.984375 C 29.976562 23.984375 34.523438 19.4375 34.523438 13.824219 Z M 34.523438 13.824219 "/>
</clipPath>
<clipPath id="clip-7">
<path clip-rule="nonzero" d="M 0.382812 0 L 171 0 L 171 85.214844 L 0.382812 85.214844 Z M 0.382812 0 "/>
</clipPath>
</defs>
<g clip-path="url(#clip-0)">
<path fill-rule="nonzero" fill="rgb(0%, 57.255554%, 73.722839%)" fill-opacity="1" d="M 0.664062 28.5 L 0.664062 0.28125 L 169.964844 0.28125 L 169.964844 28.5 Z M 0.664062 28.5 "/>
</g>
<g clip-path="url(#clip-1)">
<path fill-rule="nonzero" fill="rgb(100%, 100%, 100%)" fill-opacity="1" d="M 0.664062 56.714844 L 0.664062 28.5 L 169.964844 28.5 L 169.964844 56.714844 Z M 0.664062 56.714844 "/>
</g>
<g clip-path="url(#clip-2)">
<path fill-rule="nonzero" fill="rgb(26.275635%, 69.018555%, 16.471863%)" fill-opacity="1" d="M 0.664062 84.933594 L 0.664062 56.714844 L 169.964844 56.714844 L 169.964844 84.933594 Z M 0.664062 84.933594 "/>
</g>
<g clip-path="url(#clip-3)">
<path fill-rule="nonzero" fill="rgb(87.841797%, 23.527527%, 19.216919%)" fill-opacity="1" d="M 0.664062 57.5625 L 0.664062 55.871094 L 169.964844 55.871094 L 169.964844 57.5625 Z M 0.664062 57.5625 "/>
</g>
<g clip-path="url(#clip-4)">
<path fill-rule="nonzero" fill="rgb(87.841797%, 23.527527%, 19.216919%)" fill-opacity="1" d="M 0.664062 29.34375 L 0.664062 27.652344 L 169.964844 27.652344 L 169.964844 29.34375 Z M 0.664062 29.34375 "/>
</g>
<g clip-path="url(#clip-5)">
<g clip-path="url(#clip-6)">
<path fill-rule="evenodd" fill="rgb(100%, 100%, 100%)" fill-opacity="1" d="M 34.625 13.824219 C 34.625 8.160156 30.03125 3.566406 24.367188 3.566406 C 18.699219 3.566406 14.105469 8.160156 14.105469 13.824219 C 14.105469 19.492188 18.699219 24.085938 24.367188 24.085938 C 30.03125 24.085938 34.625 19.492188 34.625 13.824219 Z M 39.09375 13.824219 C 39.09375 8.214844 34.546875 3.667969 28.9375 3.667969 C 23.328125 3.667969 18.777344 8.214844 18.777344 13.824219 C 18.777344 19.4375 23.328125 23.984375 28.9375 23.984375 C 34.546875 23.984375 39.09375 19.4375 39.09375 13.824219 Z M 39.09375 13.824219 "/>
</g>
</g>
<path fill-rule="nonzero" fill="rgb(100%, 100%, 100%)" fill-opacity="1" d="M 30.460938 19.496094 L 29.910156 21.191406 L 28.125 21.191406 L 29.570312 22.242188 L 29.015625 23.9375 L 30.460938 22.890625 L 31.902344 23.9375 L 31.351562 22.242188 L 32.796875 21.191406 L 31.011719 21.191406 Z M 30.460938 19.496094 "/>
<path fill-rule="nonzero" fill="rgb(100%, 100%, 100%)" fill-opacity="1" d="M 38.585938 19.496094 L 38.035156 21.191406 L 36.25 21.191406 L 37.695312 22.242188 L 37.144531 23.9375 L 38.585938 22.890625 L 40.03125 23.9375 L 39.480469 22.242188 L 40.921875 21.191406 L 39.136719 21.191406 Z M 38.585938 19.496094 "/>
<path fill-rule="nonzero" fill="rgb(100%, 100%, 100%)" fill-opacity="1" d="M 46.714844 19.496094 L 46.164062 21.191406 L 44.378906 21.191406 L 45.820312 22.242188 L 45.269531 23.9375 L 46.714844 22.890625 L 48.15625 23.9375 L 47.605469 22.242188 L 49.050781 21.191406 L 47.265625 21.191406 Z M 46.714844 19.496094 "/>
<path fill-rule="nonzero" fill="rgb(100%, 100%, 100%)" fill-opacity="1" d="M 54.839844 19.496094 L 54.289062 21.191406 L 52.503906 21.191406 L 53.949219 22.242188 L 53.398438 23.9375 L 54.839844 22.890625 L 56.28125 23.9375 L 55.730469 22.242188 L 57.175781 21.191406 L 55.390625 21.191406 Z M 54.839844 19.496094 "/>
<path fill-rule="nonzero" fill="rgb(100%, 100%, 100%)" fill-opacity="1" d="M 62.964844 19.496094 L 62.414062 21.191406 L 60.628906 21.191406 L 62.074219 22.242188 L 61.523438 23.9375 L 62.964844 22.890625 L 64.410156 23.9375 L 63.859375 22.242188 L 65.300781 21.191406 L 63.515625 21.191406 Z M 62.964844 19.496094 "/>
<path fill-rule="nonzero" fill="rgb(100%, 100%, 100%)" fill-opacity="1" d="M 38.585938 11.371094 L 38.035156 13.066406 L 36.25 13.066406 L 37.695312 14.117188 L 37.144531 15.8125 L 38.585938 14.765625 L 40.03125 15.8125 L 39.480469 14.117188 L 40.921875 13.066406 L 39.136719 13.066406 Z M 38.585938 11.371094 "/>
<path fill-rule="nonzero" fill="rgb(100%, 100%, 100%)" fill-opacity="1" d="M 46.714844 11.371094 L 46.164062 13.066406 L 44.378906 13.066406 L 45.820312 14.117188 L 45.269531 15.8125 L 46.714844 14.765625 L 48.15625 15.8125 L 47.605469 14.117188 L 49.050781 13.066406 L 47.265625 13.066406 Z M 46.714844 11.371094 "/>
<path fill-rule="nonzero" fill="rgb(100%, 100%, 100%)" fill-opacity="1" d="M 54.839844 11.371094 L 54.289062 13.066406 L 52.503906 13.066406 L 53.949219 14.117188 L 53.398438 15.8125 L 54.839844 14.765625 L 56.28125 15.8125 L 55.730469 14.117188 L 57.175781 13.066406 L 55.390625 13.066406 Z M 54.839844 11.371094 "/>
<path fill-rule="nonzero" fill="rgb(100%, 100%, 100%)" fill-opacity="1" d="M 62.964844 11.371094 L 62.414062 13.066406 L 60.628906 13.066406 L 62.074219 14.117188 L 61.523438 15.8125 L 62.964844 14.765625 L 64.410156 15.8125 L 63.859375 14.117188 L 65.300781 13.066406 L 63.515625 13.066406 Z M 62.964844 11.371094 "/>
<path fill-rule="nonzero" fill="rgb(100%, 100%, 100%)" fill-opacity="1" d="M 46.714844 3.242188 L 46.164062 4.941406 L 44.378906 4.941406 L 45.820312 5.988281 L 45.269531 7.683594 L 46.714844 6.636719 L 48.15625 7.683594 L 47.605469 5.988281 L 49.050781 4.941406 L 47.265625 4.941406 Z M 46.714844 3.242188 "/>
<path fill-rule="nonzero" fill="rgb(100%, 100%, 100%)" fill-opacity="1" d="M 54.839844 3.242188 L 54.289062 4.941406 L 52.503906 4.941406 L 53.949219 5.988281 L 53.398438 7.683594 L 54.839844 6.636719 L 56.28125 7.683594 L 55.730469 5.988281 L 57.175781 4.941406 L 55.390625 4.941406 Z M 54.839844 3.242188 "/>
<path fill-rule="nonzero" fill="rgb(100%, 100%, 100%)" fill-opacity="1" d="M 62.964844 3.242188 L 62.414062 4.941406 L 60.628906 4.941406 L 62.074219 5.988281 L 61.523438 7.683594 L 62.964844 6.636719 L 64.410156 7.683594 L 63.859375 5.988281 L 65.300781 4.941406 L 63.515625 4.941406 Z M 62.964844 3.242188 "/>
<g clip-path="url(#clip-7)">
<path fill="none" stroke-width="0.56693" stroke-linecap="butt" stroke-linejoin="miter" stroke="rgb(39.99939%, 39.99939%, 39.99939%)" stroke-opacity="1" stroke-miterlimit="10" d="M -85.039721 -42.521499 L -85.039721 42.520456 L 85.040264 42.520456 L 85.040264 -42.521499 Z M -85.039721 -42.521499 " transform="matrix(0.995419, 0, 0, -0.995419, 85.314183, 42.606903)"/>
</g>
</svg>
